0,0, Header,1,3,96,
1,0, Start_track,,,,
1,0, Time_signature,4,2,24,8
1,0, End_track,,,,
2,0, Start_track,,,,
2,0, Tempo,1111111,,,
2,0, Tempo,1153846,,,
2,0, Tempo,1153846,,,
2,864, Tempo,1176471,,,
2,1536, Tempo,1153846,,,
2,2304, Tempo,1176471,,,
2,3072, Tempo,1153846,,,
2,3839, Tempo,1176471,,,
2,4608, Tempo,1153846,,,
2,5280, Tempo,1132075,,,
2,5472, Tempo,1090909,,,
2,7488, Tempo,1111111,,,
2,7584, Tempo,1132075,,,
2,7680, Tempo,1153846,,,
2,8256, Tempo,1132075,,,
2,8544, Tempo,1111111,,,
2,10656, Tempo,1132075,,,
2,11520, Tempo,937500,,,
2,11904, Tempo,923077,,,
2,12288, Tempo,909091,,,
2,13056, Tempo,895522,,,
2,13872, Tempo,937500,,,
2,14112, Tempo,923077,,,
2,14208, Tempo,909091,,,
2,14400, Tempo,923077,,,
2,14592, Tempo,937500,,,
2,14976, Tempo,923077,,,
2,15360, Tempo,909091,,,
2,16128, Tempo,895522,,,
2,16944, Tempo,937500,,,
2,17184, Tempo,923077,,,
2,17280, Tempo,909091,,,
2,17472, Tempo,923077,,,
2,18432, Tempo,909091,,,
2,18815, Tempo,895522,,,
2,19536, Tempo,882353,,,
2,20352, Tempo,895522,,,
2,20544, Tempo,923077,,,
2,20640, Tempo,952381,,,
2,20736, Tempo,909091,,,
2,21503, Tempo,895522,,,
2,22272, Tempo,882353,,,
2,23039, Tempo,895522,,,
2,23184, Tempo,909091,,,
2,23376, Tempo,923077,,,
2,23616, Tempo,952381,,,
2,23808, Tempo,923077,,,
2,24576, Tempo,909091,,,
2,24959, Tempo,895522,,,
2,25680, Tempo,882353,,,
2,26496, Tempo,895522,,,
2,26688, Tempo,923077,,,
2,26784, Tempo,952381,,,
2,26880, Tempo,909091,,,
2,27647, Tempo,895522,,,
2,28416, Tempo,882353,,,
2,29183, Tempo,895522,,,
2,29328, Tempo,909091,,,
2,29520, Tempo,923077,,,
2,29568, Tempo,952381,,,
2,29760, Tempo,1016949,,,
2,29952, Tempo,1200000,,,
2,30720, Tempo,1176471,,,
2,32255, Tempo,1153846,,,
2,35232, Tempo,1176471,,,
2,35424, Tempo,1111111,,,
2,35592, Tempo,1090909,,,
2,35712, Tempo,1071429,,,
2,36360, Tempo,1052632,,,
2,37056, Tempo,1071429,,,
2,37397, Tempo,1090909,,,
2,37536, Tempo,1111111,,,
2,37632, Tempo,1132075,,,
2,38496, Tempo,1111111,,,
2,38880, Tempo,1090909,,,
2,39144, Tempo,1071429,,,
2,39264, Tempo,1052632,,,
2,39456, Tempo,1034483,,,
2,39744, Tempo,1052632,,,
2,39936, Tempo,1071429,,,
2,40128, Tempo,1090909,,,
2,40320, Tempo,1111111,,,
2,40512, Tempo,1132075,,,
2,40608, Tempo,1176471,,,
2,40704, Tempo,1200000,,,
2,40896, Tempo,1224490,,,
2,41064, Tempo,1250000,,,
2,41088, Tempo,1304348,,,
2,41184, Tempo,1463415,,,
2,41184, End_track,,,,
3,0, Start_track,,,,
3,0, Title_t," ""Piano""",,,
3,0, Control_c,0,10,63,
3,0, Control_c,0,7,105,
3,0, Pitch_bend_c,0,8192,,
3,0, Control_c,0,101,0,
3,0, Control_c,0,100,0,
3,0, Control_c,0,6,12,
3,0, Control_c,0,10,63,
3,0, Control_c,0,7,105,
3,0, Pitch_bend_c,0,8192,,
3,0, Program_c,0,0,,
3,0, Control_c,0,64,0,
3,0, Control_c,0,101,0,
3,0, Control_c,0,100,0,
3,0, Control_c,0,6,12,
3,0, Control_c,0,10,63,
3,0, Control_c,0,7,105,
3,0, Pitch_bend_c,0,8192,,
3,0, Program_c,0,0,,
3,0, Control_c,0,64,0,
3,0, Program_c,0,0,,
3,0, Control_c,0,64,0,
3,0, Control_c,0,10,63,
3,0, Control_c,0,7,105,
3,0, Control_c,0,101,0,
3,0, Control_c,0,100,0,
3,0, Control_c,0,6,12,
3,0, Control_c,0,10,63,
3,0, Control_c,0,7,105,
3,0, Pitch_bend_c,0,8192,,
3,0, Program_c,0,0,,
3,0, Control_c,0,64,0,
3,0, Program_c,0,0,,
3,0, Control_c,0,64,0,
3,0, Control_c,0,10,63,
3,0, Control_c,0,7,105,
3,0, Note_on_c,0,46.0,39,
3,0, Note_on_c,0,34.0,40,
3,0, Note_on_c,0,37.0,39,
3,0, Note_on_c,0,41.0,38,
3,0, Note_on_c,0,42.0,40,
3,96, Note_on_c,0,58.0,42,
3,96, Note_on_c,0,53.0,44,
3,96, Note_off_c,0,34.0,0,
3,96, Note_off_c,0,53.0,0,
3,96, Note_off_c,0,37.0,0,
3,96, Note_on_c,0,70.0,44,
3,96, Note_off_c,0,58.0,0,
3,96, Note_on_c,0,58.0,40,
3,96, Note_off_c,0,46.0,0,
3,96, Note_on_c,0,68.0,39,
3,192, Note_on_c,0,34.0,42,
3,192, Note_off_c,0,41.0,0,
3,192, Note_on_c,0,61.0,43,
3,192, Note_off_c,0,61.0,0,
3,192, Note_on_c,0,60.0,43,
3,192, Note_on_c,0,46.0,43,
3,192, Note_off_c,0,68.0,0,
3,192, Note_on_c,0,54.0,42,
3,192, Note_off_c,0,46.0,0,
3,192, Note_on_c,0,37.0,43,
3,192, Note_on_c,0,49.0,45,
3,192, Note_on_c,0,41.0,48,
3,288, Note_off_c,0,37.0,0,
3,288, Note_off_c,0,41.0,0,
3,288, Note_off_c,0,58.0,0,
3,288, Note_off_c,0,49.0,0,
3,288, Note_off_c,0,54.0,0,
3,288, Note_on_c,0,41.0,47,
3,288, Note_off_c,0,60.0,0,
3,288, Note_on_c,0,46.0,45,
3,384, Note_on_c,0,61.0,43,
3,384, Note_on_c,0,58.0,42,
3,384, Note_off_c,0,42.0,0,
3,384, Note_on_c,0,68.0,43,
3,384, Note_off_c,0,34.0,0,
3,384, Note_on_c,0,82.0,44,
3,384, Note_off_c,0,68.0,0,
3,384, Note_off_c,0,61.0,0,
3,384, Note_off_c,0,58.0,0,
3,384, Note_on_c,0,78.0,44,
3,480, Note_on_c,0,49.0,45,
3,480, Note_on_c,0,34.0,45,
3,480, Note_on_c,0,58.0,45,
3,480, Note_on_c,0,54.0,44,
3,480, Note_on_c,0,65.0,44,
3,480, Note_on_c,0,42.0,43,
3,480, Note_off_c,0,70.0,0,
3,480, Note_on_c,0,37.0,43,
3,480, Note_on_c,0,70.0,43,
3,480, Note_off_c,0,58.0,0,
3,576, Note_off_c,0,42.0,0,
3,576, Note_on_c,0,42.0,42,
3,576, Note_on_c,0,61.0,42,
3,576, Note_off_c,0,34.0,0,
3,576, Note_off_c,0,46.0,0,
3,576, Note_off_c,0,42.0,0,
3,576, Note_on_c,0,46.0,42,
3,576, Note_off_c,0,41.0,0,
3,576, Note_on_c,0,34.0,42,
3,576, Note_on_c,0,42.0,42,
3,576, Note_off_c,0,42.0,0,
3,576, Note_off_c,0,70.0,0,
3,672, Note_off_c,0,34.0,0,
3,672, Note_off_c,0,65.0,0,
3,672, Note_off_c,0,61.0,0,
3,672, Note_off_c,0,49.0,0,
3,672, Note_on_c,0,41.0,42,
3,672, Note_on_c,0,58.0,42,
3,672, Note_on_c,0,77.0,42,
3,672, Note_on_c,0,70.0,42,
3,768, Note_off_c,0,58.0,0,
3,768, Note_off_c,0,46.0,0,
3,768, Note_on_c,0,53.0,42,
3,768, Note_off_c,0,37.0,0,
3,768, Note_on_c,0,34.0,41,
3,768, Note_on_c,0,66.0,49,
3,768, Note_off_c,0,34.0,0,
3,768, Note_on_c,0,42.0,53,
3,768, Note_on_c,0,46.0,45,
3,768, Note_on_c,0,58.0,46,
3,864, Note_off_c,0,53.0,0,
3,864, Note_off_c,0,46.0,0,
3,864, Note_on_c,0,46.0,45,
3,864, Note_off_c,0,41.0,0,
3,864, Note_on_c,0,60.0,48,
3,864, Note_on_c,0,73.0,61,
3,864, Note_off_c,0,73.0,0,
3,864, Note_off_c,0,58.0,0,
3,864, Note_on_c,0,58.0,52,
3,864, Note_on_c,0,49.0,41,
3,960, Note_on_c,0,34.0,43,
3,960, Note_on_c,0,65.0,41,
3,960, Note_off_c,0,34.0,0,
3,960, Note_off_c,0,42.0,0,
3,960, Note_on_c,0,80.0,48,
3,960, Note_on_c,0,61.0,55,
3,960, Note_off_c,0,54.0,0,
3,960, Note_on_c,0,37.0,43,
3,960, Note_off_c,0,58.0,0,
3,960, Note_on_c,0,34.0,43,
3,960, Note_off_c,0,46.0,0,
3,960, Note_off_c,0,37.0,0,
3,1056, Note_on_c,0,54.0,45,
3,1056, Note_on_c,0,58.0,48,
3,1056, Note_on_c,0,46.0,60,
3,1056, Note_off_c,0,46.0,0,
3,1056, Note_on_c,0,46.0,57,
3,1056, Note_on_c,0,53.0,55,
3,1056, Note_off_c,0,46.0,0,
3,1056, Note_on_c,0,46.0,43,
3,1056, Note_off_c,0,58.0,0,
3,1056, Note_off_c,0,46.0,0,
3,1152, Note_on_c,0,58.0,44,
3,1152, Note_off_c,0,70.0,0,
3,1152, Note_off_c,0,49.0,0,
3,1152, Note_off_c,0,61.0,0,
3,1152, Note_on_c,0,42.0,43,
3,1152, Note_on_c,0,37.0,41,
3,1152, Note_on_c,0,49.0,58,
3,1152, Note_off_c,0,34.0,0,
3,1152, Note_off_c,0,58.0,0,
3,1152, Note_on_c,0,61.0,54,
3,1152, Note_off_c,0,65.0,0,
3,1152, Note_on_c,0,65.0,45,
3,1152, Note_on_c,0,46.0,43,
3,1152, Note_on_c,0,58.0,44,
3,1248, Note_off_c,0,42.0,0,
3,1248, Note_on_c,0,70.0,41,
3,1248, Note_on_c,0,42.0,59,
3,1248, Note_off_c,0,46.0,0,
3,1248, Note_on_c,0,41.0,56,
3,1248, Note_off_c,0,53.0,0,
3,1248, Note_off_c,0,78.0,0,
3,1248, Note_off_c,0,77.0,0,
3,1248, Note_off_c,0,41.0,0,
3,1248, Note_on_c,0,46.0,48,
3,1248, Note_on_c,0,73.0,45,
3,1248, Note_off_c,0,46.0,0,
3,1344, Note_on_c,0,41.0,46,
3,1344, Note_off_c,0,54.0,0,
3,1344, Note_on_c,0,78.0,39,
3,1344, Note_off_c,0,42.0,0,
3,1344, Note_off_c,0,58.0,0,
3,1344, Note_on_c,0,58.0,57,
3,1344, Note_off_c,0,41.0,0,
3,1344, Note_off_c,0,60.0,0,
3,1344, Note_off_c,0,49.0,0,
3,1344, Note_off_c,0,61.0,0,
3,1344, Note_on_c,0,42.0,45,
3,1344, Note_on_c,0,34.0,42,
3,1440, Note_on_c,0,60.0,44,
3,1440, Note_off_c,0,58.0,0,
3,1440, Note_off_c,0,37.0,0,
3,1440, Note_on_c,0,58.0,43,
3,1440, Note_off_c,0,58.0,0,
3,1440, Note_on_c,0,63.0,43,
3,1440, Note_off_c,0,70.0,0,
3,1440, Note_off_c,0,73.0,0,
3,1536, Note_on_c,0,58.0,44,
3,1536, Note_off_c,0,60.0,0,
3,1536, Note_off_c,0,34.0,0,
3,1536, Note_on_c,0,68.0,43,
3,1536, Note_on_c,0,34.0,41,
3,1536, Note_on_c,0,41.0,62,
3,1536, Note_on_c,0,49.0,70,
3,1536, Note_off_c,0,58.0,0,
3,1536, Note_off_c,0,65.0,0,
3,1536, Note_off_c,0,34.0,0,
3,1536, Note_on_c,0,53.0,49,
3,1632, Note_off_c,0,49.0,0,
3,1632, Note_off_c,0,42.0,0,
3,1632, Note_on_c,0,73.0,42,
3,1632, Note_on_c,0,60.0,45,
3,1632, Note_off_c,0,68.0,0,
3,1632, Note_on_c,0,61.0,44,
3,1632, Note_on_c,0,42.0,42,
3,1632, Note_off_c,0,60.0,0,
3,1632, Note_off_c,0,41.0,0,
3,1632, Note_off_c,0,61.0,0,
3,1632, Note_on_c,0,60.0,58,
3,1632, Note_on_c,0,58.0,67,
3,1728, Note_off_c,0,42.0,0,
3,1728, Note_on_c,0,42.0,50,
3,1728, Note_on_c,0,61.0,44,
3,1728, Note_on_c,0,68.0,46,
3,1728, Note_on_c,0,37.0,40,
3,1728, Note_off_c,0,58.0,0,
3,1728, Note_on_c,0,58.0,55,
3,1728, Note_off_c,0,58.0,0,
3,1728, Note_off_c,0,82.0,0,
3,1728, Note_on_c,0,49.0,68,
3,1728, Note_on_c,0,41.0,52,
3,1728, Note_off_c,0,53.0,0,
3,1728, Note_on_c,0,46.0,44,
3,1728, Note_on_c,0,53.0,47,
3,1824, Note_off_c,0,61.0,0,
3,1824, Note_on_c,0,61.0,41,
3,1824, Note_on_c,0,58.0,57,
3,1824, Note_off_c,0,60.0,0,
3,1824, Note_off_c,0,42.0,0,
3,1824, Note_off_c,0,66.0,0,
3,1824, Note_off_c,0,61.0,0,
3,1824, Note_on_c,0,60.0,76,
3,1824, Note_on_c,0,65.0,69,
3,1824, Note_off_c,0,68.0,0,
3,1824, Note_on_c,0,61.0,66,
3,1824, Note_off_c,0,58.0,0,
3,1920, Note_on_c,0,58.0,69,
3,1920, Note_on_c,0,66.0,53,
3,1920, Note_off_c,0,37.0,0,
3,1920, Note_off_c,0,61.0,0,
3,1920, Note_on_c,0,42.0,40,
3,1920, Note_on_c,0,61.0,42,
3,1920, Note_off_c,0,41.0,0,
3,1920, Note_on_c,0,41.0,42,
3,1920, Note_on_c,0,37.0,53,
3,1920, Note_off_c,0,53.0,0,
3,1920, Note_on_c,0,34.0,67,
3,1920, Note_off_c,0,37.0,0,
3,1920, Note_off_c,0,41.0,0,
3,1920, Note_off_c,0,61.0,0,
3,1920, Note_on_c,0,61.0,66,
3,1920, Note_off_c,0,58.0,0,
3,1920, Note_on_c,0,54.0,68,
3,1920, Note_off_c,0,49.0,0,
3,2016, Note_on_c,0,49.0,60,
3,2016, Note_on_c,0,41.0,43,
3,2016, Note_on_c,0,37.0,45,
3,2016, Note_off_c,0,37.0,0,
3,2016, Note_on_c,0,37.0,44,
3,2016, Note_off_c,0,80.0,0,
3,2016, Note_off_c,0,61.0,0,
3,2016, Note_off_c,0,65.0,0,
3,2016, Note_off_c,0,41.0,0,
3,2016, Note_off_c,0,54.0,0,
3,2016, Note_on_c,0,41.0,50,
3,2016, Note_off_c,0,37.0,0,
3,2016, Note_on_c,0,58.0,68,
3,2016, Note_on_c,0,37.0,65,
3,2016, Note_off_c,0,46.0,0,
3,2016, Note_off_c,0,58.0,0,
3,2112, Note_off_c,0,41.0,0,
3,2112, Note_on_c,0,61.0,72,
3,2112, Note_off_c,0,34.0,0,
3,2112, Note_off_c,0,61.0,0,
3,2112, Note_off_c,0,49.0,0,
3,2112, Note_on_c,0,46.0,61,
3,2112, Note_on_c,0,34.0,39,
3,2112, Note_off_c,0,42.0,0,
3,2112, Note_on_c,0,58.0,42,
3,2112, Note_on_c,0,65.0,40,
3,2112, Note_on_c,0,41.0,51,
3,2112, Note_on_c,0,61.0,74,
3,2112, Note_off_c,0,58.0,0,
3,2112, Note_off_c,0,34.0,0,
3,2112, Note_on_c,0,70.0,66,
3,2112, Note_off_c,0,61.0,0,
3,2208, Note_on_c,0,53.0,41,
3,2208, Note_off_c,0,65.0,0,
3,2208, Note_off_c,0,37.0,0,
3,2208, Note_on_c,0,54.0,43,
3,2208, Note_off_c,0,46.0,0,
3,2208, Note_on_c,0,46.0,43,
3,2208, Note_on_c,0,68.0,42,
3,2208, Note_on_c,0,34.0,42,
3,2304, Note_on_c,0,61.0,41,
3,2304, Note_off_c,0,61.0,0,
3,2304, Note_off_c,0,46.0,0,
3,2304, Note_on_c,0,65.0,43,
3,2304, Note_off_c,0,41.0,0,
3,2304, Note_on_c,0,49.0,46,
3,2304, Note_off_c,0,54.0,0,
3,2304, Note_off_c,0,63.0,0,
3,2304, Note_off_c,0,65.0,0,
3,2304, Note_on_c,0,58.0,49,
3,2304, Note_on_c,0,77.0,79,
3,2304, Note_off_c,0,58.0,0,
3,2400, Note_off_c,0,68.0,0,
3,2400, Note_off_c,0,34.0,0,
3,2400, Note_on_c,0,46.0,69,
3,2400, Note_off_c,0,70.0,0,
3,2400, Note_on_c,0,68.0,62,
3,2400, Note_on_c,0,37.0,44,
3,2400, Note_off_c,0,49.0,0,
3,2400, Note_off_c,0,37.0,0,
3,2400, Note_off_c,0,46.0,0,
3,2400, Note_on_c,0,37.0,45,
3,2400, Note_on_c,0,46.0,44,
3,2400, Note_on_c,0,61.0,42,
3,2400, Note_off_c,0,61.0,0,
3,2400, Note_on_c,0,58.0,46,
3,2400, Note_on_c,0,61.0,61,
3,2400, Note_off_c,0,58.0,0,
3,2496, Note_off_c,0,73.0,0,
3,2496, Note_off_c,0,61.0,0,
3,2496, Note_on_c,0,41.0,64,
3,2496, Note_off_c,0,46.0,0,
3,2496, Note_off_c,0,53.0,0,
3,2496, Note_off_c,0,41.0,0,
3,2496, Note_on_c,0,34.0,44,
3,2496, Note_on_c,0,42.0,42,
3,2496, Note_on_c,0,73.0,43,
3,2496, Note_off_c,0,42.0,0,
3,2496, Note_on_c,0,41.0,42,
3,2496, Note_on_c,0,61.0,41,
3,2496, Note_on_c,0,58.0,63,
3,2496, Note_on_c,0,54.0,47,
3,2592, Note_on_c,0,42.0,43,
3,2592, Note_off_c,0,58.0,0,
3,2592, Note_on_c,0,53.0,43,
3,2592, Note_off_c,0,61.0,0,
3,2592, Note_on_c,0,61.0,41,
3,2592, Note_on_c,0,58.0,51,
3,2592, Note_on_c,0,49.0,46,
3,2592, Note_off_c,0,54.0,0,
3,2592, Note_off_c,0,58.0,0,
3,2592, Note_off_c,0,61.0,0,
3,2592, Note_on_c,0,70.0,40,
3,2688, Note_on_c,0,58.0,43,
3,2688, Note_off_c,0,49.0,0,
3,2688, Note_on_c,0,49.0,44,
3,2688, Note_off_c,0,42.0,0,
3,2688, Note_off_c,0,49.0,0,
3,2688, Note_on_c,0,42.0,41,
3,2688, Note_off_c,0,73.0,0,
3,2688, Note_on_c,0,46.0,71,
3,2688, Note_off_c,0,58.0,0,
3,2688, Note_off_c,0,68.0,0,
3,2688, Note_off_c,0,42.0,0,
3,2784, Note_on_c,0,49.0,75,
3,2784, Note_on_c,0,58.0,67,
3,2784, Note_on_c,0,73.0,51,
3,2784, Note_off_c,0,66.0,0,
3,2784, Note_off_c,0,49.0,0,
3,2784, Note_off_c,0,34.0,0,
3,2784, Note_on_c,0,66.0,42,
3,2784, Note_off_c,0,41.0,0,
3,2784, Note_off_c,0,37.0,0,
3,2784, Note_off_c,0,46.0,0,
3,2784, Note_on_c,0,46.0,45,
3,2784, Note_on_c,0,54.0,44,
3,2784, Note_on_c,0,49.0,40,
3,2784, Note_on_c,0,41.0,57,
3,2784, Note_off_c,0,41.0,0,
3,2784, Note_on_c,0,61.0,67,
3,2880, Note_off_c,0,58.0,0,
3,2880, Note_off_c,0,70.0,0,
3,2880, Note_on_c,0,58.0,51,
3,2880, Note_off_c,0,58.0,0,
3,2880, Note_on_c,0,42.0,41,
3,2880, Note_off_c,0,42.0,0,
3,2880, Note_off_c,0,61.0,0,
3,2880, Note_on_c,0,37.0,44,
3,2880, Note_on_c,0,61.0,45,
3,2880, Note_on_c,0,41.0,42,
3,2880, Note_on_c,0,58.0,57,
3,2880, Note_off_c,0,49.0,0,
3,2880, Note_on_c,0,42.0,56,
3,2880, Note_off_c,0,46.0,0,
3,2976, Note_on_c,0,34.0,43,
3,2976, Note_off_c,0,58.0,0,
3,2976, Note_on_c,0,68.0,45,
3,2976, Note_on_c,0,58.0,44,
3,2976, Note_off_c,0,58.0,0,
3,2976, Note_on_c,0,58.0,50,
3,2976, Note_off_c,0,73.0,0,
3,2976, Note_off_c,0,37.0,0,
3,2976, Note_on_c,0,46.0,48,
3,2976, Note_on_c,0,73.0,41,
3,2976, Note_off_c,0,61.0,0,
3,3072, Note_on_c,0,80.0,41,
3,3072, Note_off_c,0,34.0,0,
3,3072, Note_on_c,0,61.0,47,
3,3072, Note_off_c,0,53.0,0,
3,3072, Note_off_c,0,61.0,0,
3,3072, Note_on_c,0,49.0,60,
3,3072, Note_off_c,0,46.0,0,
3,3072, Note_on_c,0,61.0,57,
3,3072, Note_off_c,0,61.0,0,
3,3072, Note_off_c,0,42.0,0,
3,3168, Note_off_c,0,49.0,0,
3,3168, Note_on_c,0,42.0,41,
3,3168, Note_off_c,0,58.0,0,
3,3168, Note_on_c,0,37.0,43,
3,3168, Note_off_c,0,73.0,0,
3,3168, Note_on_c,0,61.0,46,
3,3168, Note_on_c,0,58.0,59,
3,3168, Note_off_c,0,58.0,0,
3,3168, Note_off_c,0,41.0,0,
3,3168, Note_on_c,0,41.0,66,
3,3264, Note_off_c,0,41.0,0,
3,3264, Note_off_c,0,54.0,0,
3,3264, Note_on_c,0,53.0,59,
3,3264, Note_off_c,0,80.0,0,
3,3264, Note_on_c,0,65.0,45,
3,3264, Note_on_c,0,49.0,45,
3,3264, Note_off_c,0,37.0,0,
3,3264, Note_off_c,0,42.0,0,
3,3264, Note_on_c,0,46.0,50,
3,3264, Note_on_c,0,73.0,59,
3,3264, Note_off_c,0,77.0,0,
3,3264, Note_on_c,0,63.0,61,
3,3360, Note_off_c,0,65.0,0,
3,3360, Note_on_c,0,80.0,48,
3,3360, Note_off_c,0,49.0,0,
3,3360, Note_on_c,0,34.0,47,
3,3360, Note_off_c,0,61.0,0,
3,3360, Note_off_c,0,66.0,0,
3,3360, Note_on_c,0,61.0,53,
3,3360, Note_on_c,0,37.0,60,
3,3360, Note_off_c,0,60.0,0,
3,3360, Note_on_c,0,49.0,66,
3,3456, Note_off_c,0,37.0,0,
3,3456, Note_off_c,0,61.0,0,
3,3456, Note_on_c,0,82.0,68,
3,3456, Note_on_c,0,42.0,62,
3,3456, Note_off_c,0,53.0,0,
3,3456, Note_off_c,0,34.0,0,
3,3456, Note_off_c,0,42.0,0,
3,3456, Note_on_c,0,34.0,50,
3,3456, Note_on_c,0,61.0,50,
3,3456, Note_on_c,0,42.0,51,
3,3456, Note_off_c,0,49.0,0,
3,3456, Note_off_c,0,42.0,0,
3,3456, Note_off_c,0,46.0,0,
3,3456, Note_off_c,0,61.0,0,
3,3552, Note_on_c,0,53.0,56,
3,3552, Note_on_c,0,41.0,66,
3,3552, Note_on_c,0,49.0,67,
3,3552, Note_on_c,0,61.0,52,
3,3552, Note_off_c,0,61.0,0,
3,3552, Note_on_c,0,54.0,50,
3,3552, Note_off_c,0,54.0,0,
3,3552, Note_off_c,0,34.0,0,
3,3552, Note_off_c,0,73.0,0,
3,3552, Note_off_c,0,49.0,0,
3,3552, Note_off_c,0,53.0,0,
3,3552, Note_on_c,0,37.0,52,
3,3648, Note_on_c,0,42.0,59,
3,3648, Note_on_c,0,65.0,70,
3,3648, Note_off_c,0,65.0,0,
3,3648, Note_on_c,0,60.0,74,
3,3648, Note_on_c,0,49.0,55,
3,3648, Note_on_c,0,54.0,54,
3,3648, Note_on_c,0,34.0,54,
3,3648, Note_on_c,0,73.0,66,
3,3648, Note_off_c,0,34.0,0,
3,3648, Note_on_c,0,77.0,77,
3,3648, Note_off_c,0,49.0,0,
3,3648, Note_off_c,0,41.0,0,
3,3744, Note_on_c,0,41.0,58,
3,3744, Note_off_c,0,73.0,0,
3,3744, Note_on_c,0,49.0,55,
3,3744, Note_off_c,0,60.0,0,
3,3744, Note_on_c,0,46.0,55,
3,3744, Note_off_c,0,42.0,0,
3,3744, Note_on_c,0,58.0,73,
3,3744, Note_on_c,0,53.0,92,
3,3840, Note_on_c,0,66.0,63,
3,3840, Note_off_c,0,68.0,0,
3,3840, Note_off_c,0,41.0,0,
3,3840, Note_off_c,0,37.0,0,
3,3840, Note_on_c,0,73.0,56,
3,3840, Note_on_c,0,61.0,54,
3,3840, Note_off_c,0,53.0,0,
3,3840, Note_on_c,0,53.0,87,
3,3840, Note_off_c,0,53.0,0,
3,3840, Note_on_c,0,37.0,95,
3,3840, Note_off_c,0,49.0,0,
3,3840, Note_off_c,0,58.0,0,
3,3840, Note_on_c,0,65.0,85,
3,3840, Note_on_c,0,41.0,79,
3,3840, Note_off_c,0,37.0,0,
3,3936, Note_off_c,0,73.0,0,
3,3936, Note_on_c,0,37.0,76,
3,3936, Note_off_c,0,46.0,0,
3,3936, Note_on_c,0,53.0,77,
3,3936, Note_on_c,0,42.0,77,
3,3936, Note_off_c,0,65.0,0,
3,3936, Note_off_c,0,41.0,0,
3,3936, Note_off_c,0,61.0,0,
3,3936, Note_on_c,0,61.0,63,
3,3936, Note_on_c,0,60.0,57,
3,3936, Note_on_c,0,49.0,57,
3,3936, Note_on_c,0,41.0,69,
3,3936, Note_on_c,0,58.0,78,
3,3936, Note_on_c,0,46.0,75,
3,3936, Note_off_c,0,66.0,0,
3,3936, Note_off_c,0,82.0,0,
3,4032, Note_off_c,0,49.0,0,
3,4032, Note_off_c,0,53.0,0,
3,4032, Note_on_c,0,65.0,77,
3,4032, Note_on_c,0,34.0,63,
3,4032, Note_off_c,0,37.0,0,
3,4032, Note_off_c,0,65.0,0,
3,4032, Note_off_c,0,41.0,0,
3,4032, Note_off_c,0,61.0,0,
3,4032, Note_off_c,0,34.0,0,
3,4032, Note_on_c,0,34.0,54,
3,4032, Note_off_c,0,77.0,0,
3,4032, Note_on_c,0,41.0,53,
3,4032, Note_on_c,0,70.0,66,
3,4032, Note_off_c,0,34.0,0,
3,4032, Note_off_c,0,42.0,0,
3,4032, Note_on_c,0,37.0,77,
3,4128, Note_on_c,0,53.0,76,
3,4128, Note_off_c,0,46.0,0,
3,4128, Note_off_c,0,58.0,0,
3,4128, Note_on_c,0,49.0,66,
3,4128, Note_on_c,0,61.0,56,
3,4128, Note_off_c,0,61.0,0,
3,4128, Note_on_c,0,61.0,56,
3,4128, Note_off_c,0,37.0,0,
3,4128, Note_on_c,0,42.0,62,
3,4128, Note_off_c,0,41.0,0,
3,4128, Note_off_c,0,49.0,0,
3,4128, Note_off_c,0,42.0,0,
3,4224, Note_on_c,0,46.0,70,
3,4224, Note_off_c,0,61.0,0,
3,4224, Note_on_c,0,77.0,70,
3,4224, Note_off_c,0,53.0,0,
3,4224, Note_off_c,0,60.0,0,
3,4224, Note_off_c,0,54.0,0,
3,4224, Note_on_c,0,49.0,64,
3,4224, Note_off_c,0,70.0,0,
3,4224, Note_off_c,0,77.0,0,
3,4224, Note_on_c,0,34.0,56,
3,4224, Note_on_c,0,65.0,54,
3,4224, Note_on_c,0,68.0,69,
3,4224, Note_on_c,0,41.0,96,
3,4224, Note_off_c,0,34.0,0,
3,4224, Note_on_c,0,42.0,84,
3,4224, Note_on_c,0,61.0,73,
3,4320, Note_off_c,0,49.0,0,
3,4320, Note_on_c,0,34.0,81,
3,4320, Note_off_c,0,34.0,0,
3,4320, Note_off_c,0,41.0,0,
3,4320, Note_on_c,0,37.0,79,
3,4320, Note_on_c,0,73.0,77,
3,4320, Note_on_c,0,58.0,79,
3,4320, Note_on_c,0,41.0,73,
3,4320, Note_on_c,0,49.0,58,
3,4320, Note_off_c,0,37.0,0,
3,4320, Note_off_c,0,41.0,0,
3,4320, Note_off_c,0,80.0,0,
3,4320, Note_off_c,0,46.0,0,
3,4320, Note_on_c,0,77.0,58,
3,4320, Note_on_c,0,54.0,63,
3,4320, Note_on_c,0,53.0,79,
3,4416, Note_off_c,0,54.0,0,
3,4416, Note_off_c,0,53.0,0,
3,4416, Note_off_c,0,58.0,0,
3,4416, Note_on_c,0,53.0,78,
3,4416, Note_on_c,0,46.0,77,
3,4416, Note_off_c,0,49.0,0,
3,4416, Note_off_c,0,61.0,0,
3,4416, Note_off_c,0,77.0,0,
3,4416, Note_off_c,0,42.0,0,
3,4416, Note_on_c,0,58.0,75,
3,4416, Note_on_c,0,41.0,57,
3,4416, Note_off_c,0,41.0,0,
3,4416, Note_on_c,0,61.0,58,
3,4416, Note_off_c,0,58.0,0,
3,4416, Note_on_c,0,54.0,60,
3,4416, Note_off_c,0,46.0,0,
3,4512, Note_off_c,0,61.0,0,
3,4512, Note_on_c,0,41.0,76,
3,4512, Note_off_c,0,54.0,0,
3,4512, Note_on_c,0,42.0,75,
3,4512, Note_off_c,0,53.0,0,
3,4512, Note_off_c,0,42.0,0,
3,4512, Note_on_c,0,58.0,73,
3,4512, Note_on_c,0,60.0,58,
3,4512, Note_on_c,0,34.0,56,
3,4512, Note_off_c,0,41.0,0,
3,4512, Note_off_c,0,34.0,0,
3,4512, Note_off_c,0,68.0,0,
3,4512, Note_off_c,0,58.0,0,
3,4512, Note_on_c,0,54.0,61,
3,4512, Note_on_c,0,53.0,66,
3,4512, Note_on_c,0,49.0,69,
3,4512, Note_on_c,0,46.0,68,
3,4512, Note_on_c,0,37.0,65,
3,4608, End_track,,,,
0,0, End_of_file,,,,
