0, 0, Header, 1, 2, 256,
1, 0, Start_track,,,,
1, 0, Time_signature, 1, 2, 24, 8
1, 0, Key_signature, -3," ""major""",,
1, 0, Tempo, 857142,,,
1, 0, Title_t," ""The Last Post""",,,
1, 0, Text_t," ""Traditional""",,,
1, 256, Time_signature, 3, 2, 24, 8
1, 16896, Tempo, 882351,,,
1, 17152, Tempo, 909089,,,
1, 17664, Tempo, 967740,,,
1, 17920, Tempo, 1153845,,,
1, 17920, Time_signature, 2, 2, 24, 8
1, 18432, Tempo, 1153844,,,
1, 18432, Tempo, 857142,,,
1, 18432, Time_signature, 3, 2, 24, 8
1, 18432, Time_signature, 1, 2, 24, 8
1, 18688, Time_signature, 3, 2, 24, 8
1, 35328, Tempo, 882351,,,
1, 35584, Tempo, 909089,,,
1, 36096, Tempo, 967740,,,
1, 36352, Tempo, 1153845,,,
1, 36352, Time_signature, 2, 2, 24, 8
1, 36353, End_track,,,,
2, 0, Start_track,,,,
2, 0, Program_c, 0, 0,,
2, 0, Control_c, 0, 121, 0,
2, 0, Control_c, 0, 64, 0,
2, 0, Control_c, 0, 91, 48,
2, 0, Control_c, 0, 10, 51,
2, 0, Control_c, 0, 7, 127,
2, 0, Note_on_c, 0, 67, 75,
2, 0, Note_on_c, 0, 63, 68,
2, 0, Control_c, 0, 121, 0,
2, 0, Control_c, 0, 64, 0,
2, 0, Control_c, 0, 91, 48,
2, 0, Control_c, 0, 10, 51,
2, 0, Control_c, 0, 7, 127,
2, 0, Title_t," ""Piano""",,,
2,0, Note_on_c, 0,51.0,68,
2,0, Note_on_c, 0,39.0,70,
2,128, Note_on_c, 0,67.0,83,
2,128, Note_on_c, 0,70.0,83,
2,256, Note_on_c, 0,44.0,85,
2,256, Note_on_c, 0,51.0,75,
2,256, Note_off_c, 0,39.0,0,
2,256, Note_on_c, 0,68.0,80,
2,256, Note_off_c, 0,51.0,0,
2,256, Note_on_c, 0,72.0,88,
2,256, Note_off_c, 0,70.0,0,
2,256, Note_on_c, 0,63.0,86,
2,256, Note_off_c, 0,63.0,0,
2,640, Note_off_c, 0,72.0,0,
2,640, Note_on_c, 0,77.0,81,
2,768, Note_on_c, 0,50.0,71,
2,768, Note_off_c, 0,44.0,0,
2,768, Note_on_c, 0,46.0,85,
2,768, Note_on_c, 0,53.0,88,
2,768, Note_on_c, 0,51.0,82,
2,768, Note_off_c, 0,51.0,0,
2,768, Note_on_c, 0,62.0,80,
2,768, Note_off_c, 0,58.0,0,
2,768, Note_on_c, 0,60.0,70,
2,768, Note_on_c, 0,58.0,69,
2,768, Note_off_c, 0,60.0,0,
2,896, Note_off_c, 0,77.0,0,
2,960, Note_on_c, 0,65.0,83,
2,960, Note_off_c, 0,67.0,0,
2,1024, Note_off_c, 0,58.0,0,
2,1024, Note_on_c, 0,51.0,74,
2,1024, Note_off_c, 0,51.0,0,
2,1024, Note_on_c, 0,53.0,75,
2,1024, Note_off_c, 0,60.0,0,
2,1024, Note_on_c, 0,56.0,82,
2,1024, Note_on_c, 0,60.0,86,
2,1024, Note_on_c, 0,58.0,80,
2,1024, Note_off_c, 0,53.0,0,
2,1024, Note_off_c, 0,65.0,0,
2,1152, Note_on_c, 0,55.0,75,
2,1152, Note_off_c, 0,55.0,0,
2,1280, Note_on_c, 0,63.0,72,
2,1280, Note_on_c, 0,75.0,76,
2,1536, Note_on_c, 0,65.0,77,
2,1536, Note_off_c, 0,75.0,0,
2,1536, Note_on_c, 0,79.0,78,
2,1536, Note_off_c, 0,63.0,0,
2,1536, Note_off_c, 0,56.0,0,
2,1536, Note_on_c, 0,62.0,73,
2,1536, Note_on_c, 0,70.0,70,
2,1536, Note_off_c, 0,62.0,0,
2,1536, Note_on_c, 0,56.0,78,
2,1792, Note_on_c, 0,67.0,73,
2,1792, Note_off_c, 0,60.0,0,
2,1792, Note_on_c, 0,75.0,72,
2,1792, Note_off_c, 0,70.0,0,
2,1792, Note_off_c, 0,50.0,0,
2,1792, Note_on_c, 0,74.0,77,
2,1792, Note_on_c, 0,72.0,84,
2,1792, Note_off_c, 0,51.0,0,
2,1792, Note_on_c, 0,60.0,73,
2,1792, Note_off_c, 0,74.0,0,
2,1920, Note_on_c, 0,51.0,66,
2,1920, Note_on_c, 0,58.0,74,
2,2048, Note_on_c, 0,48.0,79,
2,2048, Note_off_c, 0,79.0,0,
2,2304, Note_on_c, 0,77.0,73,
2,2304, Note_off_c, 0,72.0,0,
2,2304, Note_off_c, 0,67.0,0,
2,2304, Note_off_c, 0,75.0,0,
2,2304, Note_off_c, 0,51.0,0,
2,2304, Note_on_c, 0,50.0,64,
2,2304, Note_off_c, 0,65.0,0,
2,2304, Note_on_c, 0,60.0,69,
2,2304, Note_off_c, 0,60.0,0,
2,2304, Note_on_c, 0,79.0,76,
2,2560, Note_on_c, 0,75.0,88,
2,2560, Note_on_c, 0,77.0,83,
2,2560, Note_off_c, 0,77.0,0,
2,2560, Note_on_c, 0,70.0,78,
2,2560, Note_off_c, 0,68.0,0,
2,2560, Note_off_c, 0,50.0,0,
2,2560, Note_on_c, 0,46.0,81,
2,2560, Note_off_c, 0,48.0,0,
2,2560, Note_off_c, 0,46.0,0,
2,2560, Note_off_c, 0,58.0,0,
2,2816, Note_off_c, 0,77.0,0,
2,3072, Note_on_c, 0,53.0,83,
2,3072, Note_on_c, 0,72.0,79,
2,3072, Note_off_c, 0,53.0,0,
2,3072, Note_on_c, 0,68.0,83,
2,3072, Note_on_c, 0,43.0,75,
2,3072, Note_on_c, 0,58.0,77,
2,3072, Note_on_c, 0,50.0,84,
2,3200, Note_on_c, 0,65.0,76,
2,3328, Note_on_c, 0,63.0,83,
2,3328, Note_off_c, 0,70.0,0,
2,3328, Note_on_c, 0,60.0,82,
2,3328, Note_on_c, 0,50.0,78,
2,3328, Note_on_c, 0,48.0,83,
2,3328, Note_off_c, 0,46.0,0,
2,3328, Note_on_c, 0,67.0,85,
2,3328, Note_on_c, 0,65.0,83,
2,3328, Note_off_c, 0,65.0,0,
2,3328, Note_off_c, 0,50.0,0,
2,3584, Note_off_c, 0,43.0,0,
2,3712, Note_off_c, 0,65.0,0,
2,3712, Note_off_c, 0,56.0,0,
2,3840, Note_on_c, 0,55.0,81,
2,3840, Note_on_c, 0,56.0,80,
2,3840, Note_off_c, 0,68.0,0,
2,3840, Note_on_c, 0,46.0,74,
2,3840, Note_off_c, 0,51.0,0,
2,3840, Note_on_c, 0,62.0,87,
2,3840, Note_on_c, 0,70.0,75,
2,3840, Note_on_c, 0,65.0,70,
2,3840, Note_off_c, 0,62.0,0,
2,3840, Note_on_c, 0,51.0,77,
2,4032, Note_on_c, 0,51.0,88,
2,4032, Note_off_c, 0,62.0,0,
2,4096, Note_off_c, 0,55.0,0,
2,4096, Note_off_c, 0,63.0,0,
2,4096, Note_on_c, 0,63.0,84,
2,4096, Note_on_c, 0,55.0,79,
2,4096, Note_off_c, 0,50.0,0,
2,4096, Note_on_c, 0,50.0,85,
2,4096, Note_off_c, 0,60.0,0,
2,4096, Note_off_c, 0,51.0,0,
2,4096, Note_on_c, 0,60.0,83,
2,4096, Note_off_c, 0,48.0,0,
2,4224, Note_off_c, 0,60.0,0,
2,4224, Note_on_c, 0,62.0,78,
2,4352, Note_off_c, 0,58.0,0,
2,4352, Note_off_c, 0,63.0,0,
2,4608, Note_on_c, 0,58.0,75,
2,4608, Note_on_c, 0,41.0,72,
2,4608, Note_on_c, 0,67.0,70,
2,4608, Note_off_c, 0,67.0,0,
2,4608, Note_off_c, 0,56.0,0,
2,4608, Note_on_c, 0,56.0,71,
2,4608, Note_off_c, 0,62.0,0,
2,4608, Note_off_c, 0,56.0,0,
2,4608, Note_on_c, 0,60.0,78,
2,4736, Note_off_c, 0,75.0,0,
2,4736, Note_off_c, 0,65.0,0,
2,4864, Note_off_c, 0,48.0,0,
2,4864, Note_off_c, 0,41.0,0,
2,4864, Note_on_c, 0,48.0,74,
2,4864, Note_off_c, 0,50.0,0,
2,4864, Note_off_c, 0,58.0,0,
2,4864, Note_on_c, 0,34.0,72,
2,4864, Note_on_c, 0,38.0,76,
2,4864, Note_on_c, 0,48.0,74,
2,4864, Note_on_c, 0,44.0,83,
2,4864, Note_off_c, 0,60.0,0,
2,4864, Note_on_c, 0,63.0,81,
2,4992, Note_off_c, 0,44.0,0,
2,4992, Note_on_c, 0,58.0,74,
2,5120, Note_off_c, 0,58.0,0,
2,5120, Note_on_c, 0,65.0,80,
2,5120, Note_off_c, 0,34.0,0,
2,5120, Note_off_c, 0,38.0,0,
2,5376, Note_off_c, 0,63.0,0,
2,5376, Note_off_c, 0,79.0,0,
2,5376, Note_off_c, 0,65.0,0,
2,5376, Note_on_c, 0,62.0,67,
2,5376, Note_on_c, 0,51.0,68,
2,5376, Note_on_c, 0,44.0,82,
2,5376, Note_off_c, 0,44.0,0,
2,5376, Note_on_c, 0,36.0,76,
2,5376, Note_off_c, 0,70.0,0,
2,5632, Note_off_c, 0,36.0,0,
2,5632, Note_on_c, 0,70.0,72,
2,5632, Note_on_c, 0,60.0,70,
2,5632, Note_on_c, 0,62.0,70,
2,5632, Note_on_c, 0,79.0,73,
2,5632, Note_on_c, 0,50.0,81,
2,5632, Note_off_c, 0,62.0,0,
2,5632, Note_off_c, 0,53.0,0,
2,5632, Note_on_c, 0,39.0,76,
2,5632, Note_on_c, 0,63.0,64,
2,5888, Note_off_c, 0,39.0,0,
2,6144, Note_on_c, 0,58.0,86,
2,6144, Note_off_c, 0,77.0,0,
2,6144, Note_on_c, 0,41.0,81,
2,6144, Note_on_c, 0,63.0,75,
2,6144, Note_off_c, 0,50.0,0,
2,6144, Note_off_c, 0,63.0,0,
2,6144, Note_on_c, 0,77.0,67,
2,6144, Note_off_c, 0,62.0,0,
2,6272, Note_off_c, 0,48.0,0,
2,6400, Note_on_c, 0,56.0,82,
2,6400, Note_on_c, 0,75.0,76,
2,6400, Note_off_c, 0,79.0,0,
2,6400, Note_on_c, 0,79.0,72,
2,6400, Note_off_c, 0,60.0,0,
2,6400, Note_on_c, 0,48.0,76,
2,6400, Note_off_c, 0,41.0,0,
2,6400, Note_off_c, 0,79.0,0,
2,6784, Note_on_c, 0,43.0,77,
2,6784, Note_off_c, 0,43.0,0,
2,6912, Note_off_c, 0,75.0,0,
2,6912, Note_on_c, 0,44.0,73,
2,6912, Note_off_c, 0,51.0,0,
2,6912, Note_off_c, 0,79.0,0,
2,6912, Note_on_c, 0,79.0,84,
2,6912, Note_on_c, 0,60.0,90,
2,6912, Note_off_c, 0,56.0,0,
2,6912, Note_on_c, 0,77.0,73,
2,7040, Note_on_c, 0,36.0,76,
2,7040, Note_off_c, 0,36.0,0,
2,7168, Note_off_c, 0,55.0,0,
2,7168, Note_off_c, 0,58.0,0,
2,7168, Note_on_c, 0,68.0,82,
2,7168, Note_on_c, 0,79.0,86,
2,7168, Note_off_c, 0,77.0,0,
2,7168, Note_on_c, 0,58.0,88,
2,7168, Note_off_c, 0,58.0,0,
2,7168, Note_on_c, 0,75.0,85,
2,7424, Note_off_c, 0,48.0,0,
2,7424, Note_off_c, 0,46.0,0,
2,7424, Note_off_c, 0,44.0,0,
2,7680, Note_off_c, 0,75.0,0,
2,7680, Note_on_c, 0,58.0,74,
2,7680, Note_on_c, 0,65.0,68,
2,7680, Note_off_c, 0,67.0,0,
2,7680, Note_off_c, 0,70.0,0,
2,7680, Note_on_c, 0,50.0,68,
2,7680, Note_off_c, 0,79.0,0,
2,7680, Note_off_c, 0,60.0,0,
2,7808, Note_on_c, 0,60.0,80,
2,7808, Note_on_c, 0,55.0,75,
2,7936, Note_on_c, 0,53.0,82,
2,7936, Note_off_c, 0,65.0,0,
2,7936, Note_on_c, 0,65.0,81,
2,7936, Note_on_c, 0,74.0,85,
2,7936, Note_off_c, 0,74.0,0,
2,7936, Note_off_c, 0,68.0,0,
2,7936, Note_on_c, 0,68.0,82,
2,7936, Note_off_c, 0,55.0,0,
2,8320, Note_off_c, 0,58.0,0,
2,8320, Note_off_c, 0,60.0,0,
2,8448, Note_on_c, 0,63.0,88,
2,8448, Note_off_c, 0,63.0,0,
2,8448, Note_on_c, 0,63.0,92,
2,8448, Note_on_c, 0,67.0,82,
2,8448, Note_off_c, 0,65.0,0,
2,8448, Note_off_c, 0,63.0,0,
2,8448, Note_on_c, 0,58.0,79,
2,8448, Note_on_c, 0,65.0,78,
2,8576, Note_off_c, 0,63.0,0,
2,8576, Note_on_c, 0,56.0,87,
2,8704, Note_on_c, 0,63.0,77,
2,8704, Note_off_c, 0,58.0,0,
2,8704, Note_off_c, 0,56.0,0,
2,8704, Note_off_c, 0,68.0,0,
2,8704, Note_on_c, 0,68.0,74,
2,8704, Note_on_c, 0,75.0,79,
2,8704, Note_off_c, 0,67.0,0,
2,8704, Note_on_c, 0,55.0,77,
2,8960, Note_on_c, 0,46.0,73,
2,8960, Note_on_c, 0,60.0,80,
2,8960, Note_off_c, 0,63.0,0,
2,8960, Note_on_c, 0,58.0,84,
2,9216, Note_off_c, 0,65.0,0,
2,9216, Note_off_c, 0,53.0,0,
2,9216, Note_on_c, 0,74.0,75,
2,9216, Note_on_c, 0,65.0,89,
2,9216, Note_on_c, 0,79.0,80,
2,9216, Note_off_c, 0,58.0,0,
2,9216, Note_on_c, 0,67.0,75,
2,9216, Note_on_c, 0,48.0,92,
2,9344, Note_on_c, 0,63.0,81,
2,9344, Note_off_c, 0,48.0,0,
2,9472, Note_on_c, 0,43.0,77,
2,9472, Note_off_c, 0,63.0,0,
2,9472, Note_off_c, 0,68.0,0,
2,9472, Note_off_c, 0,62.0,0,
2,9472, Note_off_c, 0,74.0,0,
2,9472, Note_on_c, 0,48.0,78,
2,9472, Note_on_c, 0,62.0,80,
2,9472, Note_off_c, 0,79.0,0,
2,9664, Note_on_c, 0,62.0,80,
2,9664, Note_off_c, 0,50.0,0,
2,9728, Note_off_c, 0,43.0,0,
2,9728, Note_on_c, 0,53.0,74,
2,9728, Note_off_c, 0,46.0,0,
2,9728, Note_on_c, 0,50.0,83,
2,9728, Note_off_c, 0,70.0,0,
2,9728, Note_on_c, 0,58.0,76,
2,9728, Note_on_c, 0,70.0,79,
2,9728, Note_off_c, 0,65.0,0,
2,9984, Note_off_c, 0,68.0,0,
2,9984, Note_off_c, 0,53.0,0,
2,9984, Note_off_c, 0,48.0,0,
2,9984, Note_off_c, 0,60.0,0,
2,9984, Note_on_c, 0,60.0,75,
2,9984, Note_off_c, 0,75.0,0,
2,9984, Note_on_c, 0,68.0,69,
2,9984, Note_off_c, 0,60.0,0,
2,10240, Note_on_c, 0,70.0,76,
2,10240, Note_off_c, 0,58.0,0,
2,10240, Note_on_c, 0,48.0,79,
2,10240, Note_on_c, 0,53.0,76,
2,10240, Note_off_c, 0,53.0,0,
2,10240, Note_on_c, 0,60.0,90,
2,10240, Note_on_c, 0,74.0,75,
2,10240, Note_off_c, 0,55.0,0,
2,10496, Note_off_c, 0,74.0,0,
2,10496, Note_off_c, 0,60.0,0,
2,10496, Note_off_c, 0,56.0,0,
2,10496, Note_on_c, 0,56.0,77,
2,10496, Note_off_c, 0,48.0,0,
2,10496, Note_on_c, 0,53.0,70,
2,10496, Note_on_c, 0,63.0,68,
2,10496, Note_on_c, 0,58.0,69,
2,10496, Note_on_c, 0,68.0,76,
2,10752, Note_on_c, 0,56.0,73,
2,10752, Note_on_c, 0,65.0,76,
2,10752, Note_off_c, 0,58.0,0,
2,10752, Note_off_c, 0,62.0,0,
2,10752, Note_on_c, 0,48.0,67,
2,10752, Note_off_c, 0,56.0,0,
2,10752, Note_on_c, 0,51.0,86,
2,11008, Note_off_c, 0,48.0,0,
2,11008, Note_off_c, 0,58.0,0,
2,11008, Note_on_c, 0,60.0,75,
2,11008, Note_off_c, 0,67.0,0,
2,11008, Note_on_c, 0,58.0,81,
2,11008, Note_off_c, 0,50.0,0,
2,11008, Note_off_c, 0,63.0,0,
2,11008, Note_off_c, 0,68.0,0,
2,11136, Note_off_c, 0,53.0,0,
2,11136, Note_off_c, 0,51.0,0,
2,11264, Note_on_c, 0,68.0,83,
2,11264, Note_on_c, 0,51.0,77,
2,11264, Note_off_c, 0,65.0,0,
2,11264, Note_off_c, 0,60.0,0,
2,11264, Note_on_c, 0,56.0,74,
2,11264, Note_on_c, 0,60.0,77,
2,11264, Note_on_c, 0,55.0,83,
2,11264, Note_off_c, 0,60.0,0,
2,11520, Note_off_c, 0,68.0,0,
2,11520, Note_on_c, 0,53.0,85,
2,11520, Note_off_c, 0,70.0,0,
2,11520, Note_on_c, 0,48.0,83,
2,11520, Note_off_c, 0,53.0,0,
2,11520, Note_on_c, 0,38.0,74,
2,11520, Note_on_c, 0,58.0,77,
2,11520, Note_on_c, 0,53.0,86,
2,11520, Note_off_c, 0,51.0,0,
2,11776, Note_off_c, 0,48.0,0,
2,11776, Note_on_c, 0,63.0,78,
2,11776, Note_on_c, 0,67.0,71,
2,11776, Note_off_c, 0,63.0,0,
2,11776, Note_on_c, 0,62.0,81,
2,11776, Note_on_c, 0,79.0,77,
2,11776, Note_on_c, 0,60.0,82,
2,11776, Note_on_c, 0,63.0,77,
2,11776, Note_off_c, 0,58.0,0,
2,11776, Note_off_c, 0,72.0,0,
2,12032, Note_off_c, 0,55.0,0,
2,12032, Note_on_c, 0,68.0,74,
2,12032, Note_on_c, 0,51.0,72,
2,12032, Note_on_c, 0,77.0,70,
2,12288, Note_off_c, 0,77.0,0,
2,12288, Note_off_c, 0,79.0,0,
2,12288, Note_on_c, 0,60.0,89,
2,12288, Note_off_c, 0,56.0,0,
2,12288, Note_off_c, 0,68.0,0,
2,12288, Note_on_c, 0,63.0,71,
2,12288, Note_off_c, 0,60.0,0,
2,12288, Note_on_c, 0,65.0,79,
2,12288, Note_off_c, 0,63.0,0,
2,12288, Note_off_c, 0,67.0,0,
2,12288, Note_on_c, 0,75.0,84,
2,12416, Note_on_c, 0,68.0,88,
2,12416, Note_off_c, 0,63.0,0,
2,12544, Note_off_c, 0,68.0,0,
2,12544, Note_on_c, 0,63.0,84,
2,12544, Note_on_c, 0,70.0,81,
2,12544, Note_on_c, 0,79.0,84,
2,12544, Note_off_c, 0,56.0,0,
2,12544, Note_on_c, 0,58.0,83,
2,12544, Note_off_c, 0,65.0,0,
2,12544, Note_on_c, 0,48.0,88,
2,12544, Note_on_c, 0,46.0,89,
2,12544, Note_on_c, 0,56.0,87,
2,12544, Note_on_c, 0,72.0,89,
2,12928, Note_on_c, 0,74.0,83,
2,12928, Note_off_c, 0,79.0,0,
2,13056, Note_off_c, 0,63.0,0,
2,13056, Note_on_c, 0,77.0,75,
2,13056, Note_off_c, 0,74.0,0,
2,13056, Note_on_c, 0,79.0,85,
2,13056, Note_off_c, 0,51.0,0,
2,13056, Note_on_c, 0,58.0,73,
2,13056, Note_off_c, 0,58.0,0,
2,13056, Note_on_c, 0,70.0,83,
2,13056, Note_on_c, 0,34.0,83,
2,13056, Note_off_c, 0,70.0,0,
2,13056, Note_on_c, 0,68.0,85,
2,13248, Note_off_c, 0,70.0,0,
2,13248, Note_off_c, 0,68.0,0,
2,13312, Note_off_c, 0,77.0,0,
2,13312, Note_off_c, 0,46.0,0,
2,13312, Note_on_c, 0,56.0,72,
2,13312, Note_off_c, 0,56.0,0,
2,13312, Note_on_c, 0,58.0,83,
2,13312, Note_off_c, 0,34.0,0,
2,13312, Note_off_c, 0,58.0,0,
2,13312, Note_on_c, 0,56.0,73,
2,13312, Note_off_c, 0,62.0,0,
2,13312, Note_off_c, 0,60.0,0,
2,13312, Note_off_c, 0,43.0,0,
2,13312, Note_on_c, 0,55.0,83,
2,13312, Note_on_c, 0,43.0,76,
2,13312, Note_on_c, 0,65.0,75,
2,13440, Note_on_c, 0,62.0,78,
2,13440, Note_off_c, 0,75.0,0,
2,13568, Note_off_c, 0,55.0,0,
2,13568, Note_on_c, 0,51.0,78,
2,13824, Note_on_c, 0,67.0,69,
2,13824, Note_on_c, 0,79.0,73,
2,13824, Note_off_c, 0,79.0,0,
2,13824, Note_on_c, 0,63.0,76,
2,13824, Note_off_c, 0,60.0,0,
2,13824, Note_on_c, 0,50.0,76,
2,13824, Note_on_c, 0,60.0,76,
2,13824, Note_off_c, 0,48.0,0,
2,13824, Note_off_c, 0,46.0,0,
2,13824, Note_on_c, 0,46.0,76,
2,13824, Note_off_c, 0,58.0,0,
2,14080, Note_off_c, 0,58.0,0,
2,14080, Note_on_c, 0,58.0,82,
2,14080, Note_on_c, 0,60.0,78,
2,14080, Note_on_c, 0,75.0,81,
2,14080, Note_off_c, 0,75.0,0,
2,14080, Note_off_c, 0,50.0,0,
2,14080, Note_on_c, 0,43.0,84,
2,14080, Note_off_c, 0,56.0,0,
2,14080, Note_on_c, 0,46.0,74,
2,14080, Note_off_c, 0,72.0,0,
2,14080, Note_off_c, 0,63.0,0,
2,14080, Note_off_c, 0,51.0,0,
2,14208, Note_on_c, 0,51.0,73,
2,14208, Note_off_c, 0,53.0,0,
2,14336, Note_off_c, 0,67.0,0,
2,14336, Note_on_c, 0,68.0,72,
2,14592, Note_off_c, 0,43.0,0,
2,14592, Note_on_c, 0,58.0,73,
2,14592, Note_off_c, 0,62.0,0,
2,14592, Note_on_c, 0,55.0,77,
2,14592, Note_off_c, 0,65.0,0,
2,14592, Note_off_c, 0,51.0,0,
2,14592, Note_off_c, 0,68.0,0,
2,14592, Note_on_c, 0,51.0,69,
2,14592, Note_off_c, 0,79.0,0,
2,14592, Note_on_c, 0,75.0,63,
2,14592, Note_off_c, 0,51.0,0,
2,14592, Note_on_c, 0,56.0,77,
2,14848, Note_on_c, 0,44.0,87,
2,14848, Note_on_c, 0,65.0,81,
2,14848, Note_off_c, 0,65.0,0,
2,14848, Note_on_c, 0,65.0,74,
2,14848, Note_off_c, 0,67.0,0,
2,14848, Note_on_c, 0,68.0,83,
2,14848, Note_on_c, 0,67.0,73,
2,14848, Note_off_c, 0,60.0,0,
2,14848, Note_on_c, 0,63.0,68,
2,14848, Note_off_c, 0,75.0,0,
2,15360, Note_off_c, 0,44.0,0,
2,15360, Note_on_c, 0,72.0,87,
2,15360, Note_off_c, 0,68.0,0,
2,15360, Note_on_c, 0,53.0,81,
2,15360, Note_on_c, 0,70.0,73,
2,15360, Note_off_c, 0,63.0,0,
2,15360, Note_off_c, 0,56.0,0,
2,15360, Note_off_c, 0,55.0,0,
2,15360, Note_on_c, 0,60.0,80,
2,15360, Note_off_c, 0,65.0,0,
2,15360, Note_off_c, 0,70.0,0,
2,15488, Note_off_c, 0,60.0,0,
2,15616, Note_off_c, 0,68.0,0,
2,15616, Note_on_c, 0,70.0,85,
2,15616, Note_on_c, 0,68.0,76,
2,15616, Note_off_c, 0,65.0,0,
2,15616, Note_off_c, 0,72.0,0,
2,15616, Note_off_c, 0,68.0,0,
2,15616, Note_off_c, 0,53.0,0,
2,15616, Note_on_c, 0,68.0,85,
2,15616, Note_on_c, 0,56.0,82,
2,15616, Note_on_c, 0,55.0,81,
2,15616, Note_on_c, 0,63.0,83,
2,15616, Note_on_c, 0,65.0,85,
2,16000, Note_on_c, 0,48.0,78,
2,16000, Note_off_c, 0,58.0,0,
2,16128, Note_on_c, 0,62.0,88,
2,16128, Note_on_c, 0,79.0,78,
2,16128, Note_off_c, 0,65.0,0,
2,16128, Note_on_c, 0,50.0,81,
2,16128, Note_on_c, 0,65.0,79,
2,16128, Note_on_c, 0,72.0,82,
2,16128, Note_on_c, 0,56.0,80,
2,16128, Note_off_c, 0,63.0,0,
2,16128, Note_off_c, 0,48.0,0,
2,16128, Note_on_c, 0,60.0,70,
2,16128, Note_on_c, 0,53.0,81,
2,16128, Note_off_c, 0,56.0,0,
2,16320, Note_off_c, 0,56.0,0,
2,16320, Note_off_c, 0,60.0,0,
2,16384, Note_on_c, 0,72.0,71,
2,16384, Note_off_c, 0,56.0,0,
2,16384, Note_on_c, 0,67.0,79,
2,16384, Note_on_c, 0,51.0,89,
2,16384, Note_off_c, 0,72.0,0,
2,16384, Note_off_c, 0,70.0,0,
2,16384, Note_on_c, 0,63.0,89,
2,16384, Note_off_c, 0,62.0,0,
2,16384, Note_on_c, 0,62.0,81,
2,16384, Note_on_c, 0,56.0,76,
2,16384, Note_on_c, 0,68.0,86,
2,16384, Note_on_c, 0,58.0,84,
2,16512, Note_off_c, 0,58.0,0,
2,16512, Note_on_c, 0,60.0,70,
2,16640, Note_off_c, 0,46.0,0,
2,16896, Note_on_c, 0,75.0,79,
2,16896, Note_off_c, 0,67.0,0,
2,16896, Note_off_c, 0,51.0,0,
2,16896, Note_off_c, 0,63.0,0,
2,16896, Note_off_c, 0,58.0,0,
2,16896, Note_on_c, 0,53.0,80,
2,16896, Note_on_c, 0,58.0,75,
2,16896, Note_off_c, 0,48.0,0,
2,16896, Note_off_c, 0,53.0,0,
2,16896, Note_on_c, 0,48.0,78,
2,16896, Note_on_c, 0,56.0,75,
2,16896, Note_off_c, 0,50.0,0,
2,17024, Note_on_c, 0,63.0,81,
2,17024, Note_off_c, 0,68.0,0,
2,17152, Note_off_c, 0,51.0,0,
2,17152, Note_on_c, 0,58.0,84,
2,17152, Note_on_c, 0,51.0,84,
2,17152, Note_off_c, 0,60.0,0,
2,17152, Note_off_c, 0,58.0,0,
2,17152, Note_on_c, 0,51.0,86,
2,17152, Note_on_c, 0,68.0,78,
2,17152, Note_on_c, 0,65.0,75,
2,17152, Note_on_c, 0,74.0,71,
2,17152, Note_off_c, 0,56.0,0,
2,17152, Note_off_c, 0,53.0,0,
2,17280, Note_off_c, 0,72.0,0,
2,17280, Note_on_c, 0,67.0,81,
2,17408, Note_on_c, 0,58.0,83,
2,17408, Note_on_c, 0,48.0,79,
2,17408, Note_off_c, 0,74.0,0,
2,17664, Note_off_c, 0,65.0,0,
2,17664, Note_on_c, 0,72.0,73,
2,17664, Note_on_c, 0,65.0,72,
2,17664, Note_off_c, 0,60.0,0,
2,17664, Note_on_c, 0,63.0,75,
2,17664, Note_off_c, 0,67.0,0,
2,17664, Note_on_c, 0,46.0,79,
2,17664, Note_on_c, 0,60.0,77,
2,17664, Note_off_c, 0,58.0,0,
2,17664, Note_on_c, 0,53.0,79,
2,17664, Note_off_c, 0,62.0,0,
2,17664, Note_off_c, 0,63.0,0,
2,17920, Note_off_c, 0,65.0,0,
2,17920, Note_off_c, 0,79.0,0,
2,17920, Note_on_c, 0,70.0,63,
2,17920, Note_on_c, 0,58.0,64,
2,17920, Note_off_c, 0,63.0,0,
2,17920, Note_on_c, 0,60.0,65,
2,17920, Note_on_c, 0,68.0,71,
2,17920, Note_on_c, 0,62.0,75,
2,17920, Note_on_c, 0,63.0,74,
2,17920, Note_on_c, 0,67.0,73,
2,17920, Note_off_c, 0,68.0,0,
2,17920, Note_off_c, 0,60.0,0,
2,18432, Note_on_c, 0,44.0,87,
2,18432, Note_on_c, 0,50.0,89,
2,18432, Note_off_c, 0,48.0,0,
2,18432, Note_off_c, 0,46.0,0,
2,18432, Note_off_c, 0,79.0,0,
2,18432, Note_on_c, 0,79.0,73,
2,18432, Note_off_c, 0,75.0,0,
2,18432, Note_off_c, 0,68.0,0,
2,18432, Note_off_c, 0,51.0,0,
2,18560, Note_off_c, 0,72.0,0,
2,18560, Note_on_c, 0,79.0,82,
2,18688, Note_off_c, 0,70.0,0,
2,18688, Note_off_c, 0,79.0,0,
2,18688, Note_on_c, 0,51.0,80,
2,18688, Note_off_c, 0,51.0,0,
2,18688, Note_on_c, 0,70.0,77,
2,18688, Note_off_c, 0,63.0,0,
2,18688, Note_on_c, 0,65.0,81,
2,18688, Note_on_c, 0,62.0,85,
2,18688, Note_off_c, 0,62.0,0,
2,18944, Note_off_c, 0,44.0,0,
2,19072, Note_on_c, 0,72.0,68,
2,19072, Note_on_c, 0,56.0,74,
2,19200, Note_off_c, 0,67.0,0,
2,19200, Note_off_c, 0,72.0,0,
2,19200, Note_on_c, 0,79.0,83,
2,19200, Note_on_c, 0,68.0,79,
2,19200, Note_off_c, 0,53.0,0,
2,19200, Note_off_c, 0,70.0,0,
2,19200, Note_on_c, 0,63.0,79,
2,19200, Note_on_c, 0,65.0,90,
2,19200, Note_off_c, 0,65.0,0,
2,19200, Note_on_c, 0,60.0,74,
2,19392, Note_off_c, 0,65.0,0,
2,19392, Note_on_c, 0,65.0,86,
2,19456, Note_on_c, 0,56.0,74,
2,19456, Note_on_c, 0,46.0,87,
2,19456, Note_on_c, 0,75.0,78,
2,19456, Note_off_c, 0,56.0,0,
2,19456, Note_off_c, 0,79.0,0,
2,19456, Note_on_c, 0,70.0,85,
2,19456, Note_off_c, 0,65.0,0,
2,19456, Note_off_c, 0,68.0,0,
2,19456, Note_on_c, 0,51.0,82,
2,19584, Note_off_c, 0,56.0,0,
2,19584, Note_off_c, 0,60.0,0,
2,19712, Note_on_c, 0,60.0,71,
2,19712, Note_on_c, 0,72.0,67,
2,19968, Note_on_c, 0,41.0,76,
2,19968, Note_off_c, 0,50.0,0,
2,19968, Note_off_c, 0,53.0,0,
2,19968, Note_off_c, 0,51.0,0,
2,19968, Note_off_c, 0,60.0,0,
2,19968, Note_on_c, 0,56.0,76,
2,19968, Note_off_c, 0,63.0,0,
2,19968, Note_on_c, 0,68.0,70,
2,19968, Note_on_c, 0,53.0,76,
2,20224, Note_off_c, 0,41.0,0,
2,20224, Note_on_c, 0,51.0,74,
2,20224, Note_off_c, 0,58.0,0,
2,20224, Note_on_c, 0,53.0,77,
2,20224, Note_off_c, 0,56.0,0,
2,20224, Note_on_c, 0,70.0,81,
2,20224, Note_on_c, 0,48.0,78,
2,20224, Note_off_c, 0,62.0,0,
2,20224, Note_off_c, 0,68.0,0,
2,20224, Note_off_c, 0,70.0,0,
2,20224, Note_off_c, 0,72.0,0,
2,20352, Note_on_c, 0,60.0,84,
2,20480, Note_off_c, 0,55.0,0,
2,20480, Note_on_c, 0,62.0,71,
2,20736, Note_off_c, 0,58.0,0,
2,20736, Note_off_c, 0,48.0,0,
2,20736, Note_on_c, 0,50.0,85,
2,20736, Note_on_c, 0,56.0,80,
2,20736, Note_on_c, 0,55.0,68,
2,20736, Note_off_c, 0,75.0,0,
2,20736, Note_on_c, 0,65.0,70,
2,20736, Note_off_c, 0,60.0,0,
2,20736, Note_on_c, 0,58.0,69,
2,20992, Note_on_c, 0,48.0,76,
2,20992, Note_on_c, 0,44.0,82,
2,20992, Note_off_c, 0,63.0,0,
2,20992, Note_off_c, 0,60.0,0,
2,20992, Note_on_c, 0,77.0,80,
2,20992, Note_off_c, 0,62.0,0,
2,20992, Note_off_c, 0,65.0,0,
2,20992, Note_on_c, 0,60.0,73,
2,20992, Note_on_c, 0,68.0,71,
2,20992, Note_on_c, 0,63.0,73,
2,21248, Note_off_c, 0,77.0,0,
2,21504, Note_on_c, 0,67.0,81,
2,21504, Note_on_c, 0,58.0,83,
2,21504, Note_on_c, 0,75.0,76,
2,21504, Note_on_c, 0,60.0,81,
2,21504, Note_off_c, 0,56.0,0,
2,21504, Note_on_c, 0,79.0,81,
2,21504, Note_on_c, 0,63.0,85,
2,21504, Note_off_c, 0,70.0,0,
2,21504, Note_off_c, 0,44.0,0,
2,21632, Note_off_c, 0,53.0,0,
2,21760, Note_off_c, 0,53.0,0,
2,21760, Note_on_c, 0,53.0,81,
2,21760, Note_on_c, 0,63.0,89,
2,21760, Note_off_c, 0,65.0,0,
2,21760, Note_off_c, 0,63.0,0,
2,21760, Note_off_c, 0,58.0,0,
2,21760, Note_on_c, 0,72.0,79,
2,21760, Note_off_c, 0,67.0,0,
2,21760, Note_on_c, 0,56.0,70,
2,21760, Note_on_c, 0,65.0,76,
2,22144, Note_off_c, 0,56.0,0,
2,22144, Note_off_c, 0,68.0,0,
2,22272, Note_off_c, 0,58.0,0,
2,22272, Note_on_c, 0,56.0,86,
2,22272, Note_on_c, 0,58.0,69,
2,22272, Note_on_c, 0,62.0,76,
2,22272, Note_off_c, 0,65.0,0,
2,22272, Note_on_c, 0,58.0,80,
2,22272, Note_off_c, 0,79.0,0,
2,22272, Note_off_c, 0,60.0,0,
2,22272, Note_on_c, 0,65.0,83,
2,22272, Note_on_c, 0,67.0,82,
2,22464, Note_off_c, 0,56.0,0,
2,22464, Note_on_c, 0,65.0,84,
2,22528, Note_off_c, 0,63.0,0,
2,22528, Note_off_c, 0,67.0,0,
2,22528, Note_off_c, 0,75.0,0,
2,22528, Note_on_c, 0,60.0,78,
2,22528, Note_off_c, 0,55.0,0,
2,22528, Note_off_c, 0,58.0,0,
2,22528, Note_off_c, 0,48.0,0,
2,22528, Note_on_c, 0,58.0,82,
2,22528, Note_off_c, 0,65.0,0,
2,22528, Note_on_c, 0,67.0,87,
2,22656, Note_on_c, 0,68.0,79,
2,22656, Note_off_c, 0,72.0,0,
2,22784, Note_on_c, 0,62.0,87,
2,22784, Note_off_c, 0,62.0,0,
2,23040, Note_off_c, 0,51.0,0,
2,23040, Note_on_c, 0,55.0,84,
2,23040, Note_on_c, 0,60.0,78,
2,23040, Note_on_c, 0,74.0,79,
2,23040, Note_off_c, 0,62.0,0,
2,23040, Note_off_c, 0,60.0,0,
2,23040, Note_off_c, 0,68.0,0,
2,23040, Note_on_c, 0,56.0,90,
2,23040, Note_on_c, 0,53.0,84,
2,23040, Note_off_c, 0,56.0,0,
2,23168, Note_off_c, 0,58.0,0,
2,23168, Note_off_c, 0,53.0,0,
2,23296, Note_off_c, 0,63.0,0,
2,23296, Note_off_c, 0,74.0,0,
2,23296, Note_on_c, 0,56.0,75,
2,23296, Note_on_c, 0,62.0,81,
2,23296, Note_on_c, 0,79.0,72,
2,23296, Note_on_c, 0,75.0,78,
2,23296, Note_off_c, 0,46.0,0,
2,23296, Note_on_c, 0,68.0,71,
2,23296, Note_on_c, 0,63.0,69,
2,23296, Note_on_c, 0,70.0,69,
2,23296, Note_off_c, 0,79.0,0,
2,23424, Note_on_c, 0,51.0,72,
2,23424, Note_off_c, 0,60.0,0,
2,23552, Note_on_c, 0,60.0,82,
2,23552, Note_on_c, 0,72.0,81,
2,23808, Note_on_c, 0,67.0,83,
2,23808, Note_on_c, 0,51.0,78,
2,23808, Note_on_c, 0,58.0,75,
2,23808, Note_off_c, 0,68.0,0,
2,23808, Note_on_c, 0,63.0,74,
2,23808, Note_off_c, 0,67.0,0,
2,23808, Note_off_c, 0,55.0,0,
2,23808, Note_off_c, 0,60.0,0,
2,23808, Note_off_c, 0,51.0,0,
2,24064, Note_on_c, 0,46.0,63,
2,24064, Note_on_c, 0,65.0,78,
2,24064, Note_off_c, 0,55.0,0,
2,24064, Note_off_c, 0,72.0,0,
2,24064, Note_on_c, 0,55.0,73,
2,24064, Note_off_c, 0,56.0,0,
2,24064, Note_on_c, 0,48.0,68,
2,24064, Note_on_c, 0,60.0,77,
2,24064, Note_on_c, 0,79.0,83,
2,24064, Note_off_c, 0,70.0,0,
2,24576, Note_on_c, 0,53.0,67,
2,24576, Note_off_c, 0,51.0,0,
2,24576, Note_on_c, 0,44.0,76,
2,24576, Note_on_c, 0,68.0,70,
2,24576, Note_off_c, 0,58.0,0,
2,24576, Note_off_c, 0,79.0,0,
2,24576, Note_on_c, 0,79.0,69,
2,24576, Note_off_c, 0,60.0,0,
2,24576, Note_off_c, 0,63.0,0,
2,24704, Note_off_c, 0,53.0,0,
2,24704, Note_on_c, 0,51.0,71,
2,24832, Note_off_c, 0,68.0,0,
2,24832, Note_off_c, 0,65.0,0,
2,24832, Note_on_c, 0,70.0,75,
2,24832, Note_off_c, 0,79.0,0,
2,24832, Note_on_c, 0,79.0,78,
2,24832, Note_on_c, 0,68.0,81,
2,24832, Note_on_c, 0,51.0,80,
2,24832, Note_off_c, 0,51.0,0,
2,25088, Note_off_c, 0,44.0,0,
2,25216, Note_on_c, 0,55.0,73,
2,25216, Note_on_c, 0,56.0,74,
2,25344, Note_off_c, 0,63.0,0,
2,25344, Note_on_c, 0,63.0,85,
2,25344, Note_off_c, 0,48.0,0,
2,25344, Note_off_c, 0,60.0,0,
2,25344, Note_on_c, 0,60.0,84,
2,25344, Note_off_c, 0,56.0,0,
2,25344, Note_off_c, 0,68.0,0,
2,25344, Note_on_c, 0,65.0,80,
2,25472, Note_off_c, 0,51.0,0,
2,25472, Note_on_c, 0,60.0,75,
2,25600, Note_on_c, 0,63.0,91,
2,25600, Note_on_c, 0,60.0,80,
2,25600, Note_off_c, 0,56.0,0,
2,25600, Note_on_c, 0,53.0,78,
2,25600, Note_off_c, 0,60.0,0,
2,25600, Note_off_c, 0,65.0,0,
2,25600, Note_off_c, 0,70.0,0,
2,25600, Note_on_c, 0,56.0,80,
2,25856, Note_off_c, 0,53.0,0,
2,25856, Note_on_c, 0,65.0,85,
2,26112, Note_on_c, 0,55.0,70,
2,26112, Note_off_c, 0,55.0,0,
2,26112, Note_on_c, 0,53.0,76,
2,26112, Note_off_c, 0,62.0,0,
2,26112, Note_off_c, 0,65.0,0,
2,26112, Note_off_c, 0,60.0,0,
2,26112, Note_on_c, 0,62.0,71,
2,26112, Note_on_c, 0,65.0,80,
2,26240, Note_on_c, 0,51.0,74,
2,26240, Note_on_c, 0,56.0,75,
2,26368, Note_off_c, 0,56.0,0,
2,26368, Note_off_c, 0,62.0,0,
2,26368, Note_on_c, 0,72.0,84,
2,26368, Note_on_c, 0,56.0,76,
2,26368, Note_on_c, 0,60.0,79,
2,26368, Note_on_c, 0,62.0,83,
2,26368, Note_off_c, 0,53.0,0,
2,26368, Note_off_c, 0,62.0,0,
2,26752, Note_off_c, 0,65.0,0,
2,26752, Note_on_c, 0,58.0,83,
2,26880, Note_off_c, 0,58.0,0,
2,26880, Note_on_c, 0,60.0,91,
2,26880, Note_on_c, 0,55.0,79,
2,26880, Note_off_c, 0,63.0,0,
2,26880, Note_off_c, 0,60.0,0,
2,26880, Note_off_c, 0,56.0,0,
2,26880, Note_off_c, 0,55.0,0,
2,26880, Note_on_c, 0,56.0,82,
2,27008, Note_on_c, 0,62.0,86,
2,27008, Note_on_c, 0,58.0,92,
2,27136, Note_off_c, 0,62.0,0,
2,27136, Note_off_c, 0,60.0,0,
2,27136, Note_off_c, 0,56.0,0,
2,27136, Note_off_c, 0,55.0,0,
2,27136, Note_on_c, 0,53.0,88,
2,27136, Note_off_c, 0,51.0,0,
2,27136, Note_on_c, 0,65.0,69,
2,27136, Note_on_c, 0,63.0,87,
2,27392, Note_on_c, 0,60.0,76,
2,27392, Note_on_c, 0,68.0,79,
2,27392, Note_off_c, 0,67.0,0,
2,27392, Note_on_c, 0,67.0,81,
2,27648, Note_on_c, 0,56.0,76,
2,27648, Note_on_c, 0,62.0,72,
2,27648, Note_off_c, 0,62.0,0,
2,27648, Note_off_c, 0,53.0,0,
2,27648, Note_off_c, 0,68.0,0,
2,27648, Note_off_c, 0,63.0,0,
2,27648, Note_off_c, 0,72.0,0,
2,27648, Note_on_c, 0,63.0,82,
2,27776, Note_off_c, 0,58.0,0,
2,27776, Note_off_c, 0,50.0,0,
2,27904, Note_on_c, 0,56.0,82,
2,27904, Note_off_c, 0,60.0,0,
2,27904, Note_on_c, 0,63.0,92,
2,27904, Note_off_c, 0,56.0,0,
2,27904, Note_off_c, 0,63.0,0,
2,27904, Note_on_c, 0,58.0,89,
2,27904, Note_on_c, 0,48.0,79,
2,27904, Note_on_c, 0,74.0,93,
2,28096, Note_off_c, 0,58.0,0,
2,28096, Note_on_c, 0,58.0,77,
2,28160, Note_off_c, 0,74.0,0,
2,28160, Note_off_c, 0,53.0,0,
2,28160, Note_on_c, 0,56.0,70,
2,28160, Note_off_c, 0,65.0,0,
2,28160, Note_on_c, 0,53.0,80,
2,28160, Note_on_c, 0,70.0,79,
2,28160, Note_off_c, 0,56.0,0,
2,28160, Note_on_c, 0,68.0,77,
2,28160, Note_off_c, 0,48.0,0,
2,28416, Note_on_c, 0,53.0,73,
2,28416, Note_on_c, 0,72.0,73,
2,28416, Note_on_c, 0,50.0,78,
2,28416, Note_off_c, 0,79.0,0,
2,28416, Note_off_c, 0,68.0,0,
2,28416, Note_on_c, 0,65.0,82,
2,28416, Note_off_c, 0,56.0,0,
2,28416, Note_off_c, 0,58.0,0,
2,28672, Note_on_c, 0,51.0,72,
2,28672, Note_off_c, 0,50.0,0,
2,28672, Note_on_c, 0,56.0,77,
2,28672, Note_off_c, 0,70.0,0,
2,28672, Note_on_c, 0,50.0,75,
2,28928, Note_off_c, 0,51.0,0,
2,28928, Note_on_c, 0,55.0,75,
2,28928, Note_off_c, 0,62.0,0,
2,28928, Note_off_c, 0,46.0,0,
2,28928, Note_off_c, 0,56.0,0,
2,28928, Note_off_c, 0,53.0,0,
2,28928, Note_on_c, 0,62.0,86,
2,28928, Note_on_c, 0,53.0,83,
2,29184, Note_on_c, 0,56.0,70,
2,29184, Note_off_c, 0,53.0,0,
2,29184, Note_off_c, 0,65.0,0,
2,29184, Note_on_c, 0,58.0,62,
2,29184, Note_off_c, 0,58.0,0,
2,29184, Note_on_c, 0,60.0,80,
2,29184, Note_on_c, 0,46.0,69,
2,29184, Note_off_c, 0,60.0,0,
2,29440, Note_on_c, 0,56.0,77,
2,29440, Note_on_c, 0,60.0,68,
2,29440, Note_off_c, 0,51.0,0,
2,29440, Note_off_c, 0,55.0,0,
2,29440, Note_off_c, 0,58.0,0,
2,29440, Note_off_c, 0,56.0,0,
2,29440, Note_on_c, 0,58.0,74,
2,29440, Note_on_c, 0,51.0,74,
2,29568, Note_on_c, 0,55.0,85,
2,29568, Note_off_c, 0,56.0,0,
2,29696, Note_off_c, 0,60.0,0,
2,29696, Note_off_c, 0,58.0,0,
2,29696, Note_on_c, 0,70.0,81,
2,29696, Note_off_c, 0,55.0,0,
2,29696, Note_on_c, 0,56.0,77,
2,29696, Note_on_c, 0,65.0,79,
2,29696, Note_on_c, 0,44.0,76,
2,29696, Note_on_c, 0,58.0,77,
2,29952, Note_off_c, 0,58.0,0,
2,29952, Note_off_c, 0,46.0,0,
2,29952, Note_on_c, 0,62.0,74,
2,29952, Note_on_c, 0,55.0,80,
2,29952, Note_on_c, 0,58.0,86,
2,29952, Note_on_c, 0,60.0,85,
2,29952, Note_on_c, 0,51.0,78,
2,29952, Note_off_c, 0,50.0,0,
2,29952, Note_off_c, 0,70.0,0,
2,30208, Note_off_c, 0,56.0,0,
2,30208, Note_on_c, 0,34.0,86,
2,30208, Note_off_c, 0,62.0,0,
2,30208, Note_off_c, 0,44.0,0,
2,30208, Note_off_c, 0,63.0,0,
2,30208, Note_off_c, 0,65.0,0,
2,30208, Note_on_c, 0,79.0,81,
2,30208, Note_off_c, 0,60.0,0,
2,30208, Note_off_c, 0,55.0,0,
2,30208, Note_on_c, 0,65.0,86,
2,30464, Note_on_c, 0,46.0,82,
2,30464, Note_on_c, 0,63.0,76,
2,30464, Note_on_c, 0,60.0,75,
2,30464, Note_off_c, 0,65.0,0,
2,30464, Note_off_c, 0,34.0,0,
2,30720, Note_on_c, 0,58.0,71,
2,30720, Note_off_c, 0,60.0,0,
2,30720, Note_on_c, 0,60.0,70,
2,30720, Note_on_c, 0,50.0,74,
2,30720, Note_off_c, 0,51.0,0,
2,30720, Note_off_c, 0,79.0,0,
2,30720, Note_off_c, 0,60.0,0,
2,30720, Note_on_c, 0,70.0,74,
2,30720, Note_on_c, 0,55.0,72,
2,30848, Note_on_c, 0,62.0,73,
2,30848, Note_on_c, 0,53.0,73,
2,30976, Note_off_c, 0,63.0,0,
2,30976, Note_off_c, 0,55.0,0,
2,30976, Note_on_c, 0,56.0,84,
2,30976, Note_off_c, 0,48.0,0,
2,30976, Note_on_c, 0,77.0,85,
2,30976, Note_on_c, 0,74.0,85,
2,30976, Note_on_c, 0,68.0,88,
2,30976, Note_on_c, 0,44.0,88,
2,30976, Note_on_c, 0,65.0,84,
2,30976, Note_on_c, 0,48.0,88,
2,30976, Note_on_c, 0,60.0,82,
2,31232, Note_off_c, 0,77.0,0,
2,31232, Note_off_c, 0,74.0,0,
2,31360, Note_on_c, 0,79.0,75,
2,31488, Note_on_c, 0,79.0,81,
2,31488, Note_off_c, 0,44.0,0,
2,31488, Note_off_c, 0,67.0,0,
2,31488, Note_off_c, 0,65.0,0,
2,31488, Note_off_c, 0,79.0,0,
2,31488, Note_off_c, 0,79.0,0,
2,31488, Note_off_c, 0,56.0,0,
2,31488, Note_off_c, 0,46.0,0,
2,31488, Note_off_c, 0,34.0,0,
2,31488, Note_on_c, 0,34.0,85,
2,31488, Note_off_c, 0,58.0,0,
2,31488, Note_off_c, 0,68.0,0,
2,31488, Note_on_c, 0,79.0,85,
2,31680, Note_on_c, 0,46.0,83,
2,31680, Note_on_c, 0,56.0,80,
2,31744, Note_on_c, 0,48.0,86,
2,31744, Note_off_c, 0,75.0,0,
2,31744, Note_on_c, 0,75.0,74,
2,31744, Note_on_c, 0,67.0,82,
2,31744, Note_off_c, 0,56.0,0,
2,31744, Note_on_c, 0,63.0,80,
2,31744, Note_off_c, 0,60.0,0,
2,31744, Note_on_c, 0,51.0,82,
2,31744, Note_on_c, 0,56.0,88,
2,31744, Note_on_c, 0,34.0,74,
2,31744, Note_on_c, 0,65.0,83,
2,31872, Note_on_c, 0,41.0,76,
2,31872, Note_on_c, 0,39.0,74,
2,32000, Note_on_c, 0,36.0,75,
2,32128, Note_off_c, 0,39.0,0,
2,32128, Note_off_c, 0,41.0,0,
2,32256, Note_off_c, 0,36.0,0,
2,32256, Note_on_c, 0,60.0,79,
2,32256, Note_on_c, 0,68.0,78,
2,32256, Note_off_c, 0,65.0,0,
2,32256, Note_off_c, 0,72.0,0,
2,32256, Note_on_c, 0,58.0,76,
2,32256, Note_on_c, 0,74.0,77,
2,32256, Note_off_c, 0,72.0,0,
2,32256, Note_off_c, 0,63.0,0,
2,32256, Note_off_c, 0,46.0,0,
2,32256, Note_off_c, 0,56.0,0,
2,32256, Note_off_c, 0,48.0,0,
2,32256, Note_on_c, 0,72.0,78,
2,32512, Note_on_c, 0,44.0,81,
2,32512, Note_off_c, 0,63.0,0,
2,32512, Note_off_c, 0,58.0,0,
2,32512, Note_on_c, 0,63.0,80,
2,32512, Note_on_c, 0,56.0,79,
2,32512, Note_on_c, 0,48.0,79,
2,32512, Note_off_c, 0,51.0,0,
2,32512, Note_on_c, 0,55.0,79,
2,32512, Note_off_c, 0,74.0,0,
2,32512, Note_off_c, 0,79.0,0,
2,32512, Note_on_c, 0,53.0,79,
2,32512, Note_off_c, 0,53.0,0,
2,32640, Note_off_c, 0,62.0,0,
2,32640, Note_on_c, 0,51.0,80,
2,32768, Note_off_c, 0,51.0,0,
2,32768, Note_off_c, 0,67.0,0,
2,33024, Note_off_c, 0,44.0,0,
2,33024, Note_on_c, 0,65.0,75,
2,33024, Note_off_c, 0,65.0,0,
2,33024, Note_on_c, 0,65.0,70,
2,33024, Note_off_c, 0,70.0,0,
2,33024, Note_off_c, 0,58.0,0,
2,33024, Note_on_c, 0,58.0,70,
2,33024, Note_off_c, 0,56.0,0,
2,33024, Note_off_c, 0,60.0,0,
2,33024, Note_off_c, 0,65.0,0,
2,33024, Note_on_c, 0,65.0,75,
2,33024, Note_off_c, 0,68.0,0,
2,33280, Note_on_c, 0,53.0,86,
2,33280, Note_on_c, 0,65.0,83,
2,33280, Note_on_c, 0,56.0,85,
2,33280, Note_on_c, 0,63.0,71,
2,33280, Note_off_c, 0,65.0,0,
2,33280, Note_on_c, 0,60.0,70,
2,33280, Note_off_c, 0,53.0,0,
2,33280, Note_on_c, 0,68.0,73,
2,33280, Note_off_c, 0,48.0,0,
2,33280, Note_off_c, 0,75.0,0,
2,33792, Note_on_c, 0,60.0,77,
2,33792, Note_off_c, 0,50.0,0,
2,33792, Note_on_c, 0,53.0,82,
2,33792, Note_off_c, 0,53.0,0,
2,33792, Note_on_c, 0,58.0,76,
2,33792, Note_off_c, 0,68.0,0,
2,33792, Note_on_c, 0,79.0,80,
2,33792, Note_on_c, 0,72.0,81,
2,33792, Note_off_c, 0,60.0,0,
2,33920, Note_on_c, 0,48.0,80,
2,34048, Note_off_c, 0,58.0,0,
2,34048, Note_off_c, 0,70.0,0,
2,34048, Note_off_c, 0,72.0,0,
2,34048, Note_on_c, 0,75.0,84,
2,34048, Note_off_c, 0,79.0,0,
2,34048, Note_on_c, 0,68.0,80,
2,34048, Note_off_c, 0,56.0,0,
2,34048, Note_off_c, 0,65.0,0,
2,34048, Note_off_c, 0,63.0,0,
2,34048, Note_on_c, 0,58.0,77,
2,34048, Note_on_c, 0,67.0,76,
2,34048, Note_on_c, 0,70.0,85,
2,34432, Note_on_c, 0,65.0,83,
2,34432, Note_on_c, 0,79.0,72,
2,34560, Note_on_c, 0,53.0,85,
2,34560, Note_on_c, 0,51.0,85,
2,34560, Note_on_c, 0,77.0,85,
2,34560, Note_on_c, 0,50.0,87,
2,34560, Note_off_c, 0,68.0,0,
2,34560, Note_on_c, 0,56.0,86,
2,34560, Note_on_c, 0,72.0,72,
2,34560, Note_on_c, 0,68.0,76,
2,34560, Note_off_c, 0,79.0,0,
2,34560, Note_on_c, 0,63.0,79,
2,34560, Note_off_c, 0,53.0,0,
2,34752, Note_on_c, 0,74.0,88,
2,34752, Note_off_c, 0,68.0,0,
2,34816, Note_off_c, 0,65.0,0,
2,34816, Note_off_c, 0,77.0,0,
2,34816, Note_on_c, 0,62.0,85,
2,34816, Note_on_c, 0,70.0,80,
2,34816, Note_on_c, 0,60.0,92,
2,34816, Note_off_c, 0,50.0,0,
2,34816, Note_off_c, 0,60.0,0,
2,34816, Note_off_c, 0,75.0,0,
2,34816, Note_off_c, 0,58.0,0,
2,34816, Note_on_c, 0,51.0,84,
2,34816, Note_off_c, 0,51.0,0,
2,34816, Note_on_c, 0,46.0,78,
2,34944, Note_off_c, 0,62.0,0,
2,34944, Note_on_c, 0,65.0,88,
2,35008, Note_off_c, 0,74.0,0,
2,35072, Note_on_c, 0,58.0,84,
2,35072, Note_off_c, 0,58.0,0,
2,35328, Note_off_c, 0,56.0,0,
2,35328, Note_off_c, 0,51.0,0,
2,35328, Note_on_c, 0,58.0,80,
2,35328, Note_on_c, 0,68.0,84,
2,35328, Note_on_c, 0,50.0,81,
2,35328, Note_off_c, 0,53.0,0,
2,35328, Note_off_c, 0,55.0,0,
2,35328, Note_off_c, 0,63.0,0,
2,35328, Note_on_c, 0,75.0,83,
2,35328, Note_on_c, 0,56.0,81,
2,35328, Note_off_c, 0,46.0,0,
2,35456, Note_off_c, 0,68.0,0,
2,35584, Note_off_c, 0,60.0,0,
2,35584, Note_off_c, 0,67.0,0,
2,35584, Note_off_c, 0,79.0,0,
2,35584, Note_on_c, 0,74.0,82,
2,35584, Note_off_c, 0,56.0,0,
2,35584, Note_off_c, 0,75.0,0,
2,35584, Note_off_c, 0,72.0,0,
2,35584, Note_on_c, 0,53.0,84,
2,35584, Note_on_c, 0,44.0,78,
2,35584, Note_on_c, 0,79.0,77,
2,35584, Note_on_c, 0,51.0,80,
2,35712, Note_on_c, 0,55.0,88,
2,35712, Note_on_c, 0,72.0,87,
2,35840, Note_off_c, 0,48.0,0,
2,35840, Note_on_c, 0,75.0,77,
2,35840, Note_off_c, 0,74.0,0,
2,36096, Note_on_c, 0,63.0,75,
2,36096, Note_on_c, 0,56.0,76,
2,36096, Note_off_c, 0,51.0,0,
2,36096, Note_on_c, 0,70.0,77,
2,36096, Note_off_c, 0,63.0,0,
2,36096, Note_off_c, 0,70.0,0,
2,36096, Note_on_c, 0,79.0,79,
2,36096, Note_on_c, 0,75.0,78,
2,36096, Note_off_c, 0,44.0,0,
2,36096, Note_off_c, 0,75.0,0,
2,36096, Note_on_c, 0,63.0,76,
2,36096, Note_off_c, 0,79.0,0,
2,36352, Note_off_c, 0,63.0,0,
2,36352, Note_on_c, 0,70.0,72,
2,36352, Note_off_c, 0,56.0,0,
2,36352, Note_off_c, 0,55.0,0,
2,36352, Note_on_c, 0,79.0,83,
2,36352, Note_off_c, 0,65.0,0,
2,36352, Note_off_c, 0,63.0,0,
2,36352, Note_on_c, 0,77.0,78,
2,36352, Note_off_c, 0,70.0,0,
2,36352, Note_on_c, 0,43.0,78,
2,36352, Note_on_c, 0,63.0,74,
2,36864, Note_on_c, 0,48.0,68,
2,36864, Note_off_c, 0,75.0,0,
2,36864, Note_on_c, 0,46.0,72,
2,36864, Note_on_c, 0,60.0,71,
2,36864, Note_on_c, 0,36.0,61,
2, 36865, End_track,,,,
0, 0, End_of_file,,,,
