0, 0, Header, 1, 2, 480,,
1, 0, Start_track,,,,,
1, 0, Key_signature, 0," ""major""",,,
1, 0, SMPTE_offset, 96, 0, 0, 0, 0
1, 0, Tempo, 500000,,,,
1, 0, Time_signature, 4, 2, 24, 8,
1, 0, End_track,,,,,
2, 0, Start_track,,,,,
2, 0, Control_c, 0, 64, 127,,
2,0, Note_on_c, 0,59.0,97,,
2,0, Note_on_c, 0,73.0,102,,
2,0, Note_off_c, 0,73.0,0,,
2,1440, Note_on_c, 0,61.0,86,,
2,1440, Note_on_c, 0,68.0,81,,
2,1440, Note_on_c, 0,44.0,77,,
2,1440, Note_on_c, 0,73.0,101,,
2,1440, Note_off_c, 0,73.0,0,,
2,1440, Note_on_c, 0,73.0,101,,
2,1440, Note_off_c, 0,68.0,0,,
2,1440, Note_on_c, 0,75.0,77,,
2,1440, Note_off_c, 0,44.0,0,,
2,1440, Note_on_c, 0,38.0,61,,
2,1440, Note_on_c, 0,76.0,78,,
2,1440, Note_off_c, 0,75.0,0,,
2,1920, Note_on_c, 0,75.0,95,,
2,1920, Note_on_c, 0,79.0,96,,
2,1920, Note_on_c, 0,82.0,100,,
2,2400, Note_off_c, 0,61.0,0,,
2,2400, Note_on_c, 0,85.0,95,,
2,3360, Note_on_c, 0,80.0,84,,
2,3360, Note_on_c, 0,63.0,83,,
2,3360, Note_on_c, 0,88.0,85,,
2,3360, Note_off_c, 0,63.0,0,,
2,3360, Note_on_c, 0,58.0,86,,
2, 3618, Control_c, 0, 64, 0,,
2,3840, Note_off_c, 0,82.0,0,,
2,3840, Note_on_c, 0,83.0,77,,
2, 4786, Control_c, 0, 64, 127,,
2,4800, Note_off_c, 0,83.0,0,,
2,4800, Note_on_c, 0,82.0,68,,
2,4800, Note_off_c, 0,85.0,0,,
2,4800, Note_off_c, 0,82.0,0,,
2,4800, Note_off_c, 0,80.0,0,,
2,4800, Note_off_c, 0,88.0,0,,
2,4800, Note_on_c, 0,63.0,74,,
2,4800, Note_on_c, 0,82.0,77,,
2,4800, Note_off_c, 0,79.0,0,,
2,4800, Note_on_c, 0,61.0,96,,
2,4800, Note_off_c, 0,61.0,0,,
2,4800, Note_on_c, 0,61.0,105,,
2,4800, Note_off_c, 0,58.0,0,,
2,5280, Note_on_c, 0,80.0,103,,
2,5280, Note_off_c, 0,80.0,0,,
2,5280, Note_on_c, 0,85.0,98,,
2,5280, Note_on_c, 0,79.0,98,,
2,6240, Note_off_c, 0,75.0,0,,
2,6240, Note_on_c, 0,75.0,106,,
2,6720, Note_off_c, 0,63.0,0,,
2, 6646, Control_c, 0, 64, 0,,
2,6720, Note_off_c, 0,73.0,0,,
2, 6876, Control_c, 0, 64, 127,,
2,6720, Note_off_c, 0,76.0,0,,
2,7200, Note_on_c, 0,52.0,77,,
2,7200, Note_on_c, 0,76.0,75,,
2,7200, Note_on_c, 0,80.0,99,,
2,7200, Note_off_c, 0,76.0,0,,
2, 7230, Control_c, 0, 64, 0,,
2, 8212, Control_c, 0, 64, 127,,
2,8160, Note_on_c, 0,73.0,77,,
2,8160, Note_on_c, 0,51.0,93,,
2,8160, Note_on_c, 0,63.0,76,,
2,8160, Note_on_c, 0,76.0,81,,
2,8640, Note_off_c, 0,73.0,0,,
2,8640, Note_off_c, 0,76.0,0,,
2,8640, Note_off_c, 0,75.0,0,,
2,8640, Note_on_c, 0,78.0,75,,
2,8640, Note_off_c, 0,59.0,0,,
2,8640, Note_on_c, 0,53.0,86,,
2,8640, Note_on_c, 0,44.0,98,,
2,8640, Note_off_c, 0,53.0,0,,
2,8640, Note_on_c, 0,37.0,96,,
2,8640, Note_off_c, 0,37.0,0,,
2,8640, Note_off_c, 0,44.0,0,,
2,8640, Note_on_c, 0,37.0,87,,
2,8640, Note_on_c, 0,49.0,86,,
2,10080, Note_on_c, 0,44.0,82,,
2,10080, Note_off_c, 0,44.0,0,,
2,10080, Note_off_c, 0,37.0,0,,
2,10080, Note_off_c, 0,49.0,0,,
2,10080, Note_on_c, 0,37.0,76,,
2, 10364, Control_c, 0, 64, 0,,
2,10560, Note_on_c, 0,57.0,80,,
2,10560, Note_on_c, 0,56.0,71,,
2,11520, Note_off_c, 0,57.0,0,,
2,11520, Note_off_c, 0,56.0,0,,
2,11520, Note_on_c, 0,49.0,79,,
2,11520, Note_off_c, 0,37.0,0,,
2,11520, Note_on_c, 0,37.0,92,,
2,11520, Note_off_c, 0,61.0,0,,
2,11520, Note_on_c, 0,44.0,62,,
2,11520, Note_on_c, 0,73.0,53,,
2, 11654, Control_c, 0, 64, 127,,
2,11520, Note_off_c, 0,37.0,0,,
2,11520, Note_off_c, 0,44.0,0,,
2,11520, Note_on_c, 0,64.0,98,,
2,11520, Note_on_c, 0,57.0,92,,
2,11520, Note_on_c, 0,69.0,92,,
2,12000, Note_off_c, 0,64.0,0,,
2,12000, Note_on_c, 0,64.0,93,,
2,12000, Note_off_c, 0,63.0,0,,
2,12480, Note_on_c, 0,75.0,89,,
2,12480, Note_on_c, 0,59.0,91,,
2,12480, Note_off_c, 0,59.0,0,,
2,12480, Note_on_c, 0,59.0,61,,
2, 12668, Control_c, 0, 64, 0,,
2,12960, Note_off_c, 0,59.0,0,,
2,12960, Note_on_c, 0,37.0,85,,
2,12960, Note_off_c, 0,49.0,0,,
2,13440, Note_on_c, 0,44.0,72,,
2, 13314, Control_c, 0, 64, 127,,
2,13440, Note_off_c, 0,44.0,0,,
2,13440, Note_on_c, 0,56.0,69,,
2,13440, Note_off_c, 0,37.0,0,,
2,13440, Note_off_c, 0,56.0,0,,
2, 13682, Control_c, 0, 64, 0,,
2,14400, Note_on_c, 0,61.0,65,,
2,14400, Note_on_c, 0,56.0,92,,
2,14400, Note_on_c, 0,49.0,82,,
2,14400, Note_on_c, 0,44.0,60,,
2,14400, Note_off_c, 0,56.0,0,,
2,14400, Note_on_c, 0,53.0,87,,
2,14400, Note_off_c, 0,61.0,0,,
2,14400, Note_off_c, 0,44.0,0,,
2, 14666, Control_c, 0, 64, 127,,
2,14880, Note_on_c, 0,37.0,97,,
2,14880, Note_on_c, 0,44.0,61,,
2,14880, Note_off_c, 0,37.0,0,,
2,14880, Note_on_c, 0,61.0,49,,
2,14880, Note_on_c, 0,56.0,53,,
2,14880, Note_on_c, 0,37.0,51,,
2,14880, Note_off_c, 0,56.0,0,,
2,14880, Note_off_c, 0,49.0,0,,
2,14880, Note_off_c, 0,52.0,0,,
2,15840, Note_on_c, 0,52.0,56,,
2, 16048, Control_c, 0, 64, 0,,
2,15840, Note_on_c, 0,60.0,60,,
2,16320, Note_off_c, 0,60.0,0,,
2,17280, Note_on_c, 0,60.0,63,,
2,17280, Note_off_c, 0,37.0,0,,
2,17280, Note_off_c, 0,44.0,0,,
2,17280, Note_off_c, 0,53.0,0,,
2,17280, Note_on_c, 0,44.0,44,,
2,17280, Note_off_c, 0,44.0,0,,
2,17280, Note_on_c, 0,44.0,55,,
2,17280, Note_on_c, 0,37.0,70,,
2, 17340, Control_c, 0, 64, 127,,
2,17280, Note_on_c, 0,56.0,74,,
2,17280, Note_on_c, 0,53.0,56,,
2,17280, Note_off_c, 0,37.0,0,,
2,17280, Note_off_c, 0,56.0,0,,
2,17280, Note_on_c, 0,37.0,50,,
2,17760, Note_on_c, 0,49.0,55,,
2,17760, Note_off_c, 0,44.0,0,,
2,17760, Note_off_c, 0,37.0,0,,
2,18240, Note_on_c, 0,59.0,57,,
2,18240, Note_off_c, 0,59.0,0,,
2,18720, Note_off_c, 0,61.0,0,,
2,18720, Note_on_c, 0,59.0,33,,
2, 18876, Control_c, 0, 64, 0,,
2,18720, Note_on_c, 0,37.0,40,,
2,18720, Note_off_c, 0,53.0,0,,
2,19200, Note_on_c, 0,44.0,48,,
2,19200, Note_off_c, 0,37.0,0,,
2, 19398, Control_c, 0, 64, 127,,
2,19200, Note_off_c, 0,44.0,0,,
2,19680, Note_on_c, 0,37.0,39,,
2,19680, Note_on_c, 0,44.0,22,,
2,19680, Note_off_c, 0,37.0,0,,
2, 19782, Control_c, 0, 64, 0,,
2, 20536, Control_c, 0, 64, 127,,
2,20640, Note_on_c, 0,56.0,64,,
2,20640, Note_off_c, 0,44.0,0,,
2,20640, Note_on_c, 0,53.0,34,,
2,20640, Note_off_c, 0,53.0,0,,
2,20640, Note_off_c, 0,56.0,0,,
2,20640, Note_on_c, 0,56.0,29,,
2,20640, Note_off_c, 0,56.0,0,,
2,20640, Note_off_c, 0,49.0,0,,
2,20640, Note_off_c, 0,51.0,0,,
2,21120, Note_on_c, 0,68.0,29,,
2,21120, Note_on_c, 0,51.0,44,,
2,22560, Note_off_c, 0,51.0,0,,
2,22560, Note_off_c, 0,68.0,0,,
2,22560, Note_off_c, 0,59.0,0,,
2, 22564, Control_c, 0, 64, 0,,
2, 22902, Control_c, 0, 64, 127,,
2,23040, Note_off_c, 0,52.0,0,,
2,23040, Note_on_c, 0,61.0,69,,
2,23520, Note_off_c, 0,61.0,0,,
2,23520, Note_on_c, 0,70.0,73,,
2,24000, Note_on_c, 0,45.0,74,,
2,24000, Note_on_c, 0,54.0,78,,
2, 24008, Control_c, 0, 64, 0,,
2,24000, Note_on_c, 0,50.0,71,,
2,24000, Note_off_c, 0,45.0,0,,
2, 24270, Control_c, 0, 64, 127,,
2,24480, Note_on_c, 0,32.0,71,,
2,24480, Note_off_c, 0,57.0,0,,
2, 24500, Control_c, 0, 64, 0,,
2,24480, Note_on_c, 0,52.0,70,,
2,24960, Note_off_c, 0,64.0,0,,
2, 24746, Control_c, 0, 64, 127,,
2, 24808, Control_c, 0, 64, 0,,
2,24960, Note_on_c, 0,63.0,54,,
2,24960, Note_off_c, 0,73.0,0,,
2,25440, Note_on_c, 0,76.0,51,,
2,25440, Note_on_c, 0,73.0,46,,
2,25920, Note_off_c, 0,76.0,0,,
2,25920, Note_off_c, 0,63.0,0,,
2,25920, Note_on_c, 0,58.0,40,,
2,25920, Note_off_c, 0,73.0,0,,
2,25920, Note_on_c, 0,64.0,40,,
2, 26466, Control_c, 0, 64, 127,,
2,26400, Note_on_c, 0,68.0,43,,
2,26880, Note_on_c, 0,73.0,47,,
2, 26852, Control_c, 0, 64, 0,,
2,26880, Note_on_c, 0,37.0,46,,
2, 27650, Control_c, 0, 64, 127,,
2,28800, Note_on_c, 0,44.0,45,,
2,29280, Note_off_c, 0,68.0,0,,
2,29280, Note_off_c, 0,52.0,0,,
2, 29294, Control_c, 0, 64, 0,,
2,29280, Note_off_c, 0,64.0,0,,
2,30240, Note_on_c, 0,49.0,46,,
2,30240, Note_on_c, 0,52.0,53,,
2, 30322, Control_c, 0, 64, 127,,
2,30240, Note_off_c, 0,60.0,0,,
2,30240, Note_on_c, 0,61.0,76,,
2,31200, Note_on_c, 0,72.0,71,,
2,31680, Note_off_c, 0,73.0,0,,
2, 31598, Control_c, 0, 64, 0,,
2,32160, Note_on_c, 0,73.0,46,,
2, 32366, Control_c, 0, 64, 127,,
2,32640, Note_on_c, 0,60.0,38,,
2,32640, Note_off_c, 0,79.0,0,,
2,32640, Note_off_c, 0,61.0,0,,
2,33120, Note_off_c, 0,58.0,0,,
2,33600, Note_off_c, 0,49.0,0,,
2,33600, Note_off_c, 0,73.0,0,,
2,33600, Note_off_c, 0,75.0,0,,
2,33600, Note_on_c, 0,73.0,75,,
2,33600, Note_off_c, 0,73.0,0,,
2, 33718, Control_c, 0, 64, 0,,
2,33600, Note_off_c, 0,38.0,0,,
2, 33980, Control_c, 0, 64, 127,,
2,34080, Note_on_c, 0,76.0,63,,
2,34560, Note_on_c, 0,75.0,42,,
2,34560, Note_on_c, 0,58.0,32,,
2,34560, Note_off_c, 0,76.0,0,,
2,34560, Note_on_c, 0,63.0,32,,
2,34560, Note_off_c, 0,75.0,0,,
2,34560, Note_on_c, 0,75.0,64,,
2,35040, Note_on_c, 0,79.0,83,,
2,35040, Note_on_c, 0,76.0,90,,
2,35520, Note_on_c, 0,64.0,56,,
2,36000, Note_off_c, 0,75.0,0,,
2, 35962, Control_c, 0, 64, 0,,
2,36000, Note_on_c, 0,51.0,30,,
2,36000, Note_on_c, 0,73.0,51,,
2, 36240, Control_c, 0, 64, 127,,
2,36480, Note_off_c, 0,76.0,0,,
2,36480, Note_on_c, 0,75.0,29,,
2,36480, Note_on_c, 0,76.0,38,,
2,36960, Note_off_c, 0,73.0,0,,
2,36960, Note_off_c, 0,75.0,0,,
2,36960, Note_off_c, 0,51.0,0,,
2,36960, Note_off_c, 0,79.0,0,,
2,36960, Note_on_c, 0,61.0,72,,
2, 36992, Control_c, 0, 64, 0,,
2,36960, Note_off_c, 0,76.0,0,,
2,36960, Note_on_c, 0,67.0,61,,
2,36960, Note_on_c, 0,68.0,64,,
2,36960, Note_on_c, 0,51.0,67,,
2,36960, Note_off_c, 0,68.0,0,,
2,37440, Note_off_c, 0,51.0,0,,
2, 37376, Control_c, 0, 64, 127,,
2,37440, Note_on_c, 0,51.0,55,,
2,37440, Note_off_c, 0,51.0,0,,
2,37440, Note_on_c, 0,68.0,30,,
2,37440, Note_off_c, 0,44.0,0,,
2,37440, Note_on_c, 0,44.0,28,,
2,37920, Note_on_c, 0,47.0,41,,
2,37920, Note_off_c, 0,32.0,0,,
2, 37898, Control_c, 0, 64, 0,,
2,37920, Note_on_c, 0,32.0,50,,
2,37920, Note_off_c, 0,47.0,0,,
2,37920, Note_off_c, 0,44.0,0,,
2,37920, Note_on_c, 0,44.0,37,,
2,38400, Note_off_c, 0,54.0,0,,
2, 38498, Control_c, 0, 64, 127,,
2,38880, Note_off_c, 0,32.0,0,,
2,38880, Note_on_c, 0,45.0,29,,
2,38880, Note_on_c, 0,32.0,24,,
2,38880, Note_off_c, 0,44.0,0,,
2,38880, Note_off_c, 0,32.0,0,,
2,38880, Note_off_c, 0,70.0,0,,
2,38880, Note_on_c, 0,44.0,27,,
2,38880, Note_on_c, 0,47.0,44,,
2,38880, Note_off_c, 0,50.0,0,,
2,39360, Note_on_c, 0,54.0,46,,
2,39360, Note_on_c, 0,50.0,36,,
2,39360, Note_off_c, 0,44.0,0,,
2,39840, Note_off_c, 0,68.0,0,,
2,39840, Note_on_c, 0,44.0,34,,
2,39840, Note_off_c, 0,63.0,0,,
2,40320, Note_off_c, 0,52.0,0,,
2,40320, Note_on_c, 0,48.0,27,,
2,40320, Note_off_c, 0,60.0,0,,
2,40320, Note_on_c, 0,49.0,23,,
2, 40188, Control_c, 0, 64, 0,,
2, 40788, Control_c, 0, 64, 127,,
2,40800, Note_on_c, 0,25.0,20,,
2,41280, Note_off_c, 0,61.0,0,,
2,41280, Note_on_c, 0,61.0,44,,
2,41280, Note_off_c, 0,25.0,0,,
2,41280, Note_on_c, 0,63.0,57,,
2, 41370, Control_c, 0, 64, 0,,
2,41760, Note_off_c, 0,37.0,0,,
2, 41556, Control_c, 0, 64, 127,,
2,41760, Note_off_c, 0,49.0,0,,
2,41760, Note_off_c, 0,44.0,0,,
2,41760, Note_off_c, 0,61.0,0,,
2,42240, Note_on_c, 0,44.0,37,,
2,42240, Note_on_c, 0,53.0,23,,
2,42240, Note_on_c, 0,56.0,48,,
2,42240, Note_on_c, 0,49.0,67,,
2, 42416, Control_c, 0, 64, 0,,
2,42240, Note_on_c, 0,52.0,22,,
2,42720, Note_on_c, 0,61.0,31,,
2, 42692, Control_c, 0, 64, 127,,
2,42720, Note_off_c, 0,44.0,0,,
2,43200, Note_on_c, 0,59.0,48,,
2,43680, Note_off_c, 0,59.0,0,,
2,43680, Note_on_c, 0,57.0,72,,
2,43680, Note_off_c, 0,56.0,0,,
2,43680, Note_off_c, 0,57.0,0,,
2,43680, Note_on_c, 0,56.0,84,,
2,43680, Note_off_c, 0,56.0,0,,
2,43680, Note_on_c, 0,57.0,87,,
2,44160, Note_on_c, 0,56.0,71,,
2,44640, Note_off_c, 0,57.0,0,,
2,45120, Note_on_c, 0,57.0,35,,
2, 44981, Control_c, 0, 64, 0,,
2,45120, Note_off_c, 0,56.0,0,,
2, 45152, Control_c, 0, 64, 127,,
2,45120, Note_on_c, 0,56.0,66,,
2,45120, Note_off_c, 0,56.0,0,,
2,45120, Note_off_c, 0,57.0,0,,
2,45600, Note_on_c, 0,56.0,48,,
2,45600, Note_on_c, 0,57.0,44,,
2,45600, Note_off_c, 0,56.0,0,,
2,45600, Note_on_c, 0,56.0,32,,
2,45600, Note_off_c, 0,56.0,0,,
2,45600, Note_on_c, 0,59.0,71,,
2,45600, Note_off_c, 0,59.0,0,,
2,45600, Note_on_c, 0,59.0,74,,
2, 45826, Control_c, 0, 64, 0,,
2,46080, Note_off_c, 0,49.0,0,,
2,46080, Note_off_c, 0,52.0,0,,
2, 46012, Control_c, 0, 64, 127,,
2,46080, Note_off_c, 0,57.0,0,,
2,46080, Note_on_c, 0,57.0,71,,
2,46080, Note_off_c, 0,59.0,0,,
2,46080, Note_off_c, 0,57.0,0,,
2,46560, Note_on_c, 0,49.0,76,,
2,46560, Note_on_c, 0,44.0,55,,
2,46560, Note_on_c, 0,37.0,38,,
2,46560, Note_off_c, 0,44.0,0,,
2,46560, Note_off_c, 0,53.0,0,,
2,46560, Note_off_c, 0,37.0,0,,
2,46560, Note_on_c, 0,37.0,43,,
2, 46656, Control_c, 0, 64, 0,,
2, 46902, Control_c, 0, 64, 127,,
2,47040, Note_on_c, 0,56.0,50,,
2,47040, Note_off_c, 0,56.0,0,,
2,47520, Note_off_c, 0,49.0,0,,
2,47520, Note_on_c, 0,53.0,49,,
2,47520, Note_off_c, 0,37.0,0,,
2,47520, Note_on_c, 0,49.0,36,,
2,47520, Note_on_c, 0,44.0,45,,
2,47520, Note_on_c, 0,56.0,51,,
2,47520, Note_off_c, 0,44.0,0,,
2,47520, Note_off_c, 0,49.0,0,,
2, 47532, Control_c, 0, 64, 0,,
2,47520, Note_on_c, 0,44.0,39,,
2,47520, Note_off_c, 0,53.0,0,,
2, 47778, Control_c, 0, 64, 127,,
2,48480, Note_on_c, 0,37.0,49,,
2,48480, Note_off_c, 0,54.0,0,,
2,48480, Note_off_c, 0,64.0,0,,
2, 48500, Control_c, 0, 64, 0,,
2,48480, Note_off_c, 0,63.0,0,,
2,48480, Note_on_c, 0,76.0,51,,
2,48480, Note_on_c, 0,63.0,48,,
2,48480, Note_off_c, 0,50.0,0,,
2, 49008, Control_c, 0, 64, 127,,
2,48960, Note_on_c, 0,75.0,50,,
2,48960, Note_on_c, 0,25.0,70,,
2,49440, Note_off_c, 0,63.0,0,,
2,49440, Note_off_c, 0,78.0,0,,
2,49440, Note_on_c, 0,59.0,76,,
2,49440, Note_off_c, 0,61.0,0,,
2, 49590, Control_c, 0, 64, 0,,
2, 49730, Control_c, 0, 64, 127,,
2,49920, Note_on_c, 0,68.0,84,,
2,49920, Note_off_c, 0,68.0,0,,
2,49920, Note_on_c, 0,68.0,72,,
2,49920, Note_on_c, 0,73.0,45,,
2,49920, Note_off_c, 0,44.0,0,,
2,49920, Note_on_c, 0,44.0,54,,
2,49920, Note_on_c, 0,63.0,55,,
2,49920, Note_on_c, 0,64.0,85,,
2,49920, Note_on_c, 0,57.0,58,,
2,50400, Note_off_c, 0,69.0,0,,
2,50400, Note_off_c, 0,64.0,0,,
2,50400, Note_off_c, 0,73.0,0,,
2,50880, Note_on_c, 0,61.0,68,,
2,50880, Note_off_c, 0,63.0,0,,
2,50880, Note_on_c, 0,62.0,73,,
2,50880, Note_off_c, 0,61.0,0,,
2,50880, Note_off_c, 0,68.0,0,,
2,50880, Note_on_c, 0,61.0,77,,
2,50880, Note_on_c, 0,64.0,60,,
2,50880, Note_off_c, 0,61.0,0,,
2,50880, Note_off_c, 0,37.0,0,,
2,51360, Note_on_c, 0,73.0,58,,
2,51360, Note_on_c, 0,61.0,79,,
2,51360, Note_on_c, 0,68.0,64,,
2,51360, Note_off_c, 0,61.0,0,,
2,51360, Note_off_c, 0,73.0,0,,
2,51360, Note_off_c, 0,75.0,0,,
2, 51420, Control_c, 0, 64, 0,,
2, 51634, Control_c, 0, 64, 127,,
2,51840, Note_on_c, 0,50.0,75,,
2,51840, Note_on_c, 0,52.0,81,,
2,51840, Note_on_c, 0,75.0,53,,
2,52320, Note_off_c, 0,64.0,0,,
2,52320, Note_off_c, 0,68.0,0,,
2,52320, Note_on_c, 0,71.0,51,,
2,52320, Note_off_c, 0,67.0,0,,
2,52320, Note_on_c, 0,51.0,55,,
2,52320, Note_on_c, 0,64.0,59,,
2,52320, Note_on_c, 0,68.0,61,,
2,52320, Note_off_c, 0,68.0,0,,
2,52800, Note_on_c, 0,68.0,35,,
2,52800, Note_off_c, 0,64.0,0,,
2,53280, Note_off_c, 0,68.0,0,,
2,53280, Note_off_c, 0,71.0,0,,
2,53280, Note_on_c, 0,67.0,48,,
2,53280, Note_on_c, 0,68.0,91,,
2, 53418, Control_c, 0, 64, 0,,
2, 53586, Control_c, 0, 64, 127,,
2,53760, Note_on_c, 0,70.0,87,,
2,53760, Note_off_c, 0,68.0,0,,
2,53760, Note_off_c, 0,51.0,0,,
2,53760, Note_off_c, 0,59.0,0,,
2,53760, Note_on_c, 0,63.0,84,,
2,53760, Note_on_c, 0,68.0,90,,
2,53760, Note_on_c, 0,59.0,91,,
2,53760, Note_off_c, 0,68.0,0,,
2,53760, Note_off_c, 0,44.0,0,,
2,53760, Note_off_c, 0,47.0,0,,
2,53760, Note_off_c, 0,59.0,0,,
2,54240, Note_on_c, 0,68.0,91,,
2,54240, Note_off_c, 0,67.0,0,,
2,54240, Note_off_c, 0,70.0,0,,
2,54240, Note_off_c, 0,68.0,0,,
2,54240, Note_off_c, 0,45.0,0,,
2,54240, Note_on_c, 0,45.0,71,,
2,54240, Note_off_c, 0,45.0,0,,
2,54240, Note_on_c, 0,32.0,89,,
2,54240, Note_on_c, 0,44.0,92,,
2,54240, Note_off_c, 0,44.0,0,,
2,54240, Note_on_c, 0,54.0,85,,
2, 54400, Control_c, 0, 64, 0,,
2,54720, Note_off_c, 0,54.0,0,,
2, 54570, Control_c, 0, 64, 127,,
2,54720, Note_off_c, 0,50.0,0,,
2,54720, Note_on_c, 0,44.0,54,,
2,54720, Note_off_c, 0,32.0,0,,
2,54720, Note_on_c, 0,32.0,52,,
2,54720, Note_on_c, 0,50.0,72,,
2,54720, Note_on_c, 0,54.0,86,,
2,54720, Note_off_c, 0,56.0,0,,
2,54720, Note_on_c, 0,56.0,81,,
2,54720, Note_off_c, 0,57.0,0,,
2,55200, Note_on_c, 0,59.0,83,,
2,55200, Note_on_c, 0,57.0,90,,
2,55200, Note_off_c, 0,56.0,0,,
2,55200, Note_off_c, 0,59.0,0,,
2,55200, Note_on_c, 0,56.0,87,,
2,55200, Note_off_c, 0,56.0,0,,
2,55200, Note_off_c, 0,57.0,0,,
2,55200, Note_on_c, 0,56.0,80,,
2, 55260, Control_c, 0, 64, 0,,
2,55200, Note_on_c, 0,57.0,88,,
2, 55460, Control_c, 0, 64, 127,,
2,55680, Note_on_c, 0,49.0,77,,
2,55680, Note_on_c, 0,40.0,47,,
2,55680, Note_off_c, 0,49.0,0,,
2,56160, Note_off_c, 0,44.0,0,,
2,56160, Note_off_c, 0,40.0,0,,
2,56160, Note_off_c, 0,52.0,0,,
2,56160, Note_on_c, 0,52.0,48,,
2,56160, Note_off_c, 0,52.0,0,,
2,56160, Note_on_c, 0,44.0,63,,
2,56160, Note_on_c, 0,37.0,73,,
2,56160, Note_on_c, 0,66.0,63,,
2,56160, Note_on_c, 0,61.0,54,,
2,56160, Note_on_c, 0,60.0,64,,
2,56160, Note_on_c, 0,73.0,37,,
2,56640, Note_off_c, 0,60.0,0,,
2,56640, Note_off_c, 0,72.0,0,,
2,56640, Note_off_c, 0,66.0,0,,
2,56640, Note_off_c, 0,73.0,0,,
2,56640, Note_on_c, 0,72.0,8,,
2,56640, Note_on_c, 0,49.0,78,,
2,56640, Note_on_c, 0,60.0,63,,
2,56640, Note_off_c, 0,75.0,0,,
2,56640, Note_off_c, 0,76.0,0,,
2,57120, Note_on_c, 0,52.0,83,,
2,57120, Note_on_c, 0,76.0,81,,
2,57120, Note_on_c, 0,75.0,76,,
2,57120, Note_off_c, 0,76.0,0,,
2, 57090, Control_c, 0, 64, 0,,
2, 57320, Control_c, 0, 64, 127,,
2,57120, Note_off_c, 0,75.0,0,,
2,57600, Note_on_c, 0,75.0,78,,
2,57600, Note_on_c, 0,71.0,71,,
2,57600, Note_on_c, 0,67.0,74,,
2,57600, Note_off_c, 0,71.0,0,,
2,57600, Note_on_c, 0,70.0,77,,
2,57600, Note_off_c, 0,67.0,0,,
2,57600, Note_on_c, 0,71.0,65,,
2,58080, Note_on_c, 0,68.0,84,,
2,58080, Note_off_c, 0,71.0,0,,
2,58080, Note_on_c, 0,71.0,98,,
2,58080, Note_on_c, 0,67.0,80,,
2,58080, Note_off_c, 0,70.0,0,,
2,58560, Note_on_c, 0,70.0,79,,
2,58560, Note_off_c, 0,68.0,0,,
2,58560, Note_off_c, 0,32.0,0,,
2,58560, Note_on_c, 0,69.0,72,,
2,58560, Note_off_c, 0,49.0,0,,
2,58560, Note_on_c, 0,64.0,67,,
2,58560, Note_on_c, 0,49.0,86,,
2,58560, Note_on_c, 0,68.0,97,,
2,58560, Note_off_c, 0,64.0,0,,
2,58560, Note_off_c, 0,49.0,0,,
2,58560, Note_off_c, 0,68.0,0,,
2,58560, Note_on_c, 0,64.0,89,,
2,58560, Note_on_c, 0,49.0,79,,
2,58560, Note_off_c, 0,57.0,0,,
2,58560, Note_off_c, 0,69.0,0,,
2,58560, Note_off_c, 0,54.0,0,,
2,58560, Note_off_c, 0,52.0,0,,
2,58560, Note_off_c, 0,75.0,0,,
2, 58748, Control_c, 0, 64, 0,,
2,59040, Note_on_c, 0,76.0,86,,
2,59040, Note_off_c, 0,63.0,0,,
2,59040, Note_off_c, 0,61.0,0,,
2,59040, Note_on_c, 0,73.0,66,,
2, 59088, Control_c, 0, 64, 127,,
2,59040, Note_on_c, 0,63.0,42,,
2,59040, Note_off_c, 0,70.0,0,,
2,59040, Note_on_c, 0,68.0,83,,
2,59040, Note_off_c, 0,67.0,0,,
2,59520, Note_off_c, 0,71.0,0,,
2,59520, Note_on_c, 0,39.0,74,,
2,59520, Note_off_c, 0,68.0,0,,
2,59520, Note_on_c, 0,67.0,100,,
2,59520, Note_on_c, 0,68.0,82,,
2,60000, Note_on_c, 0,70.0,66,,
2,60000, Note_off_c, 0,67.0,0,,
2,60480, Note_on_c, 0,67.0,85,,
2,60480, Note_off_c, 0,67.0,0,,
2,60480, Note_off_c, 0,70.0,0,,
2,60480, Note_off_c, 0,76.0,0,,
2,60480, Note_on_c, 0,75.0,81,,
2,60480, Note_off_c, 0,49.0,0,,
2,60480, Note_off_c, 0,75.0,0,,
2,60480, Note_on_c, 0,59.0,70,,
2,60480, Note_on_c, 0,78.0,76,,
2, 60608, Control_c, 0, 64, 0,,
2,60480, Note_on_c, 0,61.0,70,,
2,60960, Note_off_c, 0,61.0,0,,
2,60960, Note_on_c, 0,61.0,83,,
2, 60870, Control_c, 0, 64, 127,,
2,60960, Note_off_c, 0,61.0,0,,
2,60960, Note_on_c, 0,61.0,94,,
2,60960, Note_off_c, 0,61.0,0,,
2,60960, Note_on_c, 0,49.0,92,,
2,60960, Note_on_c, 0,53.0,87,,
2,60960, Note_off_c, 0,44.0,0,,
2,60960, Note_off_c, 0,56.0,0,,
2,61440, Note_off_c, 0,49.0,0,,
2,61440, Note_on_c, 0,56.0,73,,
2,61440, Note_on_c, 0,61.0,89,,
2,61440, Note_off_c, 0,61.0,0,,
2,61440, Note_on_c, 0,40.0,84,,
2,61440, Note_on_c, 0,52.0,80,,
2,61440, Note_off_c, 0,52.0,0,,
2,61440, Note_on_c, 0,52.0,73,,
2,61440, Note_on_c, 0,61.0,43,,
2,61440, Note_on_c, 0,69.0,59,,
2,61440, Note_on_c, 0,75.0,95,,
2,61440, Note_on_c, 0,76.0,91,,
2,61440, Note_on_c, 0,54.0,79,,
2,61440, Note_off_c, 0,64.0,0,,
2,61440, Note_on_c, 0,64.0,82,,
2,61440, Note_off_c, 0,64.0,0,,
2,61440, Note_on_c, 0,57.0,76,,
2,61440, Note_on_c, 0,44.0,74,,
2,61440, Note_on_c, 0,64.0,110,,
2,61440, Note_off_c, 0,54.0,0,,
2,61920, Note_on_c, 0,49.0,79,,
2,61920, Note_off_c, 0,69.0,0,,
2,61920, Note_off_c, 0,64.0,0,,
2,61920, Note_on_c, 0,64.0,77,,
2,61920, Note_off_c, 0,56.0,0,,
2,61920, Note_on_c, 0,54.0,89,,
2,61920, Note_off_c, 0,63.0,0,,
2,61920, Note_off_c, 0,64.0,0,,
2,61920, Note_off_c, 0,57.0,0,,
2,61920, Note_on_c, 0,47.0,65,,
2,61920, Note_on_c, 0,42.0,79,,
2,61920, Note_on_c, 0,35.0,93,,
2,61920, Note_off_c, 0,47.0,0,,
2,61920, Note_on_c, 0,64.0,69,,
2,62400, Note_on_c, 0,66.0,78,,
2,62400, Note_on_c, 0,51.0,80,,
2,62400, Note_off_c, 0,59.0,0,,
2,62400, Note_off_c, 0,52.0,0,,
2,62400, Note_on_c, 0,56.0,102,,
2,62400, Note_off_c, 0,40.0,0,,
2,62400, Note_on_c, 0,47.0,71,,
2,62400, Note_on_c, 0,59.0,59,,
2,62400, Note_off_c, 0,39.0,0,,
2,62400, Note_off_c, 0,47.0,0,,
2,62400, Note_on_c, 0,63.0,81,,
2,62400, Note_on_c, 0,39.0,59,,
2,62400, Note_off_c, 0,48.0,0,,
2,62400, Note_off_c, 0,61.0,0,,
2,62880, Note_off_c, 0,63.0,0,,
2,62880, Note_off_c, 0,64.0,0,,
2,62880, Note_off_c, 0,66.0,0,,
2,62880, Note_off_c, 0,56.0,0,,
2,62880, Note_off_c, 0,44.0,0,,
2,62880, Note_off_c, 0,50.0,0,,
2,62880, Note_off_c, 0,54.0,0,,
2,62880, Note_on_c, 0,32.0,63,,
2,62880, Note_on_c, 0,44.0,71,,
2,62880, Note_on_c, 0,57.0,59,,
2,62880, Note_on_c, 0,69.0,57,,
2,62880, Note_on_c, 0,64.0,56,,
2,62880, Note_off_c, 0,49.0,0,,
2,62880, Note_on_c, 0,61.0,63,,
2,63360, Note_on_c, 0,48.0,69,,
2,63360, Note_off_c, 0,64.0,0,,
2,63360, Note_on_c, 0,49.0,68,,
2,63360, Note_off_c, 0,37.0,0,,
2,63360, Note_off_c, 0,61.0,0,,
2,63360, Note_on_c, 0,61.0,76,,
2,63360, Note_off_c, 0,59.0,0,,
2,63360, Note_off_c, 0,61.0,0,,
2,63360, Note_on_c, 0,59.0,83,,
2, 63512, Control_c, 0, 64, 0,,
2,63840, Note_on_c, 0,61.0,78,,
2,63840, Note_off_c, 0,68.0,0,,
2,63840, Note_on_c, 0,68.0,88,,
2, 63896, Control_c, 0, 64, 127,,
2,63840, Note_off_c, 0,68.0,0,,
2,63840, Note_on_c, 0,68.0,92,,
2, 64034, Control_c, 0, 64, 0,,
2,63840, Note_off_c, 0,68.0,0,,
2,64320, Note_on_c, 0,68.0,92,,
2,64320, Note_off_c, 0,73.0,0,,
2,64320, Note_on_c, 0,52.0,90,,
2,64320, Note_on_c, 0,64.0,89,,
2, 64680, Control_c, 0, 64, 127,,
2,64800, Note_on_c, 0,63.0,85,,
2,64800, Note_on_c, 0,79.0,76,,
2,64800, Note_off_c, 0,76.0,0,,
2,65280, Note_off_c, 0,68.0,0,,
2,65280, Note_off_c, 0,64.0,0,,
2,65280, Note_off_c, 0,39.0,0,,
2,65760, Note_on_c, 0,68.0,56,,
2,65760, Note_on_c, 0,71.0,31,,
2, 66462, Control_c, 0, 64, 0,,
2, 66722, Control_c, 0, 64, 127,,
2,67680, Note_off_c, 0,68.0,0,,
2,67680, Note_on_c, 0,68.0,38,,
2, 67798, Control_c, 0, 64, 0,,
2, 67936, Control_c, 0, 64, 127,,
2,68160, Note_on_c, 0,64.0,23,,
2,68160, Note_on_c, 0,67.0,17,,
2,68160, Note_off_c, 0,68.0,0,,
2,68160, Note_off_c, 0,67.0,0,,
2, 68444, Control_c, 0, 64, 0,,
2,68640, Note_on_c, 0,70.0,24,,
2, 68582, Control_c, 0, 64, 127,,
2,68640, Note_on_c, 0,67.0,22,,
2,68640, Note_off_c, 0,64.0,0,,
2,69120, Note_on_c, 0,68.0,26,,
2,69120, Note_off_c, 0,71.0,0,,
2,69120, Note_on_c, 0,71.0,48,,
2,69120, Note_off_c, 0,68.0,0,,
2,69120, Note_on_c, 0,68.0,49,,
2,69120, Note_off_c, 0,67.0,0,,
2,69120, Note_off_c, 0,80.0,0,,
2,69120, Note_off_c, 0,71.0,0,,
2,69120, Note_on_c, 0,71.0,27,,
2,69120, Note_off_c, 0,71.0,0,,
2,69120, Note_off_c, 0,68.0,0,,
2,69120, Note_on_c, 0,64.0,29,,
2,69120, Note_on_c, 0,71.0,25,,
2, 69474, Control_c, 0, 64, 0,,
2, 69642, Control_c, 0, 64, 127,,
2,69600, Note_off_c, 0,71.0,0,,
2,69600, Note_on_c, 0,39.0,11,,
2,70080, Note_on_c, 0,67.0,28,,
2,70080, Note_on_c, 0,71.0,39,,
2,70080, Note_on_c, 0,68.0,29,,
2,70560, Note_off_c, 0,51.0,0,,
2,70560, Note_off_c, 0,70.0,0,,
2,70560, Note_off_c, 0,71.0,0,,
2,70560, Note_off_c, 0,75.0,0,,
2, 70426, Control_c, 0, 64, 0,,
2,70560, Note_on_c, 0,73.0,25,,
2,70560, Note_off_c, 0,73.0,0,,
2, 70702, Control_c, 0, 64, 127,,
2,70560, Note_on_c, 0,45.0,17,,
2,71520, Note_off_c, 0,61.0,0,,
2,71520, Note_off_c, 0,59.0,0,,
2,71520, Note_on_c, 0,50.0,11,,
2,71520, Note_off_c, 0,44.0,0,,
2,71520, Note_on_c, 0,44.0,10,,
2,71520, Note_off_c, 0,32.0,0,,
2,72000, Note_on_c, 0,47.0,13,,
2, 71902, Control_c, 0, 64, 0,,
2, 72024, Control_c, 0, 64, 127,,
2,72000, Note_on_c, 0,59.0,15,,
2,72480, Note_on_c, 0,61.0,14,,
2,72480, Note_off_c, 0,61.0,0,,
2,72480, Note_off_c, 0,59.0,0,,
2,72480, Note_on_c, 0,37.0,6,,
2,72480, Note_on_c, 0,56.0,7,,
2, 547128, End_track,,,,,
0, 0, End_of_file,,,,,
