0, 0, Header, 1, 2, 480,,
1, 0, Start_track,,,,,
1, 0, Key_signature, 0," ""major""",,,
1, 0, SMPTE_offset, 96, 0, 0, 0, 0
1, 0, Tempo, 500000,,,,
1, 0, Time_signature, 4, 2, 24, 8,
1, 0, End_track,,,,,
2, 0, Start_track,,,,,
2, 0, Control_c, 0, 64, 127,,
2,0, Note_on_c, 0,49.0,97,,
2,0, Note_on_c, 0,83.0,102,,
2,0, Note_on_c, 0,73.0,85,,
2,1440, Note_on_c, 0,75.0,81,,
2,1440, Note_off_c, 0,75.0,0,,
2,1440, Note_on_c, 0,58.0,78,,
2,1440, Note_off_c, 0,73.0,0,,
2,1440, Note_on_c, 0,73.0,104,,
2,1440, Note_off_c, 0,73.0,0,,
2,1440, Note_on_c, 0,73.0,98,,
2,1440, Note_off_c, 0,73.0,0,,
2,1440, Note_on_c, 0,63.0,73,,
2,1440, Note_on_c, 0,75.0,61,,
2,1440, Note_on_c, 0,37.0,84,,
2,1440, Note_on_c, 0,73.0,96,,
2,1920, Note_off_c, 0,73.0,0,,
2,1920, Note_on_c, 0,73.0,96,,
2,1920, Note_off_c, 0,73.0,0,,
2,2400, Note_on_c, 0,73.0,101,,
2,2400, Note_off_c, 0,73.0,0,,
2,3360, Note_on_c, 0,73.0,91,,
2,3360, Note_off_c, 0,73.0,0,,
2,3360, Note_on_c, 0,69.0,83,,
2,3360, Note_on_c, 0,30.0,84,,
2,3360, Note_off_c, 0,69.0,0,,
2, 3618, Control_c, 0, 64, 0,,
2,3840, Note_off_c, 0,30.0,0,,
2,3840, Note_on_c, 0,52.0,86,,
2, 4786, Control_c, 0, 64, 127,,
2,4800, Note_on_c, 0,60.0,85,,
2,4800, Note_off_c, 0,52.0,0,,
2,4800, Note_on_c, 0,52.0,70,,
2,4800, Note_on_c, 0,30.0,72,,
2,4800, Note_off_c, 0,52.0,0,,
2,4800, Note_on_c, 0,52.0,73,,
2,4800, Note_off_c, 0,30.0,0,,
2,4800, Note_off_c, 0,49.0,0,,
2,4800, Note_off_c, 0,52.0,0,,
2,4800, Note_on_c, 0,30.0,86,,
2,4800, Note_on_c, 0,69.0,102,,
2,4800, Note_off_c, 0,69.0,0,,
2,4800, Note_off_c, 0,30.0,0,,
2,5280, Note_off_c, 0,60.0,0,,
2,5280, Note_on_c, 0,52.0,105,,
2,5280, Note_on_c, 0,69.0,100,,
2,5280, Note_on_c, 0,61.0,96,,
2,6240, Note_on_c, 0,49.0,106,,
2,6240, Note_off_c, 0,49.0,0,,
2,6720, Note_on_c, 0,49.0,88,,
2, 6646, Control_c, 0, 64, 0,,
2,6720, Note_on_c, 0,60.0,70,,
2, 6876, Control_c, 0, 64, 127,,
2,6720, Note_on_c, 0,68.0,94,,
2,7200, Note_off_c, 0,61.0,0,,
2,7200, Note_on_c, 0,61.0,84,,
2,7200, Note_on_c, 0,71.0,87,,
2,7200, Note_off_c, 0,69.0,0,,
2, 7230, Control_c, 0, 64, 0,,
2, 8212, Control_c, 0, 64, 127,,
2,8160, Note_on_c, 0,69.0,83,,
2,8160, Note_off_c, 0,49.0,0,,
2,8160, Note_off_c, 0,71.0,0,,
2,8160, Note_off_c, 0,61.0,0,,
2,8640, Note_on_c, 0,25.0,76,,
2,8640, Note_on_c, 0,71.0,79,,
2,8640, Note_off_c, 0,75.0,0,,
2,8640, Note_on_c, 0,73.0,81,,
2,8640, Note_off_c, 0,73.0,0,,
2,8640, Note_on_c, 0,75.0,98,,
2,8640, Note_on_c, 0,30.0,96,,
2,8640, Note_on_c, 0,49.0,88,,
2,8640, Note_off_c, 0,52.0,0,,
2,8640, Note_off_c, 0,69.0,0,,
2,8640, Note_off_c, 0,30.0,0,,
2,8640, Note_off_c, 0,49.0,0,,
2,8640, Note_on_c, 0,49.0,85,,
2,10080, Note_on_c, 0,67.0,83,,
2,10080, Note_on_c, 0,61.0,75,,
2,10080, Note_off_c, 0,61.0,0,,
2,10080, Note_off_c, 0,71.0,0,,
2,10080, Note_on_c, 0,61.0,80,,
2, 10364, Control_c, 0, 64, 0,,
2,10560, Note_off_c, 0,68.0,0,,
2,10560, Note_off_c, 0,61.0,0,,
2,11520, Note_on_c, 0,61.0,71,,
2,11520, Note_on_c, 0,71.0,81,,
2,11520, Note_off_c, 0,61.0,0,,
2,11520, Note_off_c, 0,71.0,0,,
2,11520, Note_off_c, 0,60.0,0,,
2,11520, Note_on_c, 0,52.0,91,,
2,11520, Note_on_c, 0,71.0,58,,
2,11520, Note_off_c, 0,75.0,0,,
2, 11654, Control_c, 0, 64, 127,,
2,11520, Note_on_c, 0,75.0,58,,
2,11520, Note_on_c, 0,73.0,99,,
2,11520, Note_off_c, 0,73.0,0,,
2,11520, Note_off_c, 0,63.0,0,,
2,11520, Note_off_c, 0,75.0,0,,
2,12000, Note_on_c, 0,73.0,91,,
2,12000, Note_off_c, 0,73.0,0,,
2,12000, Note_off_c, 0,37.0,0,,
2,12480, Note_on_c, 0,73.0,92,,
2,12480, Note_on_c, 0,37.0,92,,
2,12480, Note_on_c, 0,30.0,90,,
2,12480, Note_off_c, 0,30.0,0,,
2, 12668, Control_c, 0, 64, 0,,
2,12960, Note_off_c, 0,71.0,0,,
2,12960, Note_off_c, 0,73.0,0,,
2,12960, Note_on_c, 0,73.0,83,,
2,13440, Note_on_c, 0,63.0,63,,
2, 13314, Control_c, 0, 64, 127,,
2,13440, Note_off_c, 0,73.0,0,,
2,13440, Note_on_c, 0,73.0,87,,
2,13440, Note_off_c, 0,63.0,0,,
2,13440, Note_off_c, 0,73.0,0,,
2, 13682, Control_c, 0, 64, 0,,
2,14400, Note_on_c, 0,73.0,67,,
2,14400, Note_on_c, 0,68.0,69,,
2,14400, Note_on_c, 0,61.0,71,,
2,14400, Note_off_c, 0,61.0,0,,
2,14400, Note_on_c, 0,80.0,97,,
2,14400, Note_on_c, 0,61.0,67,,
2,14400, Note_off_c, 0,58.0,0,,
2,14400, Note_off_c, 0,61.0,0,,
2, 14666, Control_c, 0, 64, 127,,
2,14880, Note_on_c, 0,61.0,67,,
2,14880, Note_off_c, 0,80.0,0,,
2,14880, Note_off_c, 0,61.0,0,,
2,14880, Note_on_c, 0,61.0,99,,
2,14880, Note_on_c, 0,79.0,81,,
2,14880, Note_off_c, 0,61.0,0,,
2,14880, Note_on_c, 0,82.0,47,,
2,14880, Note_on_c, 0,61.0,56,,
2,14880, Note_off_c, 0,82.0,0,,
2,15840, Note_off_c, 0,61.0,0,,
2, 16048, Control_c, 0, 64, 0,,
2,15840, Note_off_c, 0,49.0,0,,
2,16320, Note_on_c, 0,49.0,48,,
2,17280, Note_off_c, 0,49.0,0,,
2,17280, Note_on_c, 0,61.0,57,,
2,17280, Note_off_c, 0,25.0,0,,
2,17280, Note_on_c, 0,49.0,55,,
2,17280, Note_on_c, 0,58.0,68,,
2,17280, Note_off_c, 0,61.0,0,,
2,17280, Note_on_c, 0,61.0,47,,
2,17280, Note_off_c, 0,79.0,0,,
2, 17340, Control_c, 0, 64, 127,,
2,17280, Note_off_c, 0,49.0,0,,
2,17280, Note_on_c, 0,25.0,50,,
2,17280, Note_on_c, 0,49.0,66,,
2,17280, Note_on_c, 0,82.0,76,,
2,17280, Note_on_c, 0,71.0,60,,
2,17760, Note_off_c, 0,73.0,0,,
2,17760, Note_off_c, 0,37.0,0,,
2,17760, Note_on_c, 0,75.0,50,,
2,18240, Note_on_c, 0,63.0,54,,
2,18240, Note_off_c, 0,63.0,0,,
2,18720, Note_on_c, 0,73.0,59,,
2,18720, Note_off_c, 0,73.0,0,,
2, 18876, Control_c, 0, 64, 0,,
2,18720, Note_on_c, 0,73.0,35,,
2,18720, Note_on_c, 0,37.0,38,,
2,19200, Note_off_c, 0,73.0,0,,
2,19200, Note_on_c, 0,73.0,48,,
2, 19398, Control_c, 0, 64, 127,,
2,19200, Note_on_c, 0,62.0,40,,
2,19680, Note_on_c, 0,30.0,22,,
2,19680, Note_on_c, 0,69.0,63,,
2,19680, Note_on_c, 0,60.0,33,,
2, 19782, Control_c, 0, 64, 0,,
2, 20536, Control_c, 0, 64, 127,,
2,20640, Note_off_c, 0,30.0,0,,
2,20640, Note_off_c, 0,62.0,0,,
2,20640, Note_off_c, 0,69.0,0,,
2,20640, Note_on_c, 0,30.0,30,,
2,20640, Note_on_c, 0,69.0,29,,
2,20640, Note_off_c, 0,52.0,0,,
2,20640, Note_off_c, 0,30.0,0,,
2,20640, Note_off_c, 0,69.0,0,,
2,20640, Note_on_c, 0,52.0,46,,
2,21120, Note_off_c, 0,52.0,0,,
2,21120, Note_on_c, 0,52.0,70,,
2,22560, Note_off_c, 0,60.0,0,,
2,22560, Note_on_c, 0,30.0,73,,
2,22560, Note_on_c, 0,69.0,75,,
2, 22564, Control_c, 0, 64, 0,,
2, 22902, Control_c, 0, 64, 127,,
2,23040, Note_off_c, 0,30.0,0,,
2,23040, Note_off_c, 0,52.0,0,,
2,23520, Note_off_c, 0,69.0,0,,
2,23520, Note_on_c, 0,60.0,78,,
2,24000, Note_off_c, 0,71.0,0,,
2,24000, Note_off_c, 0,61.0,0,,
2, 24008, Control_c, 0, 64, 0,,
2,24000, Note_off_c, 0,68.0,0,,
2,24000, Note_on_c, 0,61.0,69,,
2, 24270, Control_c, 0, 64, 127,,
2,24480, Note_on_c, 0,71.0,73,,
2,24480, Note_off_c, 0,49.0,0,,
2, 24500, Control_c, 0, 64, 0,,
2,24480, Note_on_c, 0,68.0,65,,
2,24960, Note_on_c, 0,80.0,53,,
2, 24746, Control_c, 0, 64, 127,,
2, 24808, Control_c, 0, 64, 0,,
2,24960, Note_off_c, 0,61.0,0,,
2,24960, Note_off_c, 0,71.0,0,,
2,25440, Note_on_c, 0,61.0,50,,
2,25440, Note_off_c, 0,68.0,0,,
2,25920, Note_off_c, 0,61.0,0,,
2,25920, Note_on_c, 0,68.0,44,,
2,25920, Note_off_c, 0,60.0,0,,
2,25920, Note_on_c, 0,52.0,40,,
2,25920, Note_on_c, 0,49.0,41,,
2, 26466, Control_c, 0, 64, 127,,
2,26400, Note_off_c, 0,52.0,0,,
2,26880, Note_on_c, 0,62.0,45,,
2, 26852, Control_c, 0, 64, 0,,
2,26880, Note_on_c, 0,52.0,47,,
2, 27650, Control_c, 0, 64, 127,,
2,28800, Note_on_c, 0,69.0,46,,
2,29280, Note_on_c, 0,60.0,45,,
2,29280, Note_off_c, 0,69.0,0,,
2, 29294, Control_c, 0, 64, 0,,
2,29280, Note_off_c, 0,67.0,0,,
2,30240, Note_on_c, 0,30.0,47,,
2,30240, Note_off_c, 0,49.0,0,,
2, 30322, Control_c, 0, 64, 127,,
2,30240, Note_off_c, 0,60.0,0,,
2,30240, Note_on_c, 0,60.0,65,,
2,31200, Note_off_c, 0,52.0,0,,
2,31680, Note_on_c, 0,49.0,78,,
2, 31598, Control_c, 0, 64, 0,,
2,32160, Note_off_c, 0,60.0,0,,
2, 32366, Control_c, 0, 64, 127,,
2,32640, Note_on_c, 0,60.0,57,,
2,32640, Note_on_c, 0,52.0,37,,
2,32640, Note_off_c, 0,30.0,0,,
2,33120, Note_off_c, 0,52.0,0,,
2,33600, Note_on_c, 0,69.0,58,,
2,33600, Note_off_c, 0,62.0,0,,
2,33600, Note_on_c, 0,52.0,76,,
2,33600, Note_off_c, 0,52.0,0,,
2,33600, Note_off_c, 0,58.0,0,,
2, 33718, Control_c, 0, 64, 0,,
2,33600, Note_on_c, 0,30.0,46,,
2, 33980, Control_c, 0, 64, 127,,
2,34080, Note_on_c, 0,61.0,36,,
2,34560, Note_off_c, 0,73.0,0,,
2,34560, Note_off_c, 0,75.0,0,,
2,34560, Note_on_c, 0,73.0,29,,
2,34560, Note_on_c, 0,71.0,53,,
2,34560, Note_off_c, 0,71.0,0,,
2,34560, Note_on_c, 0,71.0,83,,
2,35040, Note_off_c, 0,71.0,0,,
2,35040, Note_off_c, 0,73.0,0,,
2,35520, Note_off_c, 0,68.0,0,,
2,36000, Note_on_c, 0,71.0,88,,
2, 35962, Control_c, 0, 64, 0,,
2,36000, Note_off_c, 0,71.0,0,,
2,36000, Note_off_c, 0,49.0,0,,
2, 36240, Control_c, 0, 64, 127,,
2,36480, Note_off_c, 0,61.0,0,,
2,36480, Note_on_c, 0,71.0,70,,
2,36480, Note_on_c, 0,61.0,26,,
2,36960, Note_on_c, 0,68.0,52,,
2,36960, Note_off_c, 0,61.0,0,,
2,36960, Note_on_c, 0,61.0,32,,
2,36960, Note_off_c, 0,83.0,0,,
2,36960, Note_off_c, 0,61.0,0,,
2, 36992, Control_c, 0, 64, 0,,
2,36960, Note_on_c, 0,61.0,34,,
2,36960, Note_off_c, 0,25.0,0,,
2,36960, Note_off_c, 0,61.0,0,,
2,36960, Note_on_c, 0,49.0,71,,
2,36960, Note_off_c, 0,69.0,0,,
2,37440, Note_on_c, 0,67.0,62,,
2, 37376, Control_c, 0, 64, 127,,
2,37440, Note_on_c, 0,73.0,64,,
2,37440, Note_off_c, 0,73.0,0,,
2,37440, Note_off_c, 0,37.0,0,,
2,37440, Note_on_c, 0,73.0,67,,
2,37440, Note_off_c, 0,73.0,0,,
2,37920, Note_on_c, 0,73.0,55,,
2,37920, Note_on_c, 0,75.0,30,,
2, 37898, Control_c, 0, 64, 0,,
2,37920, Note_on_c, 0,37.0,29,,
2,37920, Note_off_c, 0,75.0,0,,
2,37920, Note_on_c, 0,63.0,42,,
2,37920, Note_off_c, 0,73.0,0,,
2,38400, Note_on_c, 0,73.0,49,,
2, 38498, Control_c, 0, 64, 127,,
2,38880, Note_off_c, 0,73.0,0,,
2,38880, Note_off_c, 0,63.0,0,,
2,38880, Note_on_c, 0,73.0,35,,
2,38880, Note_on_c, 0,75.0,28,,
2,38880, Note_on_c, 0,63.0,23,,
2,38880, Note_off_c, 0,73.0,0,,
2,38880, Note_off_c, 0,75.0,0,,
2,38880, Note_on_c, 0,73.0,29,,
2,38880, Note_off_c, 0,73.0,0,,
2,39360, Note_off_c, 0,37.0,0,,
2,39360, Note_on_c, 0,73.0,47,,
2,39360, Note_off_c, 0,68.0,0,,
2,39840, Note_off_c, 0,71.0,0,,
2,39840, Note_on_c, 0,61.0,44,,
2,39840, Note_off_c, 0,61.0,0,,
2,40320, Note_off_c, 0,73.0,0,,
2,40320, Note_off_c, 0,63.0,0,,
2,40320, Note_on_c, 0,61.0,34,,
2,40320, Note_on_c, 0,37.0,33,,
2, 40188, Control_c, 0, 64, 0,,
2, 40788, Control_c, 0, 64, 127,,
2,40800, Note_off_c, 0,61.0,0,,
2,41280, Note_on_c, 0,63.0,25,,
2,41280, Note_on_c, 0,73.0,23,,
2,41280, Note_on_c, 0,75.0,23,,
2,41280, Note_on_c, 0,61.0,56,,
2, 41370, Control_c, 0, 64, 0,,
2,41760, Note_off_c, 0,37.0,0,,
2, 41556, Control_c, 0, 64, 127,,
2,41760, Note_off_c, 0,73.0,0,,
2,41760, Note_on_c, 0,37.0,47,,
2,41760, Note_off_c, 0,75.0,0,,
2,42240, Note_off_c, 0,37.0,0,,
2,42240, Note_off_c, 0,67.0,0,,
2,42240, Note_on_c, 0,68.0,31,,
2,42240, Note_on_c, 0,71.0,24,,
2, 42416, Control_c, 0, 64, 0,,
2,42240, Note_on_c, 0,38.0,72,,
2,42720, Note_off_c, 0,49.0,0,,
2, 42692, Control_c, 0, 64, 127,,
2,42720, Note_on_c, 0,75.0,38,,
2,43200, Note_on_c, 0,73.0,24,,
2,43680, Note_off_c, 0,61.0,0,,
2,43680, Note_off_c, 0,73.0,0,,
2,43680, Note_on_c, 0,61.0,39,,
2,43680, Note_on_c, 0,73.0,63,,
2,43680, Note_off_c, 0,61.0,0,,
2,43680, Note_off_c, 0,73.0,0,,
2,43680, Note_on_c, 0,61.0,80,,
2,44160, Note_on_c, 0,73.0,86,,
2,44640, Note_off_c, 0,73.0,0,,
2,45120, Note_off_c, 0,68.0,0,,
2, 44981, Control_c, 0, 64, 0,,
2,45120, Note_off_c, 0,71.0,0,,
2, 45152, Control_c, 0, 64, 127,,
2,45120, Note_on_c, 0,73.0,81,,
2,45120, Note_off_c, 0,73.0,0,,
2,45120, Note_on_c, 0,73.0,40,,
2,45600, Note_off_c, 0,73.0,0,,
2,45600, Note_off_c, 0,61.0,0,,
2,45600, Note_on_c, 0,49.0,57,,
2,45600, Note_off_c, 0,60.0,0,,
2,45600, Note_off_c, 0,30.0,0,,
2,45600, Note_on_c, 0,30.0,55,,
2,45600, Note_off_c, 0,30.0,0,,
2,45600, Note_on_c, 0,62.0,44,,
2, 45826, Control_c, 0, 64, 0,,
2,46080, Note_on_c, 0,52.0,33,,
2,46080, Note_on_c, 0,30.0,62,,
2, 46012, Control_c, 0, 64, 127,,
2,46080, Note_off_c, 0,52.0,0,,
2,46080, Note_on_c, 0,60.0,77,,
2,46080, Note_on_c, 0,69.0,70,,
2,46080, Note_on_c, 0,52.0,76,,
2,46560, Note_off_c, 0,60.0,0,,
2,46560, Note_on_c, 0,60.0,58,,
2,46560, Note_on_c, 0,67.0,38,,
2,46560, Note_on_c, 0,61.0,42,,
2,46560, Note_on_c, 0,68.0,50,,
2,46560, Note_off_c, 0,61.0,0,,
2,46560, Note_on_c, 0,61.0,49,,
2, 46656, Control_c, 0, 64, 0,,
2, 46902, Control_c, 0, 64, 127,,
2,47040, Note_on_c, 0,71.0,36,,
2,47040, Note_off_c, 0,61.0,0,,
2,47520, Note_off_c, 0,68.0,0,,
2,47520, Note_on_c, 0,61.0,46,,
2,47520, Note_off_c, 0,71.0,0,,
2,47520, Note_off_c, 0,52.0,0,,
2,47520, Note_off_c, 0,30.0,0,,
2,47520, Note_on_c, 0,30.0,50,,
2,47520, Note_off_c, 0,62.0,0,,
2,47520, Note_off_c, 0,30.0,0,,
2, 47532, Control_c, 0, 64, 0,,
2,47520, Note_off_c, 0,60.0,0,,
2,47520, Note_on_c, 0,52.0,40,,
2, 47778, Control_c, 0, 64, 127,,
2,48480, Note_on_c, 0,60.0,49,,
2,48480, Note_off_c, 0,52.0,0,,
2,48480, Note_off_c, 0,49.0,0,,
2, 48500, Control_c, 0, 64, 0,,
2,48480, Note_on_c, 0,30.0,51,,
2,48480, Note_on_c, 0,49.0,47,,
2,48480, Note_on_c, 0,52.0,54,,
2,48480, Note_on_c, 0,73.0,72,,
2, 49008, Control_c, 0, 64, 127,,
2,48960, Note_off_c, 0,61.0,0,,
2,48960, Note_on_c, 0,61.0,78,,
2,49440, Note_on_c, 0,71.0,84,,
2,49440, Note_off_c, 0,69.0,0,,
2,49440, Note_off_c, 0,71.0,0,,
2,49440, Note_off_c, 0,61.0,0,,
2, 49590, Control_c, 0, 64, 0,,
2, 49730, Control_c, 0, 64, 127,,
2,49920, Note_on_c, 0,58.0,63,,
2,49920, Note_on_c, 0,61.0,46,,
2,49920, Note_on_c, 0,83.0,54,,
2,49920, Note_off_c, 0,61.0,0,,
2,49920, Note_on_c, 0,79.0,65,,
2,49920, Note_on_c, 0,61.0,80,,
2,49920, Note_off_c, 0,80.0,0,,
2,49920, Note_off_c, 0,61.0,0,,
2,49920, Note_off_c, 0,82.0,0,,
2,50400, Note_on_c, 0,61.0,55,,
2,50400, Note_off_c, 0,61.0,0,,
2,50400, Note_off_c, 0,73.0,0,,
2,50880, Note_on_c, 0,71.0,74,,
2,50880, Note_off_c, 0,71.0,0,,
2,50880, Note_on_c, 0,61.0,73,,
2,50880, Note_off_c, 0,30.0,0,,
2,50880, Note_off_c, 0,52.0,0,,
2,50880, Note_on_c, 0,51.0,72,,
2,50880, Note_off_c, 0,60.0,0,,
2,50880, Note_off_c, 0,79.0,0,,
2,50880, Note_off_c, 0,49.0,0,,
2,51360, Note_on_c, 0,62.0,54,,
2,51360, Note_on_c, 0,52.0,70,,
2,51360, Note_on_c, 0,30.0,77,,
2,51360, Note_on_c, 0,60.0,61,,
2,51360, Note_on_c, 0,49.0,87,,
2,51360, Note_off_c, 0,60.0,0,,
2, 51420, Control_c, 0, 64, 0,,
2, 51634, Control_c, 0, 64, 127,,
2,51840, Note_off_c, 0,62.0,0,,
2,51840, Note_on_c, 0,60.0,63,,
2,51840, Note_off_c, 0,52.0,0,,
2,52320, Note_off_c, 0,30.0,0,,
2,52320, Note_on_c, 0,30.0,48,,
2,52320, Note_on_c, 0,52.0,56,,
2,52320, Note_off_c, 0,49.0,0,,
2,52320, Note_off_c, 0,60.0,0,,
2,52320, Note_off_c, 0,52.0,0,,
2,52320, Note_on_c, 0,60.0,55,,
2,52320, Note_on_c, 0,52.0,65,,
2,52800, Note_on_c, 0,69.0,41,,
2,52800, Note_off_c, 0,52.0,0,,
2,53280, Note_off_c, 0,60.0,0,,
2,53280, Note_off_c, 0,30.0,0,,
2,53280, Note_off_c, 0,69.0,0,,
2,53280, Note_on_c, 0,60.0,38,,
2, 53418, Control_c, 0, 64, 0,,
2, 53586, Control_c, 0, 64, 127,,
2,53760, Note_on_c, 0,71.0,86,,
2,53760, Note_on_c, 0,73.0,89,,
2,53760, Note_off_c, 0,73.0,0,,
2,53760, Note_on_c, 0,73.0,83,,
2,53760, Note_off_c, 0,73.0,0,,
2,53760, Note_off_c, 0,63.0,0,,
2,53760, Note_on_c, 0,63.0,90,,
2,53760, Note_off_c, 0,75.0,0,,
2,53760, Note_on_c, 0,75.0,90,,
2,53760, Note_on_c, 0,73.0,93,,
2,53760, Note_off_c, 0,75.0,0,,
2,54240, Note_off_c, 0,73.0,0,,
2,54240, Note_on_c, 0,75.0,72,,
2,54240, Note_off_c, 0,75.0,0,,
2,54240, Note_on_c, 0,73.0,88,,
2,54240, Note_on_c, 0,75.0,93,,
2,54240, Note_off_c, 0,73.0,0,,
2,54240, Note_on_c, 0,73.0,86,,
2,54240, Note_off_c, 0,73.0,0,,
2,54240, Note_on_c, 0,37.0,53,,
2,54240, Note_on_c, 0,73.0,53,,
2,54240, Note_off_c, 0,75.0,0,,
2, 54400, Control_c, 0, 64, 0,,
2,54720, Note_on_c, 0,49.0,73,,
2, 54570, Control_c, 0, 64, 127,,
2,54720, Note_off_c, 0,60.0,0,,
2,54720, Note_on_c, 0,62.0,87,,
2,54720, Note_on_c, 0,52.0,80,,
2,54720, Note_on_c, 0,60.0,85,,
2,54720, Note_off_c, 0,49.0,0,,
2,54720, Note_off_c, 0,60.0,0,,
2,54720, Note_on_c, 0,49.0,90,,
2,54720, Note_on_c, 0,68.0,86,,
2,54720, Note_off_c, 0,61.0,0,,
2,55200, Note_off_c, 0,67.0,0,,
2,55200, Note_off_c, 0,52.0,0,,
2,55200, Note_on_c, 0,60.0,79,,
2,55200, Note_on_c, 0,69.0,91,,
2,55200, Note_on_c, 0,30.0,67,,
2,55200, Note_on_c, 0,52.0,44,,
2,55200, Note_off_c, 0,60.0,0,,
2,55200, Note_off_c, 0,49.0,0,,
2, 55260, Control_c, 0, 64, 0,,
2,55200, Note_on_c, 0,60.0,52,,
2, 55460, Control_c, 0, 64, 127,,
2,55680, Note_off_c, 0,30.0,0,,
2,55680, Note_off_c, 0,62.0,0,,
2,55680, Note_off_c, 0,52.0,0,,
2,56160, Note_on_c, 0,62.0,68,,
2,56160, Note_off_c, 0,62.0,0,,
2,56160, Note_on_c, 0,67.0,72,,
2,56160, Note_off_c, 0,73.0,0,,
2,56160, Note_off_c, 0,63.0,0,,
2,56160, Note_on_c, 0,75.0,56,,
2,56160, Note_off_c, 0,75.0,0,,
2,56160, Note_on_c, 0,63.0,58,,
2,56160, Note_on_c, 0,73.0,61,,
2,56160, Note_off_c, 0,73.0,0,,
2,56160, Note_on_c, 0,73.0,10,,
2,56640, Note_off_c, 0,73.0,0,,
2,56640, Note_on_c, 0,73.0,44,,
2,56640, Note_off_c, 0,37.0,0,,
2,56640, Note_off_c, 0,73.0,0,,
2,56640, Note_on_c, 0,73.0,74,,
2,56640, Note_on_c, 0,37.0,71,,
2,56640, Note_on_c, 0,75.0,85,,
2,56640, Note_off_c, 0,63.0,0,,
2,56640, Note_off_c, 0,37.0,0,,
2,57120, Note_off_c, 0,75.0,0,,
2,57120, Note_off_c, 0,73.0,0,,
2,57120, Note_on_c, 0,49.0,77,,
2,57120, Note_on_c, 0,30.0,78,,
2, 57090, Control_c, 0, 64, 0,,
2, 57320, Control_c, 0, 64, 127,,
2,57120, Note_off_c, 0,60.0,0,,
2,57600, Note_off_c, 0,49.0,0,,
2,57600, Note_on_c, 0,60.0,74,,
2,57600, Note_on_c, 0,79.0,72,,
2,57600, Note_off_c, 0,30.0,0,,
2,57600, Note_on_c, 0,52.0,78,,
2,57600, Note_on_c, 0,80.0,69,,
2,57600, Note_off_c, 0,52.0,0,,
2,58080, Note_on_c, 0,82.0,75,,
2,58080, Note_off_c, 0,69.0,0,,
2,58080, Note_off_c, 0,82.0,0,,
2,58080, Note_on_c, 0,69.0,98,,
2,58080, Note_off_c, 0,80.0,0,,
2,58560, Note_off_c, 0,69.0,0,,
2,58560, Note_on_c, 0,25.0,85,,
2,58560, Note_on_c, 0,52.0,77,,
2,58560, Note_off_c, 0,83.0,0,,
2,58560, Note_on_c, 0,62.0,76,,
2,58560, Note_on_c, 0,80.0,65,,
2,58560, Note_off_c, 0,52.0,0,,
2,58560, Note_off_c, 0,60.0,0,,
2,58560, Note_on_c, 0,30.0,83,,
2,58560, Note_off_c, 0,30.0,0,,
2,58560, Note_on_c, 0,52.0,97,,
2,58560, Note_on_c, 0,60.0,90,,
2,58560, Note_off_c, 0,52.0,0,,
2,58560, Note_on_c, 0,61.0,80,,
2,58560, Note_on_c, 0,73.0,85,,
2,58560, Note_off_c, 0,61.0,0,,
2,58560, Note_on_c, 0,63.0,68,,
2,58560, Note_on_c, 0,61.0,42,,
2, 58748, Control_c, 0, 64, 0,,
2,59040, Note_on_c, 0,37.0,83,,
2,59040, Note_off_c, 0,37.0,0,,
2,59040, Note_off_c, 0,25.0,0,,
2,59040, Note_on_c, 0,75.0,75,,
2, 59088, Control_c, 0, 64, 127,,
2,59040, Note_off_c, 0,73.0,0,,
2,59040, Note_on_c, 0,73.0,100,,
2,59040, Note_on_c, 0,83.0,80,,
2,59040, Note_on_c, 0,37.0,67,,
2,59520, Note_off_c, 0,58.0,0,,
2,59520, Note_off_c, 0,73.0,0,,
2,59520, Note_off_c, 0,63.0,0,,
2,59520, Note_off_c, 0,37.0,0,,
2,59520, Note_on_c, 0,82.0,87,,
2,60000, Note_on_c, 0,73.0,79,,
2,60000, Note_off_c, 0,75.0,0,,
2,60480, Note_on_c, 0,63.0,70,,
2,60480, Note_off_c, 0,79.0,0,,
2,60480, Note_off_c, 0,73.0,0,,
2,60480, Note_on_c, 0,73.0,75,,
2,60480, Note_on_c, 0,75.0,70,,
2,60480, Note_off_c, 0,63.0,0,,
2,60480, Note_on_c, 0,58.0,88,,
2,60480, Note_on_c, 0,37.0,94,,
2,60480, Note_off_c, 0,73.0,0,,
2, 60608, Control_c, 0, 64, 0,,
2,60480, Note_on_c, 0,73.0,91,,
2,60960, Note_off_c, 0,73.0,0,,
2,60960, Note_on_c, 0,73.0,83,,
2, 60870, Control_c, 0, 64, 127,,
2,60960, Note_off_c, 0,73.0,0,,
2,60960, Note_on_c, 0,73.0,74,,
2,60960, Note_off_c, 0,37.0,0,,
2,60960, Note_off_c, 0,73.0,0,,
2,60960, Note_on_c, 0,73.0,95,,
2,60960, Note_on_c, 0,63.0,77,,
2,60960, Note_off_c, 0,75.0,0,,
2,61440, Note_off_c, 0,73.0,0,,
2,61440, Note_on_c, 0,75.0,83,,
2,61440, Note_off_c, 0,61.0,0,,
2,61440, Note_off_c, 0,75.0,0,,
2,61440, Note_on_c, 0,73.0,59,,
2,61440, Note_off_c, 0,73.0,0,,
2,61440, Note_off_c, 0,71.0,0,,
2,61440, Note_off_c, 0,67.0,0,,
2,61440, Note_on_c, 0,61.0,41,,
2,61440, Note_on_c, 0,73.0,82,,
2,61440, Note_on_c, 0,71.0,96,,
2,61440, Note_off_c, 0,71.0,0,,
2,61440, Note_on_c, 0,71.0,83,,
2,61440, Note_on_c, 0,67.0,79,,
2,61440, Note_off_c, 0,73.0,0,,
2,61440, Note_off_c, 0,71.0,0,,
2,61440, Note_on_c, 0,73.0,84,,
2,61440, Note_off_c, 0,68.0,0,,
2,61440, Note_on_c, 0,75.0,64,,
2,61440, Note_off_c, 0,73.0,0,,
2,61920, Note_on_c, 0,68.0,105,,
2,61920, Note_off_c, 0,63.0,0,,
2,61920, Note_off_c, 0,67.0,0,,
2,61920, Note_off_c, 0,75.0,0,,
2,61920, Note_on_c, 0,71.0,90,,
2,61920, Note_on_c, 0,73.0,73,,
2,61920, Note_on_c, 0,75.0,90,,
2,61920, Note_off_c, 0,73.0,0,,
2,61920, Note_on_c, 0,73.0,69,,
2,61920, Note_on_c, 0,79.0,73,,
2,61920, Note_on_c, 0,37.0,93,,
2,61920, Note_off_c, 0,82.0,0,,
2,61920, Note_off_c, 0,73.0,0,,
2,61920, Note_on_c, 0,73.0,73,,
2,62400, Note_off_c, 0,58.0,0,,
2,62400, Note_off_c, 0,37.0,0,,
2,62400, Note_on_c, 0,25.0,75,,
2,62400, Note_off_c, 0,73.0,0,,
2,62400, Note_off_c, 0,75.0,0,,
2,62400, Note_on_c, 0,73.0,80,,
2,62400, Note_off_c, 0,73.0,0,,
2,62400, Note_off_c, 0,51.0,0,,
2,62400, Note_on_c, 0,73.0,100,,
2,62400, Note_off_c, 0,80.0,0,,
2,62400, Note_off_c, 0,73.0,0,,
2,62400, Note_off_c, 0,79.0,0,,
2,62400, Note_on_c, 0,73.0,75,,
2,62400, Note_off_c, 0,73.0,0,,
2,62880, Note_on_c, 0,37.0,58,,
2,62880, Note_on_c, 0,75.0,80,,
2,62880, Note_off_c, 0,37.0,0,,
2,62880, Note_on_c, 0,73.0,60,,
2,62880, Note_off_c, 0,75.0,0,,
2,62880, Note_off_c, 0,73.0,0,,
2,62880, Note_on_c, 0,37.0,63,,
2,62880, Note_off_c, 0,37.0,0,,
2,62880, Note_on_c, 0,73.0,70,,
2,62880, Note_off_c, 0,73.0,0,,
2,62880, Note_on_c, 0,30.0,59,,
2,62880, Note_on_c, 0,69.0,56,,
2,62880, Note_on_c, 0,49.0,57,,
2,62880, Note_off_c, 0,60.0,0,,
2,63360, Note_on_c, 0,52.0,65,,
2,63360, Note_off_c, 0,52.0,0,,
2,63360, Note_on_c, 0,82.0,69,,
2,63360, Note_on_c, 0,73.0,69,,
2,63360, Note_off_c, 0,73.0,0,,
2,63360, Note_on_c, 0,75.0,79,,
2,63360, Note_off_c, 0,68.0,0,,
2,63360, Note_on_c, 0,67.0,81,,
2,63360, Note_off_c, 0,61.0,0,,
2, 63512, Control_c, 0, 64, 0,,
2,63840, Note_off_c, 0,49.0,0,,
2,63840, Note_off_c, 0,67.0,0,,
2,63840, Note_on_c, 0,49.0,80,,
2, 63896, Control_c, 0, 64, 127,,
2,63840, Note_off_c, 0,62.0,0,,
2,63840, Note_on_c, 0,62.0,90,,
2, 64034, Control_c, 0, 64, 0,,
2,63840, Note_on_c, 0,52.0,92,,
2,64320, Note_off_c, 0,52.0,0,,
2,64320, Note_on_c, 0,60.0,91,,
2,64320, Note_off_c, 0,69.0,0,,
2,64320, Note_off_c, 0,30.0,0,,
2, 64680, Control_c, 0, 64, 127,,
2,64800, Note_off_c, 0,60.0,0,,
2,64800, Note_on_c, 0,69.0,90,,
2,64800, Note_on_c, 0,60.0,88,,
2,65280, Note_off_c, 0,69.0,0,,
2,65280, Note_on_c, 0,69.0,82,,
2,65280, Note_off_c, 0,60.0,0,,
2,65760, Note_off_c, 0,62.0,0,,
2,65760, Note_on_c, 0,30.0,69,,
2, 66462, Control_c, 0, 64, 0,,
2, 66722, Control_c, 0, 64, 127,,
2,67680, Note_on_c, 0,52.0,43,,
2,67680, Note_off_c, 0,52.0,0,,
2, 67798, Control_c, 0, 64, 0,,
2, 67936, Control_c, 0, 64, 127,,
2,68160, Note_on_c, 0,52.0,33,,
2,68160, Note_off_c, 0,52.0,0,,
2,68160, Note_off_c, 0,69.0,0,,
2,68160, Note_on_c, 0,60.0,35,,
2, 68444, Control_c, 0, 64, 0,,
2,68640, Note_off_c, 0,60.0,0,,
2, 68582, Control_c, 0, 64, 127,,
2,68640, Note_on_c, 0,60.0,16,,
2,68640, Note_on_c, 0,52.0,20,,
2,69120, Note_off_c, 0,60.0,0,,
2,69120, Note_off_c, 0,82.0,0,,
2,69120, Note_on_c, 0,62.0,24,,
2,69120, Note_on_c, 0,61.0,22,,
2,69120, Note_off_c, 0,52.0,0,,
2,69120, Note_off_c, 0,30.0,0,,
2,69120, Note_on_c, 0,60.0,38,,
2,69120, Note_off_c, 0,49.0,0,,
2,69120, Note_off_c, 0,62.0,0,,
2,69120, Note_on_c, 0,30.0,53,,
2,69120, Note_on_c, 0,82.0,34,,
2,69120, Note_off_c, 0,30.0,0,,
2,69120, Note_off_c, 0,25.0,0,,
2, 69474, Control_c, 0, 64, 0,,
2, 69642, Control_c, 0, 64, 127,,
2,69600, Note_on_c, 0,52.0,25,,
2,69600, Note_on_c, 0,80.0,31,,
2,70080, Note_on_c, 0,69.0,12,,
2,70080, Note_off_c, 0,82.0,0,,
2,70080, Note_on_c, 0,58.0,22,,
2,70560, Note_off_c, 0,80.0,0,,
2,70560, Note_on_c, 0,79.0,40,,
2,70560, Note_on_c, 0,82.0,31,,
2,70560, Note_on_c, 0,80.0,26,,
2, 70426, Control_c, 0, 64, 0,,
2,70560, Note_off_c, 0,82.0,0,,
2,70560, Note_off_c, 0,58.0,0,,
2, 70702, Control_c, 0, 64, 127,,
2,70560, Note_on_c, 0,82.0,18,,
2,71520, Note_off_c, 0,82.0,0,,
2,71520, Note_on_c, 0,82.0,11,,
2,71520, Note_off_c, 0,82.0,0,,
2,71520, Note_on_c, 0,58.0,10,,
2,71520, Note_on_c, 0,82.0,12,,
2,71520, Note_on_c, 0,51.0,15,,
2,72000, Note_off_c, 0,82.0,0,,
2, 71902, Control_c, 0, 64, 0,,
2, 72024, Control_c, 0, 64, 127,,
2,72000, Note_on_c, 0,82.0,14,,
2,72480, Note_off_c, 0,82.0,0,,
2,72480, Note_off_c, 0,80.0,0,,
2,72480, Note_off_c, 0,83.0,0,,
2,72480, Note_on_c, 0,82.0,6,,
2,72480, Note_on_c, 0,83.0,7,,
2, 547128, End_track,,,,,
0, 0, End_of_file,,,,,
