0, 0, Header, 1, 2, 256,
1, 0, Start_track,,,,
1, 0, Time_signature, 4, 2, 24, 8
1, 0, Key_signature, 2," ""major""",,
1, 0, Tempo, 483869,,,
1, 0, Title_t," ""Fur Elise""",,,
1, 0, Text_t," ""Ludwig van Beethoven""",,,
1, 1, End_track,,,,
2, 0, Start_track,,,,
2, 0, Program_c, 0, 0,,
2, 0, Control_c, 0, 121, 0,
2, 0, Control_c, 0, 64, 0,
2, 0, Control_c, 0, 91, 32,
2, 0, Control_c, 0, 10, 51,
2, 0, Control_c, 0, 7, 105,
2,0, Note_on_c, 0,62,63,
2,0, Note_on_c, 0,66,63,
2, 0, Control_c, 0, 121, 0,
2, 0, Control_c, 0, 64, 0,
2, 0, Control_c, 0, 91, 32,
2, 0, Control_c, 0, 10, 51,
2, 0, Control_c, 0, 7, 105,
2, 0, Title_t," ""Piano""",,,
2,0, Note_on_c, 0,50,63,
2,256, Note_off_c, 0,62,0,
2,256, Note_off_c, 0,66,0,
2,256, Note_on_c, 0,62,73,
2,256, Note_on_c, 0,66,71,
2,256, Note_off_c, 0,50,0,
2,256, Note_on_c, 0,50,66,
2,512, Note_off_c, 0,62,0,
2,512, Note_off_c, 0,66,0,
2,512, Note_on_c, 0,64,72,
2,512, Note_on_c, 0,67,71,
2,512, Note_on_c, 0,45,70,
2,512, Note_off_c, 0,50,0,
2,768, Note_off_c, 0,64,0,
2,768, Note_off_c, 0,67,0,
2,768, Note_on_c, 0,66,72,
2,768, Note_on_c, 0,50,73,
2,768, Note_off_c, 0,66,0,
2,768, Note_on_c, 0,69,64,
2,1024, Note_off_c, 0,50,0,
2,1024, Note_off_c, 0,69,0,
2,1024, Note_on_c, 0,66,70,
2,1024, Note_on_c, 0,50,71,
2,1024, Note_off_c, 0,66,0,
2,1024, Note_on_c, 0,69,69,
2,1280, Note_on_c, 0,66,69,
2,1280, Note_off_c, 0,69,0,
2,1280, Note_on_c, 0,64,69,
2,1280, Note_on_c, 0,67,67,
2,1280, Note_off_c, 0,50,0,
2,1280, Note_on_c, 0,50,67,
2,1536, Note_off_c, 0,64,0,
2,1536, Note_off_c, 0,67,0,
2,1536, Note_on_c, 0,62,69,
2,1536, Note_off_c, 0,66,0,
2,1536, Note_off_c, 0,45,0,
2,1536, Note_on_c, 0,45,71,
2,1792, Note_off_c, 0,50,0,
2,1792, Note_off_c, 0,62,0,
2,1792, Note_on_c, 0,57,70,
2,1792, Note_on_c, 0,64,68,
2,1792, Note_on_c, 0,62,68,
2,1792, Note_off_c, 0,45,0,
2,2048, Note_off_c, 0,57,0,
2,2048, Note_off_c, 0,64,0,
2,2048, Note_off_c, 0,62,0,
2,2048, Note_on_c, 0,66,69,
2,2048, Note_on_c, 0,57,70,
2,2048, Note_on_c, 0,50,70,
2,2304, Note_on_c, 0,54,70,
2,2304, Note_on_c, 0,62,70,
2,2304, Note_off_c, 0,54,0,
2,2304, Note_off_c, 0,62,0,
2,2304, Note_off_c, 0,50,0,
2,2560, Note_on_c, 0,59,71,
2,2560, Note_on_c, 0,62,74,
2,2560, Note_off_c, 0,57,0,
2,2560, Note_on_c, 0,64,75,
2,2816, Note_on_c, 0,57,72,
2,2816, Note_off_c, 0,64,0,
2,2816, Note_off_c, 0,62,0,
2,2816, Note_on_c, 0,62,67,
2,2816, Note_on_c, 0,50,68,
2,3072, Note_off_c, 0,62,0,
2,3072, Note_off_c, 0,66,0,
2,3072, Note_on_c, 0,62,71,
2,3072, Note_on_c, 0,66,71,
2,3072, Note_on_c, 0,45,69,
2,3072, Note_off_c, 0,45,0,
2,3328, Note_on_c, 0,45,68,
2,3328, Note_off_c, 0,62,0,
2,3328, Note_on_c, 0,62,68,
2,3328, Note_on_c, 0,61,71,
2,3328, Note_on_c, 0,64,64,
2,3584, Note_off_c, 0,57,0,
2,3584, Note_on_c, 0,52,70,
2,3584, Note_off_c, 0,61,0,
2,3584, Note_off_c, 0,64,0,
2,3584, Note_off_c, 0,62,0,
2,3840, Note_off_c, 0,52,0,
2,4096, Note_on_c, 0,57,76,
2,4096, Note_on_c, 0,64,67,
2,4096, Note_on_c, 0,62,69,
2,4096, Note_off_c, 0,66,0,
2,4096, Note_off_c, 0,50,0,
2,4352, Note_off_c, 0,62,0,
2,4352, Note_on_c, 0,62,71,
2,4352, Note_off_c, 0,62,0,
2,4352, Note_on_c, 0,66,66,
2,4352, Note_on_c, 0,50,69,
2,4352, Note_off_c, 0,50,0,
2,4608, Note_on_c, 0,62,72,
2,4608, Note_off_c, 0,62,0,
2,4608, Note_off_c, 0,64,0,
2,4608, Note_on_c, 0,67,71,
2,4608, Note_on_c, 0,61,72,
2,4608, Note_off_c, 0,61,0,
2,4864, Note_on_c, 0,64,75,
2,4864, Note_off_c, 0,67,0,
2,4864, Note_off_c, 0,66,0,
2,4864, Note_off_c, 0,45,0,
2,4864, Note_on_c, 0,66,66,
2,4864, Note_on_c, 0,69,67,
2,5120, Note_off_c, 0,66,0,
2,5120, Note_on_c, 0,45,73,
2,5120, Note_on_c, 0,66,72,
2,5120, Note_off_c, 0,69,0,
2,5120, Note_off_c, 0,66,0,
2,5120, Note_on_c, 0,69,69,
2,5376, Note_on_c, 0,66,67,
2,5376, Note_off_c, 0,66,0,
2,5376, Note_off_c, 0,64,0,
2,5376, Note_on_c, 0,67,67,
2,5376, Note_on_c, 0,50,70,
2,5376, Note_off_c, 0,50,0,
2,5632, Note_on_c, 0,64,71,
2,5632, Note_off_c, 0,67,0,
2,5632, Note_on_c, 0,62,71,
2,5632, Note_on_c, 0,66,70,
2,5632, Note_off_c, 0,45,0,
2,5632, Note_on_c, 0,45,68,
2,5888, Note_off_c, 0,62,0,
2,5888, Note_on_c, 0,62,66,
2,5888, Note_off_c, 0,57,0,
2,5888, Note_off_c, 0,64,0,
2,5888, Note_off_c, 0,59,0,
2,5888, Note_off_c, 0,45,0,
2,6144, Note_on_c, 0,61,66,
2,6144, Note_on_c, 0,64,68,
2,6144, Note_on_c, 0,54,71,
2,6144, Note_off_c, 0,66,0,
2,6144, Note_on_c, 0,50,72,
2,6144, Note_off_c, 0,50,0,
2,6400, Note_on_c, 0,57,73,
2,6400, Note_off_c, 0,62,0,
2,6400, Note_on_c, 0,59,73,
2,6400, Note_on_c, 0,47,74,
2,6400, Note_on_c, 0,50,74,
2,6656, Note_off_c, 0,54,0,
2,6656, Note_on_c, 0,62,76,
2,6656, Note_off_c, 0,57,0,
2,6656, Note_off_c, 0,64,0,
2,6912, Note_off_c, 0,61,0,
2,6912, Note_on_c, 0,64,69,
2,6912, Note_off_c, 0,62,0,
2,6912, Note_on_c, 0,66,62,
2,6912, Note_on_c, 0,45,69,
2,7168, Note_on_c, 0,62,69,
2,7168, Note_off_c, 0,62,0,
2,7168, Note_on_c, 0,61,68,
2,7168, Note_off_c, 0,64,0,
2,7168, Note_on_c, 0,62,67,
2,7168, Note_on_c, 0,52,69,
2,7424, Note_off_c, 0,45,0,
2,7424, Note_off_c, 0,61,0,
2,7424, Note_on_c, 0,64,71,
2,7424, Note_on_c, 0,54,66,
2,7424, Note_off_c, 0,62,0,
2,7680, Note_off_c, 0,54,0,
2,7680, Note_on_c, 0,62,66,
2,7680, Note_off_c, 0,62,0,
2,7680, Note_off_c, 0,66,0,
2,7680, Note_off_c, 0,50,0,
2,7936, Note_on_c, 0,50,73,
2,8192, Note_on_c, 0,54,69,
2,8192, Note_on_c, 0,62,68,
2,8192, Note_on_c, 0,57,72,
2,8192, Note_off_c, 0,52,0,
2,8192, Note_on_c, 0,45,68,
2,8448, Note_on_c, 0,56,67,
2,8448, Note_off_c, 0,64,0,
2,8448, Note_on_c, 0,61,79,
2,8448, Note_on_c, 0,64,75,
2,8448, Note_off_c, 0,62,0,
2,8448, Note_off_c, 0,45,0,
2,8704, Note_off_c, 0,61,0,
2,8704, Note_off_c, 0,64,0,
2,8704, Note_on_c, 0,62,68,
2,8704, Note_on_c, 0,66,67,
2,8704, Note_on_c, 0,45,70,
2,8704, Note_off_c, 0,45,0,
2,8960, Note_off_c, 0,62,0,
2,8960, Note_on_c, 0,62,75,
2,8960, Note_on_c, 0,45,76,
2,8960, Note_off_c, 0,66,0,
2,8960, Note_off_c, 0,50,0,
2,8960, Note_on_c, 0,50,73,
2,9216, Note_off_c, 0,54,0,
2,9216, Note_off_c, 0,62,0,
2,9216, Note_on_c, 0,61,71,
2,9216, Note_on_c, 0,64,73,
2,9216, Note_on_c, 0,62,74,
2,9216, Note_off_c, 0,45,0,
2,9472, Note_off_c, 0,57,0,
2,9472, Note_off_c, 0,64,0,
2,9472, Note_off_c, 0,62,0,
2,9472, Note_on_c, 0,62,73,
2,9472, Note_on_c, 0,45,69,
2,9472, Note_on_c, 0,54,65,
2,9472, Note_on_c, 0,66,68,
2,9472, Note_on_c, 0,64,71,
2,9472, Note_on_c, 0,67,69,
2,9472, Note_off_c, 0,45,0,
2,9728, Note_off_c, 0,64,0,
2,9728, Note_on_c, 0,46,67,
2,9728, Note_off_c, 0,62,0,
2,9728, Note_off_c, 0,66,0,
2,9728, Note_on_c, 0,45,69,
2,9728, Note_off_c, 0,45,0,
2,9984, Note_on_c, 0,62,73,
2,9984, Note_on_c, 0,66,74,
2,9984, Note_off_c, 0,50,0,
2,9984, Note_off_c, 0,66,0,
2,9984, Note_on_c, 0,45,72,
2,9984, Note_on_c, 0,50,69,
2,10240, Note_off_c, 0,54,0,
2,10240, Note_off_c, 0,62,0,
2,10240, Note_on_c, 0,57,73,
2,10240, Note_on_c, 0,64,76,
2,10240, Note_off_c, 0,45,0,
2,10240, Note_on_c, 0,45,75,
2,10496, Note_off_c, 0,57,0,
2,10496, Note_off_c, 0,64,0,
2,10496, Note_on_c, 0,62,72,
2,10496, Note_on_c, 0,66,69,
2,10496, Note_off_c, 0,45,0,
2,10496, Note_off_c, 0,62,0,
2,10496, Note_off_c, 0,66,0,
2,10496, Note_on_c, 0,64,69,
2,10496, Note_off_c, 0,46,0,
2,10496, Note_off_c, 0,61,0,
2,10752, Note_off_c, 0,64,0,
2,10752, Note_on_c, 0,46,70,
2,10752, Note_off_c, 0,50,0,
2,10752, Note_on_c, 0,61,70,
2,10752, Note_on_c, 0,64,69,
2,10752, Note_off_c, 0,46,0,
2,11008, Note_off_c, 0,61,0,
2,11008, Note_on_c, 0,50,69,
2,11008, Note_on_c, 0,61,72,
2,11008, Note_off_c, 0,64,0,
2,11008, Note_off_c, 0,67,0,
2,11008, Note_on_c, 0,62,71,
2,11264, Note_off_c, 0,61,0,
2,11264, Note_on_c, 0,64,68,
2,11264, Note_on_c, 0,57,70,
2,11264, Note_off_c, 0,62,0,
2,11264, Note_off_c, 0,59,0,
2,11264, Note_on_c, 0,62,73,
2,11520, Note_on_c, 0,54,73,
2,11520, Note_off_c, 0,62,0,
2,11520, Note_off_c, 0,56,0,
2,11520, Note_off_c, 0,64,0,
2,11520, Note_off_c, 0,54,0,
2,11520, Note_on_c, 0,45,70,
2,11776, Note_on_c, 0,61,65,
2,11776, Note_on_c, 0,64,65,
2,11776, Note_off_c, 0,45,0,
2,11776, Note_off_c, 0,61,0,
2,11776, Note_off_c, 0,64,0,
2,11776, Note_on_c, 0,62,68,
2,12032, Note_on_c, 0,45,79,
2,12032, Note_off_c, 0,45,0,
2,12032, Note_off_c, 0,62,0,
2,12032, Note_on_c, 0,66,79,
2,12288, Note_on_c, 0,45,72,
2,12288, Note_off_c, 0,57,0,
2,12544, Note_off_c, 0,45,0,
2,12544, Note_off_c, 0,66,0,
2,12544, Note_on_c, 0,62,71,
2,12544, Note_on_c, 0,66,71,
2,12544, Note_off_c, 0,50,0,
2,12544, Note_on_c, 0,45,63,
2,12800, Note_off_c, 0,62,0,
2,12800, Note_off_c, 0,66,0,
2,12800, Note_on_c, 0,64,70,
2,12800, Note_on_c, 0,67,71,
2,12800, Note_off_c, 0,45,0,
2,12800, Note_on_c, 0,50,69,
2,13056, Note_off_c, 0,64,0,
2,13056, Note_off_c, 0,67,0,
2,13056, Note_on_c, 0,66,70,
2,13056, Note_off_c, 0,69,0,
2,13056, Note_off_c, 0,50,0,
2,13056, Note_on_c, 0,50,71,
2,13312, Note_off_c, 0,66,0,
2,13312, Note_on_c, 0,69,65,
2,13312, Note_on_c, 0,66,70,
2,13312, Note_off_c, 0,69,0,
2,13312, Note_off_c, 0,66,0,
2,13312, Note_on_c, 0,69,71,
2,13568, Note_on_c, 0,66,70,
2,13568, Note_off_c, 0,69,0,
2,13568, Note_on_c, 0,64,70,
2,13568, Note_on_c, 0,67,69,
2,13568, Note_on_c, 0,45,67,
2,13568, Note_off_c, 0,45,0,
2,13824, Note_off_c, 0,64,0,
2,13824, Note_off_c, 0,67,0,
2,13824, Note_on_c, 0,62,67,
2,13824, Note_off_c, 0,66,0,
2,13824, Note_on_c, 0,45,69,
2,13824, Note_on_c, 0,57,71,
2,14080, Note_off_c, 0,45,0,
2,14080, Note_on_c, 0,66,70,
2,14080, Note_off_c, 0,57,0,
2,14080, Note_on_c, 0,52,68,
2,14080, Note_off_c, 0,50,0,
2,14080, Note_off_c, 0,52,0,
2,14336, Note_on_c, 0,57,65,
2,14336, Note_on_c, 0,64,67,
2,14336, Note_off_c, 0,62,0,
2,14336, Note_off_c, 0,66,0,
2,14336, Note_on_c, 0,50,70,
2,14336, Note_off_c, 0,50,0,
2,14592, Note_on_c, 0,54,71,
2,14592, Note_on_c, 0,62,69,
2,14592, Note_off_c, 0,54,0,
2,14592, Note_off_c, 0,47,0,
2,14592, Note_on_c, 0,50,70,
2,14848, Note_off_c, 0,57,0,
2,14848, Note_off_c, 0,62,0,
2,14848, Note_on_c, 0,61,72,
2,14848, Note_off_c, 0,64,0,
2,15104, Note_on_c, 0,57,73,
2,15104, Note_on_c, 0,64,75,
2,15104, Note_on_c, 0,62,77,
2,15104, Note_on_c, 0,66,66,
2,15104, Note_off_c, 0,50,0,
2,15360, Note_off_c, 0,62,0,
2,15360, Note_off_c, 0,66,0,
2,15360, Note_off_c, 0,57,0,
2,15360, Note_off_c, 0,64,0,
2,15360, Note_on_c, 0,62,66,
2,15360, Note_on_c, 0,45,68,
2,15616, Note_on_c, 0,52,69,
2,15616, Note_on_c, 0,57,69,
2,15616, Note_on_c, 0,64,69,
2,15616, Note_on_c, 0,54,72,
2,15616, Note_off_c, 0,62,0,
2,15872, Note_on_c, 0,59,73,
2,15872, Note_on_c, 0,62,64,
2,15872, Note_off_c, 0,45,0,
2,15872, Note_on_c, 0,66,70,
2,15872, Note_on_c, 0,50,74,
2,16128, Note_off_c, 0,50,0,
2,16384, Note_off_c, 0,54,0,
2,16384, Note_off_c, 0,62,0,
2,16384, Note_off_c, 0,57,0,
2,16384, Note_off_c, 0,64,0,
2,16384, Note_off_c, 0,52,0,
2,16640, Note_on_c, 0,57,67,
2,16640, Note_on_c, 0,64,69,
2,16640, Note_off_c, 0,57,0,
2,16640, Note_off_c, 0,64,0,
2,16640, Note_on_c, 0,62,73,
2,16640, Note_on_c, 0,52,66,
2,16896, Note_on_c, 0,57,66,
2,16896, Note_on_c, 0,64,71,
2,16896, Note_off_c, 0,62,0,
2,16896, Note_off_c, 0,66,0,
2,16896, Note_on_c, 0,45,70,
2,16896, Note_off_c, 0,45,0,
2,17152, Note_on_c, 0,45,68,
2,17152, Note_on_c, 0,66,67,
2,17152, Note_off_c, 0,45,0,
2,17152, Note_off_c, 0,66,0,
2,17152, Note_off_c, 0,57,0,
2,17152, Note_on_c, 0,50,69,
2,17408, Note_on_c, 0,57,73,
2,17408, Note_on_c, 0,62,74,
2,17408, Note_off_c, 0,61,0,
2,17408, Note_off_c, 0,64,0,
2,17408, Note_on_c, 0,47,73,
2,17408, Note_on_c, 0,45,71,
2,17664, Note_off_c, 0,57,0,
2,17664, Note_on_c, 0,64,70,
2,17664, Note_off_c, 0,62,0,
2,17664, Note_on_c, 0,66,73,
2,17664, Note_off_c, 0,45,0,
2,17664, Note_off_c, 0,50,0,
2,17664, Note_on_c, 0,62,75,
2,17664, Note_off_c, 0,64,0,
2,17664, Note_on_c, 0,46,69,
2,17664, Note_on_c, 0,45,66,
2,17920, Note_on_c, 0,64,69,
2,17920, Note_on_c, 0,67,70,
2,17920, Note_off_c, 0,62,0,
2,17920, Note_off_c, 0,66,0,
2,17920, Note_off_c, 0,45,0,
2,17920, Note_on_c, 0,50,69,
2,18176, Note_on_c, 0,62,69,
2,18176, Note_on_c, 0,66,70,
2,18176, Note_on_c, 0,57,72,
2,18176, Note_off_c, 0,62,0,
2,18176, Note_off_c, 0,50,0,
2,18176, Note_on_c, 0,50,74,
2,18432, Note_on_c, 0,54,73,
2,18432, Note_on_c, 0,62,71,
2,18432, Note_off_c, 0,57,0,
2,18432, Note_off_c, 0,64,0,
2,18432, Note_off_c, 0,62,0,
2,18432, Note_off_c, 0,52,0,
2,18688, Note_on_c, 0,57,71,
2,18688, Note_on_c, 0,64,73,
2,18688, Note_on_c, 0,62,75,
2,18688, Note_off_c, 0,66,0,
2,18688, Note_on_c, 0,45,69,
2,18688, Note_off_c, 0,62,0,
2,18688, Note_on_c, 0,66,66,
2,18688, Note_off_c, 0,64,0,
2,18688, Note_off_c, 0,67,0,
2,18688, Note_off_c, 0,45,0,
2,18944, Note_on_c, 0,64,72,
2,18944, Note_on_c, 0,67,70,
2,18944, Note_on_c, 0,61,69,
2,18944, Note_off_c, 0,50,0,
2,18944, Note_off_c, 0,64,0,
2,18944, Note_off_c, 0,67,0,
2,19200, Note_on_c, 0,45,68,
2,19200, Note_off_c, 0,45,0,
2,19200, Note_on_c, 0,45,73,
2,19200, Note_on_c, 0,64,73,
2,19200, Note_on_c, 0,67,65,
2,19200, Note_on_c, 0,62,68,
2,19456, Note_off_c, 0,57,0,
2,19456, Note_off_c, 0,64,0,
2,19456, Note_off_c, 0,54,0,
2,19456, Note_off_c, 0,62,0,
2,19456, Note_on_c, 0,54,72,
2,19456, Note_on_c, 0,62,74,
2,19712, Note_off_c, 0,59,0,
2,19712, Note_off_c, 0,62,0,
2,19712, Note_off_c, 0,61,0,
2,19712, Note_on_c, 0,64,74,
2,19712, Note_on_c, 0,59,71,
2,19712, Note_off_c, 0,45,0,
2,19968, Note_on_c, 0,61,67,
2,19968, Note_off_c, 0,64,0,
2,19968, Note_on_c, 0,45,65,
2,19968, Note_on_c, 0,57,72,
2,19968, Note_on_c, 0,64,80,
2,19968, Note_on_c, 0,62,77,
2,20224, Note_on_c, 0,52,73,
2,20224, Note_off_c, 0,45,0,
2,20224, Note_on_c, 0,45,72,
2,20224, Note_off_c, 0,66,0,
2,20480, Note_off_c, 0,45,0,
2,20480, Note_on_c, 0,50,68,
2,20736, Note_on_c, 0,45,66,
2,20736, Note_off_c, 0,62,0,
2,20736, Note_on_c, 0,62,74,
2,20736, Note_on_c, 0,66,72,
2,20736, Note_off_c, 0,45,0,
2,20736, Note_off_c, 0,50,0,
2,20992, Note_off_c, 0,62,0,
2,20992, Note_off_c, 0,66,0,
2,20992, Note_off_c, 0,64,0,
2,20992, Note_off_c, 0,67,0,
2,20992, Note_on_c, 0,45,72,
2,20992, Note_on_c, 0,66,76,
2,21248, Note_on_c, 0,64,71,
2,21248, Note_on_c, 0,67,62,
2,21248, Note_off_c, 0,66,0,
2,21248, Note_on_c, 0,66,72,
2,21248, Note_off_c, 0,66,0,
2,21248, Note_on_c, 0,66,70,
2,21504, Note_on_c, 0,50,71,
2,21504, Note_on_c, 0,69,70,
2,21504, Note_off_c, 0,66,0,
2,21504, Note_off_c, 0,45,0,
2,21504, Note_off_c, 0,50,0,
2,21504, Note_off_c, 0,69,0,
2,21760, Note_on_c, 0,66,66,
2,21760, Note_on_c, 0,50,66,
2,21760, Note_off_c, 0,64,0,
2,21760, Note_off_c, 0,67,0,
2,21760, Note_off_c, 0,50,0,
2,21760, Note_on_c, 0,45,71,
2,22016, Note_on_c, 0,64,70,
2,22016, Note_on_c, 0,67,69,
2,22016, Note_on_c, 0,62,68,
2,22016, Note_off_c, 0,66,0,
2,22016, Note_off_c, 0,45,0,
2,22016, Note_on_c, 0,45,66,
2,22272, Note_off_c, 0,45,0,
2,22272, Note_on_c, 0,66,66,
2,22272, Note_off_c, 0,61,0,
2,22272, Note_off_c, 0,64,0,
2,22272, Note_off_c, 0,62,0,
2,22272, Note_on_c, 0,45,68,
2,22528, Note_off_c, 0,57,0,
2,22528, Note_on_c, 0,64,70,
2,22528, Note_on_c, 0,62,71,
2,22528, Note_off_c, 0,66,0,
2,22528, Note_off_c, 0,45,0,
2,22528, Note_on_c, 0,50,71,
2,22784, Note_off_c, 0,54,0,
2,22784, Note_off_c, 0,62,0,
2,22784, Note_off_c, 0,59,0,
2,22784, Note_on_c, 0,62,71,
2,22784, Note_off_c, 0,50,0,
2,23040, Note_on_c, 0,59,71,
2,23040, Note_off_c, 0,62,0,
2,23040, Note_on_c, 0,57,72,
2,23040, Note_off_c, 0,64,0,
2,23296, Note_on_c, 0,61,74,
2,23296, Note_on_c, 0,64,72,
2,23296, Note_on_c, 0,62,65,
2,23296, Note_on_c, 0,66,70,
2,23296, Note_on_c, 0,50,70,
2,23552, Note_off_c, 0,62,0,
2,23552, Note_off_c, 0,66,0,
2,23552, Note_off_c, 0,61,0,
2,23552, Note_off_c, 0,64,0,
2,23552, Note_off_c, 0,50,0,
2,23552, Note_on_c, 0,45,69,
2,23808, Note_off_c, 0,45,0,
2,23808, Note_on_c, 0,61,69,
2,23808, Note_off_c, 0,52,0,
2,23808, Note_on_c, 0,54,71,
2,23808, Note_on_c, 0,62,72,
2,24064, Note_off_c, 0,54,0,
2,24064, Note_off_c, 0,62,0,
2,24064, Note_on_c, 0,62,70,
2,24064, Note_on_c, 0,66,60,
2,24064, Note_on_c, 0,50,41,
2,24320, Note_off_c, 0,50,0,
2,24320, Note_off_c, 0,57,0,
2,24320, Note_off_c, 0,62,0,
2, 24577, End_track,,,,
0, 0, End_of_file,,,,
