0, 0, Header, 1, 2, 256,
1, 0, Start_track,,,,
1, 0, Time_signature, 4, 2, 24, 8
1, 0, Key_signature, 2," ""major""",,
1, 0, Tempo, 789472,,,
1, 0, Title_t," ""Canon in D""",,,
1, 0, Text_t," ""Johann Pachelbel""",,,
1, 43520, Tempo, 845069,,,
1, 44031, Tempo, 869565,,,
1, 44544, Tempo, 923075,,,
1, 45056, Tempo, 1000000,,,
1, 45057, End_track,,,,
2, 0, Start_track,,,,
2, 0, Program_c, 0, 0,,
2, 0, Control_c, 0, 121, 0,
2, 0, Control_c, 0, 64, 0,
2, 0, Control_c, 0, 91, 48,
2, 0, Control_c, 0, 10, 76,
2, 0, Control_c, 0, 7, 102,
2,0, Note_on_c, 0,62,41,
2,0, Note_on_c, 0,66,42,
2, 0, Control_c, 0, 121, 0,
2, 0, Control_c, 0, 64, 0,
2, 0, Control_c, 0, 91, 57,
2, 0, Control_c, 0, 10, 51,
2, 0, Control_c, 0, 7, 102,
2, 0, Title_t," ""Piano""",,,
2,0, Note_on_c, 0,38,44,
2,512, Note_off_c, 0,66,0,
2,512, Note_on_c, 0,66,44,
2,512, Note_off_c, 0,66,0,
2,512, Note_on_c, 0,69,44,
2,512, Note_on_c, 0,54,44,
2,512, Note_on_c, 0,45,43,
2,1024, Note_on_c, 0,71,44,
2,1024, Note_on_c, 0,64,46,
2,1024, Note_on_c, 0,59,49,
2,1024, Note_off_c, 0,62,0,
2,1024, Note_on_c, 0,57,48,
2,1024, Note_on_c, 0,47,47,
2,1536, Note_off_c, 0,59,0,
2,1536, Note_off_c, 0,54,0,
2,1536, Note_off_c, 0,45,0,
2,1536, Note_on_c, 0,45,47,
2,1536, Note_off_c, 0,47,0,
2,1536, Note_on_c, 0,42,49,
2,2048, Note_on_c, 0,54,49,
2,2048, Note_off_c, 0,57,0,
2,2048, Note_on_c, 0,55,48,
2,2048, Note_off_c, 0,55,0,
2,2048, Note_on_c, 0,57,44,
2,2048, Note_on_c, 0,55,43,
2,2560, Note_on_c, 0,59,48,
2,2560, Note_off_c, 0,42,0,
2,2560, Note_off_c, 0,54,0,
2,2560, Note_off_c, 0,45,0,
2,2560, Note_on_c, 0,43,48,
2,2560, Note_on_c, 0,42,49,
2,3072, Note_on_c, 0,54,52,
2,3072, Note_on_c, 0,61,51,
2,3072, Note_off_c, 0,69,0,
2,3072, Note_off_c, 0,59,0,
2,3072, Note_on_c, 0,62,50,
2,3072, Note_off_c, 0,55,0,
2,3584, Note_on_c, 0,55,58,
2,3584, Note_on_c, 0,59,59,
2,3584, Note_off_c, 0,57,0,
2,3584, Note_off_c, 0,61,0,
2,3584, Note_off_c, 0,43,0,
2,3584, Note_on_c, 0,50,62,
2,4096, Note_on_c, 0,66,63,
2,4096, Note_off_c, 0,62,0,
2,4096, Note_off_c, 0,38,0,
2,4096, Note_off_c, 0,50,0,
2,4096, Note_on_c, 0,62,50,
2,4096, Note_on_c, 0,50,43,
2,4352, Note_on_c, 0,45,54,
2,4352, Note_off_c, 0,66,0,
2,4608, Note_off_c, 0,62,0,
2,4608, Note_on_c, 0,57,56,
2,4608, Note_on_c, 0,69,49,
2,4608, Note_on_c, 0,73,47,
2,4608, Note_off_c, 0,59,0,
2,4608, Note_off_c, 0,57,0,
2,4864, Note_off_c, 0,54,0,
2,4864, Note_on_c, 0,43,52,
2,5120, Note_off_c, 0,69,0,
2,5120, Note_off_c, 0,73,0,
2,5120, Note_on_c, 0,62,57,
2,5120, Note_on_c, 0,38,53,
2,5120, Note_on_c, 0,59,48,
2,5120, Note_on_c, 0,49,56,
2,5376, Note_off_c, 0,49,0,
2,5376, Note_off_c, 0,50,0,
2,5632, Note_off_c, 0,59,0,
2,5632, Note_off_c, 0,38,0,
2,5632, Note_off_c, 0,45,0,
2,5632, Note_on_c, 0,69,62,
2,5632, Note_on_c, 0,57,50,
2,5632, Note_on_c, 0,50,42,
2,5888, Note_on_c, 0,66,50,
2,5888, Note_off_c, 0,66,0,
2,6144, Note_off_c, 0,43,0,
2,6144, Note_on_c, 0,59,55,
2,6144, Note_off_c, 0,59,0,
2,6144, Note_off_c, 0,62,0,
2,6144, Note_off_c, 0,57,0,
2,6144, Note_on_c, 0,47,51,
2,6400, Note_off_c, 0,47,0,
2,6400, Note_off_c, 0,50,0,
2,6656, Note_on_c, 0,59,44,
2,6656, Note_on_c, 0,62,54,
2,6656, Note_off_c, 0,71,0,
2,6656, Note_on_c, 0,74,59,
2,6656, Note_off_c, 0,64,0,
2,6656, Note_on_c, 0,50,50,
2,6912, Note_on_c, 0,45,51,
2,6912, Note_off_c, 0,62,0,
2,7168, Note_on_c, 0,67,53,
2,7168, Note_on_c, 0,61,57,
2,7168, Note_on_c, 0,52,56,
2,7168, Note_off_c, 0,67,0,
2,7168, Note_off_c, 0,50,0,
2,7168, Note_on_c, 0,43,52,
2,7424, Note_off_c, 0,43,0,
2,7424, Note_on_c, 0,47,53,
2,7680, Note_off_c, 0,59,0,
2,7680, Note_on_c, 0,57,56,
2,7680, Note_off_c, 0,57,0,
2,7680, Note_off_c, 0,69,0,
2,7680, Note_on_c, 0,73,60,
2,7680, Note_on_c, 0,49,62,
2,7936, Note_on_c, 0,64,62,
2,7936, Note_on_c, 0,66,58,
2,8192, Note_on_c, 0,57,59,
2,8192, Note_off_c, 0,74,0,
2,8192, Note_off_c, 0,52,0,
2,8192, Note_on_c, 0,69,63,
2,8192, Note_on_c, 0,52,58,
2,8192, Note_off_c, 0,52,0,
2,8192, Note_on_c, 0,38,58,
2,8192, Note_on_c, 0,50,54,
2,8448, Note_off_c, 0,57,0,
2,8448, Note_off_c, 0,49,0,
2,8448, Note_on_c, 0,54,51,
2,8448, Note_on_c, 0,62,62,
2,8704, Note_off_c, 0,62,0,
2,8704, Note_off_c, 0,61,0,
2,8704, Note_off_c, 0,64,0,
2,8704, Note_on_c, 0,64,58,
2,8704, Note_on_c, 0,52,55,
2,8704, Note_off_c, 0,38,0,
2,8960, Note_off_c, 0,45,0,
2,8960, Note_off_c, 0,66,0,
2,8960, Note_off_c, 0,69,0,
2,8960, Note_on_c, 0,61,52,
2,9216, Note_off_c, 0,64,0,
2,9216, Note_on_c, 0,64,56,
2,9216, Note_on_c, 0,62,66,
2,9216, Note_off_c, 0,54,0,
2,9216, Note_off_c, 0,61,0,
2,9216, Note_off_c, 0,50,0,
2,9472, Note_off_c, 0,47,0,
2,9472, Note_on_c, 0,47,58,
2,9472, Note_off_c, 0,47,0,
2,9472, Note_on_c, 0,67,52,
2,9728, Note_off_c, 0,62,0,
2,9728, Note_off_c, 0,67,0,
2,9728, Note_off_c, 0,52,0,
2,9728, Note_on_c, 0,69,51,
2,9728, Note_on_c, 0,67,54,
2,9728, Note_on_c, 0,45,60,
2,9984, Note_off_c, 0,64,0,
2,9984, Note_off_c, 0,73,0,
2,9984, Note_on_c, 0,49,61,
2,9984, Note_on_c, 0,52,48,
2,10240, Note_on_c, 0,66,48,
2,10240, Note_off_c, 0,55,0,
2,10240, Note_on_c, 0,59,47,
2,10240, Note_on_c, 0,54,61,
2,10240, Note_on_c, 0,50,56,
2,10240, Note_on_c, 0,47,54,
2,10496, Note_on_c, 0,43,54,
2,10496, Note_off_c, 0,50,0,
2,10496, Note_on_c, 0,50,51,
2,10496, Note_off_c, 0,47,0,
2,10752, Note_on_c, 0,71,61,
2,10752, Note_on_c, 0,57,61,
2,10752, Note_off_c, 0,57,0,
2,10752, Note_on_c, 0,61,56,
2,10752, Note_on_c, 0,64,53,
2,10752, Note_off_c, 0,50,0,
2,11008, Note_off_c, 0,69,0,
2,11008, Note_off_c, 0,66,0,
2,11008, Note_off_c, 0,45,0,
2,11008, Note_on_c, 0,50,54,
2,11264, Note_on_c, 0,45,58,
2,11264, Note_on_c, 0,66,61,
2,11264, Note_off_c, 0,59,0,
2,11264, Note_off_c, 0,54,0,
2,11264, Note_on_c, 0,57,61,
2,11264, Note_off_c, 0,43,0,
2,11520, Note_on_c, 0,47,61,
2,11520, Note_off_c, 0,47,0,
2,11520, Note_on_c, 0,47,61,
2,11520, Note_off_c, 0,47,0,
2,11776, Note_on_c, 0,59,49,
2,11776, Note_off_c, 0,57,0,
2,11776, Note_off_c, 0,61,0,
2,11776, Note_off_c, 0,50,0,
2,11776, Note_off_c, 0,45,0,
2,11776, Note_on_c, 0,69,58,
2,11776, Note_off_c, 0,66,0,
2,11776, Note_on_c, 0,50,61,
2,12032, Note_off_c, 0,52,0,
2,12032, Note_off_c, 0,49,0,
2,12032, Note_off_c, 0,64,0,
2,12032, Note_off_c, 0,71,0,
2,12288, Note_on_c, 0,71,82,
2,12288, Note_off_c, 0,69,0,
2,12288, Note_off_c, 0,50,0,
2,12288, Note_on_c, 0,76,62,
2,12288, Note_on_c, 0,73,65,
2,12288, Note_off_c, 0,73,0,
2,12288, Note_on_c, 0,73,75,
2,12544, Note_on_c, 0,47,60,
2,12544, Note_on_c, 0,49,47,
2,12544, Note_off_c, 0,76,0,
2,12544, Note_on_c, 0,69,62,
2,12544, Note_off_c, 0,73,0,
2,12544, Note_on_c, 0,62,59,
2,12800, Note_off_c, 0,59,0,
2,12800, Note_on_c, 0,57,84,
2,12800, Note_off_c, 0,57,0,
2,12800, Note_off_c, 0,67,0,
2,12800, Note_on_c, 0,66,72,
2,12800, Note_off_c, 0,69,0,
2,13056, Note_on_c, 0,64,60,
2,13056, Note_on_c, 0,73,77,
2,13056, Note_off_c, 0,62,0,
2,13056, Note_on_c, 0,55,68,
2,13056, Note_on_c, 0,43,52,
2,13056, Note_on_c, 0,62,84,
2,13312, Note_off_c, 0,66,0,
2,13312, Note_on_c, 0,66,82,
2,13312, Note_off_c, 0,43,0,
2,13312, Note_off_c, 0,64,0,
2,13312, Note_off_c, 0,62,0,
2,13312, Note_on_c, 0,52,55,
2,13568, Note_on_c, 0,69,59,
2,13568, Note_off_c, 0,55,0,
2,13568, Note_on_c, 0,74,77,
2,13568, Note_off_c, 0,47,0,
2,13568, Note_off_c, 0,74,0,
2,13568, Note_on_c, 0,78,64,
2,13824, Note_on_c, 0,76,71,
2,13824, Note_on_c, 0,74,81,
2,13824, Note_off_c, 0,71,0,
2,13824, Note_on_c, 0,54,63,
2,13824, Note_off_c, 0,74,0,
2,13824, Note_on_c, 0,83,67,
2,14080, Note_off_c, 0,78,0,
2,14080, Note_off_c, 0,54,0,
2,14080, Note_on_c, 0,79,71,
2,14080, Note_on_c, 0,50,55,
2,14080, Note_on_c, 0,45,56,
2,14080, Note_on_c, 0,78,68,
2,14336, Note_off_c, 0,78,0,
2,14336, Note_on_c, 0,78,57,
2,14336, Note_off_c, 0,79,0,
2,14336, Note_off_c, 0,52,0,
2,14336, Note_on_c, 0,74,65,
2,14336, Note_on_c, 0,79,72,
2,14592, Note_off_c, 0,78,0,
2,14592, Note_on_c, 0,54,62,
2,14592, Note_on_c, 0,71,65,
2,14592, Note_off_c, 0,73,0,
2,14592, Note_on_c, 0,78,67,
2,14592, Note_on_c, 0,81,57,
2,14848, Note_off_c, 0,78,0,
2,14848, Note_off_c, 0,50,0,
2,14848, Note_off_c, 0,54,0,
2,14848, Note_off_c, 0,81,0,
2,14848, Note_on_c, 0,81,60,
2,14848, Note_off_c, 0,76,0,
2,15104, Note_on_c, 0,76,66,
2,15104, Note_on_c, 0,73,56,
2,15104, Note_off_c, 0,71,0,
2,15104, Note_off_c, 0,76,0,
2,15104, Note_off_c, 0,74,0,
2,15104, Note_on_c, 0,76,59,
2,15360, Note_off_c, 0,76,0,
2,15360, Note_on_c, 0,71,68,
2,15360, Note_on_c, 0,50,64,
2,15360, Note_on_c, 0,67,63,
2,15360, Note_off_c, 0,66,0,
2,15360, Note_on_c, 0,72,67,
2,15616, Note_off_c, 0,69,0,
2,15616, Note_off_c, 0,67,0,
2,15616, Note_on_c, 0,43,58,
2,15616, Note_off_c, 0,50,0,
2,15616, Note_on_c, 0,66,64,
2,15616, Note_on_c, 0,67,76,
2,15872, Note_on_c, 0,57,54,
2,15872, Note_on_c, 0,64,57,
2,15872, Note_off_c, 0,73,0,
2,15872, Note_on_c, 0,54,62,
2,15872, Note_off_c, 0,54,0,
2,15872, Note_off_c, 0,66,0,
2,16128, Note_on_c, 0,62,55,
2,16128, Note_off_c, 0,62,0,
2,16128, Note_on_c, 0,74,75,
2,16128, Note_on_c, 0,52,74,
2,16128, Note_on_c, 0,66,71,
2,16128, Note_off_c, 0,64,0,
2,16384, Note_on_c, 0,54,73,
2,16384, Note_off_c, 0,54,0,
2,16384, Note_on_c, 0,50,63,
2,16384, Note_off_c, 0,45,0,
2,16384, Note_off_c, 0,50,0,
2,16384, Note_off_c, 0,67,0,
2,16640, Note_off_c, 0,74,0,
2,16640, Note_on_c, 0,62,51,
2,16640, Note_on_c, 0,59,70,
2,16640, Note_off_c, 0,62,0,
2,16640, Note_off_c, 0,57,0,
2,16640, Note_off_c, 0,43,0,
2,16896, Note_on_c, 0,61,62,
2,16896, Note_on_c, 0,69,64,
2,16896, Note_off_c, 0,69,0,
2,16896, Note_on_c, 0,67,74,
2,16896, Note_on_c, 0,57,62,
2,16896, Note_off_c, 0,61,0,
2,17152, Note_on_c, 0,69,52,
2,17152, Note_on_c, 0,55,67,
2,17152, Note_on_c, 0,62,74,
2,17152, Note_off_c, 0,57,0,
2,17152, Note_on_c, 0,57,60,
2,17152, Note_on_c, 0,54,67,
2,17408, Note_off_c, 0,49,0,
2,17408, Note_on_c, 0,38,66,
2,17408, Note_off_c, 0,42,0,
2,17408, Note_on_c, 0,64,48,
2,17408, Note_off_c, 0,54,0,
2,17408, Note_off_c, 0,67,0,
2,17664, Note_off_c, 0,66,0,
2,17664, Note_on_c, 0,66,76,
2,17664, Note_off_c, 0,62,0,
2,17664, Note_off_c, 0,57,0,
2,17664, Note_on_c, 0,45,64,
2,17664, Note_off_c, 0,59,0,
2,17920, Note_off_c, 0,52,0,
2,17920, Note_off_c, 0,64,0,
2,17920, Note_on_c, 0,62,64,
2,17920, Note_on_c, 0,57,70,
2,17920, Note_off_c, 0,57,0,
2,17920, Note_off_c, 0,55,0,
2,18176, Note_on_c, 0,50,72,
2,18176, Note_off_c, 0,69,0,
2,18176, Note_on_c, 0,73,52,
2,18176, Note_on_c, 0,49,69,
2,18176, Note_off_c, 0,66,0,
2,18176, Note_on_c, 0,61,67,
2,18432, Note_off_c, 0,73,0,
2,18432, Note_on_c, 0,52,68,
2,18432, Note_off_c, 0,62,0,
2,18432, Note_off_c, 0,45,0,
2,18432, Note_on_c, 0,47,77,
2,18432, Note_on_c, 0,74,75,
2,18688, Note_on_c, 0,54,56,
2,18688, Note_on_c, 0,67,72,
2,18688, Note_off_c, 0,47,0,
2,18688, Note_on_c, 0,59,66,
2,18688, Note_off_c, 0,74,0,
2,18688, Note_on_c, 0,57,63,
2,18944, Note_on_c, 0,42,68,
2,18944, Note_on_c, 0,62,68,
2,18944, Note_off_c, 0,59,0,
2,18944, Note_on_c, 0,59,56,
2,18944, Note_on_c, 0,66,62,
2,18944, Note_off_c, 0,61,0,
2,19200, Note_off_c, 0,50,0,
2,19200, Note_on_c, 0,69,69,
2,19200, Note_on_c, 0,55,53,
2,19200, Note_off_c, 0,59,0,
2,19200, Note_off_c, 0,52,0,
2,19200, Note_on_c, 0,52,68,
2,19456, Note_on_c, 0,64,73,
2,19456, Note_off_c, 0,67,0,
2,19456, Note_off_c, 0,71,0,
2,19456, Note_off_c, 0,55,0,
2,19456, Note_on_c, 0,55,71,
2,19456, Note_on_c, 0,43,71,
2,19712, Note_off_c, 0,54,0,
2,19712, Note_off_c, 0,64,0,
2,19712, Note_on_c, 0,54,69,
2,19712, Note_off_c, 0,52,0,
2,19712, Note_off_c, 0,55,0,
2,19968, Note_off_c, 0,54,0,
2,19968, Note_on_c, 0,55,60,
2,19968, Note_off_c, 0,62,0,
2,19968, Note_on_c, 0,67,66,
2,19968, Note_off_c, 0,57,0,
2,19968, Note_on_c, 0,54,72,
2,20224, Note_off_c, 0,69,0,
2,20224, Note_off_c, 0,55,0,
2,20224, Note_on_c, 0,59,82,
2,20224, Note_on_c, 0,62,61,
2,20224, Note_on_c, 0,57,61,
2,20224, Note_off_c, 0,54,0,
2,20480, Note_on_c, 0,69,69,
2,20480, Note_on_c, 0,74,75,
2,20480, Note_on_c, 0,76,55,
2,20480, Note_off_c, 0,74,0,
2,20480, Note_on_c, 0,73,56,
2,20480, Note_on_c, 0,45,73,
2,20480, Note_off_c, 0,45,0,
2,20736, Note_off_c, 0,79,0,
2,20736, Note_on_c, 0,78,75,
2,20736, Note_off_c, 0,78,0,
2,20736, Note_on_c, 0,52,59,
2,20736, Note_on_c, 0,78,47,
2,20736, Note_off_c, 0,78,0,
2,20736, Note_on_c, 0,78,63,
2,20736, Note_off_c, 0,78,0,
2,20992, Note_on_c, 0,79,74,
2,20992, Note_off_c, 0,57,0,
2,20992, Note_on_c, 0,54,73,
2,20992, Note_on_c, 0,78,75,
2,20992, Note_off_c, 0,78,0,
2,20992, Note_off_c, 0,81,0,
2,20992, Note_on_c, 0,47,77,
2,20992, Note_off_c, 0,69,0,
2,20992, Note_off_c, 0,43,0,
2,20992, Note_on_c, 0,71,75,
2,21248, Note_off_c, 0,66,0,
2,21248, Note_off_c, 0,71,0,
2,21248, Note_on_c, 0,74,67,
2,21248, Note_off_c, 0,49,0,
2,21248, Note_on_c, 0,50,58,
2,21248, Note_off_c, 0,74,0,
2,21248, Note_off_c, 0,73,0,
2,21248, Note_on_c, 0,57,60,
2,21504, Note_off_c, 0,50,0,
2,21504, Note_on_c, 0,78,70,
2,21504, Note_off_c, 0,78,0,
2,21504, Note_off_c, 0,54,0,
2,21504, Note_on_c, 0,50,77,
2,21504, Note_on_c, 0,81,66,
2,21504, Note_on_c, 0,78,53,
2,21504, Note_on_c, 0,73,64,
2,21760, Note_on_c, 0,45,77,
2,21760, Note_on_c, 0,49,59,
2,21760, Note_off_c, 0,52,0,
2,21760, Note_off_c, 0,79,0,
2,21760, Note_on_c, 0,54,62,
2,21760, Note_off_c, 0,57,0,
2,21760, Note_off_c, 0,78,0,
2,21760, Note_off_c, 0,67,0,
2,22016, Note_on_c, 0,69,74,
2,22016, Note_on_c, 0,71,64,
2,22016, Note_off_c, 0,69,0,
2,22016, Note_on_c, 0,69,69,
2,22016, Note_off_c, 0,71,0,
2,22016, Note_off_c, 0,42,0,
2,22016, Note_on_c, 0,71,69,
2,22016, Note_off_c, 0,71,0,
2,22016, Note_off_c, 0,50,0,
2,22016, Note_on_c, 0,71,68,
2,22272, Note_off_c, 0,71,0,
2,22272, Note_on_c, 0,67,76,
2,22272, Note_on_c, 0,71,74,
2,22272, Note_off_c, 0,71,0,
2,22272, Note_off_c, 0,67,0,
2,22272, Note_off_c, 0,47,0,
2,22272, Note_on_c, 0,42,59,
2,22272, Note_on_c, 0,67,61,
2,22528, Note_on_c, 0,71,75,
2,22528, Note_on_c, 0,66,68,
2,22528, Note_on_c, 0,50,67,
2,22528, Note_on_c, 0,43,61,
2,22528, Note_off_c, 0,71,0,
2,22528, Note_off_c, 0,69,0,
2,22528, Note_off_c, 0,66,0,
2,22528, Note_off_c, 0,67,0,
2,22784, Note_on_c, 0,69,65,
2,22784, Note_on_c, 0,66,72,
2,22784, Note_off_c, 0,66,0,
2,22784, Note_on_c, 0,67,71,
2,22784, Note_on_c, 0,47,56,
2,22784, Note_off_c, 0,54,0,
2,22784, Note_on_c, 0,66,68,
2,22784, Note_off_c, 0,47,0,
2,23040, Note_off_c, 0,66,0,
2,23040, Note_on_c, 0,64,66,
2,23040, Note_off_c, 0,67,0,
2,23040, Note_on_c, 0,66,73,
2,23040, Note_on_c, 0,57,70,
2,23040, Note_off_c, 0,45,0,
2,23040, Note_off_c, 0,66,0,
2,23040, Note_off_c, 0,69,0,
2,23040, Note_off_c, 0,73,0,
2,23040, Note_off_c, 0,62,0,
2,23296, Note_on_c, 0,74,61,
2,23296, Note_off_c, 0,64,0,
2,23296, Note_on_c, 0,54,77,
2,23296, Note_on_c, 0,62,75,
2,23296, Note_on_c, 0,61,75,
2,23296, Note_off_c, 0,38,0,
2,23296, Note_on_c, 0,66,62,
2,23296, Note_on_c, 0,71,54,
2,23296, Note_off_c, 0,42,0,
2,23296, Note_off_c, 0,50,0,
2,23552, Note_on_c, 0,69,77,
2,23552, Note_off_c, 0,43,0,
2,23552, Note_on_c, 0,47,68,
2,23552, Note_on_c, 0,67,74,
2,23552, Note_off_c, 0,69,0,
2,23552, Note_off_c, 0,67,0,
2,23552, Note_on_c, 0,67,63,
2,23552, Note_on_c, 0,69,76,
2,23808, Note_off_c, 0,67,0,
2,23808, Note_on_c, 0,67,73,
2,23808, Note_off_c, 0,69,0,
2,23808, Note_off_c, 0,47,0,
2,23808, Note_on_c, 0,64,61,
2,23808, Note_on_c, 0,50,61,
2,23808, Note_off_c, 0,74,0,
2,23808, Note_on_c, 0,45,77,
2,24064, Note_off_c, 0,71,0,
2,24064, Note_on_c, 0,52,73,
2,24064, Note_off_c, 0,76,0,
2,24064, Note_on_c, 0,43,74,
2,24064, Note_on_c, 0,73,72,
2,24064, Note_off_c, 0,64,0,
2,24064, Note_off_c, 0,45,0,
2,24064, Note_off_c, 0,52,0,
2,24064, Note_on_c, 0,74,57,
2,24064, Note_off_c, 0,73,0,
2,24320, Note_on_c, 0,76,77,
2,24320, Note_off_c, 0,50,0,
2,24320, Note_off_c, 0,76,0,
2,24320, Note_off_c, 0,74,0,
2,24320, Note_on_c, 0,73,72,
2,24320, Note_on_c, 0,74,76,
2,24320, Note_on_c, 0,76,69,
2,24320, Note_off_c, 0,74,0,
2,24320, Note_on_c, 0,74,61,
2,24320, Note_off_c, 0,81,0,
2,24576, Note_on_c, 0,78,62,
2,24576, Note_off_c, 0,78,0,
2,24576, Note_on_c, 0,78,62,
2,24576, Note_on_c, 0,81,71,
2,24576, Note_off_c, 0,54,0,
2,24576, Note_off_c, 0,81,0,
2,24576, Note_off_c, 0,78,0,
2,24576, Note_on_c, 0,52,76,
2,24576, Note_on_c, 0,78,53,
2,24576, Note_off_c, 0,74,0,
2,24832, Note_on_c, 0,81,66,
2,24832, Note_off_c, 0,78,0,
2,24832, Note_on_c, 0,78,51,
2,24832, Note_off_c, 0,78,0,
2,24832, Note_on_c, 0,78,72,
2,24832, Note_off_c, 0,78,0,
2,24832, Note_on_c, 0,78,75,
2,24832, Note_off_c, 0,52,0,
2,24832, Note_on_c, 0,45,56,
2,24832, Note_off_c, 0,78,0,
2,25088, Note_off_c, 0,81,0,
2,25088, Note_on_c, 0,81,52,
2,25088, Note_on_c, 0,79,71,
2,25088, Note_off_c, 0,45,0,
2,25088, Note_on_c, 0,50,74,
2,25088, Note_off_c, 0,81,0,
2,25088, Note_off_c, 0,79,0,
2,25088, Note_on_c, 0,69,76,
2,25088, Note_on_c, 0,71,63,
2,25088, Note_off_c, 0,71,0,
2,25344, Note_on_c, 0,71,74,
2,25344, Note_on_c, 0,74,75,
2,25344, Note_off_c, 0,76,0,
2,25344, Note_off_c, 0,74,0,
2,25344, Note_off_c, 0,73,0,
2,25344, Note_on_c, 0,73,77,
2,25344, Note_on_c, 0,74,68,
2,25344, Note_off_c, 0,74,0,
2,25344, Note_on_c, 0,74,59,
2,25344, Note_on_c, 0,54,61,
2,25600, Note_on_c, 0,78,61,
2,25600, Note_on_c, 0,81,70,
2,25600, Note_off_c, 0,78,0,
2,25600, Note_on_c, 0,78,79,
2,25600, Note_on_c, 0,52,57,
2,25600, Note_off_c, 0,50,0,
2,25600, Note_off_c, 0,57,0,
2,25600, Note_off_c, 0,73,0,
2,25600, Note_on_c, 0,73,47,
2,25600, Note_off_c, 0,74,0,
2,25856, Note_on_c, 0,45,54,
2,25856, Note_on_c, 0,76,64,
2,25856, Note_on_c, 0,74,75,
2,25856, Note_off_c, 0,54,0,
2,25856, Note_off_c, 0,78,0,
2,25856, Note_on_c, 0,78,57,
2,25856, Note_on_c, 0,79,65,
2,25856, Note_off_c, 0,71,0,
2,25856, Note_off_c, 0,69,0,
2,25856, Note_on_c, 0,71,69,
2,26112, Note_off_c, 0,67,0,
2,26112, Note_on_c, 0,47,60,
2,26112, Note_on_c, 0,69,71,
2,26112, Note_on_c, 0,67,67,
2,26112, Note_on_c, 0,42,61,
2,26112, Note_off_c, 0,71,0,
2,26112, Note_off_c, 0,69,0,
2,26112, Note_off_c, 0,43,0,
2,26112, Note_off_c, 0,66,0,
2,26112, Note_on_c, 0,43,71,
2,26368, Note_off_c, 0,72,0,
2,26368, Note_on_c, 0,69,78,
2,26368, Note_off_c, 0,45,0,
2,26368, Note_off_c, 0,69,0,
2,26368, Note_on_c, 0,66,71,
2,26368, Note_on_c, 0,45,50,
2,26368, Note_on_c, 0,69,64,
2,26368, Note_off_c, 0,67,0,
2,26368, Note_on_c, 0,71,72,
2,26368, Note_on_c, 0,67,60,
2,26624, Note_off_c, 0,69,0,
2,26624, Note_on_c, 0,69,67,
2,26624, Note_on_c, 0,72,59,
2,26624, Note_off_c, 0,71,0,
2,26624, Note_off_c, 0,42,0,
2,26624, Note_off_c, 0,67,0,
2,26624, Note_off_c, 0,43,0,
2,26624, Note_off_c, 0,69,0,
2,26624, Note_on_c, 0,50,59,
2,26624, Note_on_c, 0,67,62,
2,26880, Note_on_c, 0,69,56,
2,26880, Note_off_c, 0,66,0,
2,26880, Note_off_c, 0,50,0,
2,26880, Note_off_c, 0,69,0,
2,26880, Note_on_c, 0,43,71,
2,26880, Note_on_c, 0,69,65,
2,26880, Note_off_c, 0,72,0,
2,26880, Note_on_c, 0,72,56,
2,26880, Note_off_c, 0,72,0,
2,26880, Note_off_c, 0,43,0,
2,27136, Note_on_c, 0,38,67,
2,27136, Note_on_c, 0,64,66,
2,27136, Note_on_c, 0,50,75,
2,27136, Note_off_c, 0,62,0,
2,27136, Note_on_c, 0,66,67,
2,27136, Note_off_c, 0,45,0,
2,27136, Note_off_c, 0,50,0,
2,27136, Note_off_c, 0,69,0,
2,27136, Note_off_c, 0,64,0,
2,27136, Note_on_c, 0,54,59,
2,27392, Note_off_c, 0,49,0,
2,27392, Note_on_c, 0,64,70,
2,27392, Note_off_c, 0,54,0,
2,27392, Note_on_c, 0,62,75,
2,27392, Note_off_c, 0,66,0,
2,27392, Note_on_c, 0,69,73,
2,27392, Note_off_c, 0,52,0,
2,27392, Note_on_c, 0,71,60,
2,27392, Note_off_c, 0,69,0,
2,27392, Note_on_c, 0,69,63,
2,27648, Note_off_c, 0,47,0,
2,27648, Note_on_c, 0,66,72,
2,27648, Note_on_c, 0,42,70,
2,27648, Note_off_c, 0,67,0,
2,27648, Note_on_c, 0,72,74,
2,27648, Note_off_c, 0,69,0,
2,27648, Note_off_c, 0,66,0,
2,27648, Note_off_c, 0,71,0,
2,27904, Note_on_c, 0,71,61,
2,27904, Note_on_c, 0,67,74,
2,27904, Note_off_c, 0,71,0,
2,27904, Note_off_c, 0,72,0,
2,27904, Note_off_c, 0,61,0,
2,27904, Note_off_c, 0,38,0,
2,27904, Note_on_c, 0,49,75,
2,27904, Note_off_c, 0,74,0,
2,28160, Note_on_c, 0,74,67,
2,28160, Note_off_c, 0,73,0,
2,28160, Note_off_c, 0,76,0,
2,28160, Note_on_c, 0,69,58,
2,28160, Note_on_c, 0,50,85,
2,28160, Note_off_c, 0,69,0,
2,28160, Note_on_c, 0,38,82,
2,28160, Note_on_c, 0,73,85,
2,28160, Note_on_c, 0,71,76,
2,28160, Note_off_c, 0,71,0,
2,28416, Note_off_c, 0,74,0,
2,28416, Note_on_c, 0,74,63,
2,28416, Note_on_c, 0,54,82,
2,28416, Note_off_c, 0,74,0,
2,28416, Note_off_c, 0,73,0,
2,28416, Note_on_c, 0,74,81,
2,28416, Note_off_c, 0,74,0,
2,28416, Note_off_c, 0,50,0,
2,28416, Note_off_c, 0,81,0,
2,28416, Note_off_c, 0,79,0,
2,28672, Note_on_c, 0,79,81,
2,28672, Note_on_c, 0,52,82,
2,28672, Note_on_c, 0,81,95,
2,28672, Note_off_c, 0,79,0,
2,28672, Note_off_c, 0,52,0,
2,28672, Note_off_c, 0,81,0,
2,28672, Note_off_c, 0,78,0,
2,28672, Note_on_c, 0,78,68,
2,28928, Note_off_c, 0,78,0,
2,28928, Note_off_c, 0,54,0,
2,28928, Note_on_c, 0,79,74,
2,28928, Note_on_c, 0,45,69,
2,29184, Note_on_c, 0,78,82,
2,29184, Note_on_c, 0,81,85,
2,29184, Note_off_c, 0,78,0,
2,29184, Note_on_c, 0,50,80,
2,29184, Note_on_c, 0,78,62,
2,29184, Note_on_c, 0,52,83,
2,29184, Note_off_c, 0,81,0,
2,29184, Note_off_c, 0,83,0,
2,29184, Note_off_c, 0,78,0,
2,29184, Note_on_c, 0,78,63,
2,29440, Note_off_c, 0,78,0,
2,29440, Note_off_c, 0,45,0,
2,29440, Note_off_c, 0,79,0,
2,29440, Note_on_c, 0,81,75,
2,29440, Note_off_c, 0,81,0,
2,29440, Note_on_c, 0,73,64,
2,29696, Note_on_c, 0,45,78,
2,29696, Note_on_c, 0,74,77,
2,29696, Note_off_c, 0,74,0,
2,29696, Note_off_c, 0,73,0,
2,29696, Note_off_c, 0,45,0,
2,29696, Note_on_c, 0,66,77,
2,29696, Note_off_c, 0,38,0,
2,29696, Note_off_c, 0,50,0,
2,29952, Note_on_c, 0,69,62,
2,29952, Note_on_c, 0,50,62,
2,29952, Note_on_c, 0,71,63,
2,29952, Note_on_c, 0,76,77,
2,30208, Note_on_c, 0,73,79,
2,30208, Note_on_c, 0,74,77,
2,30208, Note_off_c, 0,74,0,
2,30208, Note_off_c, 0,69,0,
2,30208, Note_off_c, 0,73,0,
2,30208, Note_off_c, 0,64,0,
2,30208, Note_off_c, 0,42,0,
2,30208, Note_on_c, 0,74,59,
2,30208, Note_off_c, 0,74,0,
2,30208, Note_on_c, 0,74,85,
2,30464, Note_on_c, 0,73,66,
2,30464, Note_off_c, 0,71,0,
2,30464, Note_off_c, 0,74,0,
2,30464, Note_off_c, 0,76,0,
2,30464, Note_on_c, 0,76,78,
2,30464, Note_off_c, 0,76,0,
2,30720, Note_on_c, 0,69,62,
2,30720, Note_off_c, 0,73,0,
2,30720, Note_off_c, 0,59,0,
2,30720, Note_on_c, 0,54,70,
2,30720, Note_on_c, 0,57,78,
2,30720, Note_on_c, 0,55,78,
2,30720, Note_on_c, 0,43,61,
2,30720, Note_on_c, 0,47,59,
2,30976, Note_off_c, 0,50,0,
2,30976, Note_off_c, 0,47,0,
2,30976, Note_off_c, 0,66,0,
2,30976, Note_on_c, 0,66,56,
2,31232, Note_off_c, 0,69,0,
2,31232, Note_off_c, 0,66,0,
2,31232, Note_on_c, 0,71,74,
2,31232, Note_on_c, 0,66,78,
2,31232, Note_off_c, 0,43,0,
2,31232, Note_on_c, 0,69,82,
2,31232, Note_off_c, 0,57,0,
2,31232, Note_off_c, 0,69,0,
2,31488, Note_on_c, 0,50,60,
2,31488, Note_on_c, 0,69,53,
2,31488, Note_on_c, 0,45,54,
2,31488, Note_on_c, 0,57,74,
2,31744, Note_off_c, 0,66,0,
2,31744, Note_on_c, 0,47,88,
2,31744, Note_off_c, 0,71,0,
2,31744, Note_on_c, 0,71,82,
2,31744, Note_off_c, 0,71,0,
2,31744, Note_on_c, 0,42,60,
2,31744, Note_on_c, 0,43,66,
2,31744, Note_off_c, 0,47,0,
2,31744, Note_off_c, 0,43,0,
2,31744, Note_off_c, 0,69,0,
2,32000, Note_on_c, 0,66,63,
2,32000, Note_off_c, 0,66,0,
2,32000, Note_on_c, 0,71,68,
2,32000, Note_off_c, 0,71,0,
2,32000, Note_on_c, 0,69,63,
2,32000, Note_off_c, 0,69,0,
2,32256, Note_on_c, 0,69,63,
2,32256, Note_off_c, 0,69,0,
2,32256, Note_off_c, 0,67,0,
2,32256, Note_off_c, 0,45,0,
2,32256, Note_on_c, 0,47,73,
2,32256, Note_on_c, 0,64,69,
2,32256, Note_on_c, 0,45,65,
2,32256, Note_off_c, 0,49,0,
2,32512, Note_off_c, 0,54,0,
2,32512, Note_on_c, 0,54,66,
2,32768, Note_on_c, 0,69,66,
2,32768, Note_off_c, 0,50,0,
2,32768, Note_on_c, 0,50,66,
2,32768, Note_off_c, 0,45,0,
2,32768, Note_off_c, 0,57,0,
2,32768, Note_off_c, 0,69,0,
2,32768, Note_on_c, 0,66,72,
2,33024, Note_on_c, 0,45,63,
2,33024, Note_on_c, 0,57,56,
2,33024, Note_off_c, 0,50,0,
2,33024, Note_off_c, 0,45,0,
2,33024, Note_off_c, 0,66,0,
2,33024, Note_off_c, 0,52,0,
2,33024, Note_on_c, 0,45,62,
2,33024, Note_on_c, 0,69,66,
2,33280, Note_on_c, 0,66,57,
2,33280, Note_off_c, 0,69,0,
2,33280, Note_off_c, 0,57,0,
2,33280, Note_on_c, 0,69,57,
2,33280, Note_off_c, 0,45,0,
2,33280, Note_on_c, 0,45,73,
2,33280, Note_on_c, 0,38,59,
2,33280, Note_on_c, 0,52,54,
2,33280, Note_on_c, 0,74,75,
2,33280, Note_on_c, 0,71,70,
2,33536, Note_off_c, 0,71,0,
2,33536, Note_off_c, 0,38,0,
2,33536, Note_off_c, 0,66,0,
2,33536, Note_on_c, 0,50,66,
2,33536, Note_on_c, 0,73,65,
2,33536, Note_off_c, 0,74,0,
2,33536, Note_off_c, 0,52,0,
2,33536, Note_off_c, 0,69,0,
2,33536, Note_on_c, 0,38,65,
2,33536, Note_off_c, 0,50,0,
2,33792, Note_off_c, 0,54,0,
2,33792, Note_off_c, 0,62,0,
2,33792, Note_on_c, 0,66,65,
2,33792, Note_on_c, 0,62,65,
2,33792, Note_on_c, 0,74,67,
2,33792, Note_off_c, 0,47,0,
2,34048, Note_on_c, 0,50,62,
2,34048, Note_on_c, 0,54,51,
2,34048, Note_off_c, 0,62,0,
2,34048, Note_off_c, 0,66,0,
2,34048, Note_on_c, 0,62,60,
2,34048, Note_off_c, 0,74,0,
2,34048, Note_off_c, 0,50,0,
2,34048, Note_off_c, 0,45,0,
2,34304, Note_on_c, 0,61,71,
2,34304, Note_off_c, 0,62,0,
2,34304, Note_on_c, 0,66,64,
2,34304, Note_on_c, 0,52,51,
2,34304, Note_off_c, 0,52,0,
2,34304, Note_off_c, 0,42,0,
2,34304, Note_on_c, 0,67,64,
2,34304, Note_off_c, 0,66,0,
2,34304, Note_on_c, 0,50,60,
2,34304, Note_off_c, 0,64,0,
2,34560, Note_on_c, 0,49,56,
2,34560, Note_on_c, 0,57,65,
2,34560, Note_on_c, 0,47,63,
2,34560, Note_off_c, 0,61,0,
2,34560, Note_off_c, 0,50,0,
2,34560, Note_on_c, 0,66,60,
2,34560, Note_on_c, 0,62,64,
2,34560, Note_off_c, 0,54,0,
2,34560, Note_on_c, 0,61,65,
2,34560, Note_on_c, 0,69,57,
2,34816, Note_off_c, 0,66,0,
2,34816, Note_on_c, 0,50,56,
2,34816, Note_on_c, 0,59,55,
2,34816, Note_off_c, 0,57,0,
2,34816, Note_on_c, 0,57,52,
2,34816, Note_off_c, 0,61,0,
2,35072, Note_on_c, 0,43,53,
2,35072, Note_on_c, 0,54,66,
2,35072, Note_on_c, 0,66,78,
2,35072, Note_off_c, 0,66,0,
2,35072, Note_on_c, 0,71,77,
2,35072, Note_off_c, 0,71,0,
2,35328, Note_off_c, 0,67,0,
2,35328, Note_off_c, 0,38,0,
2,35328, Note_on_c, 0,45,64,
2,35328, Note_on_c, 0,52,64,
2,35328, Note_on_c, 0,66,46,
2,35328, Note_off_c, 0,69,0,
2,35584, Note_on_c, 0,38,62,
2,35584, Note_off_c, 0,50,0,
2,35840, Note_off_c, 0,47,0,
2,35840, Note_on_c, 0,69,71,
2,35840, Note_on_c, 0,71,74,
2,35840, Note_off_c, 0,71,0,
2,35840, Note_off_c, 0,57,0,
2,35840, Note_on_c, 0,47,53,
2,35840, Note_off_c, 0,47,0,
2,35840, Note_on_c, 0,47,57,
2,35840, Note_off_c, 0,69,0,
2,35840, Note_on_c, 0,67,63,
2,36096, Note_off_c, 0,43,0,
2,36096, Note_on_c, 0,50,61,
2,36096, Note_off_c, 0,67,0,
2,36096, Note_on_c, 0,71,60,
2,36096, Note_on_c, 0,67,65,
2,36096, Note_off_c, 0,50,0,
2,36096, Note_off_c, 0,66,0,
2,36096, Note_off_c, 0,67,0,
2,36352, Note_off_c, 0,71,0,
2,36352, Note_on_c, 0,69,68,
2,36352, Note_on_c, 0,74,62,
2,36352, Note_off_c, 0,69,0,
2,36352, Note_off_c, 0,73,0,
2,36352, Note_on_c, 0,69,63,
2,36608, Note_on_c, 0,50,51,
2,36608, Note_off_c, 0,69,0,
2,36864, Note_on_c, 0,66,63,
2,36864, Note_off_c, 0,50,0,
2,36864, Note_off_c, 0,74,0,
2,36864, Note_on_c, 0,73,68,
2,36864, Note_on_c, 0,69,63,
2,36864, Note_off_c, 0,45,0,
2,36864, Note_on_c, 0,50,67,
2,37120, Note_on_c, 0,45,51,
2,37120, Note_off_c, 0,45,0,
2,37376, Note_off_c, 0,69,0,
2,37376, Note_on_c, 0,74,67,
2,37376, Note_off_c, 0,74,0,
2,37376, Note_on_c, 0,78,58,
2,37376, Note_on_c, 0,74,53,
2,37376, Note_off_c, 0,74,0,
2,37376, Note_on_c, 0,67,54,
2,37376, Note_off_c, 0,62,0,
2,37632, Note_off_c, 0,66,0,
2,37632, Note_on_c, 0,62,54,
2,37888, Note_on_c, 0,57,57,
2,37888, Note_off_c, 0,73,0,
2,37888, Note_on_c, 0,74,56,
2,37888, Note_off_c, 0,47,0,
2,37888, Note_on_c, 0,71,52,
2,37888, Note_off_c, 0,67,0,
2,37888, Note_on_c, 0,42,52,
2,37888, Note_off_c, 0,50,0,
2,38144, Note_on_c, 0,47,55,
2,38144, Note_off_c, 0,62,0,
2,38400, Note_off_c, 0,54,0,
2,38400, Note_off_c, 0,74,0,
2,38400, Note_on_c, 0,74,58,
2,38400, Note_on_c, 0,66,55,
2,38400, Note_off_c, 0,57,0,
2,38400, Note_on_c, 0,69,51,
2,38400, Note_off_c, 0,59,0,
2,38400, Note_off_c, 0,52,0,
2,38656, Note_on_c, 0,57,52,
2,38656, Note_off_c, 0,42,0,
2,38912, Note_on_c, 0,45,57,
2,38912, Note_off_c, 0,45,0,
2,38912, Note_off_c, 0,55,0,
2,38912, Note_on_c, 0,59,58,
2,38912, Note_on_c, 0,54,55,
2,38912, Note_on_c, 0,50,56,
2,38912, Note_on_c, 0,55,57,
2,38912, Note_off_c, 0,55,0,
2,39168, Note_off_c, 0,66,0,
2,39168, Note_on_c, 0,55,50,
2,39424, Note_on_c, 0,52,59,
2,39424, Note_on_c, 0,67,62,
2,39424, Note_on_c, 0,42,54,
2,39424, Note_on_c, 0,62,56,
2,39424, Note_on_c, 0,66,58,
2,39424, Note_on_c, 0,43,57,
2,39424, Note_off_c, 0,59,0,
2,39424, Note_off_c, 0,54,0,
2,39680, Note_off_c, 0,49,0,
2,39680, Note_on_c, 0,54,54,
2,39936, Note_off_c, 0,62,0,
2,39936, Note_on_c, 0,61,51,
2,39936, Note_off_c, 0,66,0,
2,39936, Note_off_c, 0,69,0,
2,39936, Note_off_c, 0,54,0,
2,39936, Note_off_c, 0,67,0,
2,39936, Note_off_c, 0,57,0,
2,39936, Note_off_c, 0,55,0,
2,40192, Note_on_c, 0,55,52,
2,40192, Note_on_c, 0,69,57,
2,40448, Note_off_c, 0,55,0,
2,40448, Note_on_c, 0,59,53,
2,40448, Note_on_c, 0,57,50,
2,40448, Note_off_c, 0,57,0,
2,40448, Note_off_c, 0,61,0,
2,40448, Note_on_c, 0,64,59,
2,40448, Note_off_c, 0,50,0,
2,40448, Note_off_c, 0,69,0,
2,40704, Note_on_c, 0,66,57,
2,40704, Note_on_c, 0,69,55,
2,40960, Note_off_c, 0,52,0,
2,40960, Note_off_c, 0,66,0,
2,40960, Note_off_c, 0,69,0,
2,40960, Note_off_c, 0,64,0,
2,40960, Note_on_c, 0,62,56,
2,40960, Note_off_c, 0,74,0,
2,40960, Note_off_c, 0,38,0,
2,41216, Note_off_c, 0,62,0,
2,41472, Note_on_c, 0,66,58,
2,41472, Note_off_c, 0,66,0,
2,41472, Note_on_c, 0,66,56,
2,41472, Note_off_c, 0,47,0,
2,41728, Note_on_c, 0,50,61,
2,41728, Note_on_c, 0,52,61,
2,41984, Note_off_c, 0,52,0,
2,41984, Note_on_c, 0,64,50,
2,41984, Note_off_c, 0,59,0,
2,41984, Note_on_c, 0,67,58,
2,41984, Note_on_c, 0,45,54,
2,41984, Note_off_c, 0,43,0,
2,41984, Note_on_c, 0,74,50,
2,42240, Note_on_c, 0,47,51,
2,42496, Note_on_c, 0,59,55,
2,42496, Note_off_c, 0,67,0,
2,42496, Note_on_c, 0,57,56,
2,42496, Note_on_c, 0,43,48,
2,42752, Note_off_c, 0,47,0,
2,42752, Note_off_c, 0,59,0,
2,43008, Note_on_c, 0,67,60,
2,43008, Note_on_c, 0,61,56,
2,43008, Note_on_c, 0,69,56,
2,43008, Note_on_c, 0,59,60,
2,43008, Note_off_c, 0,67,0,
2,43008, Note_off_c, 0,42,0,
2,43008, Note_off_c, 0,43,0,
2,43264, Note_off_c, 0,50,0,
2,43520, Note_on_c, 0,73,63,
2,43520, Note_off_c, 0,59,0,
2,43520, Note_on_c, 0,67,56,
2,43520, Note_off_c, 0,57,0,
2,43776, Note_on_c, 0,43,48,
2,43776, Note_on_c, 0,50,57,
2,44032, Note_on_c, 0,62,57,
2,44032, Note_off_c, 0,66,0,
2,44032, Note_off_c, 0,69,0,
2,44032, Note_on_c, 0,59,54,
2,44032, Note_off_c, 0,62,0,
2,44032, Note_on_c, 0,38,57,
2,44032, Note_off_c, 0,43,0,
2,44288, Note_off_c, 0,50,0,
2,44544, Note_on_c, 0,69,60,
2,44544, Note_off_c, 0,59,0,
2,44544, Note_on_c, 0,57,59,
2,44544, Note_off_c, 0,57,0,
2,44544, Note_on_c, 0,43,62,
2,44544, Note_off_c, 0,64,0,
2,44544, Note_on_c, 0,66,68,
2,44544, Note_off_c, 0,69,0,
2,45056, Note_off_c, 0,45,0,
2,45056, Note_on_c, 0,57,67,
2,45056, Note_on_c, 0,54,72,
2,45056, Note_on_c, 0,59,72,
2,45056, Note_off_c, 0,66,0,
2,45056, Note_on_c, 0,69,61,
2,45056, Note_on_c, 0,50,61,
2,45056, Note_on_c, 0,42,64,
2,45824, Note_on_c, 0,66,64,
2,45824, Note_off_c, 0,66,0,
2,45824, Note_off_c, 0,61,0,
2,45824, Note_on_c, 0,64,57,
2, 46081, End_track,,,,
0, 0, End_of_file,,,,
