0,0, Header,1,2,256,
1,0, Start_track,,,,
1,0, Time_signature,6,3,36,8
1,0, Key_signature,-2," ""major""",,
1,0, Tempo,800000,,,
1,0, Title_t," ""Venetian Boat Song"," Song without words No. 6""",,
1,0, Text_t," ""Felix Mendelssohn-Bartholdy""",,,
1,3840, Tempo,816326,,,
1,4352, Tempo,833332,,,
1,4992, Tempo,816326,,,
1,10112, Tempo,800000,,,
1,10751, Tempo,816326,,,
1,11904, Tempo,833332,,,
1,12416, Tempo,800000,,,
1,16127, Tempo,816326,,,
1,18048, Tempo,851063,,,
1,18432, Tempo,833332,,,
1,19072, Tempo,816326,,,
1,20992, Tempo,800000,,,
1,23168, Tempo,833332,,,
1,23680, Tempo,851063,,,
1,24064, Tempo,816326,,,
1,24832, Tempo,851063,,,
1,25856, Tempo,816326,,,
1,32896, Tempo,851063,,,
1,33791, Tempo,888887,,,
1,34176, Tempo,1000000,,,
1,34560, Time_signature,15,4,6,8
1,34561, End_track,,,,
2,0, Start_track,,,,
2,0, Program_c,0,0,,
2,0, Control_c,0,121,0,
2,0, Control_c,0,64,0,
2,0, Control_c,0,91,48,
2,0, Control_c,0,10,76,
2,0, Control_c,0,7,105,
2,0, Control_c,0,121,0,
2,0, Control_c,0,64,0,
2,0, Control_c,0,91,52,
2,0, Control_c,0,10,51,
2,0, Control_c,0,7,100,
2,0, Title_t," ""Piano""",,,
2,0, Note_on_c,0,43.0,41,
2,0, Note_on_c,0,55.0,44,
2,0, Note_on_c,0,58.0,46,
2,256, Note_off_c,0,55.0,0,
2,256, Note_on_c,0,55.0,45,
2,256, Note_off_c,0,55.0,0,
2,256, Note_on_c,0,50.0,44,
2,256, Note_off_c,0,43.0,0,
2,256, Note_on_c,0,42.0,43,
2,512, Note_on_c,0,57.0,42,
2,512, Note_on_c,0,72.0,41,
2,512, Note_on_c,0,62.0,41,
2,512, Note_on_c,0,54.0,41,
2,768, Note_on_c,0,63.0,42,
2,768, Note_off_c,0,58.0,0,
2,768, Note_off_c,0,50.0,0,
2,768, Note_on_c,0,43.0,42,
2,768, Note_on_c,0,56.0,43,
2,768, Note_on_c,0,55.0,43,
2,1024, Note_on_c,0,74.0,43,
2,1024, Note_off_c,0,62.0,0,
2,1024, Note_on_c,0,58.0,42,
2,1024, Note_off_c,0,72.0,0,
2,1024, Note_on_c,0,60.0,41,
2,1024, Note_off_c,0,60.0,0,
2,1280, Note_on_c,0,60.0,45,
2,1280, Note_on_c,0,51.0,39,
2,1280, Note_on_c,0,50.0,30,
2,1280, Note_off_c,0,56.0,0,
2,1280, Note_on_c,0,53.0,33,
2,1536, Note_on_c,0,69.0,35,
2,1536, Note_off_c,0,55.0,0,
2,1536, Note_off_c,0,57.0,0,
2,1536, Note_off_c,0,69.0,0,
2,1536, Note_on_c,0,36.0,27,
2,1536, Note_on_c,0,75.0,56,
2,1536, Note_on_c,0,62.0,71,
2,1536, Note_off_c,0,50.0,0,
2,1536, Note_on_c,0,57.0,26,
2,1792, Note_off_c,0,60.0,0,
2,1792, Note_on_c,0,60.0,33,
2,1792, Note_on_c,0,68.0,32,
2,1792, Note_off_c,0,60.0,0,
2,1792, Note_on_c,0,66.0,31,
2,1792, Note_off_c,0,63.0,0,
2,1792, Note_on_c,0,55.0,30,
2,1792, Note_off_c,0,58.0,0,
2,1792, Note_off_c,0,55.0,0,
2,1792, Note_on_c,0,77.0,29,
2,2048, Note_on_c,0,67.0,30,
2,2048, Note_on_c,0,63.0,33,
2,2048, Note_on_c,0,71.0,32,
2,2048, Note_off_c,0,57.0,0,
2,2048, Note_on_c,0,50.0,35,
2,2304, Note_on_c,0,69.0,62,
2,2304, Note_on_c,0,57.0,35,
2,2304, Note_off_c,0,36.0,0,
2,2304, Note_on_c,0,55.0,35,
2,2304, Note_off_c,0,75.0,0,
2,2304, Note_off_c,0,63.0,0,
2,2304, Note_off_c,0,50.0,0,
2,2560, Note_off_c,0,74.0,0,
2,2560, Note_off_c,0,67.0,0,
2,2560, Note_on_c,0,58.0,32,
2,2560, Note_on_c,0,74.0,32,
2,2560, Note_on_c,0,38.0,30,
2,2560, Note_on_c,0,60.0,46,
2,2560, Note_on_c,0,72.0,33,
2,2560, Note_off_c,0,74.0,0,
2,2560, Note_on_c,0,36.0,30,
2,2560, Note_off_c,0,57.0,0,
2,2816, Note_off_c,0,43.0,0,
2,2816, Note_on_c,0,43.0,30,
2,2816, Note_off_c,0,69.0,0,
2,2816, Note_off_c,0,60.0,0,
2,2816, Note_off_c,0,36.0,0,
2,3072, Note_on_c,0,57.0,27,
2,3072, Note_off_c,0,72.0,0,
2,3072, Note_on_c,0,69.0,31,
2,3072, Note_on_c,0,72.0,32,
2,3072, Note_off_c,0,55.0,0,
2,3072, Note_off_c,0,57.0,0,
2,3072, Note_on_c,0,57.0,31,
2,3072, Note_on_c,0,63.0,31,
2,3328, Note_off_c,0,72.0,0,
2,3328, Note_on_c,0,50.0,32,
2,3328, Note_off_c,0,50.0,0,
2,3328, Note_on_c,0,41.0,33,
2,3328, Note_off_c,0,63.0,0,
2,3328, Note_on_c,0,50.0,33,
2,3584, Note_off_c,0,69.0,0,
2,3584, Note_off_c,0,57.0,0,
2,3584, Note_on_c,0,67.0,33,
2,3584, Note_on_c,0,76.0,32,
2,3584, Note_on_c,0,55.0,31,
2,3840, Note_on_c,0,69.0,30,
2,3840, Note_on_c,0,36.0,31,
2,3840, Note_on_c,0,74.0,33,
2,3840, Note_off_c,0,74.0,0,
2,3840, Note_off_c,0,43.0,0,
2,3840, Note_off_c,0,58.0,0,
2,4096, Note_on_c,0,58.0,35,
2,4096, Note_off_c,0,55.0,0,
2,4096, Note_on_c,0,60.0,36,
2,4096, Note_off_c,0,51.0,0,
2,4096, Note_on_c,0,65.0,35,
2,4096, Note_off_c,0,62.0,0,
2,4352, Note_off_c,0,60.0,0,
2,4352, Note_on_c,0,70.0,35,
2,4352, Note_on_c,0,60.0,37,
2,4352, Note_off_c,0,60.0,0,
2,4608, Note_on_c,0,43.0,40,
2,4608, Note_on_c,0,59.0,42,
2,4608, Note_on_c,0,51.0,42,
2,4608, Note_off_c,0,77.0,0,
2,4608, Note_on_c,0,57.0,41,
2,4608, Note_on_c,0,48.0,40,
2,4608, Note_off_c,0,65.0,0,
2,4864, Note_on_c,0,74.0,41,
2,4864, Note_off_c,0,43.0,0,
2,4864, Note_off_c,0,57.0,0,
2,4864, Note_off_c,0,58.0,0,
2,4864, Note_off_c,0,36.0,0,
2,5120, Note_on_c,0,62.0,40,
2,5120, Note_off_c,0,50.0,0,
2,5120, Note_off_c,0,53.0,0,
2,5120, Note_on_c,0,58.0,33,
2,5120, Note_on_c,0,60.0,40,
2,5120, Note_off_c,0,66.0,0,
2,5376, Note_off_c,0,51.0,0,
2,5376, Note_off_c,0,58.0,0,
2,5376, Note_on_c,0,43.0,41,
2,5376, Note_on_c,0,51.0,47,
2,5376, Note_on_c,0,61.0,48,
2,5376, Note_off_c,0,76.0,0,
2,5376, Note_on_c,0,55.0,38,
2,5376, Note_on_c,0,50.0,45,
2,5376, Note_off_c,0,67.0,0,
2,5376, Note_off_c,0,50.0,0,
2,5376, Note_off_c,0,55.0,0,
2,5632, Note_off_c,0,62.0,0,
2,5632, Note_on_c,0,76.0,47,
2,5632, Note_off_c,0,60.0,0,
2,5632, Note_off_c,0,48.0,0,
2,5632, Note_on_c,0,55.0,37,
2,5632, Note_on_c,0,62.0,40,
2,5632, Note_off_c,0,38.0,0,
2,5632, Note_off_c,0,42.0,0,
2,5632, Note_on_c,0,58.0,41,
2,5632, Note_off_c,0,74.0,0,
2,5632, Note_on_c,0,50.0,48,
2,5888, Note_on_c,0,36.0,50,
2,5888, Note_off_c,0,36.0,0,
2,5888, Note_on_c,0,29.0,41,
2,5888, Note_on_c,0,63.0,43,
2,5888, Note_off_c,0,62.0,0,
2,5888, Note_on_c,0,57.0,49,
2,5888, Note_off_c,0,58.0,0,
2,5888, Note_off_c,0,63.0,0,
2,5888, Note_on_c,0,62.0,39,
2,5888, Note_off_c,0,62.0,0,
2,6144, Note_on_c,0,63.0,34,
2,6144, Note_off_c,0,69.0,0,
2,6144, Note_off_c,0,50.0,0,
2,6144, Note_off_c,0,70.0,0,
2,6144, Note_off_c,0,41.0,0,
2,6144, Note_on_c,0,74.0,36,
2,6144, Note_on_c,0,50.0,41,
2,6144, Note_off_c,0,51.0,0,
2,6144, Note_off_c,0,50.0,0,
2,6144, Note_on_c,0,51.0,47,
2,6144, Note_on_c,0,48.0,40,
2,6400, Note_off_c,0,63.0,0,
2,6400, Note_on_c,0,34.0,39,
2,6400, Note_off_c,0,74.0,0,
2,6400, Note_on_c,0,73.0,45,
2,6400, Note_on_c,0,50.0,40,
2,6400, Note_off_c,0,43.0,0,
2,6400, Note_on_c,0,70.0,35,
2,6400, Note_on_c,0,38.0,40,
2,6400, Note_on_c,0,63.0,43,
2,6400, Note_on_c,0,41.0,39,
2,6400, Note_off_c,0,71.0,0,
2,6656, Note_on_c,0,56.0,51,
2,6656, Note_on_c,0,72.0,48,
2,6656, Note_on_c,0,74.0,34,
2,6656, Note_off_c,0,55.0,0,
2,6656, Note_on_c,0,55.0,42,
2,6656, Note_on_c,0,69.0,50,
2,6656, Note_on_c,0,71.0,47,
2,6656, Note_on_c,0,67.0,41,
2,6912, Note_off_c,0,57.0,0,
2,6912, Note_off_c,0,55.0,0,
2,6912, Note_on_c,0,62.0,48,
2,6912, Note_off_c,0,70.0,0,
2,6912, Note_on_c,0,70.0,47,
2,6912, Note_on_c,0,42.0,34,
2,6912, Note_on_c,0,46.0,51,
2,6912, Note_on_c,0,58.0,49,
2,7168, Note_off_c,0,50.0,0,
2,7168, Note_off_c,0,74.0,0,
2,7168, Note_off_c,0,72.0,0,
2,7168, Note_on_c,0,74.0,50,
2,7168, Note_on_c,0,60.0,47,
2,7168, Note_on_c,0,43.0,41,
2,7168, Note_off_c,0,43.0,0,
2,7168, Note_off_c,0,63.0,0,
2,7168, Note_off_c,0,70.0,0,
2,7168, Note_off_c,0,69.0,0,
2,7168, Note_on_c,0,66.0,39,
2,7168, Note_on_c,0,55.0,48,
2,7424, Note_on_c,0,70.0,51,
2,7424, Note_on_c,0,50.0,37,
2,7424, Note_off_c,0,58.0,0,
2,7424, Note_off_c,0,55.0,0,
2,7424, Note_on_c,0,43.0,56,
2,7424, Note_off_c,0,60.0,0,
2,7424, Note_on_c,0,57.0,40,
2,7424, Note_off_c,0,51.0,0,
2,7424, Note_on_c,0,69.0,33,
2,7424, Note_off_c,0,50.0,0,
2,7424, Note_off_c,0,70.0,0,
2,7424, Note_off_c,0,67.0,0,
2,7424, Note_on_c,0,60.0,38,
2,7424, Note_on_c,0,65.0,37,
2,7424, Note_off_c,0,43.0,0,
2,7424, Note_off_c,0,38.0,0,
2,7680, Note_on_c,0,43.0,35,
2,7680, Note_off_c,0,74.0,0,
2,7680, Note_on_c,0,53.0,35,
2,7680, Note_on_c,0,51.0,38,
2,7680, Note_on_c,0,77.0,42,
2,7680, Note_off_c,0,48.0,0,
2,7680, Note_off_c,0,71.0,0,
2,7680, Note_off_c,0,62.0,0,
2,7680, Note_on_c,0,63.0,44,
2,7680, Note_off_c,0,66.0,0,
2,7936, Note_on_c,0,50.0,38,
2,7936, Note_off_c,0,69.0,0,
2,7936, Note_off_c,0,60.0,0,
2,7936, Note_on_c,0,66.0,39,
2,7936, Note_on_c,0,72.0,43,
2,8192, Note_off_c,0,53.0,0,
2,8192, Note_on_c,0,62.0,39,
2,8192, Note_on_c,0,55.0,37,
2,8192, Note_off_c,0,50.0,0,
2,8192, Note_off_c,0,42.0,0,
2,8192, Note_on_c,0,67.0,43,
2,8448, Note_off_c,0,66.0,0,
2,8448, Note_off_c,0,62.0,0,
2,8448, Note_off_c,0,65.0,0,
2,8448, Note_off_c,0,43.0,0,
2,8448, Note_off_c,0,55.0,0,
2,8448, Note_off_c,0,59.0,0,
2,8448, Note_on_c,0,58.0,46,
2,8448, Note_on_c,0,74.0,45,
2,8448, Note_off_c,0,57.0,0,
2,8448, Note_on_c,0,69.0,43,
2,8448, Note_on_c,0,65.0,44,
2,8704, Note_on_c,0,43.0,46,
2,8704, Note_on_c,0,70.0,42,
2,8704, Note_on_c,0,50.0,36,
2,8704, Note_off_c,0,72.0,0,
2,8704, Note_off_c,0,50.0,0,
2,8704, Note_on_c,0,48.0,40,
2,8704, Note_off_c,0,67.0,0,
2,8704, Note_off_c,0,69.0,0,
2,8704, Note_off_c,0,58.0,0,
2,8704, Note_off_c,0,48.0,0,
2,8704, Note_on_c,0,72.0,42,
2,8960, Note_off_c,0,43.0,0,
2,8960, Note_on_c,0,60.0,51,
2,8960, Note_off_c,0,65.0,0,
2,8960, Note_off_c,0,63.0,0,
2,8960, Note_on_c,0,71.0,50,
2,8960, Note_on_c,0,65.0,40,
2,8960, Note_on_c,0,67.0,51,
2,8960, Note_on_c,0,55.0,49,
2,8960, Note_on_c,0,50.0,33,
2,8960, Note_on_c,0,57.0,38,
2,9216, Note_off_c,0,74.0,0,
2,9216, Note_off_c,0,55.0,0,
2,9216, Note_on_c,0,62.0,38,
2,9216, Note_on_c,0,43.0,48,
2,9216, Note_off_c,0,51.0,0,
2,9216, Note_off_c,0,68.0,0,
2,9216, Note_off_c,0,43.0,0,
2,9216, Note_off_c,0,60.0,0,
2,9216, Note_on_c,0,74.0,48,
2,9216, Note_off_c,0,54.0,0,
2,9216, Note_on_c,0,43.0,36,
2,9216, Note_on_c,0,69.0,43,
2,9472, Note_off_c,0,69.0,0,
2,9472, Note_off_c,0,57.0,0,
2,9472, Note_on_c,0,55.0,50,
2,9472, Note_off_c,0,62.0,0,
2,9472, Note_off_c,0,50.0,0,
2,9472, Note_on_c,0,53.0,33,
2,9472, Note_off_c,0,55.0,0,
2,9472, Note_on_c,0,63.0,45,
2,9472, Note_off_c,0,77.0,0,
2,9472, Note_on_c,0,55.0,40,
2,9472, Note_off_c,0,65.0,0,
2,9728, Note_on_c,0,69.0,46,
2,9728, Note_off_c,0,67.0,0,
2,9728, Note_off_c,0,70.0,0,
2,9728, Note_on_c,0,51.0,39,
2,9728, Note_off_c,0,43.0,0,
2,9728, Note_off_c,0,46.0,0,
2,9728, Note_off_c,0,72.0,0,
2,9728, Note_off_c,0,69.0,0,
2,9728, Note_off_c,0,71.0,0,
2,9984, Note_on_c,0,50.0,47,
2,9984, Note_off_c,0,50.0,0,
2,9984, Note_on_c,0,65.0,36,
2,9984, Note_on_c,0,58.0,48,
2,9984, Note_on_c,0,50.0,52,
2,9984, Note_on_c,0,69.0,36,
2,9984, Note_on_c,0,62.0,56,
2,9984, Note_on_c,0,43.0,50,
2,9984, Note_on_c,0,66.0,50,
2,9984, Note_on_c,0,48.0,78,
2,10240, Note_on_c,0,67.0,50,
2,10240, Note_off_c,0,74.0,0,
2,10240, Note_off_c,0,53.0,0,
2,10240, Note_off_c,0,48.0,0,
2,10240, Note_on_c,0,57.0,47,
2,10240, Note_off_c,0,55.0,0,
2,10240, Note_on_c,0,74.0,65,
2,10240, Note_on_c,0,60.0,32,
2,10240, Note_off_c,0,74.0,0,
2,10240, Note_on_c,0,55.0,56,
2,10496, Note_off_c,0,62.0,0,
2,10496, Note_off_c,0,57.0,0,
2,10496, Note_off_c,0,43.0,0,
2,10496, Note_off_c,0,63.0,0,
2,10496, Note_off_c,0,58.0,0,
2,10496, Note_on_c,0,62.0,68,
2,10496, Note_off_c,0,55.0,0,
2,10496, Note_on_c,0,77.0,46,
2,10496, Note_off_c,0,60.0,0,
2,10752, Note_on_c,0,43.0,97,
2,10752, Note_off_c,0,69.0,0,
2,10752, Note_on_c,0,55.0,78,
2,10752, Note_off_c,0,67.0,0,
2,10752, Note_on_c,0,57.0,31,
2,10752, Note_off_c,0,65.0,0,
2,10752, Note_off_c,0,62.0,0,
2,10752, Note_on_c,0,71.0,39,
2,10752, Note_off_c,0,41.0,0,
2,10752, Note_off_c,0,51.0,0,
2,10752, Note_on_c,0,38.0,43,
2,11008, Note_on_c,0,74.0,64,
2,11008, Note_on_c,0,59.0,37,
2,11008, Note_off_c,0,50.0,0,
2,11008, Note_off_c,0,43.0,0,
2,11008, Note_on_c,0,60.0,60,
2,11008, Note_on_c,0,63.0,36,
2,11008, Note_on_c,0,43.0,38,
2,11008, Note_on_c,0,62.0,39,
2,11008, Note_off_c,0,43.0,0,
2,11264, Note_on_c,0,67.0,54,
2,11264, Note_on_c,0,51.0,38,
2,11264, Note_on_c,0,50.0,53,
2,11264, Note_off_c,0,62.0,0,
2,11264, Note_off_c,0,50.0,0,
2,11264, Note_on_c,0,58.0,33,
2,11264, Note_on_c,0,48.0,58,
2,11520, Note_on_c,0,50.0,63,
2,11520, Note_off_c,0,57.0,0,
2,11520, Note_off_c,0,71.0,0,
2,11520, Note_off_c,0,55.0,0,
2,11520, Note_off_c,0,48.0,0,
2,11520, Note_off_c,0,58.0,0,
2,11520, Note_off_c,0,60.0,0,
2,11520, Note_on_c,0,70.0,47,
2,11520, Note_on_c,0,43.0,40,
2,11520, Note_on_c,0,55.0,52,
2,11520, Note_off_c,0,51.0,0,
2,11776, Note_off_c,0,50.0,0,
2,11776, Note_off_c,0,55.0,0,
2,11776, Note_on_c,0,69.0,63,
2,11776, Note_off_c,0,74.0,0,
2,11776, Note_on_c,0,50.0,47,
2,11776, Note_on_c,0,58.0,49,
2,11776, Note_off_c,0,69.0,0,
2,11776, Note_on_c,0,62.0,65,
2,11776, Note_on_c,0,60.0,40,
2,11776, Note_on_c,0,65.0,45,
2,11776, Note_off_c,0,60.0,0,
2,11776, Note_on_c,0,55.0,64,
2,12032, Note_on_c,0,57.0,48,
2,12032, Note_off_c,0,50.0,0,
2,12032, Note_off_c,0,77.0,0,
2,12032, Note_off_c,0,65.0,0,
2,12032, Note_off_c,0,70.0,0,
2,12032, Note_off_c,0,67.0,0,
2,12032, Note_off_c,0,55.0,0,
2,12032, Note_on_c,0,50.0,47,
2,12032, Note_on_c,0,69.0,57,
2,12032, Note_on_c,0,55.0,49,
2,12032, Note_off_c,0,50.0,0,
2,12288, Note_on_c,0,50.0,46,
2,12288, Note_on_c,0,42.0,61,
2,12288, Note_off_c,0,43.0,0,
2,12288, Note_on_c,0,60.0,50,
2,12288, Note_on_c,0,53.0,31,
2,12288, Note_off_c,0,55.0,0,
2,12288, Note_on_c,0,65.0,42,
2,12288, Note_off_c,0,53.0,0,
2,12288, Note_on_c,0,81.0,42,
2,12288, Note_off_c,0,66.0,0,
2,12288, Note_off_c,0,58.0,0,
2,12288, Note_on_c,0,67.0,37,
2,12544, Note_on_c,0,58.0,38,
2,12544, Note_off_c,0,62.0,0,
2,12544, Note_off_c,0,63.0,0,
2,12544, Note_off_c,0,69.0,0,
2,12544, Note_off_c,0,59.0,0,
2,12800, Note_off_c,0,57.0,0,
2,12800, Note_on_c,0,62.0,41,
2,12800, Note_on_c,0,66.0,46,
2,12800, Note_on_c,0,43.0,61,
2,12800, Note_on_c,0,55.0,43,
2,12800, Note_on_c,0,31.0,62,
2,12800, Note_off_c,0,60.0,0,
2,13056, Note_off_c,0,66.0,0,
2,13056, Note_off_c,0,55.0,0,
2,13056, Note_on_c,0,74.0,35,
2,13056, Note_off_c,0,74.0,0,
2,13056, Note_on_c,0,51.0,56,
2,13056, Note_off_c,0,67.0,0,
2,13056, Note_off_c,0,43.0,0,
2,13056, Note_off_c,0,62.0,0,
2,13056, Note_on_c,0,69.0,37,
2,13056, Note_on_c,0,62.0,39,
2,13312, Note_off_c,0,51.0,0,
2,13312, Note_on_c,0,57.0,60,
2,13312, Note_on_c,0,55.0,67,
2,13312, Note_off_c,0,58.0,0,
2,13312, Note_on_c,0,58.0,36,
2,13312, Note_on_c,0,43.0,60,
2,13312, Note_off_c,0,69.0,0,
2,13312, Note_off_c,0,50.0,0,
2,13312, Note_off_c,0,58.0,0,
2,13312, Note_on_c,0,74.0,38,
2,13312, Note_on_c,0,63.0,52,
2,13312, Note_off_c,0,57.0,0,
2,13568, Note_on_c,0,36.0,45,
2,13568, Note_on_c,0,64.0,36,
2,13568, Note_on_c,0,71.0,55,
2,13568, Note_on_c,0,72.0,69,
2,13568, Note_on_c,0,70.0,42,
2,13568, Note_on_c,0,57.0,57,
2,13568, Note_off_c,0,63.0,0,
2,13568, Note_on_c,0,53.0,43,
2,13568, Note_off_c,0,65.0,0,
2,13824, Note_off_c,0,43.0,0,
2,13824, Note_on_c,0,60.0,46,
2,13824, Note_off_c,0,55.0,0,
2,13824, Note_on_c,0,43.0,67,
2,13824, Note_off_c,0,62.0,0,
2,13824, Note_on_c,0,75.0,45,
2,13824, Note_off_c,0,74.0,0,
2,13824, Note_on_c,0,51.0,52,
2,13824, Note_off_c,0,70.0,0,
2,13824, Note_on_c,0,55.0,48,
2,13824, Note_on_c,0,70.0,51,
2,14080, Note_off_c,0,43.0,0,
2,14080, Note_on_c,0,58.0,54,
2,14080, Note_on_c,0,62.0,42,
2,14080, Note_off_c,0,62.0,0,
2,14080, Note_on_c,0,67.0,67,
2,14080, Note_off_c,0,71.0,0,
2,14080, Note_on_c,0,41.0,53,
2,14080, Note_off_c,0,34.0,0,
2,14080, Note_off_c,0,72.0,0,
2,14080, Note_on_c,0,62.0,31,
2,14336, Note_off_c,0,58.0,0,
2,14336, Note_off_c,0,75.0,0,
2,14336, Note_on_c,0,50.0,48,
2,14336, Note_off_c,0,61.0,0,
2,14336, Note_on_c,0,63.0,58,
2,14336, Note_off_c,0,51.0,0,
2,14336, Note_on_c,0,58.0,41,
2,14336, Note_off_c,0,55.0,0,
2,14336, Note_off_c,0,62.0,0,
2,14336, Note_off_c,0,50.0,0,
2,14592, Note_on_c,0,50.0,62,
2,14592, Note_on_c,0,59.0,32,
2,14592, Note_off_c,0,63.0,0,
2,14592, Note_off_c,0,70.0,0,
2,14592, Note_off_c,0,58.0,0,
2,14592, Note_off_c,0,67.0,0,
2,14592, Note_on_c,0,48.0,62,
2,14592, Note_on_c,0,65.0,54,
2,14592, Note_on_c,0,62.0,37,
2,14592, Note_on_c,0,72.0,57,
2,14848, Note_off_c,0,62.0,0,
2,14848, Note_off_c,0,60.0,0,
2,14848, Note_off_c,0,72.0,0,
2,14848, Note_on_c,0,66.0,38,
2,14848, Note_on_c,0,63.0,64,
2,14848, Note_on_c,0,43.0,40,
2,14848, Note_on_c,0,58.0,59,
2,14848, Note_on_c,0,69.0,61,
2,14848, Note_on_c,0,54.0,37,
2,14848, Note_on_c,0,55.0,34,
2,15104, Note_off_c,0,41.0,0,
2,15104, Note_off_c,0,69.0,0,
2,15104, Note_off_c,0,43.0,0,
2,15104, Note_on_c,0,60.0,65,
2,15104, Note_on_c,0,43.0,36,
2,15104, Note_off_c,0,38.0,0,
2,15104, Note_off_c,0,50.0,0,
2,15104, Note_on_c,0,51.0,63,
2,15104, Note_on_c,0,50.0,40,
2,15104, Note_off_c,0,65.0,0,
2,15360, Note_off_c,0,51.0,0,
2,15360, Note_off_c,0,60.0,0,
2,15360, Note_off_c,0,50.0,0,
2,15360, Note_off_c,0,43.0,0,
2,15360, Note_on_c,0,74.0,52,
2,15360, Note_off_c,0,55.0,0,
2,15360, Note_off_c,0,59.0,0,
2,15360, Note_on_c,0,50.0,45,
2,15360, Note_off_c,0,48.0,0,
2,15360, Note_on_c,0,72.0,33,
2,15616, Note_off_c,0,50.0,0,
2,15616, Note_on_c,0,65.0,62,
2,15616, Note_on_c,0,50.0,47,
2,15616, Note_off_c,0,57.0,0,
2,15616, Note_off_c,0,56.0,0,
2,15616, Note_on_c,0,77.0,30,
2,15616, Note_off_c,0,58.0,0,
2,15616, Note_off_c,0,73.0,0,
2,15872, Note_on_c,0,58.0,46,
2,15872, Note_on_c,0,62.0,44,
2,15872, Note_off_c,0,63.0,0,
2,15872, Note_on_c,0,51.0,38,
2,15872, Note_on_c,0,43.0,48,
2,15872, Note_off_c,0,72.0,0,
2,15872, Note_on_c,0,60.0,62,
2,15872, Note_on_c,0,55.0,47,
2,15872, Note_on_c,0,34.0,47,
2,16128, Note_on_c,0,75.0,48,
2,16128, Note_on_c,0,69.0,38,
2,16128, Note_on_c,0,63.0,50,
2,16128, Note_off_c,0,76.0,0,
2,16128, Note_on_c,0,71.0,35,
2,16128, Note_off_c,0,53.0,0,
2,16128, Note_on_c,0,57.0,41,
2,16128, Note_off_c,0,64.0,0,
2,16128, Note_on_c,0,48.0,56,
2,16128, Note_off_c,0,63.0,0,
2,16128, Note_off_c,0,60.0,0,
2,16384, Note_off_c,0,57.0,0,
2,16384, Note_off_c,0,43.0,0,
2,16384, Note_on_c,0,70.0,51,
2,16384, Note_off_c,0,36.0,0,
2,16384, Note_on_c,0,43.0,39,
2,16384, Note_on_c,0,67.0,60,
2,16384, Note_on_c,0,38.0,35,
2,16384, Note_on_c,0,45.0,48,
2,16384, Note_off_c,0,69.0,0,
2,16384, Note_off_c,0,50.0,0,
2,16384, Note_off_c,0,38.0,0,
2,16384, Note_off_c,0,71.0,0,
2,16640, Note_off_c,0,55.0,0,
2,16640, Note_on_c,0,69.0,35,
2,16640, Note_off_c,0,51.0,0,
2,16640, Note_on_c,0,36.0,40,
2,16640, Note_on_c,0,50.0,53,
2,16640, Note_on_c,0,73.0,58,
2,16640, Note_on_c,0,55.0,33,
2,16640, Note_off_c,0,69.0,0,
2,16640, Note_on_c,0,63.0,34,
2,16640, Note_off_c,0,50.0,0,
2,16640, Note_off_c,0,70.0,0,
2,16640, Note_off_c,0,66.0,0,
2,16640, Note_off_c,0,55.0,0,
2,16640, Note_off_c,0,75.0,0,
2,16896, End_track,,,,
0,0, End_of_file,,,,
