0,0, Header,1,2,256,
1,0, Start_track,,,,
1,0, Time_signature,1,3,12,8
1,0, Key_signature,0," ""major""",,
1,0, Tempo,517241,,,
1,0, Title_t," ""Song Without Words no. 23""",,,
1,0, Text_t," ""Felix Mendelssohn-Bartholdy""",,,
1,128, Tempo,500000,,,
1,128, Time_signature,4,2,24,8
1,72576, Tempo,530972,,,
1,73216, Tempo,545454,,,
1,73472, Tempo,560746,,,
1,73856, Tempo,576922,,,
1,75648, Tempo,517241,,,
1,80256, Tempo,526315,,,
1,80832, Tempo,535713,,,
1,81408, Tempo,545454,,,
1,82048, Tempo,555555,,,
1,82432, Tempo,576922,,,
1,82816, Tempo,600000,,,
1,83136, Tempo,631577,,,
1,83392, Tempo,666665,,,
1,83921, Tempo,750000,,,
1,84096, Time_signature,11,3,12,8
1,84097, End_track,,,,
2,0, Start_track,,,,
2,0, Program_c,0,0,,
2,0, Control_c,0,121,0,
2,0, Control_c,0,64,0,
2,0, Control_c,0,91,48,
2,0, Control_c,0,10,64,
2,0, Control_c,0,7,105,
2,0, Note_on_c,0,63.0,45,
2,0, Control_c,0,121,0,
2,0, Control_c,0,64,0,
2,0, Control_c,0,91,52,
2,0, Control_c,0,10,64,
2,0, Control_c,0,7,98,
2,0, Title_t," ""Piano""",,,
2,0, Note_on_c,0,67.0,52,
2,0, Note_on_c,0,69.0,57,
2,0, Note_off_c,0,67.0,0,
2,256, Note_on_c,0,72.0,55,
2,256, Note_off_c,0,69.0,0,
2,256, Note_on_c,0,66.0,43,
2,256, Note_on_c,0,64.0,46,
2,256, Note_on_c,0,71.0,45,
2,256, Note_off_c,0,72.0,0,
2,256, Note_on_c,0,57.0,47,
2,256, Note_on_c,0,60.0,44,
2,256, Note_off_c,0,66.0,0,
2,512, Note_on_c,0,67.0,34,
2,512, Note_on_c,0,68.0,42,
2,512, Note_off_c,0,68.0,0,
2,512, Note_off_c,0,64.0,0,
2,512, Note_on_c,0,64.0,56,
2,512, Note_on_c,0,77.0,48,
2,512, Note_off_c,0,57.0,0,
2,512, Note_on_c,0,57.0,43,
2,512, Note_on_c,0,68.0,44,
2,768, Note_on_c,0,66.0,46,
2,768, Note_on_c,0,74.0,45,
2,768, Note_off_c,0,74.0,0,
2,768, Note_off_c,0,66.0,0,
2,768, Note_off_c,0,71.0,0,
2,768, Note_on_c,0,76.0,41,
2,768, Note_on_c,0,62.0,38,
2,768, Note_off_c,0,62.0,0,
2,768, Note_on_c,0,66.0,40,
2,1024, Note_off_c,0,76.0,0,
2,1024, Note_on_c,0,71.0,47,
2,1024, Note_on_c,0,74.0,45,
2,1024, Note_off_c,0,64.0,0,
2,1024, Note_off_c,0,71.0,0,
2,1024, Note_on_c,0,71.0,39,
2,1024, Note_on_c,0,59.0,45,
2,1024, Note_on_c,0,65.0,47,
2,1024, Note_off_c,0,59.0,0,
2,1280, Note_off_c,0,67.0,0,
2,1280, Note_off_c,0,71.0,0,
2,1280, Note_on_c,0,72.0,45,
2,1280, Note_on_c,0,71.0,45,
2,1280, Note_off_c,0,71.0,0,
2,1280, Note_off_c,0,66.0,0,
2,1280, Note_off_c,0,57.0,0,
2,1280, Note_on_c,0,66.0,44,
2,1280, Note_off_c,0,63.0,0,
2,1536, Note_off_c,0,68.0,0,
2,1536, Note_on_c,0,69.0,41,
2,1536, Note_on_c,0,64.0,43,
2,1536, Note_on_c,0,71.0,48,
2,1536, Note_off_c,0,71.0,0,
2,1536, Note_on_c,0,68.0,40,
2,1536, Note_off_c,0,64.0,0,
2,1536, Note_on_c,0,63.0,42,
2,1536, Note_on_c,0,62.0,45,
2,1792, Note_off_c,0,62.0,0,
2,1792, Note_on_c,0,71.0,44,
2,1792, Note_on_c,0,64.0,43,
2,1792, Note_off_c,0,66.0,0,
2,1792, Note_on_c,0,50.0,45,
2,1792, Note_off_c,0,74.0,0,
2,1792, Note_on_c,0,57.0,50,
2,1792, Note_off_c,0,60.0,0,
2,1792, Note_off_c,0,63.0,0,
2,2048, Note_off_c,0,64.0,0,
2,2048, Note_off_c,0,72.0,0,
2,2048, Note_off_c,0,71.0,0,
2,2048, Note_on_c,0,67.0,57,
2,2048, Note_on_c,0,72.0,47,
2,2048, Note_off_c,0,67.0,0,
2,2048, Note_on_c,0,64.0,47,
2,2048, Note_off_c,0,57.0,0,
2,2048, Note_on_c,0,55.0,47,
2,2304, Note_off_c,0,64.0,0,
2,2304, Note_off_c,0,72.0,0,
2,2304, Note_on_c,0,52.0,44,
2,2304, Note_on_c,0,67.0,46,
2,2304, Note_on_c,0,66.0,48,
2,2304, Note_off_c,0,67.0,0,
2,2304, Note_on_c,0,57.0,44,
2,2304, Note_on_c,0,60.0,43,
2,2304, Note_on_c,0,64.0,57,
2,2560, Note_on_c,0,63.0,56,
2,2560, Note_on_c,0,71.0,50,
2,2560, Note_off_c,0,68.0,0,
2,2560, Note_off_c,0,57.0,0,
2,2560, Note_on_c,0,72.0,46,
2,2560, Note_on_c,0,74.0,45,
2,2560, Note_off_c,0,55.0,0,
2,2560, Note_off_c,0,60.0,0,
2,2560, Note_off_c,0,64.0,0,
2,2816, Note_off_c,0,69.0,0,
2,2816, Note_off_c,0,66.0,0,
2,2816, Note_off_c,0,74.0,0,
2,2816, Note_on_c,0,68.0,47,
2,2816, Note_off_c,0,68.0,0,
2,2816, Note_on_c,0,66.0,50,
2,2816, Note_on_c,0,64.0,54,
2,2816, Note_off_c,0,66.0,0,
2,2816, Note_off_c,0,71.0,0,
2,3072, Note_on_c,0,71.0,47,
2,3072, Note_off_c,0,72.0,0,
2,3072, Note_off_c,0,71.0,0,
2,3072, Note_on_c,0,68.0,61,
2,3072, Note_on_c,0,69.0,67,
2,3072, Note_on_c,0,74.0,54,
2,3072, Note_on_c,0,57.0,56,
2,3072, Note_off_c,0,64.0,0,
2,3072, Note_on_c,0,64.0,57,
2,3328, Note_on_c,0,67.0,57,
2,3328, Note_on_c,0,71.0,61,
2,3328, Note_off_c,0,71.0,0,
2,3328, Note_off_c,0,74.0,0,
2,3328, Note_on_c,0,71.0,59,
2,3328, Note_on_c,0,66.0,51,
2,3328, Note_on_c,0,59.0,68,
2,3328, Note_off_c,0,57.0,0,
2,3328, Note_off_c,0,65.0,0,
2,3584, Note_off_c,0,64.0,0,
2,3584, Note_off_c,0,67.0,0,
2,3584, Note_off_c,0,66.0,0,
2,3584, Note_on_c,0,65.0,67,
2,3584, Note_off_c,0,63.0,0,
2,3584, Note_on_c,0,66.0,61,
2,3584, Note_on_c,0,55.0,65,
2,3584, Note_off_c,0,66.0,0,
2,3584, Note_off_c,0,59.0,0,
2,3840, Note_on_c,0,63.0,65,
2,3840, Note_off_c,0,65.0,0,
2,3840, Note_on_c,0,76.0,64,
2,3840, Note_on_c,0,66.0,71,
2,3840, Note_off_c,0,63.0,0,
2,3840, Note_on_c,0,60.0,75,
2,3840, Note_on_c,0,64.0,74,
2,3840, Note_on_c,0,72.0,70,
2,3840, Note_on_c,0,67.0,67,
2,3840, Note_on_c,0,57.0,62,
2,3840, Note_off_c,0,60.0,0,
2,3840, Note_off_c,0,64.0,0,
2,3840, Note_on_c,0,62.0,98,
2,3840, Note_off_c,0,67.0,0,
2,3840, Note_on_c,0,67.0,81,
2,4096, Note_off_c,0,67.0,0,
2,4096, Note_off_c,0,69.0,0,
2,4096, Note_on_c,0,67.0,57,
2,4096, Note_off_c,0,67.0,0,
2,4096, Note_off_c,0,71.0,0,
2,4096, Note_on_c,0,71.0,65,
2,4096, Note_off_c,0,62.0,0,
2,4096, Note_on_c,0,62.0,70,
2,4096, Note_off_c,0,66.0,0,
2,4352, Note_off_c,0,68.0,0,
2,4352, Note_on_c,0,63.0,68,
2,4352, Note_on_c,0,67.0,75,
2,4352, Note_off_c,0,57.0,0,
2,4352, Note_on_c,0,57.0,80,
2,4352, Note_on_c,0,66.0,80,
2,4352, Note_off_c,0,66.0,0,
2,4352, Note_off_c,0,52.0,0,
2,4352, Note_on_c,0,65.0,69,
2,4352, Note_on_c,0,64.0,70,
2,4352, Note_off_c,0,55.0,0,
2,4352, Note_off_c,0,67.0,0,
2,4352, Note_on_c,0,60.0,70,
2,4352, Note_off_c,0,62.0,0,
2,4352, Note_on_c,0,68.0,95,
2,4608, Note_on_c,0,66.0,90,
2,4608, Note_on_c,0,69.0,71,
2,4608, Note_off_c,0,68.0,0,
2,4608, Note_on_c,0,67.0,72,
2,4608, Note_off_c,0,69.0,0,
2,4608, Note_on_c,0,68.0,71,
2,4608, Note_on_c,0,69.0,70,
2,4608, Note_off_c,0,65.0,0,
2,4608, Note_on_c,0,65.0,79,
2,4864, Note_off_c,0,67.0,0,
2,4864, Note_off_c,0,72.0,0,
2,4864, Note_off_c,0,76.0,0,
2,4864, Note_off_c,0,63.0,0,
2,4864, Note_off_c,0,64.0,0,
2,4864, Note_off_c,0,57.0,0,
2,4864, Note_on_c,0,64.0,85,
2,4864, Note_on_c,0,59.0,85,
2,4864, Note_off_c,0,71.0,0,
2,4864, Note_off_c,0,64.0,0,
2,4864, Note_off_c,0,60.0,0,
2,4864, Note_off_c,0,66.0,0,
2,4864, Note_on_c,0,62.0,78,
2,4864, Note_off_c,0,62.0,0,
2,4864, Note_on_c,0,64.0,72,
2,5120, Note_on_c,0,71.0,68,
2,5120, Note_off_c,0,69.0,0,
2,5120, Note_on_c,0,76.0,110,
2,5120, Note_off_c,0,68.0,0,
2,5120, Note_off_c,0,71.0,0,
2,5120, Note_off_c,0,64.0,0,
2,5120, Note_on_c,0,71.0,103,
2,5120, Note_on_c,0,62.0,74,
2,5120, Note_on_c,0,64.0,73,
2,5120, Note_on_c,0,63.0,79,
2,5376, Note_on_c,0,74.0,86,
2,5376, Note_on_c,0,67.0,87,
2,5376, Note_on_c,0,66.0,87,
2,5376, Note_off_c,0,67.0,0,
2,5376, Note_on_c,0,68.0,89,
2,5376, Note_off_c,0,64.0,0,
2,5376, Note_on_c,0,64.0,92,
2,5376, Note_on_c,0,60.0,89,
2,5632, Note_off_c,0,62.0,0,
2,5632, Note_off_c,0,60.0,0,
2,5632, Note_on_c,0,56.0,88,
2,5632, Note_on_c,0,62.0,102,
2,5632, Note_on_c,0,55.0,111,
2,5632, Note_off_c,0,64.0,0,
2,5632, Note_off_c,0,59.0,0,
2,5632, Note_off_c,0,65.0,0,
2,5632, Note_off_c,0,63.0,0,
2,5888, Note_on_c,0,60.0,103,
2,5888, Note_on_c,0,57.0,98,
2,5888, Note_off_c,0,62.0,0,
2,5888, Note_on_c,0,67.0,101,
2,6144, Note_on_c,0,63.0,102,
2,6144, Note_on_c,0,65.0,100,
2,6144, Note_off_c,0,71.0,0,
2,6144, Note_off_c,0,65.0,0,
2,6144, Note_off_c,0,68.0,0,
2,6144, Note_on_c,0,54.0,99,
2,6656, Note_on_c,0,65.0,102,
2,6656, Note_on_c,0,72.0,106,
2,6656, Note_off_c,0,66.0,0,
2,6656, Note_on_c,0,71.0,103,
2,6656, Note_on_c,0,59.0,99,
2,6656, Note_off_c,0,55.0,0,
2,6656, Note_off_c,0,63.0,0,
2,6656, Note_off_c,0,57.0,0,
2,6656, Note_off_c,0,65.0,0,
2,6656, Note_on_c,0,68.0,102,
2,6656, Note_on_c,0,69.0,103,
2,6656, Note_off_c,0,72.0,0,
2,6656, Note_on_c,0,52.0,104,
2,6656, Note_on_c,0,55.0,104,
2,6656, Note_on_c,0,63.0,104,
2,6656, Note_on_c,0,66.0,103,
2,6912, Note_off_c,0,67.0,0,
2,6912, Note_on_c,0,62.0,101,
2,6912, Note_off_c,0,69.0,0,
2,6912, Note_on_c,0,67.0,97,
2,6912, Note_on_c,0,64.0,109,
2,6912, Note_on_c,0,57.0,123,
2,6912, Note_off_c,0,63.0,0,
2,6912, Note_off_c,0,64.0,0,
2,7168, Note_on_c,0,72.0,121,
2,7168, Note_on_c,0,69.0,120,
2,7168, Note_off_c,0,69.0,0,
2,7168, Note_off_c,0,68.0,0,
2,7168, Note_off_c,0,59.0,0,
2,7168, Note_off_c,0,66.0,0,
2,7168, Note_off_c,0,60.0,0,
2,7168, Note_on_c,0,63.0,117,
2,7424, Note_off_c,0,71.0,0,
2,7424, Note_off_c,0,56.0,0,
2,7424, Note_off_c,0,72.0,0,
2,7424, Note_on_c,0,59.0,113,
2,7424, Note_off_c,0,55.0,0,
2,7424, Note_off_c,0,59.0,0,
2,7424, Note_on_c,0,68.0,112,
2,7424, Note_on_c,0,65.0,114,
2,7936, Note_off_c,0,65.0,0,
2,7936, Note_on_c,0,69.0,104,
2,7936, Note_off_c,0,67.0,0,
2,7936, Note_on_c,0,65.0,90,
2,8192, Note_off_c,0,69.0,0,
2,8192, Note_off_c,0,63.0,0,
2,8192, Note_on_c,0,64.0,93,
2,8192, Note_on_c,0,67.0,93,
2,8192, Note_on_c,0,69.0,93,
2,8192, Note_off_c,0,68.0,0,
2,8192, Note_on_c,0,60.0,93,
2,8192, Note_on_c,0,63.0,94,
2,8192, Note_on_c,0,66.0,96,
2,8192, Note_off_c,0,66.0,0,
2,8192, Note_on_c,0,66.0,92,
2,8192, Note_off_c,0,69.0,0,
2,8192, Note_on_c,0,72.0,87,
2,8192, Note_off_c,0,76.0,0,
2,8192, Note_off_c,0,57.0,0,
2,8192, Note_off_c,0,66.0,0,
2,8192, Note_on_c,0,71.0,89,
2,8192, Note_on_c,0,59.0,90,
2,8192, Note_on_c,0,57.0,88,
2,8192, Note_on_c,0,66.0,86,
2,8448, Note_on_c,0,69.0,84,
2,8448, Note_on_c,0,68.0,85,
2,8448, Note_off_c,0,59.0,0,
2,8448, Note_off_c,0,60.0,0,
2,8704, Note_off_c,0,65.0,0,
2,8704, Note_on_c,0,65.0,90,
2,8704, Note_on_c,0,60.0,95,
2,8704, Note_off_c,0,67.0,0,
2,8704, Note_off_c,0,63.0,0,
2,8704, Note_off_c,0,71.0,0,
2,8704, Note_off_c,0,57.0,0,
2,8704, Note_off_c,0,60.0,0,
2,8704, Note_on_c,0,71.0,95,
2,8704, Note_on_c,0,67.0,90,
2,8704, Note_on_c,0,59.0,96,
2,8704, Note_off_c,0,64.0,0,
2,8704, Note_off_c,0,66.0,0,
2,8704, Note_on_c,0,66.0,106,
2,8704, Note_off_c,0,67.0,0,
2,8704, Note_off_c,0,66.0,0,
2,8704, Note_on_c,0,57.0,105,
2,8704, Note_on_c,0,60.0,106,
2,8704, Note_off_c,0,57.0,0,
2,8704, Note_off_c,0,60.0,0,
2,8960, Note_on_c,0,57.0,110,
2,8960, Note_on_c,0,60.0,102,
2,8960, Note_on_c,0,64.0,91,
2,8960, Note_off_c,0,71.0,0,
2,8960, Note_off_c,0,68.0,0,
2,8960, Note_off_c,0,72.0,0,
2,8960, Note_on_c,0,67.0,101,
2,8960, Note_off_c,0,60.0,0,
2,8960, Note_off_c,0,65.0,0,
2,8960, Note_on_c,0,68.0,100,
2,9216, Note_on_c,0,65.0,102,
2,9216, Note_off_c,0,74.0,0,
2,9216, Note_off_c,0,59.0,0,
2,9216, Note_off_c,0,65.0,0,
2,9216, Note_off_c,0,68.0,0,
2,9216, Note_on_c,0,72.0,98,
2,9216, Note_on_c,0,68.0,89,
2,9216, Note_on_c,0,60.0,90,
2,9216, Note_on_c,0,66.0,88,
2,9216, Note_off_c,0,67.0,0,
2,9216, Note_on_c,0,56.0,88,
2,9216, Note_off_c,0,57.0,0,
2,9216, Note_on_c,0,57.0,87,
2,9216, Note_off_c,0,64.0,0,
2,9472, Note_off_c,0,72.0,0,
2,9472, Note_off_c,0,68.0,0,
2,9472, Note_on_c,0,59.0,85,
2,9472, Note_off_c,0,66.0,0,
2,9472, Note_on_c,0,64.0,84,
2,9728, Note_on_c,0,68.0,84,
2,9728, Note_off_c,0,69.0,0,
2,9728, Note_on_c,0,63.0,85,
2,9728, Note_off_c,0,63.0,0,
2,9984, Note_on_c,0,67.0,85,
2,9984, Note_off_c,0,57.0,0,
2,9984, Note_off_c,0,64.0,0,
2,9984, Note_on_c,0,57.0,84,
2,9984, Note_off_c,0,60.0,0,
2,9984, Note_on_c,0,65.0,98,
2,9984, Note_on_c,0,71.0,125,
2,9984, Note_on_c,0,64.0,123,
2,9984, Note_on_c,0,63.0,122,
2,9984, Note_off_c,0,65.0,0,
2,9984, Note_on_c,0,66.0,116,
2,9984, Note_off_c,0,63.0,0,
2,10240, Note_off_c,0,66.0,0,
2,10240, Note_on_c,0,63.0,118,
2,10240, Note_off_c,0,57.0,0,
2,10240, Note_off_c,0,59.0,0,
2,10240, Note_off_c,0,68.0,0,
2,10240, Note_on_c,0,59.0,115,
2,10240, Note_on_c,0,55.0,107,
2,10240, Note_off_c,0,59.0,0,
2,10240, Note_on_c,0,57.0,105,
2,10752, Note_off_c,0,56.0,0,
2,10752, Note_on_c,0,59.0,103,
2,10752, Note_on_c,0,69.0,102,
2,10752, Note_off_c,0,62.0,0,
2,10752, Note_off_c,0,64.0,0,
2,10752, Note_off_c,0,52.0,0,
2,10752, Note_on_c,0,62.0,103,
2,10752, Note_off_c,0,57.0,0,
2,10752, Note_on_c,0,65.0,104,
2,10752, Note_on_c,0,68.0,103,
2,10752, Note_on_c,0,64.0,103,
2,10752, Note_off_c,0,71.0,0,
2,10752, Note_off_c,0,63.0,0,
2,10752, Note_on_c,0,71.0,109,
2,10752, Note_off_c,0,55.0,0,
2,10752, Note_off_c,0,62.0,0,
2,10752, Note_on_c,0,57.0,107,
2,10752, Note_off_c,0,71.0,0,
2,11008, Note_off_c,0,67.0,0,
2,11008, Note_off_c,0,68.0,0,
2,11008, Note_on_c,0,71.0,102,
2,11008, Note_on_c,0,63.0,102,
2,11008, Note_off_c,0,57.0,0,
2,11008, Note_off_c,0,50.0,0,
2,11008, Note_on_c,0,55.0,104,
2,11008, Note_off_c,0,65.0,0,
2,11264, Note_off_c,0,71.0,0,
2,11264, Note_on_c,0,68.0,105,
2,11264, Note_off_c,0,64.0,0,
2,11264, Note_off_c,0,63.0,0,
2,11264, Note_on_c,0,62.0,104,
2,11264, Note_on_c,0,64.0,107,
2,11264, Note_on_c,0,60.0,123,
2,11264, Note_on_c,0,65.0,122,
2,11520, Note_on_c,0,72.0,121,
2,11520, Note_off_c,0,68.0,0,
2,11520, Note_off_c,0,64.0,0,
2,11520, Note_on_c,0,67.0,112,
2,11520, Note_off_c,0,55.0,0,
2,11520, Note_off_c,0,60.0,0,
2,11520, Note_on_c,0,64.0,112,
2,11520, Note_off_c,0,67.0,0,
2,11520, Note_off_c,0,72.0,0,
2,11776, Note_on_c,0,52.0,116,
2,11776, Note_off_c,0,65.0,0,
2,11776, Note_on_c,0,68.0,126,
2,12032, Note_on_c,0,56.0,117,
2,12032, Note_off_c,0,68.0,0,
2,12032, Note_on_c,0,68.0,116,
2,12032, Note_off_c,0,62.0,0,
2,12032, Note_off_c,0,64.0,0,
2,12288, Note_on_c,0,66.0,114,
2,12288, Note_off_c,0,59.0,0,
2,12288, Note_off_c,0,56.0,0,
2,12288, Note_on_c,0,63.0,111,
2,12288, Note_on_c,0,65.0,94,
2,12288, Note_on_c,0,67.0,93,
2,12288, Note_on_c,0,56.0,92,
2,12288, Note_off_c,0,66.0,0,
2,12288, Note_off_c,0,67.0,0,
2,12288, Note_on_c,0,66.0,91,
2,12288, Note_off_c,0,66.0,0,
2,12288, Note_on_c,0,67.0,91,
2,12288, Note_on_c,0,71.0,93,
2,12288, Note_off_c,0,67.0,0,
2,12288, Note_on_c,0,57.0,94,
2,12288, Note_on_c,0,64.0,93,
2,12288, Note_off_c,0,71.0,0,
2,12288, Note_on_c,0,55.0,87,
2,12288, Note_off_c,0,56.0,0,
2,12288, Note_off_c,0,68.0,0,
2,12544, Note_on_c,0,71.0,88,
2,12544, Note_off_c,0,71.0,0,
2,12544, Note_on_c,0,66.0,88,
2,12544, Note_on_c,0,59.0,90,
2,12544, Note_off_c,0,64.0,0,
2,12544, Note_off_c,0,69.0,0,
2,12800, Note_on_c,0,71.0,94,
2,12800, Note_on_c,0,67.0,88,
2,12800, Note_on_c,0,60.0,88,
2,12800, Note_off_c,0,63.0,0,
2,12800, Note_on_c,0,68.0,90,
2,12800, Note_off_c,0,57.0,0,
2,12800, Note_on_c,0,64.0,90,
2,12800, Note_off_c,0,60.0,0,
2,12800, Note_off_c,0,68.0,0,
2,12800, Note_on_c,0,63.0,98,
2,12800, Note_off_c,0,63.0,0,
2,12800, Note_on_c,0,62.0,97,
2,12800, Note_on_c,0,69.0,96,
2,12800, Note_on_c,0,72.0,94,
2,12800, Note_off_c,0,62.0,0,
2,12800, Note_off_c,0,54.0,0,
2,12800, Note_on_c,0,60.0,90,
2,12800, Note_off_c,0,66.0,0,
2,12800, Note_off_c,0,59.0,0,
2,12800, Note_off_c,0,64.0,0,
2,12800, Note_on_c,0,57.0,88,
2,13056, Note_on_c,0,66.0,92,
2,13056, Note_on_c,0,68.0,93,
2,13056, Note_on_c,0,54.0,89,
2,13056, Note_off_c,0,60.0,0,
2,13056, Note_on_c,0,56.0,86,
2,13056, Note_off_c,0,65.0,0,
2,13056, Note_on_c,0,59.0,87,
2,13312, Note_on_c,0,60.0,93,
2,13312, Note_on_c,0,64.0,94,
2,13312, Note_on_c,0,63.0,90,
2,13312, Note_off_c,0,71.0,0,
2,13312, Note_off_c,0,66.0,0,
2,13312, Note_off_c,0,69.0,0,
2,13312, Note_on_c,0,69.0,103,
2,13312, Note_off_c,0,72.0,0,
2,13312, Note_off_c,0,68.0,0,
2,13312, Note_off_c,0,69.0,0,
2,13312, Note_off_c,0,59.0,0,
2,13312, Note_off_c,0,63.0,0,
2,13312, Note_on_c,0,69.0,103,
2,13312, Note_off_c,0,54.0,0,
2,13312, Note_on_c,0,63.0,102,
2,13568, Note_on_c,0,66.0,95,
2,13568, Note_on_c,0,72.0,103,
2,13568, Note_off_c,0,64.0,0,
2,13568, Note_off_c,0,55.0,0,
2,13568, Note_off_c,0,63.0,0,
2,13568, Note_on_c,0,65.0,105,
2,13568, Note_off_c,0,67.0,0,
2,13568, Note_on_c,0,71.0,102,
2,13568, Note_off_c,0,65.0,0,
2,13568, Note_off_c,0,69.0,0,
2,13568, Note_on_c,0,63.0,94,
2,13568, Note_on_c,0,68.0,99,
2,13568, Note_on_c,0,54.0,100,
2,13568, Note_off_c,0,57.0,0,
2,13824, Note_off_c,0,66.0,0,
2,13824, Note_on_c,0,69.0,99,
2,13824, Note_on_c,0,55.0,93,
2,13824, Note_off_c,0,60.0,0,
2,13824, Note_off_c,0,71.0,0,
2,13824, Note_on_c,0,67.0,105,
2,13824, Note_off_c,0,63.0,0,
2,13824, Note_on_c,0,65.0,109,
2,13824, Note_on_c,0,71.0,103,
2,13824, Note_off_c,0,56.0,0,
2,13824, Note_on_c,0,59.0,95,
2,13824, Note_off_c,0,65.0,0,
2,13824, Note_off_c,0,69.0,0,
2,13824, Note_off_c,0,67.0,0,
2,13824, Note_on_c,0,60.0,92,
2,13824, Note_on_c,0,67.0,93,
2,14080, Note_on_c,0,69.0,95,
2,14080, Note_on_c,0,64.0,96,
2,14080, Note_off_c,0,60.0,0,
2,14080, Note_on_c,0,66.0,93,
2,14080, Note_off_c,0,71.0,0,
2,14080, Note_off_c,0,66.0,0,
2,14080, Note_off_c,0,59.0,0,
2,14080, Note_on_c,0,65.0,92,
2,14080, Note_off_c,0,65.0,0,
2,14080, Note_off_c,0,69.0,0,
2,14080, Note_on_c,0,57.0,89,
2,14080, Note_off_c,0,57.0,0,
2,14080, Note_off_c,0,68.0,0,
2,14080, Note_on_c,0,56.0,101,
2,14080, Note_on_c,0,57.0,90,
2,14080, Note_on_c,0,60.0,87,
2,14336, Note_on_c,0,69.0,87,
2,14336, Note_on_c,0,71.0,94,
2,14336, Note_off_c,0,64.0,0,
2,14336, Note_off_c,0,60.0,0,
2,14336, Note_on_c,0,60.0,99,
2,14336, Note_on_c,0,68.0,88,
2,14336, Note_off_c,0,55.0,0,
2,14336, Note_on_c,0,62.0,93,
2,14336, Note_off_c,0,71.0,0,
2,14336, Note_off_c,0,67.0,0,
2,14336, Note_on_c,0,71.0,95,
2,14336, Note_off_c,0,72.0,0,
2,14336, Note_off_c,0,57.0,0,
2,14848, Note_on_c,0,57.0,94,
2,14848, Note_on_c,0,65.0,97,
2,14848, Note_on_c,0,64.0,49,
2,14848, Note_off_c,0,57.0,0,
2,15104, Note_off_c,0,60.0,0,
2,15104, Note_off_c,0,65.0,0,
2,15104, Note_off_c,0,71.0,0,
2,15104, Note_on_c,0,60.0,39,
2,15104, Note_on_c,0,67.0,50,
2,15104, Note_off_c,0,64.0,0,
2,15104, Note_on_c,0,57.0,49,
2,15360, Note_on_c,0,64.0,44,
2,15360, Note_on_c,0,59.0,39,
2,15360, Note_off_c,0,69.0,0,
2,15360, Note_on_c,0,71.0,37,
2,15616, Note_on_c,0,69.0,38,
2,15616, Note_off_c,0,62.0,0,
2,15616, Note_off_c,0,71.0,0,
2,15616, Note_on_c,0,65.0,42,
2,15616, Note_off_c,0,64.0,0,
2,15616, Note_off_c,0,69.0,0,
2,15616, Note_off_c,0,65.0,0,
2,15616, Note_off_c,0,68.0,0,
2,15616, Note_off_c,0,59.0,0,
2,15872, Note_on_c,0,63.0,36,
2,15872, Note_on_c,0,62.0,38,
2,15872, Note_on_c,0,71.0,47,
2,15872, Note_on_c,0,64.0,51,
2,15872, Note_on_c,0,68.0,41,
2,15872, Note_off_c,0,68.0,0,
2,15872, Note_off_c,0,71.0,0,
2,15872, Note_off_c,0,54.0,0,
2,15872, Note_off_c,0,62.0,0,
2,16128, Note_off_c,0,63.0,0,
2,16128, Note_off_c,0,67.0,0,
2,16128, Note_on_c,0,71.0,42,
2,16128, Note_on_c,0,69.0,43,
2,16128, Note_off_c,0,71.0,0,
2,16128, Note_off_c,0,64.0,0,
2,16128, Note_on_c,0,55.0,43,
2,16128, Note_on_c,0,64.0,43,
2,16128, Note_off_c,0,60.0,0,
2,16384, Note_off_c,0,64.0,0,
2,16384, Note_on_c,0,66.0,36,
2,16384, Note_on_c,0,71.0,38,
2,16384, Note_on_c,0,67.0,40,
2,16384, Note_off_c,0,67.0,0,
2,16384, Note_on_c,0,54.0,45,
2,16384, Note_off_c,0,71.0,0,
2,16384, Note_off_c,0,55.0,0,
2,16384, Note_on_c,0,60.0,41,
2,16640, Note_on_c,0,65.0,40,
2,16640, Note_off_c,0,66.0,0,
2,16640, Note_on_c,0,63.0,41,
2,16640, Note_on_c,0,62.0,41,
2,16640, Note_on_c,0,67.0,45,
2,16640, Note_on_c,0,71.0,45,
2,16640, Note_off_c,0,65.0,0,
2,16640, Note_off_c,0,69.0,0,
2,16640, Note_on_c,0,55.0,44,
2,16896, Note_off_c,0,60.0,0,
2,16896, Note_off_c,0,67.0,0,
2,16896, Note_on_c,0,68.0,52,
2,16896, Note_on_c,0,66.0,50,
2,16896, Note_off_c,0,68.0,0,
2,16896, Note_off_c,0,71.0,0,
2,16896, Note_on_c,0,60.0,44,
2,16896, Note_on_c,0,68.0,46,
2,16896, Note_off_c,0,57.0,0,
2,17152, Note_off_c,0,62.0,0,
2,17152, Note_on_c,0,69.0,49,
2,17152, Note_on_c,0,71.0,49,
2,17152, Note_off_c,0,66.0,0,
2,17152, Note_on_c,0,62.0,42,
2,17152, Note_off_c,0,60.0,0,
2,17152, Note_on_c,0,65.0,36,
2,17152, Note_on_c,0,59.0,48,
2,17152, Note_on_c,0,60.0,54,
2,17408, Note_off_c,0,63.0,0,
2,17408, Note_off_c,0,71.0,0,
2,17408, Note_off_c,0,69.0,0,
2,17408, Note_on_c,0,67.0,45,
2,17408, Note_off_c,0,65.0,0,
2,17408, Note_on_c,0,71.0,43,
2,17408, Note_on_c,0,50.0,48,
2,17408, Note_off_c,0,55.0,0,
2,17408, Note_on_c,0,64.0,51,
2,17664, Note_off_c,0,67.0,0,
2,17664, Note_on_c,0,67.0,51,
2,17664, Note_on_c,0,65.0,51,
2,17664, Note_off_c,0,62.0,0,
2,17664, Note_off_c,0,65.0,0,
2,17664, Note_off_c,0,64.0,0,
2,17664, Note_on_c,0,66.0,51,
2,17664, Note_on_c,0,57.0,49,
2,17664, Note_off_c,0,56.0,0,
2,17920, Note_off_c,0,68.0,0,
2,17920, Note_on_c,0,68.0,66,
2,17920, Note_off_c,0,71.0,0,
2,17920, Note_off_c,0,67.0,0,
2,17920, Note_on_c,0,65.0,66,
2,17920, Note_off_c,0,65.0,0,
2,17920, Note_on_c,0,67.0,55,
2,17920, Note_off_c,0,59.0,0,
2,17920, Note_on_c,0,65.0,57,
2,18176, Note_off_c,0,66.0,0,
2,18176, Note_on_c,0,66.0,58,
2,18176, Note_on_c,0,71.0,57,
2,18176, Note_off_c,0,67.0,0,
2,18176, Note_on_c,0,64.0,64,
2,18176, Note_off_c,0,65.0,0,
2,18176, Note_on_c,0,65.0,66,
2,18176, Note_on_c,0,69.0,62,
2,18176, Note_on_c,0,56.0,75,
2,18432, Note_on_c,0,63.0,75,
2,18432, Note_off_c,0,66.0,0,
2,18432, Note_off_c,0,71.0,0,
2,18432, Note_on_c,0,67.0,71,
2,18432, Note_on_c,0,66.0,74,
2,18432, Note_off_c,0,66.0,0,
2,18432, Note_on_c,0,72.0,71,
2,18432, Note_off_c,0,57.0,0,
2,18432, Note_off_c,0,60.0,0,
2,18688, Note_off_c,0,68.0,0,
2,18688, Note_off_c,0,65.0,0,
2,18688, Note_off_c,0,69.0,0,
2,18688, Note_on_c,0,66.0,72,
2,18688, Note_off_c,0,64.0,0,
2,18688, Note_on_c,0,71.0,76,
2,18688, Note_on_c,0,64.0,75,
2,18688, Note_on_c,0,69.0,76,
2,18688, Note_on_c,0,57.0,99,
2,18944, Note_off_c,0,57.0,0,
2,18944, Note_off_c,0,66.0,0,
2,18944, Note_on_c,0,65.0,93,
2,18944, Note_on_c,0,59.0,80,
2,18944, Note_off_c,0,67.0,0,
2,18944, Note_off_c,0,71.0,0,
2,18944, Note_on_c,0,66.0,89,
2,18944, Note_on_c,0,68.0,92,
2,18944, Note_on_c,0,57.0,91,
2,19200, Note_off_c,0,59.0,0,
2,19200, Note_on_c,0,71.0,88,
2,19200, Note_off_c,0,71.0,0,
2,19200, Note_off_c,0,65.0,0,
2,19200, Note_off_c,0,64.0,0,
2,19200, Note_off_c,0,66.0,0,
2,19200, Note_on_c,0,71.0,81,
2,19200, Note_off_c,0,63.0,0,
2,19200, Note_off_c,0,56.0,0,
2,19456, Note_on_c,0,67.0,97,
2,19456, Note_off_c,0,72.0,0,
2,19456, Note_on_c,0,59.0,113,
2,19456, Note_off_c,0,59.0,0,
2,19456, Note_on_c,0,65.0,105,
2,19456, Note_off_c,0,65.0,0,
2,19456, Note_on_c,0,66.0,100,
2,19456, Note_off_c,0,67.0,0,
2,19456, Note_on_c,0,59.0,101,
2,19456, Note_on_c,0,60.0,102,
2,19456, Note_off_c,0,59.0,0,
2,19968, Note_off_c,0,68.0,0,
2,19968, Note_off_c,0,71.0,0,
2,19968, Note_on_c,0,68.0,102,
2,19968, Note_on_c,0,72.0,104,
2,19968, Note_on_c,0,63.0,105,
2,19968, Note_on_c,0,65.0,105,
2,19968, Note_on_c,0,55.0,105,
2,19968, Note_off_c,0,60.0,0,
2,19968, Note_off_c,0,65.0,0,
2,19968, Note_off_c,0,63.0,0,
2,19968, Note_off_c,0,66.0,0,
2,19968, Note_on_c,0,67.0,106,
2,19968, Note_off_c,0,55.0,0,
2,19968, Note_on_c,0,60.0,99,
2,19968, Note_on_c,0,59.0,91,
2,19968, Note_on_c,0,65.0,91,
2,20224, Note_off_c,0,68.0,0,
2,20224, Note_on_c,0,62.0,86,
2,20224, Note_on_c,0,64.0,97,
2,20224, Note_on_c,0,71.0,108,
2,20224, Note_off_c,0,65.0,0,
2,20224, Note_on_c,0,63.0,108,
2,20224, Note_off_c,0,63.0,0,
2,20224, Note_on_c,0,55.0,113,
2,20480, Note_on_c,0,66.0,104,
2,20480, Note_off_c,0,60.0,0,
2,20480, Note_off_c,0,59.0,0,
2,20480, Note_off_c,0,67.0,0,
2,20480, Note_off_c,0,64.0,0,
2,20480, Note_on_c,0,60.0,94,
2,20480, Note_on_c,0,68.0,94,
2,20480, Note_on_c,0,64.0,93,
2,20736, Note_on_c,0,67.0,98,
2,20736, Note_on_c,0,65.0,101,
2,20736, Note_on_c,0,63.0,101,
2,20736, Note_off_c,0,69.0,0,
2,20736, Note_off_c,0,68.0,0,
2,20736, Note_on_c,0,76.0,101,
2,20736, Note_off_c,0,60.0,0,
2,20736, Note_off_c,0,67.0,0,
2,20736, Note_off_c,0,64.0,0,
2,20736, Note_on_c,0,56.0,103,
2,20736, Note_off_c,0,57.0,0,
2,20736, Note_off_c,0,62.0,0,
2,20736, Note_off_c,0,71.0,0,
2,20736, Note_off_c,0,63.0,0,
2,20736, Note_off_c,0,55.0,0,
2,20736, Note_on_c,0,62.0,104,
2,21248, Note_on_c,0,68.0,103,
2,21248, Note_off_c,0,72.0,0,
2,21248, Note_on_c,0,69.0,102,
2,21248, Note_off_c,0,66.0,0,
2,21248, Note_on_c,0,64.0,97,
2,21248, Note_off_c,0,65.0,0,
2,21248, Note_on_c,0,66.0,89,
2,21248, Note_on_c,0,60.0,90,
2,21504, Note_off_c,0,68.0,0,
2,21504, Note_on_c,0,68.0,93,
2,21504, Note_off_c,0,68.0,0,
2,21504, Note_off_c,0,66.0,0,
2,21504, Note_off_c,0,64.0,0,
2,21504, Note_on_c,0,67.0,90,
2,21504, Note_on_c,0,66.0,87,
2,21504, Note_on_c,0,64.0,86,
2,21760, Note_on_c,0,63.0,82,
2,21760, Note_off_c,0,64.0,0,
2,21760, Note_off_c,0,67.0,0,
2,21760, Note_on_c,0,65.0,86,
2,21760, Note_off_c,0,60.0,0,
2,21760, Note_off_c,0,62.0,0,
2,21760, Note_off_c,0,63.0,0,
2,21760, Note_on_c,0,57.0,94,
2,22016, Note_on_c,0,64.0,93,
2,22016, Note_on_c,0,71.0,94,
2,22016, Note_on_c,0,67.0,92,
2,22016, Note_on_c,0,68.0,86,
2,22016, Note_off_c,0,64.0,0,
2,22016, Note_off_c,0,57.0,0,
2,22016, Note_on_c,0,53.0,83,
2,22016, Note_on_c,0,59.0,87,
2,22272, Note_off_c,0,67.0,0,
2,22272, Note_off_c,0,68.0,0,
2,22272, Note_on_c,0,57.0,93,
2,22272, Note_on_c,0,64.0,94,
2,22272, Note_on_c,0,68.0,93,
2,22272, Note_off_c,0,68.0,0,
2,22272, Note_off_c,0,59.0,0,
2,22272, Note_on_c,0,55.0,95,
2,22272, Note_on_c,0,60.0,87,
2,22528, Note_off_c,0,71.0,0,
2,22528, Note_on_c,0,62.0,88,
2,22528, Note_on_c,0,63.0,90,
2,22528, Note_off_c,0,57.0,0,
2,22528, Note_off_c,0,52.0,0,
2,22528, Note_off_c,0,65.0,0,
2,22528, Note_off_c,0,69.0,0,
2,22528, Note_off_c,0,64.0,0,
2,22528, Note_off_c,0,60.0,0,
2,22784, Note_on_c,0,71.0,94,
2,22784, Note_off_c,0,56.0,0,
2,22784, Note_off_c,0,55.0,0,
2,22784, Note_off_c,0,66.0,0,
2,22784, Note_on_c,0,55.0,89,
2,23040, Note_on_c,0,59.0,84,
2,23040, Note_on_c,0,64.0,85,
2,23040, Note_on_c,0,69.0,88,
2,23040, Note_off_c,0,59.0,0,
2,23296, Note_on_c,0,57.0,93,
2,23296, Note_on_c,0,65.0,85,
2,23296, Note_on_c,0,66.0,97,
2,23296, Note_off_c,0,64.0,0,
2,23296, Note_off_c,0,54.0,0,
2,23296, Note_off_c,0,65.0,0,
2,23296, Note_on_c,0,60.0,117,
2,23296, Note_off_c,0,71.0,0,
2,23296, Note_on_c,0,56.0,116,
2,23296, Note_off_c,0,62.0,0,
2,23296, Note_on_c,0,59.0,112,
2,23552, Note_off_c,0,60.0,0,
2,23552, Note_on_c,0,60.0,102,
2,23552, Note_on_c,0,67.0,102,
2,23552, Note_on_c,0,72.0,98,
2,23552, Note_on_c,0,65.0,99,
2,23552, Note_off_c,0,69.0,0,
2,23552, Note_off_c,0,63.0,0,
2,24064, Note_off_c,0,59.0,0,
2,24064, Note_off_c,0,57.0,0,
2,24064, Note_on_c,0,69.0,101,
2,24064, Note_on_c,0,57.0,101,
2,24064, Note_off_c,0,66.0,0,
2,24064, Note_off_c,0,69.0,0,
2,24064, Note_on_c,0,59.0,101,
2,24064, Note_on_c,0,63.0,100,
2,24064, Note_off_c,0,57.0,0,
2,24064, Note_off_c,0,60.0,0,
2,24064, Note_on_c,0,62.0,100,
2,24064, Note_off_c,0,65.0,0,
2,24064, Note_on_c,0,64.0,101,
2,24064, Note_off_c,0,64.0,0,
2,24064, Note_on_c,0,68.0,103,
2,24064, Note_on_c,0,65.0,104,
2,24064, Note_on_c,0,57.0,105,
2,24064, Note_off_c,0,56.0,0,
2,24064, Note_off_c,0,63.0,0,
2,24064, Note_on_c,0,63.0,106,
2,24320, Note_off_c,0,68.0,0,
2,24320, Note_on_c,0,60.0,106,
2,24320, Note_off_c,0,72.0,0,
2,24320, Note_on_c,0,66.0,107,
2,24320, Note_off_c,0,67.0,0,
2,24320, Note_on_c,0,64.0,104,
2,24320, Note_off_c,0,63.0,0,
2,24320, Note_off_c,0,66.0,0,
2,24320, Note_on_c,0,66.0,94,
2,24320, Note_on_c,0,69.0,93,
2,24576, Note_on_c,0,63.0,95,
2,24576, Note_on_c,0,72.0,95,
2,24576, Note_on_c,0,67.0,94,
2,24576, Note_off_c,0,62.0,0,
2,24576, Note_off_c,0,66.0,0,
2,24576, Note_on_c,0,71.0,92,
2,24576, Note_off_c,0,65.0,0,
2,24576, Note_on_c,0,66.0,93,
2,24576, Note_off_c,0,60.0,0,
2,24576, Note_off_c,0,63.0,0,
2,24832, Note_off_c,0,66.0,0,
2,24832, Note_off_c,0,69.0,0,
2,24832, Note_on_c,0,66.0,95,
2,24832, Note_on_c,0,65.0,96,
2,24832, Note_off_c,0,64.0,0,
2,24832, Note_off_c,0,72.0,0,
2,24832, Note_on_c,0,60.0,96,
2,24832, Note_on_c,0,56.0,95,
2,24832, Note_off_c,0,65.0,0,
2,24832, Note_on_c,0,64.0,94,
2,24832, Note_on_c,0,62.0,92,
2,24832, Note_on_c,0,68.0,87,
2,24832, Note_off_c,0,66.0,0,
2,24832, Note_off_c,0,60.0,0,
2,24832, Note_off_c,0,67.0,0,
2,24832, Note_off_c,0,59.0,0,
2,24832, Note_on_c,0,63.0,89,
2,24832, Note_off_c,0,64.0,0,
2,24832, Note_on_c,0,64.0,109,
2,24832, Note_on_c,0,66.0,109,
2,25344, Note_off_c,0,57.0,0,
2,25344, Note_on_c,0,67.0,106,
2,25344, Note_on_c,0,65.0,84,
2,25344, Note_off_c,0,66.0,0,
2,25344, Note_on_c,0,74.0,86,
2,25344, Note_off_c,0,65.0,0,
2,25344, Note_off_c,0,63.0,0,
2,25344, Note_on_c,0,60.0,95,
2,25344, Note_off_c,0,60.0,0,
2,25344, Note_off_c,0,53.0,0,
2,25600, Note_on_c,0,66.0,93,
2,25600, Note_off_c,0,71.0,0,
2,25600, Note_on_c,0,65.0,95,
2,25600, Note_off_c,0,64.0,0,
2,25600, Note_on_c,0,71.0,98,
2,25600, Note_off_c,0,62.0,0,
2,25600, Note_on_c,0,63.0,96,
2,25600, Note_on_c,0,62.0,93,
2,25600, Note_on_c,0,64.0,91,
2,25600, Note_on_c,0,59.0,93,
2,25856, Note_off_c,0,63.0,0,
2,25856, Note_off_c,0,71.0,0,
2,25856, Note_on_c,0,63.0,113,
2,25856, Note_on_c,0,57.0,111,
2,25856, Note_off_c,0,67.0,0,
2,25856, Note_on_c,0,72.0,88,
2,25856, Note_off_c,0,66.0,0,
2,25856, Note_off_c,0,62.0,0,
2,25856, Note_off_c,0,64.0,0,
2,25856, Note_on_c,0,60.0,87,
2,26112, Note_off_c,0,59.0,0,
2,26112, Note_on_c,0,71.0,89,
2,26112, Note_off_c,0,65.0,0,
2,26112, Note_on_c,0,65.0,92,
2,26112, Note_off_c,0,68.0,0,
2,26112, Note_off_c,0,71.0,0,
2,26112, Note_on_c,0,68.0,94,
2,26112, Note_on_c,0,54.0,93,
2,26112, Note_off_c,0,55.0,0,
2,26112, Note_on_c,0,64.0,93,
2,26368, Note_off_c,0,63.0,0,
2,26368, Note_on_c,0,69.0,93,
2,26368, Note_on_c,0,71.0,94,
2,26368, Note_on_c,0,55.0,93,
2,26368, Note_on_c,0,63.0,92,
2,26368, Note_on_c,0,67.0,93,
2,26368, Note_off_c,0,71.0,0,
2,26368, Note_off_c,0,67.0,0,
2,26368, Note_on_c,0,62.0,100,
2,26368, Note_off_c,0,55.0,0,
2,26368, Note_off_c,0,62.0,0,
2,26368, Note_off_c,0,72.0,0,
2,26368, Note_off_c,0,65.0,0,
2,26368, Note_off_c,0,57.0,0,
2,26368, Note_off_c,0,64.0,0,
2,26368, Note_on_c,0,67.0,117,
2,26368, Note_off_c,0,63.0,0,
2,26368, Note_off_c,0,56.0,0,
2,26691, End_track,,,,
0,0, End_of_file,,,,
