0, 0, Header, 1, 2, 256
1, 0, Start_track
1, 0, Time_signature, 2, 1, 48, 8
1, 0, Key_signature, -3, "major"
1, 0, Tempo, 545454
1, 68352, Tempo, 576922
1, 69120, Tempo, 600000
1, 69631, Tempo, 612243
1, 70016, Tempo, 638296
1, 70400, Tempo, 750000
1, 70656, Time_signature, 6, 2, 72, 8
1, 70657, End_track
2, 0, Start_track
2, 0, Control_c, 0, 121, 0
2, 0, Control_c, 0, 64, 0
2, 0, Control_c, 0, 91, 48
2, 0, Control_c, 0, 10, 51
2, 0, Control_c, 0, 7, 100
2, 0, Control_c, 0, 121, 0
2, 0, Control_c, 0, 64, 0
2, 0, Control_c, 0, 91, 48
2, 0, Control_c, 0, 10, 51
2, 0, Control_c, 0, 7, 100
2, 0, Title_t, "Piano"
2, 0, Note_on_c, 0, 51, 75
2, 1024, Note_off_c, 0, 51, 0
2, 1024, Note_on_c, 0, 58, 88
2, 1536, Note_off_c, 0, 58, 0
2, 1792, Note_on_c, 0, 56, 74
2, 2048, Note_off_c, 0, 56, 0
2, 2048, Note_on_c, 0, 55, 81
2, 2304, Note_off_c, 0, 55, 0
2, 2304, Note_on_c, 0, 60, 94
2, 2816, Note_off_c, 0, 60, 0
2, 2816, Note_on_c, 0, 58, 82
2, 3072, Note_off_c, 0, 58, 0
2, 3072, Note_on_c, 0, 56, 81
2, 3328, Note_off_c, 0, 56, 0
2, 3328, Note_on_c, 0, 56, 86
2, 3456, Note_off_c, 0, 56, 0
2, 3456, Note_on_c, 0, 55, 84
2, 3584, Note_off_c, 0, 55, 0
2, 3584, Note_on_c, 0, 56, 90
2, 3840, Note_off_c, 0, 56, 0
2, 3840, Note_on_c, 0, 60, 93
2, 4096, Note_off_c, 0, 60, 0
2, 4096, Note_on_c, 0, 53, 78
2, 4352, Note_off_c, 0, 53, 0
2, 4352, Note_on_c, 0, 58, 89
2, 4864, Note_off_c, 0, 58, 0
2, 4864, Note_on_c, 0, 56, 85
2, 5120, Note_off_c, 0, 56, 0
2, 5120, Note_on_c, 0, 55, 78
2, 5376, Note_off_c, 0, 55, 0
2, 5376, Note_on_c, 0, 55, 84
2, 5504, Note_off_c, 0, 55, 0
2, 5504, Note_on_c, 0, 53, 79
2, 5632, Note_off_c, 0, 53, 0
2, 5632, Note_on_c, 0, 55, 89
2, 5888, Note_off_c, 0, 55, 0
2, 5888, Note_on_c, 0, 58, 83
2, 6144, Note_on_c, 0, 58, 74
2, 6144, Note_off_c, 0, 58, 0
2, 6144, Note_on_c, 0, 51, 73
2, 6400, Note_off_c, 0, 51, 0
2, 6400, Note_on_c, 0, 51, 81
2, 6528, Note_off_c, 0, 51, 0
2, 6528, Note_on_c, 0, 50, 82
2, 6656, Note_off_c, 0, 50, 0
2, 6656, Note_on_c, 0, 51, 88
2, 6912, Note_off_c, 0, 51, 0
2, 6912, Note_on_c, 0, 55, 85
2, 7168, Note_off_c, 0, 58, 0
2, 7168, Note_on_c, 0, 63, 66
2, 7168, Note_off_c, 0, 55, 0
2, 7168, Note_on_c, 0, 48, 81
2, 7424, Note_off_c, 0, 48, 0
2, 7424, Note_on_c, 0, 50, 87
2, 7552, Note_off_c, 0, 50, 0
2, 7552, Note_on_c, 0, 51, 89
2, 7680, Note_off_c, 0, 63, 0
2, 7680, Note_off_c, 0, 51, 0
2, 7680, Note_on_c, 0, 53, 87
2, 7936, Note_on_c, 0, 63, 71
2, 8192, Note_off_c, 0, 63, 0
2, 8192, Note_on_c, 0, 62, 70
2, 8192, Note_off_c, 0, 53, 0
2, 8192, Note_on_c, 0, 46, 79
2, 8448, Note_off_c, 0, 62, 0
2, 8448, Note_on_c, 0, 67, 90
2, 8704, Note_off_c, 0, 46, 0
2, 8704, Note_on_c, 0, 58, 98
2, 8960, Note_off_c, 0, 67, 0
2, 8960, Note_on_c, 0, 65, 79
2, 9216, Note_off_c, 0, 65, 0
2, 9216, Note_on_c, 0, 63, 73
2, 9472, Note_off_c, 0, 63, 0
2, 9472, Note_on_c, 0, 63, 75
2, 9600, Note_off_c, 0, 63, 0
2, 9600, Note_on_c, 0, 62, 74
2, 9728, Note_off_c, 0, 62, 0
2, 9728, Note_on_c, 0, 63, 74
2, 9728, Note_off_c, 0, 58, 0
2, 9728, Note_on_c, 0, 57, 79
2, 9984, Note_off_c, 0, 63, 0
2, 9984, Note_on_c, 0, 67, 86
2, 9984, Note_off_c, 0, 57, 0
2, 9984, Note_on_c, 0, 55, 81
2, 10240, Note_off_c, 0, 67, 0
2, 10240, Note_on_c, 0, 60, 64
2, 10240, Note_off_c, 0, 55, 0
2, 10240, Note_on_c, 0, 57, 86
2, 10496, Note_off_c, 0, 60, 0
2, 10496, Note_on_c, 0, 65, 83
2, 10624, Note_off_c, 0, 57, 0
2, 10624, Note_on_c, 0, 58, 87
2, 10688, Note_off_c, 0, 58, 0
2, 10688, Note_on_c, 0, 57, 82
2, 10752, Note_off_c, 0, 57, 0
2, 10752, Note_on_c, 0, 55, 80
2, 11008, Note_off_c, 0, 65, 0
2, 11008, Note_on_c, 0, 63, 73
2, 11008, Note_off_c, 0, 55, 0
2, 11008, Note_on_c, 0, 57, 83
2, 11264, Note_off_c, 0, 63, 0
2, 11264, Note_on_c, 0, 62, 72
2, 11264, Note_off_c, 0, 57, 0
2, 11264, Note_on_c, 0, 58, 83
2, 11520, Note_off_c, 0, 62, 0
2, 11520, Note_on_c, 0, 62, 72
2, 11520, Note_off_c, 0, 58, 0
2, 11520, Note_on_c, 0, 46, 74
2, 11648, Note_off_c, 0, 62, 0
2, 11648, Note_on_c, 0, 60, 69
2, 11776, Note_off_c, 0, 60, 0
2, 11776, Note_on_c, 0, 62, 79
2, 11776, Note_off_c, 0, 46, 0
2, 11776, Note_on_c, 0, 58, 98
2, 12032, Note_off_c, 0, 62, 0
2, 12032, Note_on_c, 0, 65, 84
2, 12032, Note_off_c, 0, 58, 0
2, 12032, Note_on_c, 0, 56, 78
2, 12288, Note_off_c, 0, 65, 0
2, 12288, Note_on_c, 0, 58, 72
2, 12288, Note_off_c, 0, 56, 0
2, 12288, Note_on_c, 0, 55, 81
2, 12544, Note_off_c, 0, 58, 0
2, 12544, Note_on_c, 0, 58, 73
2, 12544, Note_off_c, 0, 55, 0
2, 12544, Note_on_c, 0, 43, 69
2, 12672, Note_off_c, 0, 58, 0
2, 12672, Note_on_c, 0, 56, 71
2, 12800, Note_off_c, 0, 56, 0
2, 12800, Note_on_c, 0, 58, 77
2, 12800, Note_off_c, 0, 43, 0
2, 12800, Note_on_c, 0, 55, 92
2, 13056, Note_off_c, 0, 58, 0
2, 13056, Note_on_c, 0, 62, 87
2, 13056, Note_off_c, 0, 55, 0
2, 13056, Note_on_c, 0, 53, 78
2, 13312, Note_off_c, 0, 62, 0
2, 13312, Note_on_c, 0, 63, 75
2, 13312, Note_on_c, 0, 55, 74
2, 13312, Note_off_c, 0, 53, 0
2, 13312, Note_on_c, 0, 51, 82
2, 13568, Note_off_c, 0, 55, 0
2, 13568, Note_on_c, 0, 56, 76
2, 13568, Note_off_c, 0, 51, 0
2, 13568, Note_on_c, 0, 53, 84
2, 13696, Note_off_c, 0, 56, 0
2, 13696, Note_on_c, 0, 58, 78
2, 13696, Note_off_c, 0, 53, 0
2, 13696, Note_on_c, 0, 55, 89
2, 13824, Note_off_c, 0, 58, 0
2, 13824, Note_on_c, 0, 60, 82
2, 13824, Note_off_c, 0, 55, 0
2, 13824, Note_on_c, 0, 56, 89
2, 14080, Note_off_c, 0, 60, 0
2, 14080, Note_on_c, 0, 58, 73
2, 14208, Note_off_c, 0, 58, 0
2, 14208, Note_on_c, 0, 60, 81
2, 14336, Note_off_c, 0, 63, 0
2, 14336, Note_off_c, 0, 60, 0
2, 14336, Note_on_c, 0, 70, 96
2, 14336, Note_on_c, 0, 62, 79
2, 14592, Note_off_c, 0, 62, 0
2, 14592, Note_on_c, 0, 65, 86
2, 14592, Note_off_c, 0, 56, 0
2, 14592, Note_on_c, 0, 55, 84
2, 14720, Note_off_c, 0, 55, 0
2, 14720, Note_on_c, 0, 53, 81
2, 14848, Note_off_c, 0, 70, 0
2, 14848, Note_off_c, 0, 65, 0
2, 14848, Note_on_c, 0, 58, 72
2, 14848, Note_off_c, 0, 53, 0
2, 14848, Note_on_c, 0, 55, 88
2, 15104, Note_off_c, 0, 58, 0
2, 15104, Note_on_c, 0, 68, 74
2, 15104, Note_on_c, 0, 62, 88
2, 15104, Note_off_c, 0, 55, 0
2, 15104, Note_on_c, 0, 58, 90
2, 15360, Note_off_c, 0, 68, 0
2, 15360, Note_off_c, 0, 62, 0
2, 15360, Note_on_c, 0, 67, 78
2, 15360, Note_on_c, 0, 63, 80
2, 15360, Note_off_c, 0, 58, 0
2, 15360, Note_on_c, 0, 51, 72
2, 15616, Note_off_c, 0, 67, 0
2, 15616, Note_on_c, 0, 72, 93
2, 15616, Note_off_c, 0, 51, 0
2, 15616, Note_on_c, 0, 56, 85
2, 15744, Note_off_c, 0, 56, 0
2, 15744, Note_on_c, 0, 55, 84
2, 15872, Note_off_c, 0, 55, 0
2, 15872, Note_on_c, 0, 56, 86
2, 16128, Note_off_c, 0, 72, 0
2, 16128, Note_on_c, 0, 70, 79
2, 16128, Note_off_c, 0, 56, 0
2, 16128, Note_on_c, 0, 60, 91
2, 16384, Note_off_c, 0, 70, 0
2, 16384, Note_on_c, 0, 68, 81
2, 16384, Note_off_c, 0, 60, 0
2, 16384, Note_on_c, 0, 53, 76
2, 16640, Note_off_c, 0, 68, 0
2, 16640, Note_on_c, 0, 68, 91
2, 16768, Note_off_c, 0, 68, 0
2, 16768, Note_on_c, 0, 67, 79
2, 16896, Note_off_c, 0, 63, 0
2, 16896, Note_off_c, 0, 67, 0
2, 16896, Note_on_c, 0, 68, 90
2, 16896, Note_on_c, 0, 62, 72
2, 17152, Note_off_c, 0, 68, 0
2, 17152, Note_off_c, 0, 62, 0
2, 17152, Note_on_c, 0, 72, 94
2, 17152, Note_on_c, 0, 60, 67
2, 17152, Note_off_c, 0, 53, 0
2, 17152, Note_on_c, 0, 55, 86
2, 17280, Note_off_c, 0, 55, 0
2, 17280, Note_on_c, 0, 56, 86
2, 17408, Note_off_c, 0, 72, 0
2, 17408, Note_off_c, 0, 60, 0
2, 17408, Note_on_c, 0, 65, 72
2, 17408, Note_on_c, 0, 62, 77
2, 17408, Note_off_c, 0, 56, 0
2, 17408, Note_on_c, 0, 58, 85
2, 17664, Note_off_c, 0, 65, 0
2, 17664, Note_on_c, 0, 70, 93
2, 17792, Note_off_c, 0, 62, 0
2, 17792, Note_on_c, 0, 63, 81
2, 17856, Note_off_c, 0, 63, 0
2, 17856, Note_on_c, 0, 62, 73
2, 17920, Note_off_c, 0, 62, 0
2, 17920, Note_on_c, 0, 60, 71
2, 18176, Note_off_c, 0, 70, 0
2, 18176, Note_off_c, 0, 60, 0
2, 18176, Note_on_c, 0, 68, 81
2, 18176, Note_on_c, 0, 62, 81
2, 18432, Note_off_c, 0, 68, 0
2, 18432, Note_off_c, 0, 62, 0
2, 18432, Note_on_c, 0, 67, 81
2, 18432, Note_off_c, 0, 58, 0
2, 18432, Note_on_c, 0, 63, 95
2, 18432, Note_on_c, 0, 51, 68
2, 18688, Note_off_c, 0, 67, 0
2, 18688, Note_on_c, 0, 67, 80
2, 18688, Note_off_c, 0, 63, 0
2, 18688, Note_on_c, 0, 58, 79
2, 18816, Note_off_c, 0, 67, 0
2, 18816, Note_on_c, 0, 65, 79
2, 18816, Note_off_c, 0, 58, 0
2, 18816, Note_on_c, 0, 56, 85
2, 18944, Note_off_c, 0, 65, 0
2, 18944, Note_on_c, 0, 67, 91
2, 18944, Note_off_c, 0, 56, 0
2, 18944, Note_on_c, 0, 58, 85
2, 19200, Note_off_c, 0, 67, 0
2, 19200, Note_on_c, 0, 70, 92
2, 19200, Note_off_c, 0, 51, 0
2, 19200, Note_on_c, 0, 50, 75
2, 19456, Note_off_c, 0, 70, 0
2, 19456, Note_on_c, 0, 63, 82
2, 19456, Note_off_c, 0, 50, 0
2, 19456, Note_on_c, 0, 48, 70
2, 19712, Note_off_c, 0, 63, 0
2, 19712, Note_on_c, 0, 65, 80
2, 19712, Note_off_c, 0, 58, 0
2, 19712, Note_on_c, 0, 56, 79
2, 19840, Note_off_c, 0, 65, 0
2, 19840, Note_on_c, 0, 63, 78
2, 19840, Note_off_c, 0, 56, 0
2, 19840, Note_on_c, 0, 55, 84
2, 19968, Note_off_c, 0, 63, 0
2, 19968, Note_on_c, 0, 65, 80
2, 19968, Note_off_c, 0, 48, 0
2, 19968, Note_off_c, 0, 55, 0
2, 19968, Note_on_c, 0, 56, 88
2, 20224, Note_off_c, 0, 65, 0
2, 20224, Note_on_c, 0, 68, 81
2, 20224, Note_on_c, 0, 53, 65
2, 20480, Note_off_c, 0, 68, 0
2, 20480, Note_on_c, 0, 70, 86
2, 20480, Note_on_c, 0, 62, 69
2, 20480, Note_off_c, 0, 53, 0
2, 20480, Note_on_c, 0, 46, 72
2, 20736, Note_off_c, 0, 62, 0
2, 20736, Note_on_c, 0, 63, 74
2, 20736, Note_off_c, 0, 56, 0
2, 20736, Note_on_c, 0, 55, 82
2, 20992, Note_off_c, 0, 55, 0
2, 20992, Note_on_c, 0, 53, 75
2, 21248, Note_off_c, 0, 63, 0
2, 21248, Note_on_c, 0, 62, 72
2, 21248, Note_off_c, 0, 53, 0
2, 21248, Note_on_c, 0, 58, 92
2, 21504, Note_off_c, 0, 70, 0
2, 21504, Note_off_c, 0, 62, 0
2, 21504, Note_on_c, 0, 75, 98
2, 21504, Note_on_c, 0, 60, 72
2, 21504, Note_off_c, 0, 58, 0
2, 21504, Note_on_c, 0, 55, 79
2, 21760, Note_off_c, 0, 60, 0
2, 21760, Note_on_c, 0, 67, 86
2, 22016, Note_off_c, 0, 67, 0
2, 22016, Note_on_c, 0, 72, 90
2, 22016, Note_off_c, 0, 46, 0
2, 22016, Note_off_c, 0, 55, 0
2, 22016, Note_on_c, 0, 53, 79
2, 22016, Note_on_c, 0, 45, 72
2, 22272, Note_off_c, 0, 75, 0
2, 22272, Note_on_c, 0, 75, 85
2, 22528, Note_off_c, 0, 75, 0
2, 22528, Note_on_c, 0, 74, 77
2, 22528, Note_off_c, 0, 45, 0
2, 22528, Note_on_c, 0, 46, 79
2, 22784, Note_off_c, 0, 72, 0
2, 22784, Note_off_c, 0, 74, 0
2, 22784, Note_on_c, 0, 79, 92
2, 22784, Note_on_c, 0, 70, 74
2, 22784, Note_off_c, 0, 53, 0
2, 22784, Note_on_c, 0, 50, 81
2, 22912, Note_off_c, 0, 70, 0
2, 22912, Note_on_c, 0, 69, 72
2, 23040, Note_off_c, 0, 69, 0
2, 23040, Note_on_c, 0, 70, 77
2, 23040, Note_off_c, 0, 46, 0
2, 23040, Note_off_c, 0, 50, 0
2, 23040, Note_on_c, 0, 55, 87
2, 23296, Note_off_c, 0, 79, 0
2, 23296, Note_on_c, 0, 77, 77
2, 23296, Note_on_c, 0, 43, 69
2, 23552, Note_off_c, 0, 77, 0
2, 23552, Note_on_c, 0, 75, 77
2, 23552, Note_off_c, 0, 43, 0
2, 23552, Note_on_c, 0, 48, 77
2, 23808, Note_off_c, 0, 75, 0
2, 23808, Note_on_c, 0, 75, 83
2, 23808, Note_off_c, 0, 55, 0
2, 23808, Note_on_c, 0, 60, 94
2, 23936, Note_off_c, 0, 75, 0
2, 23936, Note_on_c, 0, 74, 77
2, 23936, Note_off_c, 0, 60, 0
2, 23936, Note_on_c, 0, 58, 81
2, 24064, Note_off_c, 0, 70, 0
2, 24064, Note_off_c, 0, 74, 0
2, 24064, Note_on_c, 0, 75, 83
2, 24064, Note_on_c, 0, 69, 73
2, 24064, Note_off_c, 0, 48, 0
2, 24064, Note_off_c, 0, 58, 0
2, 24064, Note_on_c, 0, 60, 90
2, 24320, Note_off_c, 0, 75, 0
2, 24320, Note_off_c, 0, 69, 0
2, 24320, Note_on_c, 0, 79, 90
2, 24320, Note_on_c, 0, 67, 72
2, 24320, Note_on_c, 0, 51, 71
2, 24576, Note_off_c, 0, 79, 0
2, 24576, Note_off_c, 0, 67, 0
2, 24576, Note_on_c, 0, 72, 73
2, 24576, Note_on_c, 0, 69, 78
2, 24576, Note_off_c, 0, 51, 0
2, 24576, Note_on_c, 0, 53, 76
2, 24832, Note_off_c, 0, 72, 0
2, 24832, Note_on_c, 0, 77, 94
2, 24960, Note_off_c, 0, 69, 0
2, 24960, Note_on_c, 0, 70, 85
2, 24960, Note_off_c, 0, 60, 0
2, 24960, Note_on_c, 0, 62, 86
2, 25024, Note_off_c, 0, 70, 0
2, 25024, Note_on_c, 0, 69, 74
2, 25024, Note_off_c, 0, 62, 0
2, 25024, Note_on_c, 0, 60, 78
2, 25088, Note_off_c, 0, 69, 0
2, 25088, Note_on_c, 0, 67, 71
2, 25088, Note_off_c, 0, 53, 0
2, 25088, Note_off_c, 0, 60, 0
2, 25088, Note_on_c, 0, 58, 77
2, 25344, Note_off_c, 0, 77, 0
2, 25344, Note_off_c, 0, 67, 0
2, 25344, Note_on_c, 0, 75, 77
2, 25344, Note_on_c, 0, 69, 80
2, 25344, Note_off_c, 0, 58, 0
2, 25344, Note_on_c, 0, 60, 91
2, 25344, Note_on_c, 0, 53, 69
2, 25600, Note_off_c, 0, 75, 0
2, 25600, Note_off_c, 0, 69, 0
2, 25600, Note_on_c, 0, 74, 77
2, 25600, Note_on_c, 0, 70, 79
2, 25600, Note_off_c, 0, 60, 0
2, 25600, Note_off_c, 0, 53, 0
2, 25600, Note_on_c, 0, 62, 92
2, 25600, Note_on_c, 0, 58, 75
2, 25856, Note_off_c, 0, 74, 0
2, 25856, Note_on_c, 0, 74, 84
2, 25856, Note_off_c, 0, 58, 0
2, 25856, Note_on_c, 0, 53, 69
2, 25984, Note_off_c, 0, 74, 0
2, 25984, Note_on_c, 0, 72, 78
2, 26112, Note_off_c, 0, 70, 0
2, 26112, Note_off_c, 0, 72, 0
2, 26112, Note_on_c, 0, 74, 83
2, 26112, Note_off_c, 0, 62, 0
2, 26112, Note_off_c, 0, 53, 0
2, 26112, Note_on_c, 0, 58, 81
2, 26368, Note_off_c, 0, 74, 0
2, 26368, Note_on_c, 0, 77, 91
2, 26368, Note_on_c, 0, 65, 71
2, 26368, Note_off_c, 0, 58, 0
2, 26368, Note_on_c, 0, 60, 76
2, 26368, Note_on_c, 0, 57, 78
2, 26624, Note_off_c, 0, 77, 0
2, 26624, Note_off_c, 0, 65, 0
2, 26624, Note_on_c, 0, 70, 67
2, 26624, Note_on_c, 0, 67, 82
2, 26624, Note_off_c, 0, 60, 0
2, 26624, Note_off_c, 0, 57, 0
2, 26624, Note_on_c, 0, 62, 92
2, 26624, Note_on_c, 0, 55, 76
2, 26880, Note_off_c, 0, 70, 0
2, 26880, Note_on_c, 0, 70, 78
2, 26880, Note_off_c, 0, 55, 0
2, 26880, Note_on_c, 0, 50, 74
2, 27008, Note_off_c, 0, 70, 0
2, 27008, Note_on_c, 0, 69, 80
2, 27136, Note_off_c, 0, 67, 0
2, 27136, Note_off_c, 0, 69, 0
2, 27136, Note_on_c, 0, 70, 94
2, 27136, Note_off_c, 0, 62, 0
2, 27136, Note_off_c, 0, 50, 0
2, 27136, Note_on_c, 0, 55, 83
2, 27392, Note_off_c, 0, 70, 0
2, 27392, Note_on_c, 0, 74, 94
2, 27392, Note_on_c, 0, 62, 64
2, 27392, Note_off_c, 0, 55, 0
2, 27392, Note_on_c, 0, 56, 72
2, 27392, Note_on_c, 0, 53, 77
2, 27648, Note_off_c, 0, 74, 0
2, 27648, Note_off_c, 0, 62, 0
2, 27648, Note_on_c, 0, 67, 70
2, 27648, Note_on_c, 0, 63, 75
2, 27648, Note_off_c, 0, 56, 0
2, 27648, Note_off_c, 0, 53, 0
2, 27648, Note_on_c, 0, 58, 80
2, 27648, Note_on_c, 0, 51, 73
2, 27904, Note_off_c, 0, 67, 0
2, 27904, Note_off_c, 0, 63, 0
2, 27904, Note_on_c, 0, 69, 86
2, 27904, Note_on_c, 0, 65, 81
2, 27904, Note_off_c, 0, 58, 0
2, 27904, Note_on_c, 0, 60, 88
2, 28160, Note_off_c, 0, 69, 0
2, 28160, Note_off_c, 0, 65, 0
2, 28160, Note_on_c, 0, 70, 84
2, 28160, Note_on_c, 0, 67, 81
2, 28160, Note_off_c, 0, 60, 0
2, 28160, Note_on_c, 0, 61, 91
2, 28416, Note_off_c, 0, 51, 0
2, 28416, Note_on_c, 0, 52, 80
2, 28672, Note_off_c, 0, 67, 0
2, 28672, Note_on_c, 0, 65, 75
2, 28672, Note_off_c, 0, 61, 0
2, 28672, Note_off_c, 0, 52, 0
2, 28672, Note_on_c, 0, 60, 80
2, 28672, Note_on_c, 0, 53, 79
2, 28928, Note_off_c, 0, 60, 0
2, 28928, Note_on_c, 0, 58, 83
2, 29184, Note_off_c, 0, 70, 0
2, 29184, Note_on_c, 0, 69, 78
2, 29184, Note_off_c, 0, 58, 0
2, 29184, Note_on_c, 0, 60, 90
2, 29440, Note_off_c, 0, 65, 0
2, 29440, Note_on_c, 0, 63, 66
2, 29696, Note_off_c, 0, 69, 0
2, 29696, Note_off_c, 0, 63, 0
2, 29696, Note_on_c, 0, 70, 90
2, 29696, Note_on_c, 0, 62, 72
2, 29696, Note_off_c, 0, 53, 0
2, 29696, Note_off_c, 0, 60, 0
2, 29696, Note_on_c, 0, 58, 81
2, 29696, Note_on_c, 0, 46, 70
2, 29952, Note_off_c, 0, 70, 0
2, 29952, Note_off_c, 0, 62, 0
2, 29952, Note_on_c, 0, 74, 96
2, 29952, Note_on_c, 0, 65, 83
2, 30080, Note_off_c, 0, 74, 0
2, 30080, Note_off_c, 0, 65, 0
2, 30080, Note_on_c, 0, 75, 88
2, 30080, Note_on_c, 0, 67, 78
2, 30208, Note_off_c, 0, 75, 0
2, 30208, Note_off_c, 0, 67, 0
2, 30208, Note_on_c, 0, 77, 87
2, 30208, Note_on_c, 0, 68, 80
2, 30208, Note_off_c, 0, 58, 0
2, 30208, Note_off_c, 0, 46, 0
2, 30208, Note_on_c, 0, 58, 86
2, 30464, Note_off_c, 0, 77, 0
2, 30464, Note_on_c, 0, 74, 78
2, 30720, Note_off_c, 0, 74, 0
2, 30720, Note_on_c, 0, 70, 79
2, 30720, Note_off_c, 0, 58, 0
2, 30720, Note_on_c, 0, 63, 96
2, 30976, Note_off_c, 0, 68, 0
2, 30976, Note_off_c, 0, 70, 0
2, 30976, Note_on_c, 0, 75, 93
2, 30976, Note_on_c, 0, 67, 67
2, 31104, Note_off_c, 0, 75, 0
2, 31104, Note_off_c, 0, 67, 0
2, 31104, Note_on_c, 0, 77, 92
2, 31104, Note_on_c, 0, 68, 78
2, 31232, Note_off_c, 0, 77, 0
2, 31232, Note_off_c, 0, 68, 0
2, 31232, Note_on_c, 0, 79, 89
2, 31232, Note_on_c, 0, 70, 76
2, 31232, Note_off_c, 0, 63, 0
2, 31232, Note_on_c, 0, 51, 68
2, 31488, Note_off_c, 0, 79, 0
2, 31488, Note_off_c, 0, 70, 0
2, 31488, Note_on_c, 0, 75, 75
2, 31488, Note_on_c, 0, 67, 70
2, 31488, Note_on_c, 0, 63, 72
2, 31744, Note_off_c, 0, 75, 0
2, 31744, Note_off_c, 0, 67, 0
2, 31744, Note_on_c, 0, 77, 89
2, 31744, Note_on_c, 0, 65, 71
2, 31744, Note_off_c, 0, 51, 0
2, 31744, Note_off_c, 0, 63, 0
2, 31744, Note_on_c, 0, 62, 79
2, 31744, Note_on_c, 0, 58, 82
2, 32000, Note_off_c, 0, 77, 0
2, 32000, Note_off_c, 0, 65, 0
2, 32000, Note_on_c, 0, 75, 76
2, 32000, Note_on_c, 0, 70, 89
2, 32000, Note_off_c, 0, 62, 0
2, 32000, Note_on_c, 0, 67, 96
2, 32128, Note_off_c, 0, 75, 0
2, 32128, Note_on_c, 0, 74, 77
2, 32256, Note_off_c, 0, 70, 0
2, 32256, Note_off_c, 0, 74, 0
2, 32256, Note_on_c, 0, 72, 79
2, 32256, Note_on_c, 0, 68, 73
2, 32256, Note_off_c, 0, 58, 0
2, 32512, Note_off_c, 0, 72, 0
2, 32512, Note_off_c, 0, 68, 0
2, 32512, Note_on_c, 0, 74, 90
2, 32512, Note_on_c, 0, 70, 82
2, 32512, Note_off_c, 0, 67, 0
2, 32512, Note_on_c, 0, 65, 78
2, 32512, Note_on_c, 0, 56, 68
2, 32768, Note_off_c, 0, 74, 0
2, 32768, Note_off_c, 0, 70, 0
2, 32768, Note_on_c, 0, 75, 85
2, 32768, Note_on_c, 0, 58, 68
2, 32768, Note_off_c, 0, 65, 0
2, 32768, Note_off_c, 0, 56, 0
2, 32768, Note_on_c, 0, 63, 79
2, 32768, Note_on_c, 0, 55, 77
2, 33024, Note_off_c, 0, 75, 0
2, 33024, Note_off_c, 0, 58, 0
2, 33024, Note_off_c, 0, 63, 0
2, 33024, Note_off_c, 0, 55, 0
2, 33024, Note_on_c, 0, 63, 85
2, 33024, Note_on_c, 0, 60, 87
2, 33152, Note_off_c, 0, 63, 0
2, 33152, Note_on_c, 0, 62, 78
2, 33280, Note_off_c, 0, 62, 0
2, 33280, Note_on_c, 0, 63, 84
2, 33536, Note_off_c, 0, 60, 0
2, 33536, Note_off_c, 0, 63, 0
2, 33536, Note_on_c, 0, 67, 93
2, 33536, Note_on_c, 0, 58, 72
2, 33792, Note_on_c, 0, 60, 64
2, 33792, Note_off_c, 0, 67, 0
2, 33792, Note_off_c, 0, 58, 0
2, 33792, Note_on_c, 0, 56, 75
2, 34048, Note_off_c, 0, 60, 0
2, 34048, Note_on_c, 0, 65, 82
2, 34048, Note_off_c, 0, 56, 0
2, 34048, Note_on_c, 0, 56, 82
2, 34176, Note_off_c, 0, 56, 0
2, 34176, Note_on_c, 0, 55, 83
2, 34304, Note_off_c, 0, 55, 0
2, 34304, Note_on_c, 0, 56, 89
2, 34560, Note_off_c, 0, 65, 0
2, 34560, Note_on_c, 0, 63, 71
2, 34560, Note_off_c, 0, 56, 0
2, 34560, Note_on_c, 0, 60, 89
2, 34816, Note_off_c, 0, 63, 0
2, 34816, Note_on_c, 0, 62, 72
2, 34816, Note_off_c, 0, 60, 0
2, 34816, Note_on_c, 0, 53, 76
2, 35072, Note_off_c, 0, 62, 0
2, 35072, Note_on_c, 0, 62, 76
2, 35072, Note_off_c, 0, 53, 0
2, 35072, Note_on_c, 0, 58, 87
2, 35200, Note_off_c, 0, 62, 0
2, 35200, Note_on_c, 0, 60, 69
2, 35328, Note_off_c, 0, 60, 0
2, 35328, Note_on_c, 0, 62, 81
2, 35584, Note_off_c, 0, 62, 0
2, 35584, Note_on_c, 0, 65, 78
2, 35584, Note_off_c, 0, 58, 0
2, 35584, Note_on_c, 0, 56, 83
2, 35840, Note_off_c, 0, 65, 0
2, 35840, Note_off_c, 0, 56, 0
2, 35840, Note_on_c, 0, 58, 87
2, 35840, Note_on_c, 0, 55, 69
2, 36096, Note_off_c, 0, 58, 0
2, 36096, Note_off_c, 0, 55, 0
2, 36096, Note_on_c, 0, 58, 88
2, 36096, Note_on_c, 0, 55, 75
2, 36224, Note_off_c, 0, 58, 0
2, 36224, Note_off_c, 0, 55, 0
2, 36224, Note_on_c, 0, 56, 82
2, 36224, Note_on_c, 0, 53, 75
2, 36352, Note_off_c, 0, 56, 0
2, 36352, Note_off_c, 0, 53, 0
2, 36352, Note_on_c, 0, 58, 85
2, 36352, Note_on_c, 0, 55, 73
2, 36608, Note_off_c, 0, 58, 0
2, 36608, Note_off_c, 0, 55, 0
2, 36608, Note_on_c, 0, 62, 88
2, 36608, Note_on_c, 0, 58, 77
2, 36864, Note_on_c, 0, 70, 89
2, 36864, Note_off_c, 0, 62, 0
2, 36864, Note_off_c, 0, 58, 0
2, 36864, Note_on_c, 0, 55, 84
2, 36864, Note_on_c, 0, 51, 65
2, 37120, Note_off_c, 0, 51, 0
2, 37120, Note_on_c, 0, 51, 78
2, 37248, Note_off_c, 0, 51, 0
2, 37248, Note_on_c, 0, 50, 74
2, 37376, Note_off_c, 0, 55, 0
2, 37376, Note_off_c, 0, 50, 0
2, 37376, Note_on_c, 0, 67, 102
2, 37376, Note_on_c, 0, 51, 81
2, 37632, Note_off_c, 0, 51, 0
2, 37632, Note_on_c, 0, 55, 81
2, 37888, Note_off_c, 0, 70, 0
2, 37888, Note_on_c, 0, 75, 77
2, 37888, Note_off_c, 0, 67, 0
2, 37888, Note_off_c, 0, 55, 0
2, 37888, Note_on_c, 0, 48, 71
2, 38144, Note_on_c, 0, 67, 75
2, 38272, Note_off_c, 0, 67, 0
2, 38272, Note_on_c, 0, 65, 75
2, 38400, Note_off_c, 0, 48, 0
2, 38400, Note_off_c, 0, 65, 0
2, 38400, Note_on_c, 0, 67, 88
2, 38400, Note_on_c, 0, 60, 98
2, 38656, Note_on_c, 0, 75, 66
2, 38656, Note_off_c, 0, 67, 0
2, 38656, Note_on_c, 0, 69, 91
2, 38912, Note_off_c, 0, 75, 0
2, 38912, Note_off_c, 0, 75, 0
2, 38912, Note_on_c, 0, 82, 95
2, 38912, Note_on_c, 0, 74, 72
2, 38912, Note_off_c, 0, 60, 0
2, 38912, Note_off_c, 0, 69, 0
2, 38912, Note_on_c, 0, 70, 86
2, 38912, Note_on_c, 0, 58, 73
2, 39168, Note_off_c, 0, 74, 0
2, 39168, Note_on_c, 0, 79, 86
2, 39168, Note_off_c, 0, 70, 0
2, 39168, Note_off_c, 0, 58, 0
2, 39168, Note_on_c, 0, 62, 68
2, 39168, Note_on_c, 0, 58, 75
2, 39296, Note_off_c, 0, 62, 0
2, 39296, Note_off_c, 0, 58, 0
2, 39296, Note_on_c, 0, 60, 75
2, 39296, Note_on_c, 0, 56, 74
2, 39424, Note_off_c, 0, 82, 0
2, 39424, Note_off_c, 0, 60, 0
2, 39424, Note_off_c, 0, 56, 0
2, 39424, Note_on_c, 0, 62, 89
2, 39424, Note_on_c, 0, 58, 74
2, 39680, Note_off_c, 0, 79, 0
2, 39680, Note_on_c, 0, 80, 72
2, 39680, Note_on_c, 0, 77, 74
2, 39680, Note_off_c, 0, 62, 0
2, 39680, Note_off_c, 0, 58, 0
2, 39680, Note_on_c, 0, 65, 93
2, 39680, Note_on_c, 0, 62, 85
2, 39936, Note_off_c, 0, 80, 0
2, 39936, Note_off_c, 0, 77, 0
2, 39936, Note_on_c, 0, 79, 76
2, 39936, Note_on_c, 0, 75, 75
2, 39936, Note_off_c, 0, 65, 0
2, 39936, Note_off_c, 0, 62, 0
2, 39936, Note_on_c, 0, 67, 88
2, 39936, Note_on_c, 0, 63, 79
2, 40192, Note_off_c, 0, 79, 0
2, 40192, Note_off_c, 0, 75, 0
2, 40192, Note_on_c, 0, 84, 97
2, 40192, Note_on_c, 0, 75, 75
2, 40192, Note_off_c, 0, 67, 0
2, 40192, Note_on_c, 0, 67, 85
2, 40320, Note_off_c, 0, 75, 0
2, 40320, Note_on_c, 0, 74, 73
2, 40320, Note_off_c, 0, 67, 0
2, 40320, Note_on_c, 0, 65, 79
2, 40448, Note_off_c, 0, 74, 0
2, 40448, Note_on_c, 0, 75, 77
2, 40448, Note_off_c, 0, 63, 0
2, 40448, Note_off_c, 0, 65, 0
2, 40448, Note_on_c, 0, 67, 94
2, 40704, Note_off_c, 0, 84, 0
2, 40704, Note_off_c, 0, 75, 0
2, 40704, Note_on_c, 0, 82, 80
2, 40704, Note_on_c, 0, 79, 79
2, 40704, Note_on_c, 0, 64, 72
2, 40960, Note_off_c, 0, 82, 0
2, 40960, Note_off_c, 0, 79, 0
2, 40960, Note_on_c, 0, 80, 77
2, 40960, Note_on_c, 0, 72, 64
2, 40960, Note_off_c, 0, 64, 0
2, 40960, Note_on_c, 0, 65, 79
2, 41216, Note_off_c, 0, 80, 0
2, 41216, Note_off_c, 0, 72, 0
2, 41216, Note_on_c, 0, 80, 79
2, 41216, Note_on_c, 0, 77, 82
2, 41216, Note_off_c, 0, 67, 0
2, 41216, Note_off_c, 0, 65, 0
2, 41216, Note_on_c, 0, 60, 65
2, 41216, Note_on_c, 0, 53, 64
2, 41344, Note_off_c, 0, 80, 0
2, 41344, Note_on_c, 0, 79, 81
2, 41344, Note_off_c, 0, 53, 0
2, 41344, Note_on_c, 0, 52, 70
2, 41472, Note_off_c, 0, 79, 0
2, 41472, Note_on_c, 0, 80, 90
2, 41472, Note_off_c, 0, 60, 0
2, 41472, Note_off_c, 0, 52, 0
2, 41472, Note_on_c, 0, 65, 91
2, 41472, Note_on_c, 0, 53, 77
2, 41728, Note_off_c, 0, 77, 0
2, 41728, Note_off_c, 0, 80, 0
2, 41728, Note_on_c, 0, 84, 93
2, 41728, Note_on_c, 0, 75, 77
2, 41728, Note_off_c, 0, 53, 0
2, 41728, Note_on_c, 0, 57, 79
2, 41984, Note_off_c, 0, 84, 0
2, 41984, Note_off_c, 0, 75, 0
2, 41984, Note_on_c, 0, 77, 66
2, 41984, Note_on_c, 0, 74, 71
2, 41984, Note_off_c, 0, 65, 0
2, 41984, Note_off_c, 0, 57, 0
2, 41984, Note_on_c, 0, 65, 84
2, 41984, Note_on_c, 0, 58, 83
2, 42240, Note_off_c, 0, 77, 0
2, 42240, Note_off_c, 0, 74, 0
2, 42240, Note_on_c, 0, 82, 92
2, 42240, Note_on_c, 0, 74, 75
2, 42240, Note_off_c, 0, 65, 0
2, 42240, Note_on_c, 0, 65, 84
2, 42368, Note_off_c, 0, 74, 0
2, 42368, Note_on_c, 0, 72, 70
2, 42368, Note_off_c, 0, 65, 0
2, 42368, Note_on_c, 0, 63, 86
2, 42496, Note_off_c, 0, 72, 0
2, 42496, Note_on_c, 0, 74, 83
2, 42496, Note_off_c, 0, 58, 0
2, 42496, Note_off_c, 0, 63, 0
2, 42496, Note_on_c, 0, 65, 88
2, 42752, Note_off_c, 0, 82, 0
2, 42752, Note_off_c, 0, 74, 0
2, 42752, Note_on_c, 0, 80, 76
2, 42752, Note_on_c, 0, 77, 81
2, 42752, Note_on_c, 0, 62, 71
2, 43008, Note_off_c, 0, 80, 0
2, 43008, Note_off_c, 0, 77, 0
2, 43008, Note_on_c, 0, 79, 76
2, 43008, Note_on_c, 0, 70, 69
2, 43008, Note_off_c, 0, 62, 0
2, 43008, Note_on_c, 0, 63, 76
2, 43264, Note_off_c, 0, 79, 0
2, 43264, Note_off_c, 0, 70, 0
2, 43264, Note_on_c, 0, 79, 87
2, 43264, Note_on_c, 0, 70, 71
2, 43264, Note_off_c, 0, 65, 0
2, 43264, Note_off_c, 0, 63, 0
2, 43264, Note_on_c, 0, 58, 82
2, 43264, Note_on_c, 0, 51, 65
2, 43392, Note_off_c, 0, 79, 0
2, 43392, Note_off_c, 0, 70, 0
2, 43392, Note_on_c, 0, 77, 81
2, 43392, Note_on_c, 0, 68, 72
2, 43520, Note_off_c, 0, 77, 0
2, 43520, Note_off_c, 0, 68, 0
2, 43520, Note_on_c, 0, 79, 88
2, 43520, Note_on_c, 0, 70, 83
2, 43520, Note_off_c, 0, 58, 0
2, 43520, Note_off_c, 0, 51, 0
2, 43520, Note_on_c, 0, 63, 89
2, 43648, Note_on_c, 0, 62, 75
2, 43776, Note_off_c, 0, 79, 0
2, 43776, Note_off_c, 0, 70, 0
2, 43776, Note_on_c, 0, 82, 92
2, 43776, Note_on_c, 0, 74, 87
2, 43776, Note_off_c, 0, 63, 0
2, 43776, Note_off_c, 0, 62, 0
2, 43776, Note_on_c, 0, 60, 70
2, 43904, Note_off_c, 0, 60, 0
2, 43904, Note_on_c, 0, 58, 74
2, 44032, Note_off_c, 0, 82, 0
2, 44032, Note_off_c, 0, 74, 0
2, 44032, Note_on_c, 0, 75, 69
2, 44032, Note_on_c, 0, 67, 61
2, 44032, Note_off_c, 0, 58, 0
2, 44032, Note_on_c, 0, 60, 79
2, 44288, Note_off_c, 0, 75, 0
2, 44288, Note_off_c, 0, 67, 0
2, 44288, Note_on_c, 0, 75, 78
2, 44288, Note_on_c, 0, 69, 76
2, 44288, Note_off_c, 0, 60, 0
2, 44288, Note_on_c, 0, 48, 65
2, 44416, Note_off_c, 0, 75, 0
2, 44416, Note_off_c, 0, 69, 0
2, 44416, Note_on_c, 0, 74, 85
2, 44416, Note_on_c, 0, 71, 79
2, 44544, Note_off_c, 0, 74, 0
2, 44544, Note_off_c, 0, 71, 0
2, 44544, Note_on_c, 0, 75, 83
2, 44544, Note_on_c, 0, 72, 81
2, 44544, Note_off_c, 0, 48, 0
2, 44544, Note_on_c, 0, 60, 99
2, 44672, Note_off_c, 0, 60, 0
2, 44672, Note_on_c, 0, 58, 80
2, 44800, Note_off_c, 0, 75, 0
2, 44800, Note_off_c, 0, 72, 0
2, 44800, Note_on_c, 0, 79, 89
2, 44800, Note_on_c, 0, 71, 73
2, 44800, Note_off_c, 0, 58, 0
2, 44800, Note_on_c, 0, 56, 75
2, 44928, Note_off_c, 0, 56, 0
2, 44928, Note_on_c, 0, 55, 73
2, 45056, Note_off_c, 0, 79, 0
2, 45056, Note_off_c, 0, 71, 0
2, 45056, Note_on_c, 0, 72, 72
2, 45056, Note_off_c, 0, 55, 0
2, 45056, Note_on_c, 0, 56, 80
2, 45312, Note_on_c, 0, 74, 70
2, 45312, Note_off_c, 0, 56, 0
2, 45312, Note_on_c, 0, 44, 67
2, 45440, Note_off_c, 0, 74, 0
2, 45440, Note_on_c, 0, 75, 75
2, 45568, Note_off_c, 0, 75, 0
2, 45568, Note_on_c, 0, 77, 76
2, 45568, Note_off_c, 0, 44, 0
2, 45568, Note_on_c, 0, 56, 87
2, 45696, Note_off_c, 0, 72, 0
2, 45696, Note_on_c, 0, 71, 77
2, 45824, Note_off_c, 0, 71, 0
2, 45824, Note_on_c, 0, 72, 79
2, 45824, Note_off_c, 0, 56, 0
2, 45824, Note_on_c, 0, 55, 77
2, 45952, Note_off_c, 0, 72, 0
2, 45952, Note_on_c, 0, 74, 82
2, 45952, Note_off_c, 0, 55, 0
2, 45952, Note_on_c, 0, 53, 75
2, 46080, Note_off_c, 0, 74, 0
2, 46080, Note_on_c, 0, 71, 67
2, 46080, Note_off_c, 0, 53, 0
2, 46080, Note_on_c, 0, 55, 81
2, 46336, Note_off_c, 0, 71, 0
2, 46336, Note_on_c, 0, 67, 68
2, 46592, Note_off_c, 0, 77, 0
2, 46592, Note_off_c, 0, 67, 0
2, 46592, Note_on_c, 0, 75, 80
2, 46592, Note_on_c, 0, 72, 86
2, 46720, Note_off_c, 0, 75, 0
2, 46720, Note_on_c, 0, 74, 83
2, 46848, Note_off_c, 0, 74, 0
2, 46848, Note_on_c, 0, 75, 86
2, 46976, Note_off_c, 0, 75, 0
2, 46976, Note_on_c, 0, 77, 88
2, 47104, Note_off_c, 0, 77, 0
2, 47104, Note_on_c, 0, 74, 79
2, 47232, Note_off_c, 0, 55, 0
2, 47232, Note_on_c, 0, 53, 73
2, 47360, Note_off_c, 0, 74, 0
2, 47360, Note_on_c, 0, 79, 95
2, 47360, Note_off_c, 0, 53, 0
2, 47360, Note_on_c, 0, 55, 73
2, 47488, Note_off_c, 0, 55, 0
2, 47488, Note_on_c, 0, 56, 79
2, 47616, Note_off_c, 0, 72, 0
2, 47616, Note_on_c, 0, 70, 69
2, 47616, Note_off_c, 0, 56, 0
2, 47616, Note_on_c, 0, 55, 70
2, 47744, Note_off_c, 0, 55, 0
2, 47744, Note_on_c, 0, 53, 73
2, 47872, Note_off_c, 0, 79, 0
2, 47872, Note_on_c, 0, 77, 80
2, 47872, Note_off_c, 0, 53, 0
2, 47872, Note_on_c, 0, 52, 75
2, 48000, Note_off_c, 0, 52, 0
2, 48000, Note_on_c, 0, 50, 73
2, 48128, Note_off_c, 0, 77, 0
2, 48128, Note_on_c, 0, 76, 78
2, 48128, Note_off_c, 0, 50, 0
2, 48128, Note_on_c, 0, 48, 73
2, 48384, Note_off_c, 0, 76, 0
2, 48384, Note_on_c, 0, 72, 79
2, 48640, Note_off_c, 0, 70, 0
2, 48640, Note_off_c, 0, 72, 0
2, 48640, Note_on_c, 0, 77, 92
2, 48640, Note_on_c, 0, 68, 82
2, 48768, Note_off_c, 0, 68, 0
2, 48768, Note_on_c, 0, 67, 76
2, 48896, Note_off_c, 0, 67, 0
2, 48896, Note_on_c, 0, 68, 77
2, 49024, Note_off_c, 0, 68, 0
2, 49024, Note_on_c, 0, 70, 79
2, 49152, Note_off_c, 0, 70, 0
2, 49152, Note_on_c, 0, 67, 72
2, 49280, Note_off_c, 0, 48, 0
2, 49280, Note_on_c, 0, 46, 73
2, 49408, Note_off_c, 0, 67, 0
2, 49408, Note_on_c, 0, 72, 92
2, 49408, Note_off_c, 0, 46, 0
2, 49408, Note_on_c, 0, 48, 80
2, 49536, Note_off_c, 0, 48, 0
2, 49536, Note_on_c, 0, 50, 80
2, 49664, Note_off_c, 0, 77, 0
2, 49664, Note_on_c, 0, 75, 79
2, 49664, Note_off_c, 0, 50, 0
2, 49664, Note_on_c, 0, 48, 76
2, 49792, Note_off_c, 0, 48, 0
2, 49792, Note_on_c, 0, 46, 70
2, 49920, Note_off_c, 0, 72, 0
2, 49920, Note_on_c, 0, 70, 76
2, 49920, Note_off_c, 0, 46, 0
2, 49920, Note_on_c, 0, 45, 70
2, 50048, Note_off_c, 0, 45, 0
2, 50048, Note_on_c, 0, 43, 70
2, 50176, Note_off_c, 0, 70, 0
2, 50176, Note_on_c, 0, 69, 76
2, 50176, Note_off_c, 0, 43, 0
2, 50176, Note_on_c, 0, 41, 75
2, 50432, Note_off_c, 0, 69, 0
2, 50432, Note_on_c, 0, 65, 65
2, 50688, Note_off_c, 0, 75, 0
2, 50688, Note_off_c, 0, 65, 0
2, 50688, Note_on_c, 0, 74, 79
2, 50688, Note_on_c, 0, 70, 86
2, 50816, Note_off_c, 0, 74, 0
2, 50816, Note_on_c, 0, 72, 78
2, 50944, Note_off_c, 0, 72, 0
2, 50944, Note_on_c, 0, 74, 93
2, 51072, Note_off_c, 0, 74, 0
2, 51072, Note_on_c, 0, 75, 84
2, 51200, Note_off_c, 0, 75, 0
2, 51200, Note_on_c, 0, 72, 77
2, 51328, Note_off_c, 0, 41, 0
2, 51328, Note_on_c, 0, 51, 82
2, 51456, Note_off_c, 0, 72, 0
2, 51456, Note_on_c, 0, 77, 95
2, 51456, Note_off_c, 0, 51, 0
2, 51456, Note_on_c, 0, 53, 85
2, 51584, Note_off_c, 0, 53, 0
2, 51584, Note_on_c, 0, 55, 79
2, 51712, Note_off_c, 0, 70, 0
2, 51712, Note_on_c, 0, 68, 71
2, 51712, Note_off_c, 0, 55, 0
2, 51712, Note_on_c, 0, 53, 80
2, 51840, Note_off_c, 0, 53, 0
2, 51840, Note_on_c, 0, 51, 75
2, 51968, Note_off_c, 0, 77, 0
2, 51968, Note_on_c, 0, 75, 87
2, 51968, Note_off_c, 0, 51, 0
2, 51968, Note_on_c, 0, 50, 75
2, 52096, Note_off_c, 0, 50, 0
2, 52096, Note_on_c, 0, 48, 72
2, 52224, Note_off_c, 0, 75, 0
2, 52224, Note_on_c, 0, 74, 81
2, 52224, Note_off_c, 0, 48, 0
2, 52224, Note_on_c, 0, 46, 72
2, 52480, Note_off_c, 0, 74, 0
2, 52480, Note_on_c, 0, 70, 71
2, 52736, Note_off_c, 0, 68, 0
2, 52736, Note_off_c, 0, 70, 0
2, 52736, Note_on_c, 0, 75, 97
2, 52736, Note_on_c, 0, 67, 70
2, 52864, Note_off_c, 0, 67, 0
2, 52864, Note_on_c, 0, 65, 73
2, 52992, Note_off_c, 0, 65, 0
2, 52992, Note_on_c, 0, 67, 76
2, 53120, Note_off_c, 0, 67, 0
2, 53120, Note_on_c, 0, 68, 81
2, 53248, Note_off_c, 0, 68, 0
2, 53248, Note_on_c, 0, 65, 67
2, 53376, Note_off_c, 0, 46, 0
2, 53376, Note_on_c, 0, 56, 87
2, 53504, Note_off_c, 0, 65, 0
2, 53504, Note_on_c, 0, 70, 81
2, 53504, Note_off_c, 0, 56, 0
2, 53504, Note_on_c, 0, 58, 77
2, 53632, Note_off_c, 0, 58, 0
2, 53632, Note_on_c, 0, 60, 82
2, 53760, Note_off_c, 0, 75, 0
2, 53760, Note_on_c, 0, 73, 73
2, 53760, Note_off_c, 0, 60, 0
2, 53760, Note_on_c, 0, 58, 74
2, 53888, Note_on_c, 0, 56, 73
2, 54016, Note_off_c, 0, 70, 0
2, 54016, Note_on_c, 0, 68, 72
2, 54016, Note_off_c, 0, 56, 0
2, 54016, Note_on_c, 0, 55, 75
2, 54144, Note_off_c, 0, 55, 0
2, 54144, Note_on_c, 0, 53, 72
2, 54272, Note_off_c, 0, 68, 0
2, 54272, Note_on_c, 0, 70, 79
2, 54272, Note_off_c, 0, 58, 0
2, 54272, Note_off_c, 0, 53, 0
2, 54272, Note_on_c, 0, 63, 93
2, 54272, Note_on_c, 0, 55, 78
2, 54528, Note_off_c, 0, 73, 0
2, 54528, Note_off_c, 0, 70, 0
2, 54528, Note_on_c, 0, 72, 81
2, 54528, Note_on_c, 0, 68, 76
2, 54528, Note_off_c, 0, 55, 0
2, 54528, Note_on_c, 0, 56, 76
2, 54784, Note_off_c, 0, 72, 0
2, 54784, Note_on_c, 0, 70, 78
2, 54784, Note_off_c, 0, 63, 0
2, 54784, Note_off_c, 0, 56, 0
2, 54784, Note_on_c, 0, 50, 72
2, 55040, Note_off_c, 0, 68, 0
2, 55040, Note_on_c, 0, 67, 70
2, 55040, Note_off_c, 0, 50, 0
2, 55040, Note_on_c, 0, 61, 80
2, 55040, Note_on_c, 0, 52, 78
2, 55296, Note_off_c, 0, 70, 0
2, 55296, Note_on_c, 0, 68, 81
2, 55296, Note_off_c, 0, 61, 0
2, 55296, Note_off_c, 0, 52, 0
2, 55296, Note_on_c, 0, 60, 76
2, 55296, Note_on_c, 0, 53, 78
2, 55552, Note_off_c, 0, 67, 0
2, 55552, Note_on_c, 0, 65, 68
2, 55552, Note_off_c, 0, 60, 0
2, 55552, Note_on_c, 0, 65, 93
2, 55680, Note_off_c, 0, 65, 0
2, 55680, Note_on_c, 0, 67, 81
2, 55808, Note_off_c, 0, 68, 0
2, 55808, Note_off_c, 0, 67, 0
2, 55808, Note_on_c, 0, 68, 82
2, 55936, Note_off_c, 0, 53, 0
2, 55936, Note_on_c, 0, 51, 76
2, 56064, Note_off_c, 0, 65, 0
2, 56064, Note_off_c, 0, 51, 0
2, 56064, Note_on_c, 0, 63, 78
2, 56064, Note_on_c, 0, 49, 75
2, 56192, Note_off_c, 0, 49, 0
2, 56192, Note_on_c, 0, 48, 75
2, 56320, Note_off_c, 0, 63, 0
2, 56320, Note_off_c, 0, 48, 0
2, 56320, Note_on_c, 0, 61, 81
2, 56320, Note_on_c, 0, 46, 73
2, 56576, Note_off_c, 0, 68, 0
2, 56576, Note_on_c, 0, 65, 75
2, 56576, Note_off_c, 0, 61, 0
2, 56576, Note_on_c, 0, 61, 81
2, 56704, Note_off_c, 0, 61, 0
2, 56704, Note_on_c, 0, 60, 80
2, 56832, Note_off_c, 0, 65, 0
2, 56832, Note_on_c, 0, 70, 91
2, 56832, Note_off_c, 0, 60, 0
2, 56832, Note_on_c, 0, 61, 91
2, 56960, Note_off_c, 0, 46, 0
2, 56960, Note_on_c, 0, 46, 80
2, 57088, Note_off_c, 0, 70, 0
2, 57088, Note_on_c, 0, 68, 76
2, 57088, Note_off_c, 0, 61, 0
2, 57088, Note_off_c, 0, 46, 0
2, 57088, Note_on_c, 0, 65, 94
2, 57088, Note_on_c, 0, 48, 81
2, 57216, Note_off_c, 0, 48, 0
2, 57216, Note_on_c, 0, 49, 78
2, 57344, Note_off_c, 0, 68, 0
2, 57344, Note_on_c, 0, 67, 72
2, 57344, Note_off_c, 0, 65, 0
2, 57344, Note_off_c, 0, 49, 0
2, 57344, Note_on_c, 0, 58, 79
2, 57344, Note_on_c, 0, 51, 77
2, 57600, Note_off_c, 0, 67, 0
2, 57600, Note_on_c, 0, 67, 77
2, 57600, Note_off_c, 0, 58, 0
2, 57600, Note_on_c, 0, 63, 99
2, 57728, Note_off_c, 0, 67, 0
2, 57728, Note_on_c, 0, 65, 65
2, 57856, Note_off_c, 0, 65, 0
2, 57856, Note_on_c, 0, 67, 80
2, 57984, Note_off_c, 0, 51, 0
2, 57984, Note_on_c, 0, 39, 66
2, 58112, Note_off_c, 0, 67, 0
2, 58112, Note_on_c, 0, 70, 88
2, 58112, Note_off_c, 0, 63, 0
2, 58112, Note_off_c, 0, 39, 0
2, 58112, Note_on_c, 0, 61, 75
2, 58112, Note_on_c, 0, 41, 80
2, 58240, Note_off_c, 0, 41, 0
2, 58240, Note_on_c, 0, 43, 80
2, 58368, Note_off_c, 0, 70, 0
2, 58368, Note_on_c, 0, 63, 67
2, 58368, Note_off_c, 0, 61, 0
2, 58368, Note_off_c, 0, 43, 0
2, 58368, Note_on_c, 0, 60, 80
2, 58368, Note_on_c, 0, 44, 76
2, 58496, Note_off_c, 0, 44, 0
2, 58496, Note_on_c, 0, 46, 82
2, 58624, Note_off_c, 0, 63, 0
2, 58624, Note_on_c, 0, 68, 83
2, 58624, Note_off_c, 0, 60, 0
2, 58624, Note_off_c, 0, 46, 0
2, 58624, Note_on_c, 0, 60, 83
2, 58624, Note_on_c, 0, 48, 76
2, 58752, Note_off_c, 0, 60, 0
2, 58752, Note_off_c, 0, 48, 0
2, 58752, Note_on_c, 0, 58, 75
2, 58752, Note_on_c, 0, 49, 78
2, 58880, Note_off_c, 0, 58, 0
2, 58880, Note_off_c, 0, 49, 0
2, 58880, Note_on_c, 0, 60, 94
2, 58880, Note_on_c, 0, 51, 78
2, 59136, Note_off_c, 0, 68, 0
2, 59136, Note_on_c, 0, 67, 71
2, 59136, Note_off_c, 0, 60, 0
2, 59136, Note_on_c, 0, 63, 90
2, 59392, Note_off_c, 0, 67, 0
2, 59392, Note_on_c, 0, 70, 77
2, 59392, Note_on_c, 0, 65, 70
2, 59392, Note_off_c, 0, 51, 0
2, 59392, Note_off_c, 0, 63, 0
2, 59392, Note_on_c, 0, 56, 79
2, 59392, Note_on_c, 0, 51, 78
2, 59648, Note_off_c, 0, 65, 0
2, 59648, Note_on_c, 0, 65, 79
2, 59648, Note_off_c, 0, 56, 0
2, 59648, Note_on_c, 0, 56, 84
2, 59776, Note_off_c, 0, 65, 0
2, 59776, Note_on_c, 0, 63, 71
2, 59776, Note_off_c, 0, 56, 0
2, 59776, Note_on_c, 0, 55, 84
2, 59904, Note_off_c, 0, 63, 0
2, 59904, Note_on_c, 0, 65, 80
2, 59904, Note_off_c, 0, 51, 0
2, 59904, Note_off_c, 0, 55, 0
2, 59904, Note_on_c, 0, 56, 86
2, 59904, Note_on_c, 0, 50, 74
2, 60160, Note_off_c, 0, 65, 0
2, 60160, Note_on_c, 0, 67, 82
2, 60160, Note_off_c, 0, 56, 0
2, 60160, Note_on_c, 0, 58, 87
2, 60288, Note_off_c, 0, 67, 0
2, 60288, Note_on_c, 0, 65, 78
2, 60288, Note_off_c, 0, 58, 0
2, 60288, Note_on_c, 0, 56, 81
2, 60416, Note_off_c, 0, 70, 0
2, 60416, Note_off_c, 0, 65, 0
2, 60416, Note_on_c, 0, 75, 91
2, 60416, Note_on_c, 0, 63, 67
2, 60416, Note_off_c, 0, 50, 0
2, 60416, Note_off_c, 0, 56, 0
2, 60416, Note_on_c, 0, 55, 79
2, 60416, Note_on_c, 0, 51, 75
2, 60672, Note_off_c, 0, 63, 0
2, 60672, Note_on_c, 0, 67, 88
2, 60672, Note_off_c, 0, 55, 0
2, 60672, Note_on_c, 0, 58, 88
2, 60800, Note_off_c, 0, 67, 0
2, 60800, Note_on_c, 0, 65, 67
2, 60800, Note_off_c, 0, 58, 0
2, 60800, Note_on_c, 0, 56, 77
2, 60928, Note_off_c, 0, 75, 0
2, 60928, Note_off_c, 0, 65, 0
2, 60928, Note_on_c, 0, 67, 81
2, 60928, Note_off_c, 0, 56, 0
2, 60928, Note_on_c, 0, 58, 85
2, 61184, Note_off_c, 0, 67, 0
2, 61184, Note_on_c, 0, 75, 75
2, 61184, Note_on_c, 0, 69, 81
2, 61184, Note_off_c, 0, 58, 0
2, 61184, Note_on_c, 0, 60, 92
2, 61312, Note_off_c, 0, 69, 0
2, 61312, Note_on_c, 0, 67, 77
2, 61440, Note_off_c, 0, 75, 0
2, 61440, Note_off_c, 0, 67, 0
2, 61440, Note_on_c, 0, 74, 72
2, 61440, Note_on_c, 0, 65, 74
2, 61440, Note_off_c, 0, 51, 0
2, 61440, Note_off_c, 0, 60, 0
2, 61440, Note_on_c, 0, 62, 90
2, 61440, Note_on_c, 0, 58, 84
2, 61696, Note_off_c, 0, 74, 0
2, 61696, Note_off_c, 0, 65, 0
2, 61696, Note_on_c, 0, 79, 96
2, 61696, Note_on_c, 0, 70, 86
2, 61696, Note_off_c, 0, 62, 0
2, 61696, Note_on_c, 0, 62, 85
2, 61824, Note_off_c, 0, 70, 0
2, 61824, Note_on_c, 0, 68, 71
2, 61824, Note_off_c, 0, 62, 0
2, 61824, Note_on_c, 0, 60, 79
2, 61952, Note_off_c, 0, 68, 0
2, 61952, Note_on_c, 0, 70, 76
2, 61952, Note_off_c, 0, 58, 0
2, 61952, Note_off_c, 0, 60, 0
2, 61952, Note_on_c, 0, 62, 89
2, 62208, Note_off_c, 0, 79, 0
2, 62208, Note_off_c, 0, 70, 0
2, 62208, Note_on_c, 0, 77, 83
2, 62208, Note_on_c, 0, 74, 85
2, 62208, Note_off_c, 0, 62, 0
2, 62208, Note_on_c, 0, 65, 95
2, 62208, Note_on_c, 0, 56, 68
2, 62464, Note_off_c, 0, 77, 0
2, 62464, Note_off_c, 0, 74, 0
2, 62464, Note_on_c, 0, 75, 78
2, 62464, Note_off_c, 0, 65, 0
2, 62464, Note_off_c, 0, 56, 0
2, 62464, Note_on_c, 0, 70, 92
2, 62464, Note_on_c, 0, 55, 74
2, 62720, Note_off_c, 0, 75, 0
2, 62720, Note_on_c, 0, 75, 82
2, 62720, Note_on_c, 0, 72, 66
2, 62720, Note_off_c, 0, 70, 0
2, 62720, Note_off_c, 0, 55, 0
2, 62720, Note_on_c, 0, 67, 77
2, 62720, Note_on_c, 0, 60, 91
2, 62848, Note_off_c, 0, 75, 0
2, 62848, Note_on_c, 0, 74, 78
2, 62976, Note_off_c, 0, 72, 0
2, 62976, Note_off_c, 0, 74, 0
2, 62976, Note_on_c, 0, 75, 91
2, 62976, Note_on_c, 0, 67, 61
2, 62976, Note_off_c, 0, 67, 0
2, 62976, Note_on_c, 0, 63, 75
2, 63232, Note_off_c, 0, 75, 0
2, 63232, Note_on_c, 0, 79, 97
2, 63232, Note_off_c, 0, 60, 0
2, 63232, Note_on_c, 0, 58, 73
2, 63488, Note_off_c, 0, 67, 0
2, 63488, Note_off_c, 0, 79, 0
2, 63488, Note_on_c, 0, 72, 68
2, 63488, Note_on_c, 0, 68, 78
2, 63488, Note_off_c, 0, 58, 0
2, 63488, Note_on_c, 0, 56, 76
2, 63744, Note_off_c, 0, 72, 0
2, 63744, Note_off_c, 0, 68, 0
2, 63744, Note_on_c, 0, 77, 86
2, 63744, Note_on_c, 0, 68, 75
2, 63744, Note_off_c, 0, 63, 0
2, 63744, Note_off_c, 0, 56, 0
2, 63744, Note_on_c, 0, 60, 78
2, 63744, Note_on_c, 0, 56, 78
2, 63872, Note_off_c, 0, 60, 0
2, 63872, Note_off_c, 0, 56, 0
2, 63872, Note_on_c, 0, 58, 83
2, 63872, Note_on_c, 0, 55, 71
2, 64000, Note_off_c, 0, 58, 0
2, 64000, Note_off_c, 0, 55, 0
2, 64000, Note_on_c, 0, 60, 86
2, 64000, Note_on_c, 0, 56, 77
2, 64256, Note_off_c, 0, 77, 0
2, 64256, Note_off_c, 0, 68, 0
2, 64256, Note_on_c, 0, 75, 80
2, 64256, Note_on_c, 0, 67, 76
2, 64256, Note_off_c, 0, 60, 0
2, 64256, Note_off_c, 0, 56, 0
2, 64256, Note_on_c, 0, 63, 90
2, 64256, Note_on_c, 0, 60, 84
2, 64512, Note_off_c, 0, 75, 0
2, 64512, Note_off_c, 0, 67, 0
2, 64512, Note_on_c, 0, 74, 80
2, 64512, Note_on_c, 0, 68, 79
2, 64512, Note_off_c, 0, 63, 0
2, 64512, Note_off_c, 0, 60, 0
2, 64512, Note_on_c, 0, 65, 86
2, 64512, Note_on_c, 0, 53, 67
2, 64768, Note_off_c, 0, 74, 0
2, 64768, Note_off_c, 0, 68, 0
2, 64768, Note_on_c, 0, 74, 85
2, 64768, Note_on_c, 0, 65, 66
2, 64768, Note_off_c, 0, 65, 0
2, 64768, Note_off_c, 0, 53, 0
2, 64768, Note_on_c, 0, 62, 73
2, 64768, Note_on_c, 0, 58, 81
2, 64896, Note_off_c, 0, 74, 0
2, 64896, Note_on_c, 0, 72, 78
2, 65024, Note_off_c, 0, 65, 0
2, 65024, Note_off_c, 0, 72, 0
2, 65024, Note_on_c, 0, 74, 84
2, 65024, Note_on_c, 0, 70, 88
2, 65024, Note_off_c, 0, 62, 0
2, 65024, Note_on_c, 0, 67, 94
2, 65280, Note_off_c, 0, 74, 0
2, 65280, Note_on_c, 0, 77, 91
2, 65280, Note_off_c, 0, 58, 0
2, 65280, Note_off_c, 0, 67, 0
2, 65280, Note_on_c, 0, 62, 72
2, 65280, Note_on_c, 0, 56, 75
2, 65536, Note_off_c, 0, 77, 0
2, 65536, Note_on_c, 0, 70, 93
2, 65536, Note_off_c, 0, 62, 0
2, 65536, Note_off_c, 0, 56, 0
2, 65536, Note_on_c, 0, 63, 90
2, 65536, Note_on_c, 0, 55, 76
2, 65792, Note_off_c, 0, 70, 0
2, 65792, Note_off_c, 0, 70, 0
2, 65792, Note_on_c, 0, 75, 95
2, 65792, Note_off_c, 0, 63, 0
2, 65792, Note_off_c, 0, 55, 0
2, 65792, Note_on_c, 0, 55, 76
2, 65920, Note_off_c, 0, 55, 0
2, 65920, Note_on_c, 0, 53, 74
2, 66048, Note_off_c, 0, 75, 0
2, 66048, Note_on_c, 0, 73, 77
2, 66048, Note_off_c, 0, 53, 0
2, 66048, Note_on_c, 0, 55, 76
2, 66304, Note_on_c, 0, 68, 66
2, 66304, Note_off_c, 0, 55, 0
2, 66304, Note_on_c, 0, 65, 77
2, 66304, Note_on_c, 0, 58, 78
2, 66560, Note_off_c, 0, 68, 0
2, 66560, Note_on_c, 0, 67, 66
2, 66560, Note_off_c, 0, 65, 0
2, 66560, Note_off_c, 0, 58, 0
2, 66560, Note_on_c, 0, 63, 76
2, 66560, Note_on_c, 0, 51, 65
2, 66816, Note_off_c, 0, 73, 0
2, 66816, Note_on_c, 0, 72, 77
2, 66816, Note_off_c, 0, 51, 0
2, 66816, Note_on_c, 0, 51, 71
2, 66944, Note_off_c, 0, 51, 0
2, 66944, Note_on_c, 0, 50, 74
2, 67072, Note_off_c, 0, 67, 0
2, 67072, Note_off_c, 0, 72, 0
2, 67072, Note_on_c, 0, 70, 82
2, 67072, Note_off_c, 0, 63, 0
2, 67072, Note_off_c, 0, 50, 0
2, 67072, Note_on_c, 0, 51, 78
2, 67328, Note_on_c, 0, 65, 65
2, 67328, Note_off_c, 0, 51, 0
2, 67328, Note_on_c, 0, 62, 76
2, 67328, Note_on_c, 0, 55, 79
2, 67584, Note_off_c, 0, 65, 0
2, 67584, Note_on_c, 0, 63, 67
2, 67584, Note_off_c, 0, 62, 0
2, 67584, Note_off_c, 0, 55, 0
2, 67584, Note_on_c, 0, 60, 77
2, 67584, Note_on_c, 0, 48, 73
2, 67840, Note_off_c, 0, 70, 0
2, 67840, Note_on_c, 0, 68, 73
2, 67840, Note_off_c, 0, 48, 0
2, 67840, Note_on_c, 0, 50, 80
2, 67968, Note_off_c, 0, 68, 0
2, 67968, Note_on_c, 0, 67, 80
2, 67968, Note_off_c, 0, 50, 0
2, 67968, Note_on_c, 0, 51, 77
2, 68096, Note_off_c, 0, 67, 0
2, 68096, Note_on_c, 0, 68, 88
2, 68096, Note_off_c, 0, 51, 0
2, 68096, Note_on_c, 0, 53, 79
2, 68352, Note_off_c, 0, 63, 0
2, 68352, Note_on_c, 0, 62, 70
2, 68352, Note_off_c, 0, 60, 0
2, 68352, Note_on_c, 0, 56, 77
2, 68480, Note_off_c, 0, 62, 0
2, 68480, Note_on_c, 0, 60, 74
2, 68608, Note_off_c, 0, 60, 0
2, 68608, Note_on_c, 0, 62, 80
2, 68608, Note_off_c, 0, 53, 0
2, 68608, Note_off_c, 0, 56, 0
2, 68608, Note_on_c, 0, 53, 77
2, 68608, Note_on_c, 0, 46, 70
2, 68864, Note_off_c, 0, 62, 0
2, 68864, Note_on_c, 0, 58, 73
2, 69120, Note_off_c, 0, 68, 0
2, 69120, Note_off_c, 0, 58, 0
2, 69120, Note_on_c, 0, 66, 78
2, 69120, Note_on_c, 0, 63, 84
2, 69120, Note_off_c, 0, 53, 0
2, 69120, Note_off_c, 0, 46, 0
2, 69120, Note_on_c, 0, 45, 71
2, 69376, Note_on_c, 0, 60, 75
2, 69632, Note_off_c, 0, 66, 0
2, 69632, Note_on_c, 0, 65, 80
2, 69632, Note_off_c, 0, 45, 0
2, 69632, Note_off_c, 0, 60, 0
2, 69632, Note_on_c, 0, 53, 77
2, 69632, Note_on_c, 0, 46, 83
2, 69888, Note_off_c, 0, 53, 0
2, 69888, Note_on_c, 0, 53, 79
2, 70016, Note_off_c, 0, 53, 0
2, 70016, Note_on_c, 0, 51, 83
2, 70144, Note_off_c, 0, 63, 0
2, 70144, Note_on_c, 0, 62, 70
2, 70144, Note_off_c, 0, 51, 0
2, 70144, Note_on_c, 0, 53, 85
2, 70400, Note_off_c, 0, 53, 0
2, 70400, Note_on_c, 0, 58, 91
2, 70656, Note_off_c, 0, 65, 0
2, 70656, Note_off_c, 0, 62, 0
2, 70656, Note_on_c, 0, 63, 78
2, 70656, Note_on_c, 0, 58, 67
2, 70656, Note_off_c, 0, 46, 0
2, 70656, Note_off_c, 0, 58, 0
2, 70656, Note_on_c, 0, 55, 84
2, 70656, Note_on_c, 0, 39, 69
2, 72192, Note_off_c, 0, 63, 0
2, 72192, Note_off_c, 0, 58, 0
2, 72192, Note_off_c, 0, 55, 0
2, 72192, Note_off_c, 0, 39, 0
2, 72193, End_track
0, 0, End_of_file
